<svg width="207" height="150" viewBox="0 0 207 150" fill="none" xmlns="http://www.w3.org/2000/svg">
<g clip-path="url(#clip0_276_10164)">
<path opacity="0.18" d="M166.317 147.805H142.413C141.877 147.805 141.442 148.239 141.442 148.775V149.03C141.442 149.566 141.877 150 142.413 150H166.317C166.853 150 167.287 149.566 167.287 149.03V148.775C167.287 148.239 166.853 147.805 166.317 147.805Z" fill="#1D2741"/>
<path opacity="0.18" d="M96.1527 1.3463C88.2554 3.78887 81.2805 8.48243 74.4948 13.2062C56.4549 25.7728 38.9015 39.0032 21.8346 52.8974C15.9941 57.6489 10.1209 62.5819 6.09276 68.9467C-1.08875 80.2899 -1.44417 94.9807 2.54108 107.798C6.52632 120.616 14.4086 131.851 22.9311 142.219C24.7738 144.46 26.7349 146.736 29.3564 147.974C31.9779 149.211 35.0482 149.277 37.9772 149.189C54.6921 148.684 71.0389 144.361 87.6353 142.383C113.397 139.3 139.448 141.878 165.384 142.635C175.273 142.92 185.802 142.768 194.138 137.432C202.474 132.096 207.246 121.685 205.844 111.887C204.627 103.349 199.275 95.9385 197.274 87.5496C194.657 76.5921 197.964 65.0296 196.462 53.8628C194.297 37.5916 181.978 24.1134 167.577 16.2538C155.77 9.80329 142.347 6.24404 129.174 3.8292C118.267 1.83279 107.161 -2.05918 96.1527 1.3463Z" fill="#4C7BF9"/>
<path d="M74.2148 101.472H118.34V135.789H74.2148V101.472Z" fill="#4C7BF9"/>
<path d="M74.2148 101.472H118.34V135.789H74.2148V101.472Z" fill="url(#paint0_linear_276_10164)"/>
<path d="M187.818 23.3671V110.979C187.818 114.164 186.553 117.219 184.301 119.471C182.049 121.723 178.994 122.988 175.809 122.988H24.123C20.9379 122.988 17.8832 121.723 15.6307 119.471C13.3782 117.219 12.1125 114.165 12.1118 110.979V23.3671C12.1118 21.7899 12.4225 20.2281 13.0262 18.771C13.6298 17.3138 14.5146 15.9899 15.63 14.8748C16.7453 13.7596 18.0695 12.8751 19.5267 12.2718C20.984 11.6684 22.5458 11.3581 24.123 11.3584H175.809C177.386 11.3581 178.948 11.6685 180.405 12.2718C181.862 12.8752 183.186 13.7597 184.302 14.8749C185.417 15.9901 186.301 17.314 186.905 18.7712C187.508 20.2283 187.818 21.79 187.818 23.3671Z" fill="#4C7BF9"/>
<path d="M187.818 23.3666V110.979C187.818 114.164 186.553 117.218 184.301 119.47C182.049 121.722 178.995 122.988 175.81 122.988H24.1233C21.4803 122.994 18.9097 122.124 16.8132 120.515C15.2029 118.419 14.3332 115.848 14.3404 113.205V25.6025C14.3404 22.4176 15.6056 19.3631 17.8576 17.1111C20.1097 14.859 23.1642 13.5938 26.349 13.5938H178.048C180.691 13.5861 183.262 14.4558 185.358 16.0666C186.961 18.1621 187.826 20.7285 187.818 23.3666Z" fill="url(#paint1_linear_276_10164)"/>
<path d="M187.818 101.472V110.98C187.818 114.165 186.553 117.219 184.301 119.471C182.049 121.723 178.994 122.988 175.809 122.988H24.123C22.5458 122.989 20.984 122.678 19.5267 122.075C18.0695 121.472 16.7453 120.587 15.63 119.472C14.5146 118.357 13.6298 117.033 13.0262 115.576C12.4225 114.119 12.1118 112.557 12.1118 110.98V101.472H187.818Z" fill="url(#paint2_linear_276_10164)"/>
<path opacity="0.33" d="M164.64 107.955C164.683 111.228 164.282 114.493 163.45 117.659C163.022 119.288 162.462 120.936 161.414 122.245C161.199 122.516 160.961 122.769 160.703 123.001H143.494C144.192 119.976 145.168 116.18 144.825 115.734C143.267 113.697 142.672 111.103 142.133 108.595C141.681 106.495 141.243 104.34 141.538 102.21C141.573 101.958 141.616 101.706 141.666 101.481C142.4 98.1189 147.903 97.4156 150.267 97.3828L152.284 101.481C152.284 103.463 160.814 96.2157 162.308 97.8063C163.165 98.7188 163.705 100.037 164.045 101.481C164.552 103.669 164.617 106.167 164.64 107.955Z" fill="url(#paint3_linear_276_10164)"/>
<path d="M146.927 105.459L144.235 99.6812C146.068 98.5087 148.121 97.7214 150.267 97.3672C150.475 97.309 150.696 97.3278 150.89 97.4201C151.015 97.5175 151.113 97.6462 151.172 97.7932C152.276 99.9459 153.38 102.101 154.265 104.347C154.679 105.396 155.044 106.553 154.709 107.624C154.298 108.94 152.98 109.721 151.765 110.372C147.916 112.451 148.084 107.954 146.927 105.459Z" fill="white"/>
<path opacity="0.09" d="M152.523 103.884C151.721 105.21 151.195 106.682 150.464 108.048C150.34 108.277 150.154 108.539 149.894 108.512C149.785 108.493 149.682 108.446 149.596 108.376C148.81 107.838 148.074 107.23 147.398 106.558C147.398 108.043 148.303 109.359 149.163 110.571C149.218 110.663 149.295 110.74 149.387 110.795C149.467 110.828 149.553 110.842 149.639 110.838C150.644 110.845 151.63 110.577 152.493 110.062C152.548 110.036 152.596 109.995 152.629 109.943C152.655 109.885 152.666 109.821 152.659 109.757C152.631 108.308 152.49 106.795 153.06 105.472C153.234 105.063 153.473 104.683 153.612 104.259C153.703 103.979 153.884 103.082 153.436 102.984C153.088 102.896 152.669 103.642 152.523 103.884Z" fill="url(#paint4_linear_276_10164)"/>
<path d="M133.837 136.673C133.839 137.06 133.767 137.444 133.626 137.805C133.398 138.399 132.996 138.91 132.471 139.27C131.947 139.63 131.325 139.822 130.689 139.821H61.8735C61.2375 139.821 60.6165 139.629 60.0922 139.269C59.568 138.909 59.1651 138.398 58.9369 137.805C58.7956 137.444 58.7237 137.06 58.7251 136.673C58.7248 136.259 58.806 135.85 58.9641 135.468C59.1222 135.085 59.3541 134.738 59.6465 134.446C59.9389 134.153 60.2861 133.921 60.6683 133.763C61.0504 133.605 61.4599 133.524 61.8735 133.524H130.689C131.102 133.524 131.512 133.606 131.894 133.764C132.276 133.922 132.623 134.154 132.915 134.447C133.207 134.739 133.439 135.086 133.598 135.468C133.756 135.85 133.837 136.259 133.837 136.673Z" fill="#4C7BF9"/>
<path d="M133.837 136.673C133.839 137.06 133.767 137.444 133.626 137.805C133.398 138.399 132.996 138.91 132.471 139.27C131.947 139.63 131.325 139.822 130.689 139.821H61.8735C61.2375 139.821 60.6165 139.629 60.0922 139.269C59.568 138.909 59.1651 138.398 58.9369 137.805C58.7956 137.444 58.7237 137.06 58.7251 136.673C58.7248 136.259 58.806 135.85 58.9641 135.468C59.1222 135.085 59.3541 134.738 59.6465 134.446C59.9389 134.153 60.2861 133.921 60.6683 133.763C61.0504 133.605 61.4599 133.524 61.8735 133.524H130.689C131.102 133.524 131.512 133.606 131.894 133.764C132.276 133.922 132.623 134.154 132.915 134.447C133.208 134.739 133.439 135.086 133.598 135.468C133.756 135.85 133.837 136.259 133.837 136.673Z" fill="url(#paint5_linear_276_10164)"/>
<path d="M133.625 137.805C133.398 138.399 132.995 138.91 132.471 139.271C131.946 139.631 131.325 139.823 130.689 139.822H61.8732C61.2372 139.822 60.6161 139.629 60.0919 139.269C59.5676 138.909 59.1648 138.399 58.9365 137.805C59.0925 137.393 59.3348 137.019 59.6474 136.709C59.9393 136.416 60.2862 136.184 60.6682 136.025C61.0502 135.867 61.4597 135.786 61.8732 135.786H130.689C131.325 135.786 131.946 135.979 132.47 136.34C132.995 136.7 133.397 137.211 133.625 137.805Z" fill="#4C7BF9"/>
<path d="M38.5894 58.995C38.5885 62.5139 39.9417 65.8982 42.3684 68.4465C44.7951 70.9947 48.1093 72.5115 51.624 72.6825V79.5085C46.2948 79.3414 41.2398 77.107 37.5292 73.2782C33.8186 69.4494 31.7437 64.3268 31.7437 58.995C31.7437 53.6632 33.8186 48.5406 37.5292 44.7118C41.2398 40.883 46.2948 38.6486 51.624 38.4814V45.3075C48.1093 45.4785 44.7951 46.9953 42.3684 49.5435C39.9417 52.0918 38.5885 55.4761 38.5894 58.995Z" fill="url(#paint6_linear_276_10164)"/>
<path d="M72.8184 58.995C72.8215 62.0029 72.162 64.9745 70.8868 67.6987C69.6116 70.4229 67.7521 72.8327 65.4403 74.757L61.0366 69.5442C63.2064 67.7447 64.7685 65.3199 65.51 62.6003C66.2516 59.8807 66.1365 56.9986 65.1804 54.3468C64.2244 51.695 62.4739 49.4025 60.1675 47.7817C57.8612 46.161 55.1111 45.2908 52.2923 45.2899C52.0704 45.2899 51.8511 45.2899 51.6318 45.3075V38.4814H52.2923C57.734 38.4814 62.953 40.6423 66.802 44.489C70.651 48.3356 72.8151 53.5533 72.8184 58.995Z" fill="url(#paint7_linear_276_10164)"/>
<path d="M65.4403 74.7568C61.7542 77.8415 57.0988 79.5283 52.2923 79.5209C52.0704 79.5209 51.8511 79.5209 51.6318 79.5083V72.6822C51.8511 72.6822 52.0704 72.6974 52.2923 72.6974C55.4861 72.7012 58.5803 71.5854 61.0366 69.5439L65.4403 74.7568Z" fill="url(#paint8_linear_276_10164)"/>
<path d="M88.2778 64.291H174.496V64.7926H88.2778V64.291Z" fill="url(#paint9_linear_276_10164)"/>
<path d="M87.335 46.2548C87.335 46.2548 103.737 43.8021 107.884 36.4517C112.03 29.1013 120.515 27.4024 127.293 41.352C134.071 55.3016 145.016 56.6224 148.971 51.9087C152.926 47.195 158.021 30.2306 164.996 29.8525C171.97 29.4744 174.486 43.0484 174.486 43.0484V60.2044H88.2777L87.335 46.2548Z" fill="#4C7BF9"/>
<path d="M88.9053 71.0791H115.048V72.9646H88.9053V71.0791Z" fill="url(#paint10_linear_276_10164)"/>
<path d="M88.9053 76.6318H115.048V78.5173H88.9053V76.6318Z" fill="url(#paint11_linear_276_10164)"/>
<path d="M88.9053 82.1855H115.048V84.071H88.9053V82.1855Z" fill="url(#paint12_linear_276_10164)"/>
<path d="M126.988 71.0791H130.255V72.9646H126.988V71.0791ZM126.988 76.6322H130.255V78.5177H126.988V76.6322ZM126.988 82.1854H130.255V84.0708H126.988V82.1854Z" fill="#4C7BF9"/>
<path d="M158.013 91.6078C158.013 91.6078 161.207 85.5758 163.425 86.0194C165.644 86.4631 167.862 88.7695 167.151 90.5441C166.44 92.3187 162.763 95.6032 162.649 97.1988C162.536 98.7944 159.876 98.0861 159.876 98.0861L159.433 94.7134C159.433 94.7134 157.835 93.2942 158.013 91.6078Z" fill="url(#paint13_linear_276_10164)"/>
<path d="M163.728 84.5979C164.383 84.3861 165.094 84.4794 165.765 84.6231C166.435 84.7668 167.164 84.9936 167.645 85.5053C168.328 86.2313 168.381 87.3329 168.782 88.2479C169.127 89.0394 169.747 89.7149 169.939 90.5568C170.085 91.2842 169.945 92.0397 169.548 92.6667C169.151 93.2866 168.605 93.7971 167.96 94.1514C167.396 94.4791 166.778 94.716 166.231 95.074C165.684 95.4319 165.26 95.8705 164.751 96.236C164.258 96.6351 163.638 96.8436 163.004 96.8233C162.761 96.8076 162.529 96.7109 162.347 96.5486C162.006 96.2209 162.024 95.6789 162.062 95.2076C162.112 94.6379 162.161 94.0674 162.208 93.496C162.554 93.5128 162.901 93.4675 163.231 93.3624C163.396 93.3071 163.543 93.2096 163.658 93.0795C163.773 92.9494 163.852 92.7914 163.887 92.6213C163.955 92.1172 163.441 91.671 162.926 91.613C162.412 91.555 161.918 91.7819 161.449 91.9987C161.253 91.5929 161.542 91.1265 161.832 90.7787C162.243 90.2907 162.686 89.8309 163.158 89.4024C163.326 89.2792 163.455 89.1115 163.531 88.9184C163.662 88.4546 163.196 88.0689 162.997 87.7034C162.849 87.3944 162.736 87.0697 162.662 86.7354C162.379 85.7725 162.707 84.9256 163.728 84.5979Z" fill="#3F3D56"/>
<path d="M166.357 116.336C166.231 117.17 166.072 118.022 165.648 118.753C164.388 120.918 161.431 121.241 158.926 121.188C157.713 121.165 156.38 121.049 155.356 120.472C154.963 120.26 154.619 119.966 154.348 119.61C153.662 118.69 153.592 117.46 153.625 116.313C153.662 115.126 153.776 113.911 153.793 112.716C153.816 111.236 153.688 109.787 153.083 108.453C152.752 107.722 154.207 105.093 154.512 104.35C155.003 103.157 153.478 103.901 153.97 102.709C154.512 101.395 155.087 100.037 156.15 99.104C157.799 97.6672 160.183 97.579 162.377 97.5664C162.729 97.5664 163.218 97.7277 163.133 98.0705C164.814 98.5318 165.711 101.247 166.049 102.953C166.922 107.363 167.026 111.89 166.357 116.336Z" fill="#4C7BF9"/>
<path d="M157.227 120.359C156.609 120.46 155.982 120.498 155.356 120.472C154.963 120.26 154.619 119.966 154.348 119.61C153.662 118.69 153.592 117.46 153.625 116.313C153.662 115.126 153.776 113.911 153.793 112.716L157.219 105.837C157.219 105.837 158.437 120.099 157.227 120.359Z" fill="url(#paint14_linear_276_10164)"/>
<path d="M161.384 121.077L163.904 120.359C163.904 120.359 164.603 121.087 163.904 123.948C163.206 126.81 162.987 146.705 162.987 146.705L160.718 146.693L158.702 128.206C158.702 128.206 154.311 143.91 154.043 146.705H151.359C151.359 146.705 152.297 121.662 154.356 119.61C154.356 119.61 155.574 120.205 161.384 121.077Z" fill="#3F3D56"/>
<path d="M153.151 104.796C153.151 104.796 152.19 111.899 150.963 111.788C149.735 111.678 147.618 107.387 147.618 107.387C147.138 107.568 146.728 107.897 146.447 108.326C146.166 108.755 146.029 109.262 146.055 109.774C146.055 111.678 147.95 113.462 147.95 113.462C147.95 113.462 153.418 117.367 154.973 114.256C156.528 111.146 157.569 103.657 157.569 103.657C157.569 103.657 159.873 97.859 157.552 98.2547C154.376 98.7715 153.151 104.796 153.151 104.796Z" fill="#4C7BF9"/>
<path d="M146.073 106.803C145.67 105.778 145.631 104.647 145.962 103.597C146.113 103.696 146.224 103.845 146.277 104.018L146.957 105.563C147.185 105.363 147.383 105.133 147.545 104.877C147.627 104.927 147.693 105 147.732 105.088C147.771 105.176 147.782 105.274 147.764 105.369C147.722 105.557 147.663 105.741 147.588 105.918C147.469 106.41 147.462 106.923 147.567 107.418C147.398 107.573 147.219 107.716 147.031 107.847C146.869 107.958 146.657 108.169 146.526 108.031C146.395 107.892 146.383 107.542 146.317 107.385C146.252 107.229 146.151 107 146.073 106.803Z" fill="url(#paint15_linear_276_10164)"/>
<path d="M154.021 146.705L153.688 149.377H147.699C147.699 149.377 148.1 147.504 151.359 146.705H154.021ZM163.08 146.705L163.292 149.377H156.758C156.758 149.377 157.156 147.504 160.418 146.705H163.08Z" fill="#3F3D56"/>
</g>
<defs>
<linearGradient id="paint0_linear_276_10164" x1="96.0064" y1="99.2459" x2="96.5181" y2="135.738" gradientUnits="userSpaceOnUse">
<stop offset="0.01"/>
<stop offset="0.97" stop-color="#3F3D56" stop-opacity="0"/>
</linearGradient>
<linearGradient id="paint1_linear_276_10164" x1="103.198" y1="106.215" x2="96.0543" y2="-21.8877" gradientUnits="userSpaceOnUse">
<stop offset="0.03" stop-color="white" stop-opacity="0"/>
<stop offset="1" stop-color="white"/>
</linearGradient>
<linearGradient id="paint2_linear_276_10164" x1="224.101" y1="-112.212" x2="79.2081" y2="144.596" gradientUnits="userSpaceOnUse">
<stop offset="0.01"/>
<stop offset="0.97" stop-color="#3F3D56" stop-opacity="0"/>
</linearGradient>
<linearGradient id="paint3_linear_276_10164" x1="141.442" y1="110.18" x2="164.645" y2="110.18" gradientUnits="userSpaceOnUse">
<stop stop-color="#183866"/>
<stop offset="1" stop-color="#1A7FC1"/>
</linearGradient>
<linearGradient id="paint4_linear_276_10164" x1="147.398" y1="106.901" x2="153.73" y2="106.901" gradientUnits="userSpaceOnUse">
<stop stop-color="#183866"/>
<stop offset="1" stop-color="#1A7FC1"/>
</linearGradient>
<linearGradient id="paint5_linear_276_10164" x1="96.5938" y1="126.194" x2="96.2308" y2="138.205" gradientUnits="userSpaceOnUse">
<stop offset="0.01"/>
<stop offset="0.97" stop-color="#3F3D56" stop-opacity="0"/>
</linearGradient>
<linearGradient id="paint6_linear_276_10164" x1="64.8931" y1="58.69" x2="-1.06388" y2="60.2049" gradientUnits="userSpaceOnUse">
<stop offset="0.03" stop-color="white" stop-opacity="0"/>
<stop offset="1" stop-color="white"/>
</linearGradient>
<linearGradient id="paint7_linear_276_10164" x1="80.7486" y1="33.3367" x2="71.0514" y2="43.5456" gradientUnits="userSpaceOnUse">
<stop offset="0.03" stop-color="white" stop-opacity="0"/>
<stop offset="1" stop-color="white"/>
</linearGradient>
<linearGradient id="paint8_linear_276_10164" x1="48.5994" y1="51.8838" x2="64.1648" y2="91.4363" gradientUnits="userSpaceOnUse">
<stop offset="0.03" stop-color="white" stop-opacity="0"/>
<stop offset="1" stop-color="white"/>
</linearGradient>
<linearGradient id="paint9_linear_276_10164" x1="114.854" y1="26.8104" x2="138.387" y2="80.5168" gradientUnits="userSpaceOnUse">
<stop stop-color="#68E1FD"/>
<stop offset="1" stop-color="white"/>
</linearGradient>
<linearGradient id="paint10_linear_276_10164" x1="101.368" y1="22.7647" x2="102.131" y2="84.5195" gradientUnits="userSpaceOnUse">
<stop offset="0.03" stop-color="white" stop-opacity="0"/>
<stop offset="1" stop-color="white"/>
</linearGradient>
<linearGradient id="paint11_linear_276_10164" x1="101.816" y1="64.6534" x2="102.583" y2="126.408" gradientUnits="userSpaceOnUse">
<stop offset="0.03" stop-color="white" stop-opacity="0"/>
<stop offset="0.45" stop-color="white" stop-opacity="0.45"/>
<stop offset="1" stop-color="white"/>
</linearGradient>
<linearGradient id="paint12_linear_276_10164" x1="101.748" y1="64.654" x2="102.515" y2="126.409" gradientUnits="userSpaceOnUse">
<stop offset="0.03" stop-color="white" stop-opacity="0"/>
<stop offset="1" stop-color="white"/>
</linearGradient>
<linearGradient id="paint13_linear_276_10164" x1="157.998" y1="92.1195" x2="167.287" y2="92.1195" gradientUnits="userSpaceOnUse">
<stop stop-color="#ECC4D7"/>
<stop offset="0.16" stop-color="#EDCBD5"/>
<stop offset="0.42" stop-color="#EFD4D1"/>
<stop offset="0.7" stop-color="#F2EAC9"/>
</linearGradient>
<linearGradient id="paint14_linear_276_10164" x1="141.049" y1="115.89" x2="159.594" y2="112.691" gradientUnits="userSpaceOnUse">
<stop offset="0.01"/>
<stop offset="0.97" stop-color="#3F3D56" stop-opacity="0"/>
</linearGradient>
<linearGradient id="paint15_linear_276_10164" x1="145.74" y1="105.838" x2="147.769" y2="105.838" gradientUnits="userSpaceOnUse">
<stop stop-color="#ECC4D7"/>
<stop offset="0.16" stop-color="#EDCBD5"/>
<stop offset="0.42" stop-color="#EFD4D1"/>
<stop offset="0.7" stop-color="#F2EAC9"/>
</linearGradient>
<clipPath id="clip0_276_10164">
<rect width="206.096" height="150" fill="white"/>
</clipPath>
</defs>
</svg>
