<svg width="76" height="64" viewBox="0 0 76 64" fill="none" xmlns="http://www.w3.org/2000/svg">
<path d="M62.1334 4.34458C62.1334 4.34458 61.2847 3.60995 61.1677 2.04188C61.0767 0.828168 62.1338 1.68105 62.1338 1.68105C62.1338 1.68105 62.0769 0.80619 62.7026 0.934778C63.3283 1.06337 63.6211 1.99776 63.6211 1.99776" fill="#0C0C0C"/>
<path d="M65.9609 1.25488C65.9609 1.25488 69.073 1.80097 67.6552 5.9727H66.811" fill="#0C0C0C"/>
<path d="M68.0171 59.8018C68.0171 59.8018 67.6468 61.7207 65.8498 61.8281C64.0528 61.9354 64.4424 63.3666 64.4424 63.3666H71.3096V59.9357L68.0171 59.8018Z" fill="#0D38D3"/>
<path d="M71.7754 24.7902C71.7754 24.7902 71.7539 24.2132 71.7584 25.522C71.7754 30.4038 71.6127 61.0267 71.6127 61.0267L67.1003 60.9888L64.3667 24.5918L71.7754 24.7902Z" fill="#262626"/>
<path d="M60.3115 59.8018C60.3115 59.8018 59.9412 61.7207 58.1442 61.8281C56.3471 61.9354 56.7368 63.3666 56.7368 63.3666H63.6041V59.9357L60.3115 59.8018Z" fill="#0D38D3"/>
<path d="M59.4386 25.1697C59.4386 25.1697 58.8748 41.8546 58.9335 42.6701L59.4635 60.9004L63.9015 60.9824L64.6171 42.0105C64.6171 42.0105 65.0862 36.7771 66.3507 31.9175C66.9976 29.4234 67.3869 26.8695 67.5125 24.2959L59.4386 25.1697Z" fill="#262626"/>
<path d="M65.2935 36.9991L64.9236 31.3398C64.9236 31.3398 64.5435 33.6926 64.5435 35.7204C64.5435 36.7117 64.7476 40.6362 64.7476 40.6362L65.2935 36.9991Z" fill="#0A0A0A"/>
<path d="M62.4556 10.31C62.4694 10.3081 62.6227 12.8515 65.5773 12.6297C67.6227 12.4765 68.3521 10.3063 68.3989 10.3063C68.1784 10.2595 67.9059 10.1883 67.7975 10.164C67.5615 10.1092 67.3477 9.98382 67.1846 9.80455C67.0215 9.62529 66.9169 9.40063 66.8846 9.16045C66.8249 8.79962 66.9263 6.95559 66.8951 6.59082L63.7553 7.29166C63.7992 8.06196 64.1062 9.84784 63.03 10.1639C62.8509 10.2162 62.658 10.2643 62.4556 10.31Z" fill="#E98862"/>
<path opacity="0.52" d="M63.7109 9.43472C63.7601 9.27621 63.7918 9.11277 63.8054 8.94735C63.8399 8.56995 63.8331 8.18991 63.7849 7.814C64.4231 7.72785 65.0243 7.46445 65.5202 7.05371C65.5785 7.26906 65.8991 8.21002 65.8103 8.41446C65.6425 8.80129 64.854 9.43472 63.7109 9.43472Z" fill="#0C0C0C"/>
<path d="M64.2686 8.81988C65.5119 8.79183 67.0435 8.11002 67.1772 6.43386L67.2979 4.92139C67.4317 3.24516 66.6597 1.81609 65.0814 1.69029C63.5032 1.56433 62.2151 2.82905 62.0813 4.50529L62.0279 5.17488C62.0136 5.40509 62.0149 5.63601 62.032 5.86604C62.073 6.47437 62.1368 7.39958 62.5044 8.04687C62.8516 8.65799 63.4742 8.83775 64.2686 8.81988Z" fill="#E98862"/>
<path opacity="0.52" d="M63.7978 7.24845C63.542 7.2429 63.2911 7.17731 63.0653 7.05696C63.0558 7.05215 63.0487 7.04379 63.0454 7.03372C63.0421 7.02365 63.043 7.01268 63.0478 7.00325C63.0526 6.99381 63.061 6.98666 63.071 6.98339C63.0811 6.98011 63.0921 6.98097 63.1015 6.98578C63.5888 7.23328 64.0464 7.23246 64.4248 6.98348C64.4324 6.97817 64.4403 6.9733 64.4485 6.96888C64.458 6.96424 64.469 6.96357 64.479 6.96702C64.489 6.97048 64.4973 6.97777 64.5019 6.98729C64.5066 6.99682 64.5072 7.0078 64.5038 7.01782C64.5003 7.02784 64.493 7.03608 64.4835 7.04072C64.4805 7.04236 64.4753 7.04572 64.4688 7.05024C64.2698 7.18159 64.0362 7.2506 63.7978 7.24845Z" fill="#0C0C0C"/>
<path opacity="0.52" d="M63.7844 7.62624C63.7381 7.626 63.6919 7.62181 63.6464 7.61369C63.6412 7.61279 63.6362 7.61088 63.6318 7.60806C63.6274 7.60525 63.6236 7.60159 63.6205 7.59729C63.6175 7.593 63.6154 7.58815 63.6142 7.58303C63.6131 7.57791 63.613 7.57261 63.6139 7.56744C63.6148 7.56227 63.6167 7.55733 63.6195 7.5529C63.6223 7.54847 63.626 7.54464 63.6303 7.54163C63.6346 7.53861 63.6394 7.53647 63.6445 7.53533C63.6497 7.53418 63.655 7.53406 63.6601 7.53497C63.9342 7.58286 64.0744 7.46518 64.0803 7.46009C64.0883 7.45311 64.0987 7.44958 64.1093 7.45028C64.1199 7.45098 64.1297 7.45585 64.1367 7.46383C64.1437 7.4718 64.1472 7.48221 64.1465 7.49279C64.1458 7.50336 64.141 7.51322 64.133 7.52021C64.0325 7.59478 63.9093 7.63225 63.7844 7.62624Z" fill="#0C0C0C"/>
<path d="M62.5495 5.53261C62.6572 5.53261 62.7445 5.4453 62.7445 5.33759C62.7445 5.22989 62.6572 5.14258 62.5495 5.14258C62.4418 5.14258 62.3545 5.22989 62.3545 5.33759C62.3545 5.4453 62.4418 5.53261 62.5495 5.53261Z" fill="#0C0C0C"/>
<path d="M64.5207 5.5453C64.6284 5.5453 64.7157 5.45799 64.7157 5.35029C64.7157 5.24258 64.6284 5.15527 64.5207 5.15527C64.413 5.15527 64.3257 5.24258 64.3257 5.35029C64.3257 5.45799 64.413 5.5453 64.5207 5.5453Z" fill="#0C0C0C"/>
<path d="M67.0384 6.93704C67.518 6.97533 67.9478 6.49329 67.986 6.01363C68.0242 5.53397 67.6566 5.23849 67.177 5.2002L66.9041 5.5019L66.626 6.90423L67.0384 6.93704Z" fill="#E98862"/>
<path d="M58.785 15.9093C58.8781 17.0026 59.3308 23.8238 59.4203 25.1706H71.7519C71.8216 23.956 72.1344 18.6447 72.3986 16.2695C72.6507 14.003 73.1455 12.8683 72.7828 12.1982C72.1903 11.103 70.5709 10.4702 69.4668 10.3207C68.7926 10.2295 67.7785 10.1641 67.7785 10.1641C67.7785 10.1641 67.6926 11.901 65.6452 11.9977C62.8582 12.1289 63.0443 10.1641 63.0305 10.1641C62.579 10.1641 59.9997 10.4499 59.3686 10.8239C57.6491 11.8422 58.5875 13.5923 58.785 15.9093Z" fill="#0D38D3"/>
<path d="M66.6129 6.13313C66.6129 6.13313 66.6099 3.74843 65.8998 3.55358C65.427 3.42385 64.2187 4.02595 63.1558 3.74843C62.6906 3.62698 62.2356 3.71366 62.1752 3.93311C62.1513 4.02004 61.9426 2.73416 62.7447 1.82265C63.3834 1.09696 65.3198 1.0097 66.1778 1.3192C68.5527 2.1761 67.2693 5.31084 67.2693 5.31084L67.1065 6.12206L66.6129 6.13313Z" fill="#0C0C0C"/>
<g opacity="0.52">
<path d="M63.5457 6.66883H63.5426C63.3881 6.65693 63.1301 6.61962 63.1389 6.50399C63.1464 6.4082 63.4884 5.3941 63.5274 5.27879C63.5308 5.26888 63.5379 5.2607 63.5473 5.25605C63.5567 5.25141 63.5676 5.25068 63.5775 5.25403C63.5874 5.25738 63.5956 5.26453 63.6002 5.27391C63.6049 5.28329 63.6056 5.29413 63.6022 5.30405C63.4504 5.75321 63.2227 6.44494 63.2176 6.51006C63.2307 6.5386 63.3886 6.57771 63.5487 6.5901C63.5588 6.59101 63.5681 6.59575 63.5748 6.60335C63.5815 6.61095 63.585 6.62083 63.5846 6.63094C63.5843 6.64106 63.58 6.65065 63.5728 6.65773C63.5655 6.66481 63.5559 6.66884 63.5457 6.66899V6.66883Z" fill="#0C0C0C"/>
</g>
<path d="M63.0977 4.49313C62.973 4.44157 62.8369 4.42386 62.7031 4.4418C62.6351 4.45035 62.5687 4.46918 62.5063 4.49764C62.4425 4.52635 62.3825 4.56293 62.3278 4.60655L62.3234 4.60983C62.3093 4.62076 62.2915 4.62574 62.2738 4.62369C62.2561 4.62165 62.2399 4.61275 62.2286 4.59889C62.2174 4.58504 62.212 4.56734 62.2137 4.54958C62.2153 4.53182 62.2239 4.51541 62.2375 4.50388C62.2981 4.44752 62.3656 4.39905 62.4383 4.35962C62.5121 4.31929 62.5915 4.29024 62.6739 4.27343C62.7565 4.25575 62.841 4.24946 62.9253 4.25474C63.012 4.25927 63.0976 4.27617 63.1795 4.30492C63.205 4.31412 63.2258 4.33301 63.2374 4.35748C63.249 4.38196 63.2505 4.41002 63.2415 4.43558C63.2325 4.46113 63.2138 4.48209 63.1894 4.4939C63.165 4.50571 63.137 4.50741 63.1114 4.49863C63.1089 4.49772 63.1064 4.49682 63.1041 4.49576L63.0977 4.49313Z" fill="#0C0C0C"/>
<path d="M64.243 4.32134C64.4056 4.26537 64.5803 4.25451 64.7486 4.28993C64.831 4.30672 64.9104 4.33577 64.9842 4.37612C65.0569 4.41555 65.1244 4.46405 65.185 4.52045C65.1984 4.53203 65.2068 4.54837 65.2083 4.56601C65.2099 4.58365 65.2046 4.60122 65.1934 4.61499C65.1823 4.62876 65.1662 4.63765 65.1487 4.6398C65.1311 4.64195 65.1133 4.63717 65.0992 4.62649L65.0947 4.62304C65.04 4.5794 64.98 4.54281 64.9162 4.51414C64.8538 4.48564 64.7874 4.46678 64.7194 4.45821C64.5856 4.44027 64.4495 4.45798 64.3247 4.50954L64.319 4.51209C64.2941 4.52326 64.2657 4.52406 64.2402 4.51431C64.2146 4.50457 64.194 4.48508 64.1828 4.46013C64.1717 4.43519 64.1709 4.40683 64.1806 4.38129C64.1903 4.35575 64.2098 4.33513 64.2348 4.32396C64.2375 4.32322 64.2402 4.32216 64.243 4.32134Z" fill="#0C0C0C"/>
<path d="M64.4093 1.94478C64.5536 1.42911 64.3866 0.9316 64.0363 0.833558C63.686 0.735515 63.285 1.07407 63.1407 1.58974C62.9964 2.10541 63.1634 2.60292 63.5137 2.70096C63.864 2.799 64.265 2.46045 64.4093 1.94478Z" fill="#0C0C0C"/>
<path d="M63.703 16.2007L62.3663 15.5819C62.2187 15.5105 61.9922 15.5172 61.923 15.6879C61.8922 15.7518 61.8839 15.8243 61.8995 15.8935C61.9152 15.9628 61.9538 16.0246 62.0091 16.0691C62.008 16.0704 62.0071 16.0718 62.0063 16.0733C62.0059 16.0744 62.0056 16.0756 62.0054 16.0769L61.778 15.9667C61.7361 15.9465 61.6903 15.9358 61.6437 15.9354C61.5972 15.935 61.5512 15.9449 61.5089 15.9645C61.4667 15.9841 61.4294 16.0128 61.3996 16.0485C61.3698 16.0843 61.3483 16.1262 61.3367 16.1713C61.3196 16.2434 61.328 16.3193 61.3604 16.386C61.3929 16.4528 61.4474 16.5062 61.5147 16.5373L61.6116 16.5842C61.6114 16.5878 61.612 16.5913 61.6132 16.5946C61.5412 16.5782 61.4658 16.5877 61.4001 16.6214C61.3344 16.6552 61.2827 16.711 61.2541 16.779C61.2248 16.8563 61.2259 16.9418 61.2573 17.0183C61.2886 17.0948 61.3478 17.1565 61.4229 17.191L61.6608 17.3058C61.6562 17.3066 61.6519 17.3084 61.6482 17.3112C61.6445 17.3139 61.6415 17.3175 61.6394 17.3217C61.6372 17.327 61.6365 17.3329 61.6376 17.3386C61.5707 17.3416 61.5065 17.3659 61.4545 17.4081C61.4024 17.4502 61.3653 17.5079 61.3484 17.5728C61.3313 17.645 61.3397 17.7209 61.3721 17.7876C61.4046 17.8543 61.4591 17.9078 61.5264 17.9389L63.5541 18.9209C63.8377 19.0582 64.156 19.1077 64.468 19.063C64.78 19.0183 65.0715 18.8815 65.3052 18.67L66.0576 17.9894L63.703 16.2007Z" fill="#E98862"/>
<g opacity="0.2">
<path d="M63.329 16.688C63.3256 16.6948 63.3197 16.7 63.3126 16.7025C63.3055 16.705 63.2976 16.7046 63.2908 16.7014L62.0196 16.111C62.0162 16.1094 62.0131 16.1071 62.0105 16.1043C62.008 16.1014 62.006 16.0982 62.0047 16.0946C62.0034 16.091 62.0028 16.0872 62.003 16.0834C62.0031 16.0796 62.0041 16.0758 62.0057 16.0724C62.0073 16.0689 62.0096 16.0658 62.0124 16.0633C62.0152 16.0607 62.0185 16.0587 62.0221 16.0574C62.0256 16.0561 62.0294 16.0555 62.0333 16.0557C62.0371 16.0559 62.0408 16.0568 62.0442 16.0584L63.3154 16.6484C63.3223 16.6517 63.3278 16.6576 63.3304 16.6648C63.333 16.672 63.3327 16.68 63.3295 16.687L63.329 16.688Z" fill="#0C0C0C"/>
</g>
<g opacity="0.2">
<path d="M63.0844 17.2557C63.081 17.2625 63.0752 17.2677 63.068 17.2702C63.0609 17.2727 63.0531 17.2724 63.0462 17.2692L61.6281 16.6107C61.6211 16.6074 61.6157 16.6015 61.6131 16.5943C61.6105 16.5871 61.6108 16.5791 61.614 16.5721C61.6174 16.5653 61.6233 16.5601 61.6305 16.5575C61.6376 16.5549 61.6455 16.5551 61.6525 16.558L63.0706 17.2166C63.0776 17.2198 63.083 17.2257 63.0856 17.2329C63.0883 17.2401 63.0879 17.2481 63.0847 17.2551L63.0844 17.2557Z" fill="#0C0C0C"/>
</g>
<g opacity="0.2">
<path d="M62.8229 17.8728C62.8195 17.8796 62.8137 17.8848 62.8065 17.8873C62.7994 17.8898 62.7915 17.8895 62.7847 17.8863L61.6534 17.361C61.65 17.3594 61.6469 17.3571 61.6443 17.3543C61.6417 17.3514 61.6398 17.3482 61.6385 17.3446C61.6372 17.341 61.6366 17.3372 61.6367 17.3334C61.6369 17.3296 61.6378 17.3258 61.6395 17.3224C61.6411 17.3189 61.6433 17.3158 61.6462 17.3133C61.649 17.3107 61.6523 17.3087 61.6559 17.3074C61.6594 17.3061 61.6632 17.3055 61.667 17.3057C61.6709 17.3059 61.6746 17.3068 61.678 17.3084L62.8093 17.8337C62.8162 17.8369 62.8216 17.8428 62.8242 17.85C62.8268 17.8573 62.8265 17.8652 62.8233 17.8722L62.8229 17.8728Z" fill="#0C0C0C"/>
</g>
<path d="M63.6206 19.5041L72.4165 23.8187C72.7889 23.9902 73.2022 24.0528 73.6087 23.9995C74.0152 23.9461 74.3984 23.7789 74.7139 23.5171C75.0294 23.2553 75.2645 22.9097 75.392 22.52C75.5195 22.1303 75.5342 21.7125 75.4344 21.3149L73.0857 12.8706C72.9454 12.3114 72.5887 11.8308 72.094 11.5345C71.5994 11.2383 71.0073 11.1506 70.4481 11.2909C69.2836 11.5831 68.6583 12.7639 68.9504 13.9285L70.7932 18.4943L65.1569 16.1312L63.6206 19.5041Z" fill="#0D38D3"/>
<path d="M60.4936 12.9664C60.4514 12.9135 60.3932 12.8756 60.3277 12.8585C60.2621 12.8414 60.1929 12.846 60.1302 12.8716C60.1297 12.8677 60.1283 12.864 60.1261 12.8607C60.1239 12.8575 60.1209 12.8548 60.1175 12.853C60.114 12.8512 60.1101 12.8502 60.1062 12.8502C60.1023 12.8502 60.0984 12.8512 60.095 12.853L60.266 12.6464C60.3185 12.5853 60.3466 12.5069 60.3446 12.4264C60.3427 12.3458 60.3109 12.2688 60.2555 12.2104C60.2016 12.1571 60.1303 12.1251 60.0547 12.1202C59.9791 12.1154 59.9042 12.138 59.844 12.184C59.844 12.1809 59.8411 12.1786 59.8399 12.1758L59.9098 12.0913C59.9578 12.0353 59.9852 11.9646 59.9873 11.891C59.9894 11.8173 59.9662 11.7451 59.9215 11.6865C59.8924 11.6499 59.8555 11.6202 59.8134 11.5997C59.7714 11.5792 59.7253 11.5683 59.6785 11.5679C59.6317 11.5674 59.5854 11.5774 59.543 11.5971C59.5005 11.6168 59.463 11.6457 59.4332 11.6817L59.2716 11.8769C59.2707 11.8759 59.2709 11.8744 59.2698 11.8735C59.2688 11.8726 59.2665 11.8727 59.2651 11.8718C59.2972 11.8083 59.3069 11.7358 59.2924 11.6661C59.2779 11.5964 59.2402 11.5337 59.1854 11.4883C59.0515 11.3618 58.8426 11.4499 58.7382 11.5762L57.751 12.7477L57.7794 12.6947L57.8964 12.2853C57.9201 12.2083 57.9143 12.1252 57.8802 12.0522C57.8461 11.9792 57.7861 11.9214 57.7118 11.8901C57.6711 11.8744 57.6276 11.8674 57.584 11.8695C57.5404 11.8716 57.4978 11.8827 57.4587 11.9021C57.4197 11.9216 57.3851 11.949 57.3572 11.9825C57.3293 12.0161 57.3087 12.0551 57.2967 12.097L56.7511 14.0062L56.6187 14.4697C56.5551 14.6921 56.5808 14.9305 56.6902 15.1342C56.7996 15.338 56.9842 15.491 57.2046 15.5609L57.3488 15.6065C57.6492 15.7017 57.9713 15.705 58.2736 15.616C58.5759 15.527 58.8448 15.3497 59.0457 15.1069L60.4819 13.3711C60.5299 13.3152 60.5573 13.2445 60.5594 13.1708C60.5616 13.0971 60.5383 13.025 60.4936 12.9664Z" fill="#E98862"/>
<g opacity="0.2">
<path d="M58.3222 12.9827C58.3281 12.9875 58.3356 12.9898 58.3431 12.9891C58.3507 12.9884 58.3576 12.9849 58.3626 12.9791L59.2728 11.9142C59.2756 11.9114 59.2777 11.908 59.279 11.9043C59.2804 11.9006 59.281 11.8967 59.2808 11.8928C59.2806 11.8888 59.2796 11.885 59.2778 11.8815C59.2761 11.8779 59.2737 11.8748 59.2707 11.8722C59.2677 11.8697 59.2642 11.8677 59.2605 11.8666C59.2567 11.8654 59.2527 11.865 59.2488 11.8654C59.2449 11.8658 59.2411 11.867 59.2377 11.8689C59.2342 11.8708 59.2312 11.8734 59.2288 11.8765L58.3185 12.9414C58.316 12.9443 58.3141 12.9477 58.313 12.9513C58.3118 12.9549 58.3113 12.9588 58.3116 12.9626C58.3119 12.9664 58.313 12.9701 58.3147 12.9735C58.3164 12.9769 58.3188 12.9799 58.3217 12.9824L58.3222 12.9827Z" fill="#0C0C0C"/>
</g>
<g opacity="0.2">
<path d="M58.7808 13.3978C58.7867 13.4026 58.7942 13.4048 58.8017 13.4042C58.8092 13.4035 58.8162 13.3999 58.8211 13.3942L59.8372 12.2058C59.8397 12.2029 59.8416 12.1995 59.8428 12.1959C59.844 12.1923 59.8444 12.1884 59.8441 12.1846C59.8438 12.1808 59.8428 12.1771 59.8411 12.1737C59.8393 12.1703 59.8369 12.1673 59.834 12.1648C59.8281 12.16 59.8205 12.1577 59.8129 12.1583C59.8053 12.1589 59.7982 12.1624 59.793 12.168L58.777 13.3564C58.7745 13.3593 58.7726 13.3626 58.7715 13.3663C58.7703 13.3699 58.7698 13.3737 58.7701 13.3775C58.7704 13.3813 58.7715 13.3851 58.7732 13.3885C58.7749 13.3919 58.7773 13.3949 58.7802 13.3974L58.7808 13.3978Z" fill="#0C0C0C"/>
</g>
<g opacity="0.2">
<path d="M59.2749 13.8492C59.2808 13.854 59.2883 13.8563 59.2958 13.8556C59.3034 13.8549 59.3104 13.8513 59.3153 13.8456L60.1258 12.8976C60.1285 12.8948 60.1306 12.8914 60.1319 12.8877C60.1333 12.884 60.1339 12.8801 60.1337 12.8762C60.1335 12.8722 60.1325 12.8684 60.1308 12.8649C60.129 12.8613 60.1266 12.8582 60.1236 12.8556C60.1206 12.8531 60.1171 12.8511 60.1134 12.85C60.1096 12.8488 60.1057 12.8484 60.1017 12.8488C60.0978 12.8492 60.094 12.8504 60.0906 12.8523C60.0871 12.8542 60.0841 12.8568 60.0817 12.8599L59.2712 13.8079C59.2687 13.8108 59.2668 13.8142 59.2656 13.8178C59.2644 13.8215 59.2639 13.8253 59.2643 13.8291C59.2646 13.8329 59.2656 13.8366 59.2674 13.84C59.2691 13.8434 59.2715 13.8465 59.2744 13.8489L59.2749 13.8492Z" fill="#0C0C0C"/>
</g>
<path d="M59.8442 15.0466L58.2259 22.3242C58.1339 22.8933 57.8196 23.4027 57.3521 23.7401C56.8846 24.0776 56.3021 24.2155 55.7329 24.1235C55.1637 24.0315 54.6544 23.7172 54.317 23.2497C53.9795 22.7821 53.8416 22.1997 53.9336 21.6305L56.1556 13.8555" fill="#0D38D3"/>
<path d="M13.4788 3.68833C13.4788 3.68833 14.3029 2.9537 14.4165 1.38563C14.5048 0.171918 13.4784 1.0248 13.4784 1.0248C13.4784 1.0248 13.5336 0.14994 12.9261 0.278528C12.3185 0.407116 12.0342 1.34151 12.0342 1.34151" fill="#0C0C0C"/>
<path d="M9.76221 0.598633C9.76221 0.598633 6.74035 1.14472 8.11706 5.31645H8.93677" fill="#0C0C0C"/>
<path d="M7.76582 59.1455C7.76582 59.1455 8.12535 61.0645 9.87027 61.1718C11.6152 61.2792 11.2369 62.7104 11.2369 62.7104H4.56878V59.2794L7.76582 59.1455Z" fill="#0D38D3"/>
<path d="M4.11618 24.1349C4.11618 24.1349 4.13712 23.558 4.13274 24.8667C4.11618 29.7486 4.27416 60.3714 4.27416 60.3714L8.65577 60.3335L11.3101 23.9365L4.11618 24.1349Z" fill="#262626"/>
<path d="M15.2478 59.1455C15.2478 59.1455 15.6073 61.0645 17.3523 61.1718C19.0972 61.2792 18.7188 62.7104 18.7188 62.7104H12.0507V59.2794L15.2478 59.1455Z" fill="#0D38D3"/>
<path d="M16.0952 24.5134C16.0952 24.5134 16.6426 41.1984 16.5857 42.0139L16.071 60.2442L11.7617 60.3262L11.0669 41.3542C11.0669 41.3542 10.6114 36.1209 9.38361 31.2613C8.75543 28.7672 8.37739 26.2132 8.25541 23.6396L16.0952 24.5134Z" fill="#262626"/>
<path d="M10.4104 36.3429L10.7696 30.6836C10.7696 30.6836 11.1387 33.0363 11.1387 35.0642C11.1387 36.0554 10.9405 39.9799 10.9405 39.9799L10.4104 36.3429Z" fill="#0A0A0A"/>
<path d="M13.1655 9.65272C13.1521 9.65092 13.0032 12.1942 10.1344 11.9725C8.14823 11.8193 7.44001 9.64912 7.39454 9.64912C7.60866 9.60229 7.87327 9.53111 7.97846 9.50675C8.20768 9.45196 8.41527 9.32659 8.57362 9.14733C8.73196 8.96806 8.83356 8.7434 8.8649 8.50322C8.92295 8.14239 8.82445 6.29836 8.85479 5.93359L11.9035 6.63443C11.8609 7.40473 11.5627 9.19061 12.6077 9.50667C12.7816 9.55899 12.9689 9.60705 13.1655 9.65272Z" fill="#E98862"/>
<path opacity="0.52" d="M11.9463 8.7775C11.8985 8.61898 11.8677 8.45554 11.8546 8.29012C11.821 7.91272 11.8277 7.53268 11.8745 7.15678C11.2548 7.07063 10.6711 6.80722 10.1895 6.39648C10.1329 6.61184 9.82154 7.55279 9.90778 7.75724C10.0707 8.14407 10.8364 8.7775 11.9463 8.7775Z" fill="#0C0C0C"/>
<path d="M11.4051 8.16265C10.1978 8.1346 8.71068 7.45279 8.58081 5.77664L8.46359 4.26417C8.33371 2.58793 9.08334 1.15886 10.6158 1.03306C12.1483 0.9071 13.399 2.17182 13.5289 3.84806L13.5808 4.51765C13.5947 4.74787 13.5934 4.97879 13.5768 5.20881C13.537 5.81715 13.4751 6.74236 13.1181 7.38964C12.781 8.00077 12.1764 8.18053 11.4051 8.16265Z" fill="#E98862"/>
<path opacity="0.52" d="M11.8622 6.59024C12.1106 6.5847 12.3543 6.5191 12.5735 6.39876C12.5827 6.39395 12.5896 6.38559 12.5928 6.37552C12.596 6.36544 12.5952 6.35448 12.5905 6.34504C12.5858 6.3356 12.5777 6.32846 12.5679 6.32518C12.5582 6.32191 12.5475 6.32277 12.5383 6.32757C12.0652 6.57507 11.6209 6.57425 11.2534 6.32528C11.2461 6.31997 11.2384 6.31509 11.2304 6.31068C11.2212 6.30604 11.2105 6.30537 11.2008 6.30882C11.1911 6.31227 11.1831 6.31957 11.1786 6.32909C11.174 6.33862 11.1734 6.3496 11.1767 6.35962C11.1801 6.36964 11.1872 6.37788 11.1964 6.38252C11.1994 6.38416 11.2044 6.38752 11.2108 6.39203C11.4039 6.52338 11.6308 6.5924 11.8622 6.59024Z" fill="#0C0C0C"/>
<path opacity="0.52" d="M11.8754 6.96901C11.9203 6.96878 11.9651 6.96458 12.0094 6.95647C12.0144 6.95556 12.0192 6.95365 12.0235 6.95084C12.0278 6.94802 12.0315 6.94436 12.0345 6.94007C12.0374 6.93577 12.0395 6.93093 12.0406 6.9258C12.0417 6.92068 12.0418 6.91538 12.0409 6.91022C12.04 6.90505 12.0382 6.90011 12.0355 6.89568C12.0327 6.89125 12.0292 6.88741 12.025 6.8844C12.0208 6.88138 12.0161 6.87924 12.0111 6.8781C12.0062 6.87696 12.001 6.87684 11.996 6.87774C11.7299 6.92563 11.5937 6.80795 11.588 6.80287C11.5803 6.79589 11.5701 6.79236 11.5599 6.79306C11.5496 6.79376 11.54 6.79863 11.5332 6.8066C11.5265 6.81457 11.523 6.82499 11.5237 6.83556C11.5244 6.84613 11.5291 6.856 11.5369 6.86298C11.6344 6.93755 11.754 6.97502 11.8754 6.96901Z" fill="#0C0C0C"/>
<path d="M13.0743 4.87538C12.9697 4.87538 12.885 4.78807 12.885 4.68037C12.885 4.57266 12.9697 4.48535 13.0743 4.48535C13.1789 4.48535 13.2637 4.57266 13.2637 4.68037C13.2637 4.78807 13.1789 4.87538 13.0743 4.87538Z" fill="#0C0C0C"/>
<path d="M11.1602 4.88808C11.0557 4.88808 10.9709 4.80076 10.9709 4.69306C10.9709 4.58536 11.0557 4.49805 11.1602 4.49805C11.2648 4.49805 11.3496 4.58536 11.3496 4.69306C11.3496 4.80076 11.2648 4.88808 11.1602 4.88808Z" fill="#0C0C0C"/>
<path d="M8.71576 6.27883C8.25008 6.31713 7.83274 5.83509 7.79564 5.35543C7.75853 4.87576 8.11551 4.58029 8.58118 4.54199L8.84611 4.8437L9.11621 6.24603L8.71576 6.27883Z" fill="#E98862"/>
<path d="M16.7305 15.253C16.6401 16.3464 16.2005 23.1676 16.1136 24.5143H4.1396C4.07192 23.2997 3.76821 17.9885 3.51173 15.6133C3.26687 13.3468 2.78646 12.212 3.13858 11.5419C3.71398 10.4468 5.28635 9.81395 6.35848 9.66445C7.01311 9.57325 7.99781 9.50781 7.99781 9.50781C7.99781 9.50781 8.08118 11.2447 10.0692 11.3414C12.7754 11.4726 12.5947 9.50781 12.6081 9.50781C13.0466 9.50781 15.5511 9.79361 16.1638 10.1676C17.8335 11.1859 16.9223 12.9361 16.7305 15.253Z" fill="#0D38D3"/>
<path d="M9.12932 5.47688C9.12932 5.47688 9.13227 3.09218 9.8217 2.89733C10.2808 2.7676 11.4541 3.3697 12.4862 3.09218C12.9378 2.97073 13.3797 3.05741 13.4383 3.27686C13.4616 3.36379 13.6641 2.07791 12.8853 1.1664C12.2651 0.44071 10.3849 0.353454 9.55184 0.662951C7.24577 1.51985 8.49197 4.65459 8.49197 4.65459L8.65004 5.46581L9.12932 5.47688Z" fill="#0C0C0C"/>
<g opacity="0.52">
<path d="M12.1077 6.0116H12.1107C12.2607 5.99971 12.5112 5.96239 12.5027 5.84676C12.4955 5.75098 12.1633 4.73687 12.1254 4.62157C12.1222 4.61165 12.1152 4.60347 12.1061 4.59882C12.097 4.59418 12.0865 4.59345 12.0769 4.5968C12.0672 4.60015 12.0593 4.6073 12.0548 4.61668C12.0503 4.62607 12.0496 4.63691 12.0528 4.64683C12.2003 5.09598 12.4213 5.78772 12.4263 5.85283C12.4135 5.88137 12.2602 5.92049 12.1048 5.93287C12.095 5.93378 12.0859 5.93852 12.0794 5.94612C12.0729 5.95372 12.0695 5.9636 12.0699 5.97372C12.0703 5.98383 12.0744 5.99342 12.0814 6.0005C12.0885 6.00758 12.0978 6.01161 12.1077 6.01176V6.0116Z" fill="#0C0C0C"/>
</g>
<path d="M12.5427 3.83688C12.6638 3.78532 12.7959 3.76761 12.9258 3.78555C12.9919 3.7941 13.0563 3.81293 13.1169 3.84139C13.1789 3.8701 13.2372 3.90668 13.2903 3.9503L13.2945 3.95358C13.3082 3.96451 13.3255 3.96949 13.3427 3.96744C13.3599 3.9654 13.3757 3.9565 13.3866 3.94264C13.3975 3.92879 13.4027 3.91109 13.4011 3.89333C13.3995 3.87557 13.3912 3.85916 13.378 3.84763C13.3191 3.79127 13.2536 3.7428 13.183 3.70337C13.1113 3.66304 13.0342 3.63399 12.9542 3.61718C12.874 3.5995 12.7919 3.59321 12.7101 3.59849C12.6259 3.60302 12.5428 3.61992 12.4633 3.64867C12.4385 3.65787 12.4183 3.67676 12.407 3.70123C12.3958 3.72571 12.3943 3.75377 12.4031 3.77933C12.4118 3.80488 12.43 3.82584 12.4536 3.83765C12.4773 3.84946 12.5046 3.85116 12.5294 3.84238C12.5318 3.84147 12.5342 3.84057 12.5364 3.83951L12.5427 3.83688Z" fill="#0C0C0C"/>
<path d="M11.4304 3.66509C11.2725 3.60912 11.1029 3.59826 10.9395 3.63368C10.8595 3.65047 10.7824 3.67952 10.7107 3.71987C10.6401 3.7593 10.5745 3.8078 10.5157 3.8642C10.5027 3.87578 10.4946 3.89212 10.493 3.90976C10.4915 3.9274 10.4967 3.94497 10.5075 3.95874C10.5183 3.97251 10.5339 3.9814 10.551 3.98355C10.5681 3.9857 10.5853 3.98092 10.599 3.97024L10.6034 3.96679C10.6565 3.92315 10.7147 3.88656 10.7767 3.85789C10.8373 3.82939 10.9018 3.81053 10.9678 3.80196C11.0977 3.78402 11.2299 3.80173 11.351 3.85329L11.3566 3.85584C11.3808 3.86701 11.4084 3.86781 11.4332 3.85806C11.458 3.84832 11.478 3.82883 11.4888 3.80388C11.4997 3.77894 11.5004 3.75058 11.491 3.72504C11.4815 3.6995 11.4626 3.67888 11.4384 3.66771C11.4357 3.66697 11.4331 3.66591 11.4304 3.66509Z" fill="#0C0C0C"/>
<path d="M11.2688 1.28853C11.1287 0.772861 11.2909 0.27535 11.631 0.177308C11.9712 0.0792654 12.3605 0.417818 12.5007 0.933487C12.6408 1.44916 12.4786 1.94667 12.1385 2.04471C11.7983 2.14275 11.409 1.8042 11.2688 1.28853Z" fill="#0C0C0C"/>
<path d="M12.4819 16.7081L16.4362 16.9618C16.5949 16.972 16.7517 16.9213 16.8762 16.8194C17.0007 16.7175 17.0842 16.5717 17.1104 16.4102L18.0874 10.4004C18.1022 10.3089 18.0983 10.2152 18.0758 10.1254C18.0532 10.0356 18.0126 9.9517 17.9566 9.87908C17.9006 9.80645 17.8304 9.74676 17.7505 9.70385C17.6707 9.66095 17.583 9.63579 17.4931 9.63001L13.5388 9.37628C13.38 9.36611 13.2233 9.41687 13.0988 9.51877C12.9742 9.62067 12.8908 9.76648 12.8646 9.92803L11.8878 15.9377C11.873 16.0292 11.8769 16.1228 11.8994 16.2126C11.9219 16.3024 11.9625 16.3863 12.0185 16.4589C12.0745 16.5316 12.1447 16.5913 12.2245 16.6342C12.3043 16.6771 12.392 16.7023 12.4819 16.7081Z" fill="#292A2E"/>
<path d="M11.9551 15.5444L13.253 14.9256C13.3963 14.8543 13.6163 14.861 13.6834 15.0317C13.7134 15.0956 13.7214 15.168 13.7062 15.2373C13.6911 15.3065 13.6535 15.3684 13.5998 15.4128C13.6009 15.4141 13.6018 15.4155 13.6026 15.417C13.6029 15.4182 13.6032 15.4194 13.6034 15.4206L13.8242 15.3105C13.8649 15.2902 13.9094 15.2795 13.9546 15.2791C13.9998 15.2787 14.0445 15.2887 14.0855 15.3082C14.1265 15.3278 14.1628 15.3565 14.1917 15.3923C14.2206 15.428 14.2415 15.4699 14.2528 15.515C14.2694 15.5872 14.2612 15.6631 14.2297 15.7298C14.1982 15.7965 14.1453 15.85 14.0799 15.8811L13.9858 15.928C13.986 15.9315 13.9854 15.935 13.9843 15.9383C14.0542 15.9219 14.1274 15.9315 14.1912 15.9652C14.255 15.9989 14.3052 16.0547 14.3329 16.1228C14.3614 16.2001 14.3603 16.2856 14.3299 16.3621C14.2994 16.4385 14.2419 16.5003 14.169 16.5348L13.9381 16.6496C13.9425 16.6504 13.9467 16.6522 13.9503 16.6549C13.9539 16.6577 13.9568 16.6613 13.9588 16.6654C13.961 16.6707 13.9616 16.6766 13.9605 16.6823C14.0255 16.6853 14.0878 16.7097 14.1384 16.7518C14.1889 16.794 14.225 16.8517 14.2414 16.9165C14.258 16.9887 14.2498 17.0646 14.2183 17.1313C14.1868 17.1981 14.1339 17.2515 14.0685 17.2827L12.0997 18.2646C11.8242 18.402 11.5152 18.4515 11.2123 18.4068C10.9093 18.3621 10.6263 18.2252 10.3993 18.0138L9.66873 17.3331L11.9551 15.5444Z" fill="#E98862"/>
<g opacity="0.2">
<path d="M12.3184 16.0327C12.3216 16.0395 12.3273 16.0447 12.3343 16.0472C12.3412 16.0497 12.3488 16.0493 12.3555 16.0461L13.5897 15.4557C13.5931 15.4541 13.5961 15.4518 13.5986 15.449C13.6011 15.4462 13.603 15.4429 13.6043 15.4393C13.6055 15.4357 13.6061 15.4319 13.6059 15.4281C13.6058 15.4243 13.6049 15.4206 13.6033 15.4171C13.6017 15.4137 13.5995 15.4106 13.5968 15.408C13.5941 15.4054 13.5909 15.4034 13.5874 15.4021C13.5839 15.4008 13.5802 15.4002 13.5765 15.4004C13.5728 15.4006 13.5692 15.4015 13.5658 15.4031L12.3316 15.9932C12.3248 15.9964 12.3195 16.0023 12.317 16.0095C12.3144 16.0168 12.3147 16.0247 12.3179 16.0317L12.3184 16.0327Z" fill="#0C0C0C"/>
</g>
<g opacity="0.2">
<path d="M12.556 16.6004C12.5592 16.6072 12.5649 16.6124 12.5719 16.6149C12.5788 16.6175 12.5864 16.6171 12.5931 16.6139L13.97 15.9554C13.9768 15.9521 13.982 15.9463 13.9846 15.939C13.9872 15.9318 13.9869 15.9239 13.9837 15.9169C13.9804 15.9101 13.9747 15.9048 13.9677 15.9022C13.9608 15.8996 13.9531 15.8998 13.9463 15.9028L12.5694 16.5613C12.5626 16.5645 12.5574 16.5704 12.5548 16.5776C12.5522 16.5849 12.5525 16.5928 12.5557 16.5998L12.556 16.6004Z" fill="#0C0C0C"/>
</g>
<g opacity="0.2">
<path d="M12.8097 17.2165C12.8129 17.2233 12.8186 17.2285 12.8256 17.2311C12.8325 17.2336 12.8401 17.2332 12.8468 17.2301L13.9452 16.7047C13.9485 16.7031 13.9516 16.7008 13.954 16.698C13.9565 16.6952 13.9585 16.6919 13.9597 16.6883C13.961 16.6847 13.9616 16.6809 13.9614 16.6771C13.9612 16.6733 13.9603 16.6696 13.9588 16.6661C13.9572 16.6627 13.955 16.6596 13.9523 16.657C13.9495 16.6544 13.9463 16.6524 13.9428 16.6512C13.9394 16.6499 13.9357 16.6493 13.932 16.6494C13.9283 16.6496 13.9247 16.6505 13.9213 16.6522L12.8229 17.1774C12.8161 17.1807 12.8109 17.1866 12.8084 17.1938C12.8058 17.201 12.8062 17.209 12.8093 17.216L12.8097 17.2165Z" fill="#0C0C0C"/>
</g>
<path d="M12.0347 18.8478L3.49385 23.1624C3.13225 23.3339 2.73092 23.3966 2.3362 23.3432C1.94148 23.2899 1.56946 23.1227 1.26307 22.8609C0.956688 22.5991 0.728426 22.2534 0.60464 21.8637C0.480853 21.4741 0.466588 21.0563 0.563489 20.6586L2.84408 12.2144C2.9803 11.6551 3.32666 11.1745 3.80696 10.8783C4.28726 10.582 4.86216 10.4944 5.4052 10.6347C6.53593 10.9269 7.14311 12.1077 6.85939 13.2723L5.07011 17.8381L10.5429 15.4749L12.0347 18.8478Z" fill="#0D38D3"/>
<path d="M15.0709 12.3101C15.1119 12.2572 15.1685 12.2194 15.2321 12.2023C15.2957 12.1852 15.363 12.1898 15.4238 12.2153C15.4243 12.2114 15.4256 12.2077 15.4278 12.2045C15.4299 12.2012 15.4328 12.1986 15.4362 12.1967C15.4395 12.1949 15.4433 12.194 15.4471 12.194C15.4509 12.194 15.4546 12.195 15.458 12.1968L15.292 11.9901C15.2409 11.9291 15.2137 11.8507 15.2156 11.7701C15.2175 11.6895 15.2483 11.6126 15.3022 11.5541C15.3545 11.5008 15.4237 11.4688 15.4971 11.464C15.5706 11.4591 15.6432 11.4818 15.7017 11.5278C15.7017 11.5247 15.7045 11.5224 15.7057 11.5196L15.6378 11.435C15.5912 11.3791 15.5646 11.3084 15.5626 11.2347C15.5605 11.161 15.583 11.0889 15.6264 11.0302C15.6547 10.9936 15.6906 10.964 15.7314 10.9435C15.7722 10.923 15.817 10.9121 15.8624 10.9116C15.9078 10.9112 15.9528 10.9211 15.994 10.9408C16.0352 10.9605 16.0716 10.9895 16.1006 11.0255L16.2575 11.2207C16.2584 11.2197 16.2582 11.2181 16.2592 11.2172C16.2603 11.2163 16.2624 11.2165 16.2639 11.2156C16.2326 11.1521 16.2232 11.0795 16.2373 11.0099C16.2513 10.9402 16.288 10.8775 16.3412 10.832C16.4712 10.7056 16.674 10.7936 16.7754 10.9199L17.734 12.0914L17.7064 12.0384L17.5928 11.6291C17.5698 11.552 17.5755 11.469 17.6086 11.3959C17.6417 11.3229 17.6999 11.2652 17.772 11.2339C17.8116 11.2182 17.8538 11.2112 17.8962 11.2132C17.9385 11.2153 17.9799 11.2264 18.0178 11.2459C18.0557 11.2654 18.0893 11.2927 18.1164 11.3263C18.1435 11.3598 18.1635 11.3988 18.1751 11.4408L18.7049 13.3499L18.8335 13.8135C18.8952 14.0359 18.8703 14.2742 18.764 14.478C18.6578 14.6817 18.4786 14.8348 18.2645 14.9046L18.1246 14.9503C17.8328 15.0455 17.5201 15.0488 17.2266 14.9597C16.933 14.8707 16.672 14.6934 16.4769 14.4506L15.0823 12.7148C15.0357 12.6589 15.0091 12.5882 15.007 12.5146C15.005 12.4409 15.0275 12.3687 15.0709 12.3101Z" fill="#E98862"/>
<g opacity="0.2">
<path d="M17.1796 12.3265C17.1739 12.3313 17.1666 12.3335 17.1593 12.3329C17.1519 12.3322 17.1452 12.3286 17.1404 12.3229L16.2565 11.258C16.2539 11.2551 16.2518 11.2518 16.2505 11.2481C16.2492 11.2444 16.2486 11.2404 16.2488 11.2365C16.249 11.2326 16.25 11.2287 16.2516 11.2252C16.2533 11.2217 16.2557 11.2185 16.2586 11.216C16.2615 11.2134 16.2649 11.2115 16.2685 11.2103C16.2722 11.2091 16.276 11.2087 16.2798 11.2091C16.2836 11.2095 16.2873 11.2107 16.2907 11.2126C16.294 11.2146 16.2969 11.2172 16.2993 11.2203L17.1831 12.2851C17.1856 12.288 17.1874 12.2914 17.1885 12.295C17.1897 12.2987 17.1901 12.3025 17.1899 12.3063C17.1896 12.3101 17.1886 12.3138 17.1869 12.3172C17.1852 12.3206 17.1829 12.3237 17.18 12.3261L17.1796 12.3265Z" fill="#0C0C0C"/>
</g>
<g opacity="0.2">
<path d="M16.7337 12.7415C16.728 12.7463 16.7207 12.7486 16.7134 12.7479C16.7061 12.7472 16.6993 12.7437 16.6945 12.7379L15.7079 11.5495C15.7055 11.5466 15.7036 11.5433 15.7025 11.5397C15.7013 11.536 15.7009 11.5322 15.7012 11.5284C15.7015 11.5246 15.7025 11.5209 15.7042 11.5175C15.7059 11.514 15.7082 11.511 15.711 11.5085C15.7168 11.5038 15.7241 11.5015 15.7315 11.502C15.7389 11.5026 15.7458 11.5061 15.7508 11.5117L16.7373 12.7001C16.7398 12.703 16.7416 12.7064 16.7427 12.71C16.7439 12.7136 16.7443 12.7175 16.7441 12.7213C16.7438 12.7251 16.7428 12.7288 16.7411 12.7322C16.7394 12.7356 16.7371 12.7386 16.7342 12.7411L16.7337 12.7415Z" fill="#0C0C0C"/>
</g>
<g opacity="0.2">
<path d="M16.2542 13.1929C16.2485 13.1977 16.2412 13.2 16.2339 13.1993C16.2266 13.1987 16.2198 13.1951 16.215 13.1893L15.428 12.2414C15.4254 12.2385 15.4234 12.2352 15.422 12.2315C15.4207 12.2278 15.4201 12.2238 15.4203 12.2199C15.4205 12.216 15.4215 12.2121 15.4232 12.2086C15.4249 12.2051 15.4272 12.2019 15.4301 12.1994C15.433 12.1968 15.4364 12.1949 15.4401 12.1937C15.4437 12.1925 15.4476 12.1921 15.4514 12.1925C15.4552 12.1929 15.4588 12.1941 15.4622 12.196C15.4655 12.198 15.4685 12.2006 15.4708 12.2037L16.2578 13.1517C16.2603 13.1546 16.2621 13.1579 16.2633 13.1616C16.2644 13.1652 16.2649 13.1691 16.2646 13.1729C16.2643 13.1767 16.2632 13.1804 16.2615 13.1838C16.2598 13.1872 16.2575 13.1902 16.2547 13.1927L16.2542 13.1929Z" fill="#0C0C0C"/>
</g>
<path d="M15.7015 14.3904L17.2729 21.6679C17.3622 22.2371 17.6674 22.7464 18.1214 23.0839C18.5754 23.4213 19.1409 23.5592 19.6936 23.4672C20.2463 23.3753 20.7408 23.0609 21.0685 22.5934C21.3961 22.1259 21.53 21.5435 21.4407 20.9743L19.2832 13.1992" fill="#0D38D3"/>
<path d="M30.5319 59.7236C30.5319 59.7236 30.9021 61.643 32.6989 61.7503C34.4957 61.8576 34.1063 63.2888 34.1063 63.2888H27.2393V59.8576L30.5319 59.7236Z" fill="#0D38D3"/>
<path d="M26.7739 24.713C26.7739 24.713 27.2875 24.1361 27.2829 25.4449C27.266 30.3267 26.9365 60.9495 26.9365 60.9495L31.4491 60.9116L34.1827 24.5146L26.7739 24.713Z" fill="#262626"/>
<path d="M38.2374 59.7236C38.2374 59.7236 38.6077 61.643 40.4047 61.75C42.2018 61.8569 41.8121 63.2885 41.8121 63.2885H34.9448V59.8576L38.2374 59.7236Z" fill="#0D38D3"/>
<path d="M39.1101 25.0916C39.1101 25.0916 39.6738 41.7765 39.6153 42.592L39.0852 60.8223L34.6472 60.9043L33.9316 41.9323C33.9316 41.9323 33.4625 36.699 32.198 31.8394C31.5511 29.3453 31.1618 26.7914 31.0361 24.2178L39.1101 25.0916Z" fill="#262626"/>
<path d="M33.2559 36.921L33.6259 31.2617C33.6259 31.2617 34.006 33.6144 34.006 35.6423C34.006 36.6335 33.8019 40.558 33.8019 40.558L33.2559 36.921Z" fill="#0A0A0A"/>
<path d="M26.7247 24.7118L26.71 24.7127C26.71 24.7127 26.7208 24.4281 26.7247 24.7118Z" fill="#333333"/>
<path d="M26.7438 24.7128L26.729 24.7136C26.729 24.7136 26.7397 24.4291 26.7438 24.7128Z" fill="#333333"/>
<path d="M51.4711 11.1704C51.4439 11.1166 51.4007 11.0725 51.3474 11.0443C51.2941 11.0161 51.2333 11.0051 51.1735 11.0129C51.174 11.0076 51.1729 11.0022 51.1702 10.9976C51.1675 10.994 51.1638 10.9913 51.1596 10.9896C51.1554 10.9878 51.1508 10.9873 51.1463 10.9879L51.3481 10.8432C51.4086 10.8019 51.452 10.7401 51.4703 10.6692C51.4887 10.5984 51.4808 10.5232 51.448 10.4578C51.4136 10.3941 51.3568 10.3455 51.2886 10.3214C51.2204 10.2973 51.1457 10.2994 51.079 10.3273C51.0795 10.3244 51.0776 10.3217 51.0772 10.3191L51.1601 10.2597C51.2168 10.2205 51.2582 10.163 51.2774 10.0967C51.2966 10.0305 51.2923 9.95969 51.2652 9.89627C51.2474 9.85687 51.2211 9.82192 51.1882 9.79392C51.1552 9.76592 51.1165 9.74557 51.0748 9.73435C51.033 9.72312 50.9893 9.7213 50.9468 9.72901C50.9042 9.73671 50.8639 9.75376 50.8288 9.77891L50.6374 9.91611C50.6369 9.91497 50.6374 9.91365 50.6367 9.91259C50.636 9.91152 50.6338 9.91111 50.6328 9.90996C50.6767 9.86053 50.7025 9.79764 50.706 9.73159C50.7095 9.66555 50.6904 9.60028 50.652 9.5465C50.5618 9.40119 50.3532 9.43095 50.2295 9.5196L49.1033 10.2974L49.3046 9.95859C49.345 9.89335 49.3593 9.81521 49.3444 9.73989C49.3295 9.66458 49.2867 9.5977 49.2245 9.55274C49.1915 9.53069 49.1544 9.51559 49.1154 9.50835C49.0764 9.50112 49.0364 9.50191 48.9977 9.51066C48.959 9.51942 48.9225 9.53596 48.8904 9.55928C48.8584 9.5826 48.8314 9.61221 48.8111 9.64631L47.7122 11.4966C47.5833 11.7136 47.544 11.9724 47.6029 12.2179C47.6617 12.4635 47.8139 12.6764 48.0272 12.8115C48.2746 12.9681 48.5632 13.0473 48.8559 13.0389C49.1486 13.0305 49.4321 12.9349 49.6701 12.7643L51.3707 11.5453C51.4272 11.5032 51.4679 11.4434 51.4861 11.3753C51.5043 11.3073 51.499 11.2351 51.4711 11.1704Z" fill="#E98862"/>
<g opacity="0.25">
<path d="M49.5228 10.6852C49.5269 10.6909 49.5331 10.6948 49.54 10.696C49.5469 10.6972 49.5541 10.6956 49.5598 10.6915L50.6299 9.95044C50.6328 9.94843 50.6353 9.94586 50.6372 9.94289C50.6391 9.93991 50.6404 9.93659 50.641 9.93311C50.6417 9.92963 50.6416 9.92606 50.6409 9.92261C50.6401 9.91915 50.6387 9.91587 50.6367 9.91297C50.6347 9.91006 50.6321 9.90758 50.6291 9.90566C50.6261 9.90374 50.6228 9.90243 50.6193 9.9018C50.6159 9.90117 50.6123 9.90123 50.6088 9.90198C50.6054 9.90272 50.6021 9.90414 50.5992 9.90616L49.5292 10.6473C49.5233 10.6513 49.5193 10.6576 49.518 10.6646C49.5167 10.6716 49.5183 10.6789 49.5224 10.6847L49.5228 10.6852Z" fill="#0C0C0C"/>
</g>
<g opacity="0.25">
<path d="M49.8372 11.1664C49.8413 11.1721 49.8476 11.1759 49.8545 11.1771C49.8614 11.1783 49.8685 11.1767 49.8743 11.1726L51.0685 10.3456C51.0743 10.3415 51.0783 10.3353 51.0796 10.3283C51.0808 10.3212 51.0793 10.314 51.0752 10.3081C51.071 10.3024 51.0648 10.2986 51.0578 10.2973C51.0509 10.2961 51.0437 10.2975 51.0377 10.3013L49.8436 11.1284C49.8377 11.1325 49.8337 11.1387 49.8325 11.1457C49.8312 11.1528 49.8328 11.16 49.8368 11.1659L49.8372 11.1664Z" fill="#0C0C0C"/>
</g>
<g opacity="0.25">
<path d="M50.1736 11.6888C50.1778 11.6945 50.184 11.6984 50.1909 11.6996C50.1978 11.7007 50.2049 11.6992 50.2107 11.6952L51.1633 11.0354C51.1692 11.0313 51.1732 11.0251 51.1745 11.0181C51.1758 11.011 51.1742 11.0038 51.1701 10.9979C51.166 10.9921 51.1598 10.988 51.1528 10.9868C51.1458 10.9855 51.1385 10.9871 51.1326 10.9911L50.18 11.6509C50.1742 11.6549 50.1702 11.6612 50.1689 11.6682C50.1676 11.6752 50.1692 11.6825 50.1732 11.6883L50.1736 11.6888Z" fill="#0C0C0C"/>
</g>
<path d="M47.0638 11.0752L43.8362 16.5723L39.8978 11.4065L36.627 14.3553L42.2125 21.5892L42.2491 21.6407C42.4727 21.9469 42.7705 22.1912 43.1146 22.3505C43.4587 22.5097 43.8376 22.5788 44.2158 22.5511C44.5939 22.5234 44.9588 22.3999 45.276 22.1922C45.5932 21.9846 45.8524 21.6996 46.029 21.364L50.6188 13.0522L47.0638 11.0752Z" fill="#0D38D3"/>
<path d="M43.5196 17.2323C43.5126 17.2324 43.5057 17.2306 43.4995 17.2271C43.4934 17.2237 43.4882 17.2188 43.4846 17.2128C43.4809 17.2068 43.4788 17.1999 43.4785 17.1929C43.4783 17.1859 43.4798 17.1789 43.483 17.1726L43.7995 16.5526C43.8045 16.5429 43.8131 16.5356 43.8234 16.5323C43.8338 16.5289 43.845 16.5298 43.8547 16.5348C43.8644 16.5397 43.8717 16.5483 43.875 16.5587C43.8784 16.569 43.8774 16.5803 43.8725 16.59L43.5561 17.21C43.5527 17.2167 43.5474 17.2223 43.541 17.2263C43.5346 17.2302 43.5272 17.2323 43.5196 17.2323Z" fill="#0C0C0C"/>
<path d="M39.6703 16.5411L39.5718 18.2773L39.6537 18.282L39.7522 16.5457L39.6703 16.5411Z" fill="#0C0C0C"/>
<path d="M29.27 3.97557C29.27 3.97557 29.1188 5.90817 28.6755 6.60482C27.3994 8.6104 27.0102 10.8788 28.2509 12.0806C29.4916 13.2823 37.4928 13.3919 38.1306 10.6676C38.6675 8.37447 37.5753 8.11467 37.3307 6.21463C37.2201 5.35503 36.9093 3.55176 36.9093 3.55176" fill="#0A0A0A"/>
<path d="M36.0937 10.2318C36.08 10.23 35.9266 12.7733 32.972 12.5517C30.9266 12.3984 30.1972 10.2282 30.1504 10.2282C30.3709 10.1814 30.7423 10.1134 30.8402 10.0609C31.1623 9.88789 31.5608 9.7078 31.6647 9.08233C31.7245 8.72149 31.623 6.87747 31.6542 6.5127L34.794 7.21353C34.7501 7.98383 34.4431 9.76971 35.5193 10.0859C35.6984 10.1381 35.8913 10.1861 36.0937 10.2318Z" fill="#E98862"/>
<path opacity="0.52" d="M34.838 9.3566C34.7888 9.19811 34.7571 9.0347 34.7435 8.86931C34.709 8.49188 34.7159 8.11181 34.764 7.73588C34.1259 7.64973 33.5247 7.38632 33.0287 6.97559C32.9704 7.19094 32.6498 8.1319 32.7386 8.33634C32.9064 8.72317 33.695 9.3566 34.838 9.3566Z" fill="#0C0C0C"/>
<path d="M34.4219 8.55633C33.1828 8.66171 31.5869 8.14809 31.2743 6.49589L30.9921 5.00507C30.6794 3.35286 31.2937 1.84925 32.8494 1.55484C34.405 1.26043 35.8213 2.37976 36.134 4.03196L36.2589 4.69196C36.379 5.32588 36.633 8.3682 34.4219 8.55633Z" fill="#E98862"/>
<path d="M35.8156 4.76405C35.9233 4.76405 36.0106 4.67674 36.0106 4.56904C36.0106 4.46133 35.9233 4.37402 35.8156 4.37402C35.7079 4.37402 35.6206 4.46133 35.6206 4.56904C35.6206 4.67674 35.7079 4.76405 35.8156 4.76405Z" fill="#0C0C0C"/>
<path d="M33.8176 5.03065C33.9253 5.03065 34.0126 4.94334 34.0126 4.83564C34.0126 4.72794 33.9253 4.64062 33.8176 4.64062C33.7099 4.64062 33.6226 4.72794 33.6226 4.83564C33.6226 4.94334 33.7099 5.03065 33.8176 5.03065Z" fill="#0C0C0C"/>
<path opacity="0.52" d="M34.9138 6.26539L34.9168 6.2649C34.9799 6.25253 35.0422 6.23668 35.1034 6.21742C35.1949 6.18797 35.3147 6.13934 35.2991 6.05668C35.2813 5.96253 34.8312 4.99558 34.7799 4.88569C34.7777 4.88089 34.7746 4.87657 34.7707 4.87299C34.7669 4.8694 34.7623 4.86661 34.7574 4.86478C34.7524 4.86295 34.7472 4.86212 34.7419 4.86234C34.7367 4.86255 34.7315 4.86381 34.7267 4.86603C34.7219 4.86826 34.7176 4.87141 34.7141 4.8753C34.7105 4.87919 34.7078 4.88375 34.706 4.88871C34.7042 4.89367 34.7034 4.89894 34.7037 4.90421C34.7039 4.90947 34.7052 4.91464 34.7075 4.9194C34.8995 5.33124 35.2086 6.00813 35.2205 6.07152C35.2103 6.10096 35.0584 6.15673 34.902 6.18633C34.8917 6.18813 34.8826 6.19386 34.8765 6.20232C34.8704 6.21077 34.8678 6.22127 34.8694 6.23158C34.8709 6.24189 34.8764 6.25119 34.8847 6.25749C34.893 6.26379 34.9035 6.2666 34.9138 6.26531V6.26539Z" fill="#0C0C0C"/>
<path opacity="0.52" d="M34.6835 6.97805C34.9372 6.94512 35.1797 6.85301 35.3913 6.70914C35.4002 6.70336 35.4064 6.69428 35.4086 6.68392C35.4107 6.67355 35.4087 6.66274 35.4029 6.65387C35.3971 6.645 35.3881 6.63878 35.3777 6.6366C35.3673 6.63442 35.3565 6.63644 35.3477 6.64222C34.8897 6.94057 34.4347 6.98887 34.0318 6.78164C34.0236 6.77722 34.0152 6.77322 34.0067 6.76967C33.9967 6.76607 33.9857 6.76657 33.9761 6.77108C33.9665 6.77559 33.9591 6.78372 33.9555 6.79369C33.9519 6.80367 33.9524 6.81466 33.9569 6.82426C33.9614 6.83385 33.9696 6.84127 33.9795 6.84487C33.9826 6.84618 33.9877 6.84897 33.9952 6.85307C34.2071 6.96229 34.4467 7.0058 34.6835 6.97805Z" fill="#0C0C0C"/>
<path d="M29.7475 5.52423L31.1421 5.26861C32.1982 4.84119 32.5176 3.01291 32.5176 3.01291C32.5176 3.01291 33.8004 4.26328 36.9093 3.55211C36.9093 3.55211 36.286 -0.783476 31.6931 0.476818C30.2121 0.88333 29.1492 2.37571 29.2816 4.37021C29.3746 5.76836 29.7475 5.52423 29.7475 5.52423Z" fill="#0A0A0A"/>
<path d="M31.4658 6.98055C30.9931 7.07002 30.5141 6.63677 30.4243 6.164C30.3345 5.69122 30.6688 5.35803 31.1415 5.26855L31.445 5.53918L31.8719 6.90362L31.4658 6.98055Z" fill="#E98862"/>
<path d="M35.0651 4.09568C35.203 4.00658 35.3623 3.95627 35.5263 3.95004C35.6071 3.94639 35.6879 3.95494 35.7661 3.97538C35.8436 3.99525 35.9182 4.02481 35.9883 4.06337C35.9981 4.06823 36.0057 4.0768 36.0093 4.08721C36.0129 4.09762 36.0122 4.10903 36.0074 4.11895C36.0026 4.12886 35.9941 4.13649 35.9838 4.14017C35.9734 4.14384 35.962 4.14327 35.952 4.13857L35.9491 4.13718C35.8843 4.10536 35.8158 4.0818 35.7451 4.06706C35.6753 4.05209 35.6036 4.04777 35.5325 4.05427C35.3915 4.06607 35.2561 4.11499 35.1401 4.19606L35.1363 4.19885C35.1296 4.20369 35.1221 4.20718 35.114 4.20911C35.106 4.21103 35.0977 4.21136 35.0896 4.21007C35.0814 4.20879 35.0736 4.20591 35.0666 4.2016C35.0596 4.1973 35.0535 4.19165 35.0486 4.18499C35.0438 4.17832 35.0403 4.17077 35.0384 4.16275C35.0364 4.15474 35.0361 4.14643 35.0374 4.13828C35.0387 4.13014 35.0416 4.12234 35.0459 4.11531C35.0502 4.10828 35.0558 4.10217 35.0625 4.09732L35.0651 4.09568Z" fill="#0C0C0C"/>
<path d="M33.8213 4.38742C33.6838 4.35372 33.5399 4.35703 33.4041 4.39701C33.3355 4.41664 33.2702 4.44653 33.2104 4.48566C33.1499 4.52506 33.0946 4.57189 33.0457 4.62507L33.0435 4.62729C33.0358 4.63496 33.0255 4.63935 33.0147 4.63955C33.0038 4.63974 32.9934 4.63572 32.9854 4.62834C32.9775 4.62095 32.9728 4.61078 32.9722 4.59996C32.9717 4.58914 32.9753 4.57854 32.9825 4.57037C33.0338 4.50909 33.0928 4.45456 33.1579 4.40808C33.2234 4.36075 33.2956 4.32356 33.3722 4.29778C33.5275 4.24442 33.6942 4.23377 33.855 4.26695C33.8713 4.27045 33.8856 4.28029 33.8946 4.2943C33.9037 4.30831 33.9068 4.32534 33.9033 4.34166C33.8998 4.35797 33.89 4.37222 33.876 4.38128C33.862 4.39034 33.8449 4.39346 33.8286 4.38996L33.8261 4.3893L33.8213 4.38742Z" fill="#0C0C0C"/>
<path opacity="0.52" d="M34.7373 7.35364C34.7833 7.34839 34.8287 7.33925 34.8732 7.32633C34.8833 7.3234 34.892 7.31655 34.8971 7.30728C34.9022 7.298 34.9035 7.28707 34.9005 7.27688C34.8976 7.26669 34.8908 7.25808 34.8815 7.25294C34.8722 7.2478 34.8613 7.24656 34.8511 7.24949C34.5837 7.32649 34.4316 7.22488 34.4253 7.22013C34.4166 7.21404 34.4058 7.21165 34.3954 7.2135C34.3849 7.21535 34.3756 7.22127 34.3695 7.22997C34.3635 7.23867 34.3611 7.24943 34.3629 7.25989C34.3648 7.27035 34.3707 7.27965 34.3794 7.28574C34.4873 7.34906 34.6138 7.37305 34.7373 7.35364Z" fill="#0C0C0C"/>
<path d="M31.1452 5.25105L31.1313 5.21243C32.8982 4.57818 32.4661 2.84429 32.4616 2.82682L32.5012 2.81641C32.5059 2.8342 32.9478 4.60393 31.1452 5.25105Z" fill="#0C0C0C"/>
<path opacity="0.1" d="M33.6537 6.37993C33.8576 6.35798 34.0099 6.21891 33.9938 6.06931C33.9777 5.91971 33.7993 5.81623 33.5953 5.83818C33.3914 5.86013 33.2391 5.99921 33.2552 6.14881C33.2713 6.29841 33.4497 6.40189 33.6537 6.37993Z" fill="#0C0C0C"/>
<path opacity="0.1" d="M35.819 5.81487C35.8354 5.96429 36.0139 6.06762 36.2179 6.04597C36.2532 6.04212 36.2879 6.03464 36.3216 6.02366C36.3331 5.84587 36.3357 5.6748 36.3323 5.51628C36.2759 5.50149 36.2172 5.49737 36.1593 5.50414C35.9553 5.52571 35.8031 5.6648 35.819 5.81487Z" fill="#0C0C0C"/>
<path d="M39.7644 15.8311C39.6713 16.9245 39.2186 23.7457 39.1292 25.0924H27.2896C27.2199 23.8778 26.415 18.5666 26.1509 16.1914C25.8987 13.9249 25.404 12.7901 25.7666 12.1201C26.3592 11.0249 27.9785 10.3921 29.0827 10.2426C29.7569 10.1514 30.771 10.0859 30.771 10.0859C30.771 10.0859 30.8568 11.8229 32.9042 11.9195C35.6912 12.0508 35.5052 10.0859 35.519 10.0859C35.9705 10.0859 38.5498 10.3717 39.1808 10.7458C40.9001 11.7641 39.962 13.5146 39.7644 15.8311Z" fill="#0D38D3"/>
<path d="M40.1216 20.5346C40.1258 20.6076 40.1034 20.6797 40.0587 20.7375C40.0139 20.7954 39.9498 20.8351 39.878 20.8495L39.6361 20.9028C39.6404 20.9042 39.6443 20.9067 39.6475 20.9099C39.6506 20.9132 39.6529 20.9172 39.6541 20.9216C39.6547 20.9268 39.6536 20.932 39.6509 20.9364C39.709 20.9527 39.7606 20.9868 39.7986 21.0338C39.8365 21.0808 39.8588 21.1385 39.8624 21.1988C39.8628 21.2691 39.8394 21.3374 39.7961 21.3928C39.7528 21.4482 39.6921 21.4873 39.6238 21.5039L37.581 21.9574C37.4766 21.9809 37.3698 21.9927 37.2628 21.9926C37.0244 21.9926 36.7895 21.9346 36.5785 21.8236C36.3675 21.7126 36.1866 21.5519 36.0516 21.3554C35.9083 21.1476 35.8518 20.892 35.8941 20.6432C35.9363 20.3943 36.074 20.1717 36.2779 20.0228L38.0156 18.7525C38.0539 18.7245 38.0983 18.7062 38.1452 18.6992L37.9853 19.4758L38.0279 19.466L38.037 19.4644L39.3696 19.1929C39.518 19.1601 39.7214 19.2142 39.7476 19.3832C39.7617 19.4478 39.7535 19.5154 39.7243 19.5748C39.6951 19.6342 39.6467 19.682 39.5869 19.7104C39.5877 19.7112 39.5894 19.712 39.5894 19.7137C39.5894 19.7153 39.5885 19.7161 39.5885 19.7178L39.819 19.6669C39.8611 19.6576 39.9049 19.6577 39.947 19.6673C39.9891 19.6768 40.0285 19.6956 40.0625 19.7223C40.0965 19.749 40.1241 19.7829 40.1434 19.8215C40.1627 19.8601 40.1732 19.9026 40.1741 19.9457C40.1741 20.0147 40.1502 20.0815 40.1066 20.1348C40.0629 20.1882 40.0022 20.2248 39.9346 20.2385L39.8354 20.2606C39.8346 20.2639 39.8354 20.2672 39.8337 20.2697C39.906 20.2702 39.9756 20.2976 40.0288 20.3466C40.082 20.3955 40.1151 20.4625 40.1216 20.5346Z" fill="#E98862"/>
<g opacity="0.25">
<path d="M38.2619 19.9868C38.2635 19.9937 38.2677 19.9997 38.2736 20.0035C38.2795 20.0073 38.2867 20.0086 38.2936 20.0072L39.5686 19.7457C39.5721 19.745 39.5754 19.7436 39.5783 19.7416C39.5813 19.7396 39.5838 19.7371 39.5857 19.7341C39.5877 19.7312 39.589 19.7279 39.5897 19.7244C39.5903 19.7209 39.5903 19.7173 39.5896 19.7139C39.5889 19.7104 39.5875 19.7071 39.5855 19.7042C39.5835 19.7013 39.581 19.6988 39.5781 19.6968C39.5751 19.6949 39.5718 19.6935 39.5683 19.6929C39.5649 19.6922 39.5613 19.6922 39.5578 19.6929L38.2828 19.9544C38.2758 19.9558 38.2696 19.96 38.2657 19.9659C38.2618 19.9719 38.2603 19.9792 38.2618 19.9862L38.2619 19.9868Z" fill="#0C0C0C"/>
</g>
<g opacity="0.25">
<path d="M38.3617 20.5522C38.3633 20.559 38.3675 20.565 38.3734 20.5688C38.3793 20.5726 38.3865 20.5739 38.3934 20.5725L39.8164 20.2807C39.8234 20.2793 39.8295 20.2751 39.8334 20.2692C39.8373 20.2632 39.8388 20.2559 39.8374 20.2489C39.8357 20.242 39.8315 20.2361 39.8256 20.2322C39.8197 20.2283 39.8125 20.2268 39.8055 20.2279L38.3824 20.5198C38.3789 20.5205 38.3756 20.5219 38.3727 20.5239C38.3698 20.5258 38.3673 20.5284 38.3653 20.5313C38.3634 20.5343 38.362 20.5376 38.3613 20.541C38.3607 20.5445 38.3607 20.5481 38.3614 20.5515L38.3617 20.5522Z" fill="#0C0C0C"/>
</g>
<g opacity="0.25">
<path d="M38.4665 21.1652C38.4681 21.172 38.4723 21.178 38.4782 21.1818C38.4841 21.1856 38.4913 21.1869 38.4982 21.1855L39.6333 20.9527C39.6367 20.952 39.64 20.9506 39.6429 20.9486C39.6459 20.9466 39.6484 20.9441 39.6503 20.9411C39.6523 20.9382 39.6536 20.9349 39.6543 20.9314C39.6549 20.9279 39.6549 20.9244 39.6542 20.9209C39.6535 20.9175 39.6521 20.9142 39.6501 20.9112C39.6481 20.9083 39.6456 20.9058 39.6427 20.9039C39.6397 20.9019 39.6364 20.9006 39.6329 20.8999C39.6295 20.8992 39.6259 20.8993 39.6224 20.9L38.4874 21.1327C38.4804 21.1341 38.4742 21.1383 38.4703 21.1443C38.4663 21.1502 38.4649 21.1575 38.4664 21.1645L38.4665 21.1652Z" fill="#0C0C0C"/>
</g>
<path d="M37.4546 22.7667L26.3717 24.7696C26.0259 24.8071 25.676 24.7641 25.3497 24.6437C25.0233 24.5234 24.7292 24.3291 24.4906 24.0761C24.2519 23.823 24.0751 23.5181 23.9741 23.1853C23.873 22.8524 23.8504 22.5007 23.9082 22.1577L25.4592 12.9354C25.5081 12.6436 25.614 12.3643 25.7708 12.1135C25.9276 11.8627 26.1324 11.6452 26.3733 11.4736C26.6142 11.3019 26.8866 11.1794 27.1749 11.113C27.4631 11.0467 27.7617 11.0378 28.0534 11.0869C28.3451 11.1359 28.6243 11.242 28.875 11.3991C29.1257 11.5561 29.343 11.761 29.5145 12.002C29.686 12.2431 29.8083 12.5156 29.8744 12.8039C29.9405 13.0922 29.9492 13.3908 29.8999 13.6824L28.842 20.0311L36.9674 19.0106L37.4546 22.7667Z" fill="#0D38D3"/>
<path d="M26.3715 24.8098C26.3612 24.8097 26.3514 24.8059 26.3439 24.799C26.3363 24.7921 26.3316 24.7826 26.3307 24.7724C26.3298 24.7622 26.3328 24.752 26.339 24.7439C26.3452 24.7358 26.3542 24.7302 26.3643 24.7284L37.4088 22.7325L36.9319 19.0556L28.847 20.071C28.8406 20.0718 28.8342 20.0711 28.8282 20.069C28.8221 20.0669 28.8167 20.0634 28.8123 20.0587C28.8078 20.0541 28.8045 20.0485 28.8027 20.0424C28.8008 20.0363 28.8003 20.0299 28.8014 20.0236L29.4738 15.966C29.4747 15.9606 29.4765 15.9555 29.4794 15.9509C29.4822 15.9463 29.4859 15.9423 29.4903 15.9392C29.4947 15.9361 29.4997 15.9338 29.5049 15.9326C29.5102 15.9314 29.5157 15.9313 29.521 15.9323C29.5263 15.9331 29.5314 15.9351 29.536 15.9379C29.5405 15.9407 29.5445 15.9445 29.5477 15.9488C29.5508 15.9532 29.553 15.9582 29.5543 15.9634C29.5555 15.9687 29.5557 15.9741 29.5548 15.9794L28.8912 19.9827L36.962 18.9691C36.9728 18.9678 36.9837 18.9707 36.9922 18.9774C37.0008 18.984 37.0064 18.9938 37.0078 19.0045L37.4951 22.7605C37.4964 22.7709 37.4937 22.7815 37.4875 22.7899C37.4813 22.7984 37.4721 22.8042 37.4617 22.8061L26.3789 24.8091C26.3764 24.8095 26.374 24.8098 26.3715 24.8098Z" fill="#0C0C0C"/>
<path d="M28.8355 19.9904L28.1226 20.1045L28.1355 20.1855L28.8485 20.0714L28.8355 19.9904Z" fill="#0C0C0C"/>
</svg>
