<svg width="150" height="135" viewBox="0 0 150 135" fill="none" xmlns="http://www.w3.org/2000/svg">
<g clip-path="url(#clip0_280_11274)">
<path d="M146.887 90.2897C146.912 106.082 141.677 121.432 132.008 133.918H18.9833C9.31428 121.432 4.07893 106.082 4.1036 90.2897C4.1036 50.8607 36.068 18.8994 75.497 18.8994C114.926 18.8994 146.887 50.8617 146.887 90.2897Z" fill="white"/>
<path opacity="0.1" d="M146.887 90.2897C146.912 106.082 141.677 121.432 132.008 133.918H18.9833C9.31428 121.432 4.07893 106.082 4.1036 90.2897C4.1036 50.8607 36.068 18.8994 75.497 18.8994C114.926 18.8994 146.887 50.8617 146.887 90.2897Z" fill="#124AF6"/>
<path d="M110.767 134.148H80.7379L78.936 110.182L109.691 111.265C109.691 111.265 110.063 108.47 110.082 113.767C110.094 117.442 110.861 124.726 110.767 134.148Z" fill="#262626"/>
<path d="M91.6573 108.805C91.6295 109.375 91.5984 109.949 91.5612 110.52C91.0828 118.469 89.9834 126.37 88.273 134.148H58.2603C58.6509 121.979 58.9767 112.34 58.9767 112.34L78.9362 110.182L80.1331 110.051L91.6573 108.805Z" fill="#262626"/>
<path d="M98.8959 27.5912C98.8959 27.5912 99.2364 35.4299 100.93 38.3106C105.809 46.6035 107.063 55.834 101.875 60.5203C96.6869 65.2065 64.3061 64.5196 62.1104 53.4118C60.262 44.06 64.717 43.1626 65.9739 35.5129C66.5427 32.0517 68.0544 24.8008 68.0544 24.8008" fill="#0A0A0A"/>
<path d="M71.1895 52.191C71.2452 52.1836 71.8656 62.4778 83.8244 61.5805C92.1037 60.9601 95.0556 52.1763 95.2452 52.1763C94.3525 51.9867 92.8494 51.7107 92.453 51.4991C91.1494 50.7986 89.5364 50.0699 89.1161 47.5382C88.8739 46.0789 89.2847 38.6141 89.1583 37.1377L76.45 39.9742C76.6275 43.0924 77.8705 50.3205 73.5145 51.6007C72.7897 51.8115 72.0091 52.0056 71.1895 52.191Z" fill="#E98862"/>
<path opacity="0.52" d="M76.272 48.646C76.4711 48.0045 76.5993 47.3431 76.6543 46.6737C76.794 45.1461 76.7662 43.6077 76.5713 42.0862C79.1543 41.7376 81.5877 40.6714 83.5949 39.0088C83.8305 39.8803 85.1286 43.6882 84.7693 44.5165C84.0901 46.0821 80.8985 48.646 76.272 48.646Z" fill="#0C0C0C"/>
<path d="M77.4102 45.3925C82.408 45.9948 88.9357 44.1411 90.4335 37.5016L91.785 31.5111C93.2828 24.8719 91.0099 18.703 84.7587 17.2921C78.5076 15.8817 72.6208 20.21 71.1229 26.85L70.5246 29.5021C69.9501 32.0492 68.4933 44.3197 77.4102 45.3925Z" fill="#E98862"/>
<path d="M76.2151 38.0577C77.1746 38.0757 78.1165 38.319 78.9647 38.7679C78.9989 38.7864 79.0247 38.8176 79.0363 38.8548C79.048 38.892 79.0447 38.9323 79.0271 38.9671C79.0096 39.0019 78.9791 39.0285 78.9423 39.0412C78.9054 39.0539 78.8651 39.0518 78.8298 39.0352C76.9999 38.1124 75.2842 38.1203 73.8683 39.058C73.8397 39.0778 73.8101 39.0962 73.7796 39.113C73.7443 39.1278 73.7046 39.1286 73.6688 39.1151C73.633 39.1016 73.6037 39.0749 73.5869 39.0405C73.5701 39.006 73.5672 38.9665 73.5787 38.93C73.5902 38.8934 73.6152 38.8627 73.6486 38.8441C73.6599 38.8378 73.6785 38.8252 73.7042 38.8082C74.4478 38.3138 75.3221 38.0525 76.2151 38.0577Z" fill="#0C0C0C"/>
<path d="M75.9711 36.0249H75.9585C75.7016 35.9858 75.447 35.9325 75.196 35.8654C74.8207 35.7625 74.3279 35.5865 74.3764 35.2498C74.4319 34.8659 76.0824 30.8767 76.2704 30.4232C76.2781 30.403 76.2899 30.3846 76.3048 30.369C76.3198 30.3534 76.3378 30.341 76.3577 30.3324C76.3775 30.3239 76.3989 30.3195 76.4205 30.3193C76.4422 30.3192 76.4636 30.3234 76.4836 30.3317C76.5035 30.34 76.5216 30.3522 76.5368 30.3676C76.552 30.383 76.5639 30.4013 76.5719 30.4214C76.5799 30.4415 76.5837 30.463 76.5833 30.4846C76.5828 30.5063 76.578 30.5276 76.5692 30.5473C75.865 32.246 74.7338 35.0377 74.6966 35.2961C74.7435 35.4129 75.3672 35.6122 76.0059 35.7046C76.0471 35.7108 76.0843 35.7327 76.1098 35.7656C76.1353 35.7986 76.1471 35.8401 76.1427 35.8816C76.1384 35.923 76.1182 35.9612 76.0864 35.9881C76.0547 36.015 76.0137 36.0287 75.9721 36.0262L75.9711 36.0249Z" fill="#0C0C0C"/>
<path d="M96.7461 33.788L91.1423 32.5573C86.9305 30.6795 85.8964 23.2387 85.8964 23.2387C85.8964 23.2387 80.5309 28.1156 68.0557 24.8005C68.0557 24.8005 71.1886 7.35092 89.5892 13.098C95.5224 14.9511 99.6113 21.137 98.7943 29.1874C98.2206 34.8273 96.7461 33.788 96.7461 33.788Z" fill="#0A0A0A"/>
<path d="M89.5888 39.436C91.4886 39.8646 93.4871 38.179 93.9157 36.28C94.3444 34.381 93.0406 32.985 91.14 32.5566L89.8739 33.6085L87.9556 39.0693L89.5888 39.436Z" fill="#E98862"/>
<path d="M75.2488 26.8768C74.7035 26.4972 74.0661 26.2711 73.4035 26.2222C73.0773 26.1963 72.7491 26.2195 72.4299 26.2911C72.1138 26.3606 71.8077 26.4697 71.5189 26.6158C71.4791 26.6346 71.4483 26.6682 71.433 26.7094C71.4176 26.7507 71.419 26.7962 71.4367 26.8365C71.4544 26.8767 71.4872 26.9085 71.5279 26.9249C71.5687 26.9414 71.6143 26.9414 71.655 26.9248L71.6671 26.9198C71.9336 26.8002 72.2141 26.7145 72.5019 26.6647C72.7864 26.6141 73.0769 26.6068 73.3637 26.643C73.9325 26.7107 74.4734 26.9275 74.9314 27.2715L74.9461 27.2833C74.9992 27.3246 75.0665 27.3432 75.1333 27.3349C75.2001 27.3266 75.2609 27.2921 75.3022 27.239C75.3436 27.1859 75.3621 27.1186 75.3538 27.0518C75.3455 26.985 75.311 26.9242 75.258 26.8829L75.2488 26.8768Z" fill="#0C0C0C"/>
<path d="M80.1448 28.012C80.7056 27.8951 81.2875 27.9288 81.8311 28.1094C82.106 28.1987 82.3658 28.3289 82.6018 28.4957C82.8412 28.6631 83.0586 28.8599 83.2489 29.0815L83.2575 29.0909C83.2873 29.1231 83.3285 29.1424 83.3723 29.1447C83.4161 29.1471 83.4591 29.1323 83.4922 29.1036C83.5253 29.0748 83.5459 29.0342 83.5497 28.9905C83.5534 28.9468 83.54 28.9033 83.5123 28.8693C83.3129 28.6145 83.0822 28.3857 82.8257 28.1885C82.5674 27.9879 82.2803 27.8273 81.9741 27.7122C81.3537 27.4744 80.6807 27.4078 80.0256 27.5195C79.9921 27.5245 79.9599 27.5362 79.931 27.5539C79.902 27.5716 79.8769 27.5949 79.8572 27.6225C79.8374 27.65 79.8233 27.6813 79.8158 27.7143C79.8083 27.7474 79.8076 27.7817 79.8135 27.8151C79.8195 27.8484 79.8321 27.8803 79.8506 27.9087C79.8691 27.9372 79.8931 27.9616 79.9212 27.9806C79.9493 27.9996 79.9809 28.0128 80.0142 28.0193C80.0475 28.0259 80.0817 28.0257 80.1149 28.0188L80.1254 28.0167L80.1448 28.012Z" fill="#0C0C0C"/>
<path d="M91.1315 32.4857L91.1928 32.3315C84.1354 29.5168 86.1276 22.5641 86.1483 22.4939L85.9896 22.4463C85.9689 22.5175 83.9309 29.6139 91.1315 32.4857Z" fill="#0C0C0C"/>
<path d="M72.2111 29.7006C72.647 29.7006 73.0004 29.3472 73.0004 28.9113C73.0004 28.4754 72.647 28.1221 72.2111 28.1221C71.7752 28.1221 71.4219 28.4754 71.4219 28.9113C71.4219 29.3472 71.7752 29.7006 72.2111 29.7006Z" fill="#0C0C0C"/>
<path d="M80.0129 31.0433C80.4488 31.0433 80.8021 30.69 80.8021 30.2541C80.8021 29.8182 80.4488 29.4648 80.0129 29.4648C79.577 29.4648 79.2236 29.8182 79.2236 30.2541C79.2236 30.69 79.577 31.0433 80.0129 31.0433Z" fill="#0C0C0C"/>
<path opacity="0.1" d="M82.4421 35.8465C82.5284 35.2435 81.9319 34.6594 81.1098 34.5419C80.2877 34.4243 79.5514 34.8178 79.4652 35.4208C79.379 36.0239 79.9755 36.608 80.7975 36.7255C81.6196 36.8431 82.3559 36.4495 82.4421 35.8465Z" fill="#0C0C0C"/>
<path opacity="0.1" d="M72.1441 34.1056C72.0563 34.7079 71.3202 35.1007 70.498 34.9844C70.356 34.9639 70.2165 34.9288 70.0817 34.8797C70.0599 34.1588 70.0738 33.4656 70.1099 32.8256C70.3402 32.7738 70.5781 32.7654 70.8115 32.8008C71.6334 32.9162 72.2297 33.5012 72.1441 34.1056Z" fill="#0C0C0C"/>
<path d="M13.4935 51.5861C13.6036 51.3682 13.7786 51.1898 13.9943 51.0757C14.2101 50.9615 14.456 50.9172 14.6981 50.9488C14.696 50.9342 14.6974 50.9193 14.7024 50.9054C14.7073 50.8916 14.7155 50.8791 14.7264 50.8691C14.7372 50.8591 14.7503 50.8519 14.7645 50.8482C14.7788 50.8444 14.7937 50.8441 14.8081 50.8474L13.9913 50.2619C13.747 50.0947 13.5715 49.8447 13.4972 49.5581C13.4228 49.2715 13.4548 48.9677 13.587 48.7028C13.7262 48.4455 13.9559 48.249 14.2317 48.1514C14.5074 48.0538 14.8096 48.0621 15.0796 48.1746C15.0775 48.1631 15.0854 48.1521 15.0872 48.1403L14.7515 47.8997C14.522 47.7411 14.3542 47.5081 14.2767 47.2401C14.1991 46.9721 14.2166 46.6855 14.326 46.4288C14.398 46.2693 14.5044 46.1278 14.6377 46.0144C14.771 45.901 14.9278 45.8186 15.0968 45.7732C15.2658 45.7278 15.4428 45.7204 15.615 45.7516C15.7871 45.7829 15.9502 45.8519 16.0925 45.9538L16.8668 46.5089C16.8692 46.5042 16.8668 46.499 16.87 46.4945C16.8731 46.4901 16.8815 46.4888 16.8859 46.4841C16.7079 46.2842 16.6032 46.0297 16.5889 45.7624C16.5746 45.4951 16.6517 45.2309 16.8074 45.0132C17.174 44.4251 18.0166 44.5453 18.5176 44.904L23.0755 48.0526L22.2609 46.681C22.0972 46.4171 22.0397 46.1009 22.1 45.7963C22.1603 45.4917 22.334 45.2213 22.5858 45.0397C22.7192 44.9504 22.8694 44.8893 23.0272 44.86C23.1849 44.8307 23.347 44.8338 23.5036 44.8692C23.6601 44.9046 23.8078 44.9716 23.9376 45.0659C24.0674 45.1603 24.1766 45.2801 24.2586 45.418L28.7073 52.9072C29.2292 53.7858 29.3879 54.8333 29.1498 55.8271C28.9117 56.8208 28.2955 57.6826 27.4321 58.2293C26.4308 58.8633 25.263 59.1838 24.0783 59.1498C22.8937 59.1158 21.7462 58.7288 20.7829 58.0384L13.8994 53.1049C13.6704 52.9346 13.5057 52.6919 13.4321 52.4162C13.3584 52.1405 13.3801 51.848 13.4935 51.5861Z" fill="#E98862"/>
<g opacity="0.25">
<path d="M21.3782 49.6224C21.3616 49.6455 21.3365 49.6612 21.3084 49.6661C21.2803 49.671 21.2514 49.6647 21.2279 49.6486L16.897 46.6472C16.8847 46.6392 16.8742 46.6289 16.866 46.6168C16.8578 46.6046 16.8521 46.591 16.8492 46.5766C16.8464 46.5623 16.8465 46.5475 16.8495 46.5332C16.8525 46.5189 16.8583 46.5053 16.8666 46.4933C16.875 46.4812 16.8856 46.471 16.898 46.4632C16.9104 46.4554 16.9242 46.4501 16.9386 46.4477C16.9531 46.4454 16.9678 46.4459 16.9821 46.4494C16.9963 46.4528 17.0097 46.4591 17.0214 46.4678L21.3523 49.4676C21.376 49.4841 21.3922 49.5094 21.3974 49.5378C21.4025 49.5662 21.3962 49.5955 21.3798 49.6193L21.3782 49.6224Z" fill="#0C0C0C"/>
</g>
<g opacity="0.25">
<path d="M20.1081 51.5675C20.0914 51.5906 20.0663 51.6063 20.0382 51.6112C20.0102 51.6161 19.9813 51.6098 19.9578 51.5937L15.1246 48.245C15.1009 48.2286 15.0846 48.2034 15.0794 48.175C15.0742 48.1466 15.0805 48.1172 15.0969 48.0934C15.114 48.0704 15.1392 48.0548 15.1674 48.0497C15.1956 48.0446 15.2247 48.0504 15.2487 48.0659L20.0821 51.4138C20.1058 51.4303 20.122 51.4555 20.1272 51.4839C20.1323 51.5124 20.126 51.5417 20.1096 51.5654L20.1081 51.5675Z" fill="#0C0C0C"/>
</g>
<g opacity="0.25">
<path d="M18.7442 53.6844C18.7276 53.7075 18.7026 53.7233 18.6746 53.7282C18.6465 53.7331 18.6176 53.7267 18.5942 53.7106L14.7386 51.0396C14.7163 51.0225 14.7015 50.9976 14.6971 50.9699C14.6928 50.9422 14.6992 50.9139 14.7152 50.8908C14.7312 50.8678 14.7554 50.8517 14.7828 50.846C14.8103 50.8403 14.8389 50.8454 14.8627 50.8602L18.7183 53.5312C18.7421 53.5477 18.7583 53.573 18.7635 53.6014C18.7686 53.6299 18.7623 53.6593 18.7458 53.6831L18.7442 53.6844Z" fill="#0C0C0C"/>
</g>
<path d="M30.6689 50.2051L41.7408 75.7744L57.0177 54.8657L70.2574 66.8002L47.6489 96.0803L47.5007 96.2898C46.5958 97.5291 45.3902 98.5177 43.9976 99.1624C42.6049 99.8071 41.0711 100.087 39.5406 99.9745C38.0101 99.8625 36.5333 99.3627 35.2494 98.5221C33.9655 97.6816 32.9167 96.528 32.2018 95.17L16.2808 58.2083L30.6689 50.2051Z" fill="#124AF6"/>
<path d="M43.0223 78.4494C43.0507 78.4494 43.0787 78.4421 43.1035 78.4283C43.1283 78.4144 43.1491 78.3944 43.1639 78.3701C43.1788 78.3459 43.1871 78.3182 43.1882 78.2898C43.1892 78.2614 43.183 78.2332 43.17 78.2079L41.8892 75.6985C41.8685 75.6607 41.8338 75.6324 41.7925 75.6197C41.7513 75.6069 41.7067 75.6108 41.6682 75.6304C41.6297 75.6501 41.6004 75.6839 41.5865 75.7248C41.5726 75.7656 41.5751 75.8103 41.5936 75.8494L42.8744 78.359C42.8883 78.3863 42.9095 78.4091 42.9356 78.4251C42.9617 78.441 42.9917 78.4494 43.0223 78.4494Z" fill="#0C0C0C"/>
<path d="M56.3313 74.8539C56.7082 79.2793 58.5404 106.888 58.9025 112.339H110.056C110.338 107.423 110.363 85.9256 111.433 76.3119C112.454 67.1382 114.456 62.5452 112.988 59.8331C110.589 55.4006 107.145 51.403 100.541 50.8513C97.7966 50.6216 92.7327 51.6007 92.7327 51.6007C92.7327 51.6007 92.3844 58.6304 84.0984 59.0213C72.8178 59.5537 73.5675 51.6188 73.5151 51.5997C71.1898 50.7494 63.096 50.3166 59.5318 52.6707C52.7313 57.1611 55.5319 65.4759 56.3313 74.8539Z" fill="#124AF6"/>
<path d="M56.7121 77.7263L56.3809 77.7451L56.7797 84.7726L57.1109 84.7538L56.7121 77.7263Z" fill="#0C0C0C"/>
<path d="M149.841 54.6886C149.712 54.482 149.521 54.3207 149.296 54.2269C149.071 54.1331 148.822 54.1114 148.584 54.1649C148.585 54.1502 148.582 54.1356 148.576 54.1222C148.57 54.1089 148.56 54.0972 148.549 54.0883C148.537 54.0794 148.523 54.0734 148.509 54.071C148.494 54.0686 148.479 54.0697 148.465 54.0743L149.225 53.416C149.453 53.227 149.604 52.9619 149.652 52.6696C149.7 52.3774 149.64 52.0778 149.484 51.8263C149.321 51.5829 149.075 51.4085 148.791 51.3367C148.507 51.265 148.207 51.3011 147.949 51.4379C147.949 51.4261 147.941 51.4159 147.938 51.4044L148.25 51.1339C148.464 50.9549 148.61 50.7074 148.662 50.4333C148.715 50.1593 148.671 49.8755 148.538 49.63C148.452 49.4779 148.333 49.3467 148.19 49.2461C148.046 49.1455 147.883 49.078 147.71 49.0483C147.538 49.0186 147.361 49.0275 147.192 49.0745C147.024 49.1214 146.868 49.2052 146.736 49.3197L146.015 49.9438C146.013 49.9393 146.015 49.9338 146.011 49.9299C146.007 49.9259 145.999 49.9252 145.994 49.921C146.153 49.7054 146.234 49.4423 146.223 49.1748C146.213 48.9074 146.111 48.6515 145.936 48.4491C145.517 47.8971 144.689 48.0945 144.224 48.4978L139.975 52.0528L140.66 50.6125C140.799 50.3346 140.827 50.0142 140.739 49.7161C140.651 49.418 140.453 49.1645 140.185 49.0068C140.044 48.9302 139.889 48.8831 139.729 48.8684C139.569 48.8537 139.408 48.8718 139.256 48.9215C139.103 48.9711 138.962 49.0514 138.841 49.1573C138.721 49.2633 138.623 49.3926 138.554 49.5376L134.814 57.4047C134.376 58.3276 134.314 59.3852 134.643 60.3529C134.971 61.3205 135.664 62.1219 136.574 62.5869C137.63 63.1259 138.822 63.3375 139.999 63.1945C141.175 63.0515 142.282 62.5604 143.178 61.7843L149.578 56.2373C149.79 56.0467 149.931 55.79 149.979 55.5089C150.027 55.2278 149.978 54.9387 149.841 54.6886Z" fill="#E98862"/>
<g opacity="0.25">
<path d="M141.809 53.4575C141.828 53.4788 141.854 53.492 141.882 53.4941C141.911 53.4963 141.939 53.4873 141.961 53.469L145.997 50.0832C146.008 50.074 146.017 50.0627 146.024 50.05C146.03 50.0373 146.034 50.0234 146.036 50.0092C146.037 49.9949 146.035 49.9805 146.031 49.9669C146.027 49.9532 146.02 49.9406 146.01 49.9296C146.001 49.9186 145.99 49.9096 145.977 49.903C145.965 49.8963 145.951 49.8923 145.937 49.891C145.922 49.8898 145.908 49.8914 145.894 49.8957C145.881 49.9 145.868 49.9069 145.857 49.9161L141.821 53.302C141.798 53.3205 141.785 53.3471 141.782 53.3759C141.78 53.4047 141.789 53.4333 141.807 53.4554L141.809 53.4575Z" fill="#0C0C0C"/>
</g>
<g opacity="0.25">
<path d="M143.253 55.2785C143.272 55.2999 143.298 55.3131 143.327 55.3152C143.355 55.3174 143.383 55.3083 143.405 55.29L147.909 51.5114C147.931 51.4928 147.945 51.4661 147.948 51.4374C147.95 51.4086 147.941 51.3799 147.923 51.3577C147.903 51.3364 147.877 51.3232 147.848 51.3207C147.82 51.3183 147.791 51.3267 147.769 51.3443L143.265 55.123C143.243 55.1416 143.229 55.1682 143.226 55.1971C143.224 55.2259 143.233 55.2545 143.252 55.2767L143.253 55.2785Z" fill="#0C0C0C"/>
</g>
<g opacity="0.25">
<path d="M144.806 57.2608C144.825 57.2821 144.851 57.2953 144.879 57.2974C144.908 57.2996 144.936 57.2906 144.958 57.2723L148.551 54.257C148.573 54.2384 148.587 54.2118 148.59 54.183C148.592 54.1542 148.583 54.1256 148.565 54.1034C148.546 54.0813 148.519 54.0674 148.491 54.0649C148.462 54.0623 148.433 54.0714 148.411 54.0899L144.818 57.1042C144.796 57.1228 144.782 57.1494 144.779 57.1782C144.777 57.2069 144.786 57.2355 144.804 57.2577L144.806 57.2608Z" fill="#0C0C0C"/>
</g>
<path d="M133.058 54.3594L124.641 75.9452L112.351 58.6887L99.1143 70.6237L118.071 99.5713L118.219 99.7808C119.124 101.02 120.33 102.009 121.722 102.653C123.115 103.298 124.649 103.578 126.18 103.466C127.71 103.354 129.187 102.854 130.471 102.013C131.755 101.173 132.804 100.019 133.518 98.661L147.117 62.0313L133.058 54.3594Z" fill="#124AF6"/>
<path d="M123.36 78.621C123.332 78.6209 123.304 78.6136 123.279 78.5997C123.254 78.5858 123.234 78.5657 123.219 78.5415C123.204 78.5173 123.196 78.4896 123.194 78.4612C123.193 78.4328 123.2 78.4046 123.212 78.3793L124.493 75.8699C124.514 75.8312 124.548 75.8022 124.59 75.789C124.632 75.7758 124.677 75.7796 124.716 75.7994C124.754 75.8193 124.784 75.8537 124.798 75.8952C124.811 75.9366 124.808 75.9818 124.789 76.021L123.508 78.5304C123.494 78.5576 123.473 78.5805 123.447 78.5965C123.421 78.6125 123.391 78.6209 123.36 78.621Z" fill="#0C0C0C"/>
<path d="M139.274 134.146H13.3238C13.243 134.143 13.1664 134.11 13.1102 134.052C13.0539 133.994 13.0225 133.916 13.0225 133.836C13.0225 133.755 13.0539 133.677 13.1102 133.619C13.1664 133.561 13.243 133.528 13.3238 133.525H139.274C139.354 133.528 139.431 133.561 139.487 133.619C139.544 133.677 139.575 133.755 139.575 133.836C139.575 133.916 139.544 133.994 139.487 134.052C139.431 134.11 139.354 134.143 139.274 134.146Z" fill="#292A2E"/>
<path d="M42.6415 34.3748V2.68275C42.6415 1.97142 42.359 1.28921 41.8561 0.78613C41.3532 0.283047 40.6711 0.000277727 39.9598 0L2.68275 0C1.97124 0 1.28887 0.282646 0.78576 0.78576C0.282646 1.28887 0 1.97124 0 2.68275L0 26.3135C0 27.025 0.282646 27.7074 0.78576 28.2105C1.28887 28.7136 1.97124 28.9962 2.68275 28.9962H32.9726L41.4207 35.0046C41.5363 35.0869 41.6723 35.1357 41.8138 35.1458C41.9554 35.1559 42.0969 35.1268 42.223 35.0618C42.3491 34.9967 42.4549 34.8982 42.5287 34.777C42.6025 34.6559 42.6415 34.5167 42.6415 34.3748Z" fill="#0CBC8B"/>
<path d="M20.1736 25.1519C21.0804 25.1519 21.8155 24.4168 21.8155 23.51C21.8155 22.6032 21.0804 21.8682 20.1736 21.8682C19.2668 21.8682 18.5317 22.6032 18.5317 23.51C18.5317 24.4168 19.2668 25.1519 20.1736 25.1519Z" fill="white"/>
<path d="M20.0969 19.9465C19.8135 19.9464 19.5417 19.8338 19.3413 19.6333C19.1409 19.4329 19.0283 19.161 19.0283 18.8776V14.9078C19.0283 14.668 19.109 14.4351 19.2574 14.2467C19.4057 14.0583 19.6132 13.9252 19.8463 13.869C19.8927 13.8575 24.674 12.6474 24.674 9.42996C24.674 7.41103 23.0188 5.9996 20.6489 5.9996C18.0827 5.9996 16.7635 8.56583 16.7087 8.67424C16.5805 8.92393 16.3592 9.11316 16.0926 9.20106C15.826 9.28896 15.5356 9.26848 15.284 9.14403C15.0324 9.01959 14.8398 8.80118 14.7479 8.53596C14.656 8.27075 14.6721 7.98002 14.7927 7.72657C14.8713 7.56945 16.7394 3.8623 20.6489 3.8623C24.2196 3.8623 26.8113 6.20307 26.8113 9.42865C26.8113 13.316 22.9096 15.0966 21.1658 15.6984V18.8776C21.1658 19.1611 21.0531 19.4329 20.8527 19.6334C20.6522 19.8338 20.3804 19.9464 20.0969 19.9465Z" fill="white"/>
</g>
<defs>
<clipPath id="clip0_280_11274">
<rect width="150" height="134.148" fill="white"/>
</clipPath>
</defs>
</svg>
