<svg width="178" height="150" viewBox="0 0 178 150" fill="none" xmlns="http://www.w3.org/2000/svg">
<path opacity="0.24" d="M177.365 108.732C177.648 126.678 163.466 143.744 145.783 146.754C137.507 148.168 129.064 146.805 120.66 146.432C102.379 145.635 84.1393 149.557 65.8903 149.969C62.1961 150.052 58.4955 149.969 54.7917 149.708C42.6139 148.786 30.7219 145.561 19.7469 140.204C15.0657 137.922 10.497 135.195 7.08896 131.273C-0.222216 122.869 -0.926328 110.568 0.764825 99.5718C2.45598 88.5761 6.17587 77.828 6.36556 66.6972C6.5006 58.9263 4.9059 51.2389 4.49758 43.4776C4.08926 35.7163 5.03129 27.4856 9.59997 21.2033C14.1687 14.9209 21.7724 11.4775 29.389 9.9793C37.0056 8.48106 44.8216 8.67718 52.5797 8.19491C68.6263 7.21109 84.3386 3.29829 100.292 1.34671C124.084 -1.5694 162.344 -2.51143 164.977 28.627C165.179 31.2024 165.235 33.7872 165.144 36.369C164.913 44.9694 163.591 53.602 164.684 62.1382C166.729 78.1784 177.108 92.5693 177.365 108.732Z" fill="#4C7BF9"/>
<path opacity="0.24" d="M177.365 108.731C177.648 126.678 163.466 143.744 145.783 146.753C137.507 148.168 129.064 146.805 120.66 146.432C102.379 145.635 84.1392 149.557 65.8902 149.969C61.4212 145.754 56.9618 141.535 52.7661 137.066C51.48 135.674 50.1233 134.131 49.8725 132.244C49.6924 130.839 50.1458 129.43 50.5959 128.09C58.404 105.204 69.286 83.4853 82.9432 63.5301C89.322 54.2062 96.2859 45.3325 103.417 36.5842C108.262 30.649 114.535 19.1003 123.135 18.5345C130.144 18.0715 138.272 24.5017 144.355 27.2507C151.248 30.3661 158.199 33.3594 165.144 36.3752C164.913 44.9756 163.591 53.6082 164.684 62.1444C166.729 78.1782 177.108 92.569 177.365 108.731Z" fill="#4C7BF9"/>
<path d="M97.0187 21.7846L93.0063 20.5243L94.1026 11.0815H94.4241C94.8228 10.76 95.9867 9.36782 95.6748 8.33577C95.3951 7.39052 93.8904 7.01114 92.6719 6.8536C90.9422 6.63497 89.8104 6.83109 89.3957 7.41625C88.8395 8.20717 89.5725 9.69255 89.9037 10.1973L89.9905 10.3291L89.386 19.4569L84.9331 18.2287L85.1839 17.3252L88.4086 18.2287L88.9166 10.5124C88.5951 9.98834 87.6306 8.12679 88.4955 6.88254C89.1385 5.96944 90.566 5.64472 92.7458 5.918C96.1507 6.35204 96.8033 7.76026 96.7551 8.86626C96.7069 9.97227 95.7713 11.329 95.0672 11.8338L94.1316 19.8716L97.3081 20.8683L97.0187 21.7846Z" fill="url(#paint0_linear_18_14871)"/>
<path d="M129.823 134.012H49.1011L44.0791 129.878L49.1011 21.0009L124.801 16.8662L129.823 21.0009V134.012Z" fill="#4C7BF9"/>
<path d="M129.823 134.012H49.1011L44.0791 129.878L49.1011 21.0009L124.801 16.8662L129.823 21.0009V134.012Z" fill="url(#paint1_linear_18_14871)"/>
<path d="M127.164 132.041L47.8215 132.24L44.0791 129.877L46.738 20.6083L122.438 16.4736L127.46 20.6083L127.164 132.041Z" fill="url(#paint2_linear_18_14871)"/>
<path d="M44.0791 16.8662H124.801V129.878H44.0791V16.8662Z" fill="white"/>
<path d="M69.5166 24.73C69.4748 25.0161 69.4555 25.373 69.687 25.5337C69.8131 25.6097 69.9577 25.6498 70.1049 25.6495C77.5411 26.2929 85.031 25.8773 92.3504 24.4149C93.556 24.1737 95.0157 23.6207 95.1025 22.3958C95.1829 21.3091 94.138 19.9812 94.9803 19.2996C95.2962 19.1104 95.657 19.0093 96.0252 19.0071C96.693 18.9096 97.3309 18.6652 97.893 18.2916C98.4551 17.918 98.9273 17.4245 99.2757 16.8465L78.1685 16.6761C76.1172 16.66 72.3813 15.7984 70.9152 17.6406C69.7802 19.0521 69.5166 23.0517 69.5166 24.73Z" fill="url(#paint3_linear_18_14871)"/>
<path d="M92.9068 21.8372H71.0537L69.5747 8.25336L91.5758 8.10547L92.9068 21.8372Z" fill="#4C7BF9"/>
<path d="M91.5762 8.10547L99.7008 12.1437L98.5176 16.8667H92.5118L91.5762 8.10547Z" fill="#4C7BF9"/>
<path d="M91.5762 8.10547L99.7008 12.1437L98.5176 16.8667H92.5118L91.5762 8.10547Z" fill="url(#paint4_linear_18_14871)"/>
<path d="M86.6856 21.6249L82.4802 21.4609L81.027 10.9603L81.3292 10.8832C81.6282 10.4138 82.3805 8.5747 81.805 7.55229C81.2842 6.61991 79.7313 6.65528 78.5192 6.8514C76.7927 7.1279 75.751 7.67447 75.5098 8.43002C75.1883 9.446 76.2847 10.8285 76.7348 11.2754L76.8537 11.3911L78.696 21.403H74.0791V20.3549H77.4389L75.8828 11.8991C75.4455 11.4265 74.0019 9.71607 74.5131 8.11172C74.8861 6.93821 76.1786 6.16658 78.3713 5.81613C81.7664 5.27277 82.7696 6.59419 83.0203 7.80307C83.2711 9.01196 82.7246 10.7481 82.1812 11.5005L83.4158 20.4449L86.7435 20.5767L86.6856 21.6249Z" fill="url(#paint5_linear_18_14871)"/>
<path d="M56.2871 34.0928H81.095V65.3984H56.2871V34.0928Z" fill="#4C7BF9"/>
<path d="M113.876 38.4268H90.0521C89.3454 38.4268 88.7725 38.9997 88.7725 39.7064C88.7725 40.4131 89.3454 40.986 90.0521 40.986H113.876C114.583 40.986 115.156 40.4131 115.156 39.7064C115.156 38.9997 114.583 38.4268 113.876 38.4268Z" fill="#4C7BF9"/>
<path d="M113.876 44.0371H90.0521C89.3454 44.0371 88.7725 44.61 88.7725 45.3167C88.7725 46.0234 89.3454 46.5963 90.0521 46.5963H113.876C114.583 46.5963 115.156 46.0234 115.156 45.3167C115.156 44.61 114.583 44.0371 113.876 44.0371Z" fill="#4C7BF9"/>
<path d="M113.876 52.2061H90.0521C89.3454 52.2061 88.7725 52.779 88.7725 53.4857C88.7725 54.1924 89.3454 54.7653 90.0521 54.7653H113.876C114.583 54.7653 115.156 54.1924 115.156 53.4857C115.156 52.779 114.583 52.2061 113.876 52.2061Z" fill="#4C7BF9"/>
<path d="M113.876 57.8174H90.0521C89.3454 57.8174 88.7725 58.3903 88.7725 59.097C88.7725 59.8037 89.3454 60.3766 90.0521 60.3766H113.876C114.583 60.3766 115.156 59.8037 115.156 59.097C115.156 58.3903 114.583 57.8174 113.876 57.8174Z" fill="#4C7BF9"/>
<path d="M98.8126 83.8076H74.9886C74.2819 83.8076 73.709 84.3805 73.709 85.0872C73.709 85.7939 74.2819 86.3668 74.9886 86.3668H98.8126C99.5193 86.3668 100.092 85.7939 100.092 85.0872C100.092 84.3805 99.5193 83.8076 98.8126 83.8076Z" fill="#4C7BF9"/>
<path d="M98.8126 89.418H74.9886C74.2819 89.418 73.709 89.9909 73.709 90.6976C73.709 91.4043 74.2819 91.9772 74.9886 91.9772H98.8126C99.5193 91.9772 100.092 91.4043 100.092 90.6976C100.092 89.9909 99.5193 89.418 98.8126 89.418Z" fill="#4C7BF9"/>
<path d="M98.8126 102.707H74.9886C74.2819 102.707 73.709 103.28 73.709 103.987C73.709 104.693 74.2819 105.266 74.9886 105.266H98.8126C99.5193 105.266 100.092 104.693 100.092 103.987C100.092 103.28 99.5193 102.707 98.8126 102.707Z" fill="#4C7BF9"/>
<path d="M98.8126 108.316H74.9886C74.2819 108.316 73.709 108.889 73.709 109.596C73.709 110.303 74.2819 110.876 74.9886 110.876H98.8126C99.5193 110.876 100.092 110.303 100.092 109.596C100.092 108.889 99.5193 108.316 98.8126 108.316Z" fill="#4C7BF9"/>
<path d="M113.873 69.6328H56.9749C56.2682 69.6328 55.6953 70.2057 55.6953 70.9124C55.6953 71.6191 56.2682 72.192 56.9749 72.192H113.873C114.58 72.192 115.153 71.6191 115.153 70.9124C115.153 70.2057 114.58 69.6328 113.873 69.6328Z" fill="#4C7BF9"/>
<path d="M113.873 75.2432H56.9749C56.2682 75.2432 55.6953 75.8161 55.6953 76.5228C55.6953 77.2295 56.2682 77.8024 56.9749 77.8024H113.873C114.58 77.8024 115.153 77.2295 115.153 76.5228C115.153 75.8161 114.58 75.2432 113.873 75.2432Z" fill="#4C7BF9"/>
<path d="M58.6494 82.2334H68.986V91.3868H58.6494V82.2334Z" fill="#4C7BF9"/>
<path d="M58.6494 102.314H68.986V111.468H58.6494V102.314Z" fill="#4C7BF9"/>
<path d="M61.4599 59.8775C59.9649 60.9738 58.6242 62.9447 58.8878 64.7838C66.2087 64.4237 73.1565 64.8448 79.5193 64.7516C79.3906 63.0797 78.7187 60.9545 77.5548 59.7489C76.9486 59.1888 76.2503 58.7375 75.4907 58.4146C73.941 57.6526 72.3688 56.8939 70.668 56.5402C67.2729 55.8232 64.1317 57.9227 61.4599 59.8775Z" fill="white"/>
<path d="M74.3205 48.6957C74.3486 48.9643 74.319 49.2358 74.2336 49.492C74.1482 49.7482 74.009 49.9831 73.8253 50.1811C73.7398 50.283 73.6289 50.3606 73.5038 50.4062C72.8608 50.6151 72.8319 49.3162 73.0151 48.9465C73.2338 48.5253 74.224 47.8598 74.3205 48.6957Z" fill="url(#paint6_linear_18_14871)"/>
<path d="M62.8967 47.9698C62.8684 48.2381 62.8976 48.5094 62.9824 48.7656C63.0672 49.0217 63.2057 49.2568 63.3887 49.4552C63.4761 49.555 63.5864 49.6322 63.7102 49.6802C64.3532 49.8892 64.3821 48.5871 64.1956 48.2206C63.9835 47.809 62.9932 47.1339 62.8967 47.9698Z" fill="url(#paint7_linear_18_14871)"/>
<path d="M71.0093 52.3286C71.0093 52.3286 71.0478 56.579 72.0156 57.4728C72.9833 58.3666 68.1382 62.5431 66.0869 57.8812C66.0869 57.8812 67.2797 55.8685 66.8714 52.4765C66.4631 49.0846 71.0093 52.3286 71.0093 52.3286Z" fill="url(#paint8_linear_18_14871)"/>
<path d="M71.15 53.3347V54.2671C71.15 54.2671 68.6904 57.8037 67.6841 56.6173C66.6778 55.431 66.9736 55.1641 66.9736 55.1641L66.8643 52.4795L71.15 53.3347Z" fill="url(#paint9_linear_18_14871)"/>
<path d="M73.3528 46.2519C73.3528 46.2519 74.0601 52.7401 70.591 54.0261C67.1219 55.3122 65.0546 53.4667 64.1029 50.3351C63.1512 47.2036 64.6077 40.8827 68.2825 41.4968C71.9574 42.1109 73.3528 46.2519 73.3528 46.2519Z" fill="url(#paint10_linear_18_14871)"/>
<path d="M71.8544 45.6577C72.0126 45.4332 74.1632 47.9488 74.2014 47.6768C74.4271 46.4591 74.3291 45.2035 73.9172 44.0355C73.5053 42.8676 72.794 41.8283 71.8544 41.0215C71.4729 40.6853 71.031 40.4245 70.5523 40.2531C70.075 40.1118 69.5762 40.0573 69.0797 40.0923C67.5135 40.1408 66.0029 40.6844 64.765 41.6452C64.154 42.1313 63.6505 42.7388 63.2863 43.4295C62.9222 44.1202 62.7053 44.8789 62.6495 45.6577C62.6064 46.1191 62.6817 46.5838 62.8681 47.008C62.9625 47.2192 63.105 47.4054 63.2842 47.5517C63.4634 47.698 63.6743 47.8003 63.9002 47.8504C64.7007 47.9887 64.9194 47.2492 65.5688 46.7573C66.5334 46.0146 66.8549 44.9118 69.0733 45.0983C72.6807 45.4005 71.0794 46.7573 71.8544 45.6577Z" fill="#606161"/>
<path d="M63.5401 48.4316C63.4978 48.3928 63.4639 48.3457 63.4404 48.2933C63.4255 48.2322 63.4169 48.1697 63.4147 48.1068C63.4062 48.0452 63.3766 47.9884 63.3311 47.9461C63.3067 47.9263 63.2777 47.9129 63.2468 47.9073C63.2159 47.9017 63.184 47.904 63.1543 47.9139C63.129 47.9258 63.1065 47.9427 63.0882 47.9638C63.07 47.9848 63.0563 48.0095 63.0482 48.0361C63.0341 48.0897 63.0266 48.1447 63.0256 48.2001C63.0039 48.4136 63.036 48.6291 63.1189 48.827C63.1976 48.963 63.2987 49.0848 63.4179 49.1871C63.4385 49.2124 63.4638 49.2334 63.4925 49.2488C63.5212 49.2643 63.5527 49.2739 63.5851 49.2772C63.6268 49.2744 63.667 49.2599 63.7008 49.2354C63.7166 49.2273 63.7308 49.2164 63.7426 49.2032C63.7457 49.1873 63.7457 49.1709 63.7426 49.155C63.77 49.0083 63.77 48.8579 63.7426 48.7113C63.7048 48.5998 63.6342 48.5023 63.5401 48.4316Z" fill="url(#paint11_linear_18_14871)"/>
<path d="M73.5805 49.1303C73.6228 49.0914 73.6567 49.0444 73.6802 48.992C73.6952 48.932 73.7039 48.8706 73.7059 48.8087C73.7136 48.7462 73.7446 48.6888 73.7927 48.648C73.8156 48.6267 73.8439 48.6122 73.8745 48.606C73.9052 48.5997 73.9369 48.602 73.9663 48.6126C73.9912 48.6249 74.0134 48.6421 74.0317 48.663C74.0499 48.684 74.0637 48.7084 74.0724 48.7348C74.0864 48.7895 74.0939 48.8456 74.0949 48.902C74.1166 49.1155 74.0846 49.331 74.0017 49.5289C73.9229 49.6639 73.8218 49.7846 73.7027 49.8858C73.6604 49.9365 73.6008 49.9697 73.5355 49.9791C73.4934 49.9752 73.4533 49.9596 73.4197 49.934C73.4027 49.9281 73.388 49.9168 73.3779 49.9019C73.3746 49.886 73.3746 49.8696 73.3779 49.8537C73.3506 49.7081 73.3506 49.5587 73.3779 49.4132C73.4157 49.3008 73.4863 49.2023 73.5805 49.1303Z" fill="url(#paint12_linear_18_14871)"/>
<defs>
<linearGradient id="paint0_linear_18_14871" x1="88.935" y1="27.274" x2="94.7237" y2="5.52417" gradientUnits="userSpaceOnUse">
<stop stop-color="#010101" stop-opacity="0"/>
<stop offset="0.95" stop-color="#010101"/>
</linearGradient>
<linearGradient id="paint1_linear_18_14871" x1="190.153" y1="188.445" x2="97.9504" y2="-39.2763" gradientUnits="userSpaceOnUse">
<stop stop-color="#010101" stop-opacity="0"/>
<stop offset="0.95" stop-color="#010101"/>
</linearGradient>
<linearGradient id="paint2_linear_18_14871" x1="192.554" y1="90.4779" x2="89.8049" y2="74.062" gradientUnits="userSpaceOnUse">
<stop stop-color="#010101" stop-opacity="0"/>
<stop offset="0.95" stop-color="#010101"/>
</linearGradient>
<linearGradient id="paint3_linear_18_14871" x1="135" y1="42.1178" x2="164.793" y2="-21.7112" gradientUnits="userSpaceOnUse">
<stop stop-color="#010101" stop-opacity="0"/>
<stop offset="0.95" stop-color="#010101"/>
</linearGradient>
<linearGradient id="paint4_linear_18_14871" x1="158.13" y1="22.0749" x2="151.163" y2="29.9975" gradientUnits="userSpaceOnUse">
<stop stop-color="#010101" stop-opacity="0"/>
<stop offset="0.95" stop-color="#010101"/>
</linearGradient>
<linearGradient id="paint5_linear_18_14871" x1="135.198" y1="37.4506" x2="140.986" y2="15.7035" gradientUnits="userSpaceOnUse">
<stop stop-color="#010101" stop-opacity="0"/>
<stop offset="0.95" stop-color="#010101"/>
</linearGradient>
<linearGradient id="paint6_linear_18_14871" x1="74.3301" y1="49.3612" x2="72.9251" y2="49.3612" gradientUnits="userSpaceOnUse">
<stop stop-color="#E4C5D5"/>
<stop offset="0.42" stop-color="#E9D3CF"/>
<stop offset="1" stop-color="#EFE8CA"/>
</linearGradient>
<linearGradient id="paint7_linear_18_14871" x1="62.8839" y1="48.6353" x2="64.2889" y2="48.6353" gradientUnits="userSpaceOnUse">
<stop stop-color="#E4C5D5"/>
<stop offset="0.42" stop-color="#E9D3CF"/>
<stop offset="1" stop-color="#EFE8CA"/>
</linearGradient>
<linearGradient id="paint8_linear_18_14871" x1="72.1346" y1="55.4923" x2="66.0805" y2="55.4923" gradientUnits="userSpaceOnUse">
<stop stop-color="#E4C5D5"/>
<stop offset="0.42" stop-color="#E9D3CF"/>
<stop offset="1" stop-color="#EFE8CA"/>
</linearGradient>
<linearGradient id="paint9_linear_18_14871" x1="69.7096" y1="57.643" x2="66.9125" y2="43.8276" gradientUnits="userSpaceOnUse">
<stop offset="0.12" stop-color="#010101" stop-opacity="0"/>
<stop offset="0.95" stop-color="#010101"/>
</linearGradient>
<linearGradient id="paint10_linear_18_14871" x1="73.4107" y1="47.9495" x2="63.82" y2="47.9495" gradientUnits="userSpaceOnUse">
<stop stop-color="#E4C5D5"/>
<stop offset="0.42" stop-color="#E9D3CF"/>
<stop offset="1" stop-color="#EFE8CA"/>
</linearGradient>
<linearGradient id="paint11_linear_18_14871" x1="62.9453" y1="48.6856" x2="65.7874" y2="48.094" gradientUnits="userSpaceOnUse">
<stop offset="0.12" stop-color="#010101" stop-opacity="0"/>
<stop offset="0.95" stop-color="#010101"/>
</linearGradient>
<linearGradient id="paint12_linear_18_14871" x1="74.1881" y1="49.3843" x2="71.346" y2="48.7959" gradientUnits="userSpaceOnUse">
<stop offset="0.12" stop-color="#010101" stop-opacity="0"/>
<stop offset="0.95" stop-color="#010101"/>
</linearGradient>
</defs>
</svg>
