<svg width="120" height="99" viewBox="0 0 120 99" fill="none" xmlns="http://www.w3.org/2000/svg">
<g clip-path="url(#clip0_192_10704)">
<path d="M111.721 95.7809C116.437 95.7809 120.2 91.4886 119.992 86.3476C119.719 79.6255 116.569 70.1341 104.153 60.6494C89.012 49.0823 95.8411 15.7776 63.6703 18.0762C31.4995 20.3748 34.5668 44.9857 14.8402 56.2665C2.28379 63.4472 0.000869882 77.4971 0 86.7617C0 91.7453 3.71109 95.7809 8.27832 95.7809H111.721Z" fill="#F3F5FD"/>
<path d="M16.8757 86.4253C15.5232 86.0369 14.5051 84.8268 14.1006 83.4791C13.6961 82.1314 13.8387 80.669 14.2338 79.3185C14.5562 78.2165 15.0447 77.1511 15.1651 76.0093C15.5653 72.2067 11.8782 68.3217 13.6138 64.9147C14.1749 63.813 15.2608 62.9519 15.4548 61.7307C15.615 60.7207 15.1175 59.7394 14.8702 58.7471C14.5298 57.3816 14.7024 55.8323 15.5882 54.7387C16.4741 53.6452 18.148 53.1676 19.3686 53.8679C20.965 54.7836 21.1035 57.0448 20.6931 58.839C20.2827 60.6331 19.5224 62.4792 20.0238 64.25C20.5015 65.9377 22.0565 67.2091 22.3354 68.9411C22.5671 70.3811 21.8643 71.785 21.5555 73.2103C21.0702 75.4504 21.5642 77.7726 21.5854 80.0646C21.6066 82.3566 20.9601 84.9269 16.8757 86.4253Z" fill="#8DDBE0"/>
<path d="M14.7891 86.6429C13.9843 86.3871 13.2621 85.9217 12.6967 85.2945C12.1312 84.6673 11.7429 83.9009 11.5715 83.074C11.3068 81.7101 11.6317 80.1782 10.8854 79.0065C9.87389 77.4187 8.83681 77.2393 7.57757 75.8399C5.64156 73.688 5.57354 72.7351 5.70124 68.7497C5.75517 67.0643 3.42824 65.1624 4.24784 63.5431C4.96984 62.1164 7.16455 62.1092 8.40918 63.113C9.65381 64.1167 10.2011 65.7261 10.7427 67.2304C11.2843 68.7347 11.9696 70.3262 13.344 71.1427C14.1685 71.6323 15.2478 71.8587 15.7031 72.7025C16.0685 73.3811 15.8848 74.2082 15.7379 74.9644C15.3682 76.8656 15.461 79.1849 17.0563 80.2829C17.7762 80.7782 18.7188 80.9489 19.3105 81.592C19.8956 82.2278 19.9899 83.1696 19.9504 84.0327C19.8727 85.6921 19.4155 87.3116 18.6139 88.7666" fill="#F1C4A3"/>
<path d="M16.7131 87.9667C16.0096 87.1284 15.5855 86.0911 15.5003 84.9999C15.4151 83.9087 15.673 82.8182 16.2378 81.8808C17.2145 80.3331 19.0347 79.2671 19.4169 77.4774C19.7574 75.8834 18.8132 74.2362 19.0959 72.6308C19.4032 70.8852 21.0157 69.7396 22.2971 68.5146C22.6304 68.2169 22.9171 67.8708 23.1477 67.488C23.711 66.474 23.5539 65.2302 23.7451 64.086C24.1115 61.8948 25.9165 59.9513 28.1082 59.5891C30.0303 59.2714 31.4074 60.3757 31.4074 62.4095C31.4074 64.8187 29.6025 65.8511 28.6818 66.9419C27.3595 68.521 26.6577 70.5278 26.7077 72.587C26.7726 74.8869 27.7516 77.3358 26.7056 79.3851C25.9379 80.889 24.298 81.6908 23.0095 82.782C22.0359 83.6162 21.2434 84.6408 20.6807 85.7928C20.1179 86.9449 19.7969 88.1999 19.7374 89.4806" fill="white"/>
<path d="M22.9123 84.1895H11.3213V95.7813H22.9123V84.1895Z" fill="#0CBC8B"/>
<g opacity="0.42">
<path d="M22.9123 86.4502H11.3213V88.7129H22.9123V86.4502Z" fill="white"/>
</g>
<path d="M90.3968 0.176758H29.6025V79.0476H90.3968V0.176758Z" fill="#ECF4FE"/>
<path d="M85.5412 23.085H74.0483V27.363H85.5412V23.085Z" fill="white"/>
<path d="M85.5412 30.1641H74.0483V34.4421H85.5412V30.1641Z" fill="white"/>
<path d="M85.5412 37.2422H74.0483V41.5202H85.5412V37.2422Z" fill="white"/>
<path d="M85.5412 44.3213H74.0483V48.5993H85.5412V44.3213Z" fill="white"/>
<path d="M85.5412 51.3994H74.0483V55.6775H85.5412V51.3994Z" fill="white"/>
<path d="M85.5412 58.4785H74.0483V62.7566H85.5412V58.4785Z" fill="white"/>
<path d="M71.7253 23.085H34.4585V27.363H71.7253V23.085Z" fill="white"/>
<path d="M71.7253 30.1641H34.4585V34.4421H71.7253V30.1641Z" fill="white"/>
<path d="M71.7253 37.2422H34.4585V41.5202H71.7253V37.2422Z" fill="white"/>
<path d="M71.7253 44.3213H34.4585V48.5993H71.7253V44.3213Z" fill="white"/>
<path d="M71.7253 51.3994H34.4585V55.6775H71.7253V51.3994Z" fill="white"/>
<path d="M71.7253 58.4785H34.4585V62.7566H71.7253V58.4785Z" fill="white"/>
<path d="M91.2297 94.7157C90.8991 94.6604 87.1699 94.0234 87.1699 94.0234L87.7849 90.4219C87.7849 90.4219 91.504 91.0573 91.8335 91.1124L91.2297 94.7157Z" fill="#E98862"/>
<path d="M85.0425 98.171C85.0267 98.2679 85.0311 98.3671 85.0554 98.4623C85.0796 98.5576 85.1233 98.6467 85.1836 98.7243C85.2439 98.8019 85.3195 98.8662 85.4058 98.9132C85.4921 98.9602 85.5871 98.989 85.685 98.9976C85.8206 99.0096 85.9569 98.9825 86.0777 98.9197C86.1985 98.8568 86.2989 98.7608 86.367 98.6428L88.474 94.6839C88.5145 94.6071 88.538 94.5225 88.5428 94.4359C88.5476 94.3492 88.5336 94.2625 88.5018 94.1817C88.1982 93.5382 88.1092 92.8141 88.2478 92.1161C88.3781 91.5762 88.6575 91.0838 89.0542 90.6952C89.0927 90.6616 89.1208 90.6178 89.1353 90.5688C89.1498 90.5198 89.1501 90.4678 89.136 90.4186C89.122 90.3695 89.0943 90.3254 89.0562 90.2915C89.018 90.2576 88.971 90.2352 88.9206 90.227L86.8698 89.8833C86.8093 89.8732 86.7474 89.8751 86.6876 89.889C86.6278 89.9029 86.5714 89.9284 86.5215 89.9641C86.4717 89.9999 86.4294 90.0451 86.397 90.0972C86.3647 90.1493 86.3429 90.2073 86.333 90.2679L85.0425 98.171Z" fill="#C1D8ED"/>
<path d="M102.774 84.9746C104.322 85.039 105.898 85.0842 107.474 85.1232L109.843 85.1754L112.209 85.2178L112.445 85.2222C113.422 85.2406 114.356 85.6288 115.058 86.3086C115.761 86.9884 116.179 87.9093 116.229 88.8855C116.28 89.8617 115.958 90.8207 115.329 91.569C114.7 92.3174 113.811 92.7995 112.841 92.9181L89.4586 95.7578L88.5059 88.8469L111.784 85.2532L112.416 92.9532L110.013 93.1084L107.612 93.2537C106.009 93.3463 104.406 93.4331 102.773 93.5001L102.774 84.9746Z" fill="#262626"/>
<path d="M108.673 93.2021C105.445 92.7323 105.124 92.6462 105.017 92.6177L105.966 89.0894C105.955 89.0866 105.941 89.0828 105.925 89.0791C106.189 89.1369 107.83 89.3874 109.198 89.5865L108.673 93.2021Z" fill="#E98862"/>
<path d="M112.705 96.3432C112.739 96.4355 112.753 96.5337 112.747 96.6318C112.742 96.7299 112.716 96.8257 112.671 96.9133C112.627 97.001 112.565 97.0785 112.489 97.141C112.413 97.2036 112.325 97.2498 112.231 97.2768C112.1 97.3144 111.961 97.3138 111.83 97.275C111.7 97.2362 111.583 97.1609 111.494 97.058L108.674 93.5709C108.62 93.5032 108.581 93.4247 108.56 93.3406C108.539 93.2565 108.536 93.1689 108.552 93.0837C108.728 92.3942 108.678 91.6665 108.409 91.0075C108.179 90.5022 107.811 90.0718 107.348 89.7654C107.304 89.7397 107.268 89.702 107.245 89.6567C107.221 89.6114 107.211 89.5603 107.215 89.5095C107.22 89.4586 107.239 89.4101 107.27 89.3695C107.301 89.3289 107.342 89.298 107.39 89.2803L109.339 88.5537C109.396 88.5323 109.457 88.5225 109.519 88.5247C109.58 88.527 109.64 88.5414 109.696 88.567C109.752 88.5926 109.802 88.6289 109.844 88.6739C109.885 88.719 109.918 88.7718 109.939 88.8293L112.705 96.3432Z" fill="#C1D8ED"/>
<path d="M97.5832 92.8737C96.6034 92.7903 95.624 92.73 94.6447 92.6736C93.6654 92.6214 92.6863 92.5692 91.7075 92.5344L90.2391 92.4777L88.7709 92.4354C87.7921 92.4029 86.8137 92.3895 85.8353 92.3707L86.1743 85.34C88.0061 85.5962 89.8404 85.8315 91.6741 86.0728C93.5078 86.3141 95.3434 86.536 97.1787 86.7616L99.9334 87.0865L102.69 87.3953C104.529 87.5931 106.367 87.7894 108.21 87.951L107.402 94.8812C105.571 94.6143 103.737 94.3816 101.902 94.1504L99.1481 93.8162L96.3927 93.498C94.5546 93.2949 92.7169 93.0887 90.8776 92.9007C89.0383 92.7126 87.1985 92.5198 85.357 92.3474C84.4737 92.2646 83.6542 91.8513 83.0625 91.1902C82.4708 90.529 82.1507 89.6688 82.1661 88.7817C82.1815 87.8945 82.5313 87.0459 83.1455 86.4057C83.7598 85.7655 84.5931 85.3809 85.4788 85.3288L85.6966 85.3165C86.6737 85.2592 87.6509 85.2072 88.6276 85.1359L90.0928 85.0356L91.5579 84.921C92.5346 84.8474 93.5109 84.756 94.4873 84.6656C95.4636 84.5706 96.4398 84.4716 97.4157 84.3496L97.5832 92.8737Z" fill="#262626"/>
<path d="M106.329 83.9072L106.844 92.5554L91.9712 92.3807L93.0939 84.7243L106.329 83.9072Z" fill="#262626"/>
<path d="M111.294 81.9517L107.353 69.73C107.19 69.0936 106.85 68.5161 106.373 68.064C105.578 67.2689 104.206 66.7556 102.532 66.7539C102.407 67.73 96.4812 67.7335 96.436 66.7765C96.2098 66.78 96.0341 66.7835 95.9245 66.7887C93.5306 66.8919 92.5667 67.8135 92.2609 69.2005L87.2357 81.361C87.1129 81.6587 87.071 81.9837 87.1142 82.3029C87.1574 82.622 87.2842 82.9241 87.4818 83.1785C87.6794 83.4329 87.9407 83.6305 88.2392 83.7513C88.5378 83.8721 88.863 83.9118 89.1818 83.8664L91.9272 83.4751C91.792 84.1591 91.7706 84.6908 92.0378 85.3055C92.7668 86.981 107.09 87.677 107.282 84.7296C107.284 84.7007 107.284 84.672 107.285 84.6426L109.665 84.4211C109.948 84.3948 110.221 84.3053 110.464 84.1593C110.708 84.0132 110.915 83.8144 111.072 83.5773C111.228 83.3403 111.329 83.0712 111.368 82.7898C111.406 82.5084 111.381 82.222 111.294 81.9517ZM91.8346 79.7991L92.743 77.6009C92.7329 78.3872 92.6908 79.077 92.6304 79.6856L91.8346 79.7991ZM106.958 80.8649L106.263 80.9295C105.921 79.8401 105.748 78.7045 105.751 77.5626C105.751 77.4295 105.756 77.2975 105.765 77.1659L106.958 80.8649Z" fill="#0929B1"/>
<path d="M101.382 72.6021L101.996 81.7677C102.004 81.8758 101.989 81.9841 101.952 82.0861C101.916 82.1881 101.859 82.2816 101.785 82.3606C101.711 82.4397 101.622 82.5028 101.522 82.5459C101.423 82.589 101.316 82.6112 101.208 82.6112H88.407C88.2113 82.6113 88.0226 82.5388 87.8774 82.4077C87.7321 82.2767 87.6405 82.0965 87.6204 81.9019L86.6731 72.7363C86.6618 72.6262 86.6736 72.5149 86.708 72.4097C86.7423 72.3044 86.7984 72.2076 86.8725 72.1254C86.9467 72.0432 87.0372 71.9775 87.1384 71.9325C87.2395 71.8875 87.349 71.8643 87.4597 71.8643H100.593C100.794 71.8643 100.987 71.9406 101.133 72.0776C101.279 72.2146 101.368 72.4021 101.382 72.6021Z" fill="#9EBCEA"/>
<path d="M89.4763 82.6113H102.926C103.23 82.6113 103.478 82.3642 103.478 82.0594C103.478 81.7546 103.23 81.5075 102.926 81.5075H89.4763C89.1715 81.5075 88.9244 81.7546 88.9244 82.0594C88.9244 82.3642 89.1715 82.6113 89.4763 82.6113Z" fill="#9EBCEA"/>
<path d="M93.9957 78.4554C94.6683 78.4554 95.2135 77.9101 95.2135 77.2375C95.2135 76.5648 94.6683 76.0195 93.9957 76.0195C93.3231 76.0195 92.7778 76.5648 92.7778 77.2375C92.7778 77.9101 93.3231 78.4554 93.9957 78.4554Z" fill="white"/>
<path d="M95.7502 83.7751C96.5313 84.257 97.7405 84.4849 98.7948 84.5685L98.8532 82.6474C98.3574 82.6335 97.5954 82.5812 96.849 82.6109C96.5118 82.3358 96.3177 82.2541 95.9715 81.908C95.603 81.5395 94.636 81.3182 94.4533 81.908C94.2707 82.4978 95.0647 83.3505 95.7502 83.7751Z" fill="#E98862"/>
<path d="M96.436 66.7775C96.4813 67.7344 97.0015 69.142 98.6073 69.2481C100.747 69.3891 102.407 67.731 102.532 66.7549H102.527C100.42 66.7549 97.6643 66.7584 96.436 66.7775Z" fill="#E98862"/>
<path d="M102.061 67.7996C102.061 67.7996 100.716 67.0863 101.016 63.4226L98.2369 62.9072C98.2369 62.9072 98.5491 66.1918 97.1431 67.2347L102.061 67.7996Z" fill="#E98862"/>
<g opacity="0.15">
<path d="M97.7124 66.548L100.022 64.7815L98.2079 64.7627C98.1554 65.3835 97.9873 65.989 97.7124 66.548Z" fill="black"/>
</g>
<path d="M102.594 62.0023C102.401 63.1139 101.795 64.1664 100.814 64.5251C99.7456 64.9494 98.5893 65.1056 97.4464 64.9801C94.4036 64.7306 95.0055 57.8118 96.4502 56.4675C97.8949 55.1233 102.135 55.9746 102.65 58.2226C102.917 59.3857 102.777 60.9444 102.594 62.0023Z" fill="#E98862"/>
<path d="M95.4465 56.706C95.5373 56.5619 95.6645 56.4443 95.8153 56.365C97.1664 55.6303 99.6706 55.3761 100.873 55.7359C102.268 56.1535 104.018 57.3232 103.57 60.1596C103.551 60.2791 103.531 60.3941 103.509 60.5075C103.95 60.4322 104.403 60.4796 104.818 60.6446C105.234 60.8096 105.596 61.0857 105.865 61.4428C106.134 61.7999 106.3 62.2241 106.344 62.6691C106.388 63.114 106.308 63.5624 106.114 63.9653C105.92 64.3681 105.619 64.7098 105.244 64.9529C104.869 65.196 104.434 65.3311 103.987 65.3435C103.54 65.3559 103.099 65.245 102.711 65.023C102.322 64.8011 102.003 64.4766 101.787 64.0851C101.58 64.264 101.356 64.4227 101.119 64.559C100.953 64.6579 100.912 64.5764 100.855 64.3925C100.653 63.7469 100.455 61.1932 100.613 59.3389L97.3341 59.2256L96.7629 57.6L96.2946 59.2256H95.178C95.0282 58.3449 94.8737 57.3463 95.4465 56.706Z" fill="#0F1011"/>
<path d="M98.2409 61.1458C98.3801 61.1458 98.493 61.0329 98.493 60.8937C98.493 60.7545 98.3801 60.6416 98.2409 60.6416C98.1016 60.6416 97.9888 60.7545 97.9888 60.8937C97.9888 61.0329 98.1016 61.1458 98.2409 61.1458Z" fill="#0F1011"/>
<path d="M96.2516 60.9827C96.3908 60.9827 96.5037 60.8699 96.5037 60.7306C96.5037 60.5914 96.3908 60.4785 96.2516 60.4785C96.1124 60.4785 95.9995 60.5914 95.9995 60.7306C95.9995 60.8699 96.1124 60.9827 96.2516 60.9827Z" fill="#0F1011"/>
<path d="M95.815 60.1934C95.7844 60.1924 95.7553 60.1796 95.7339 60.1577C95.7125 60.1358 95.7004 60.1064 95.7002 60.0757C95.7 60.0451 95.7117 60.0156 95.7328 59.9933C95.7539 59.9711 95.7828 59.958 95.8134 59.9566L96.4813 59.9482H96.4829C96.5135 59.9492 96.5426 59.962 96.564 59.9839C96.5854 60.0059 96.5975 60.0352 96.5977 60.0659C96.5979 60.0965 96.5862 60.1261 96.5651 60.1483C96.544 60.1705 96.5151 60.1837 96.4845 60.185L95.8166 60.1934H95.815Z" fill="#0F1011"/>
<path d="M98.7848 60.4373C98.7755 60.4372 98.7662 60.4362 98.757 60.4341L98.0987 60.2758C98.0681 60.2685 98.0417 60.2493 98.0253 60.2225C98.0089 60.1957 98.0037 60.1634 98.0111 60.1329C98.0184 60.1023 98.0376 60.0759 98.0644 60.0595C98.0912 60.043 98.1234 60.0379 98.154 60.0453L98.8125 60.2038C98.8408 60.2104 98.8657 60.2272 98.8824 60.2511C98.8991 60.2749 98.9064 60.304 98.903 60.3329C98.8995 60.3617 98.8856 60.3884 98.8638 60.4076C98.842 60.4269 98.8139 60.4374 98.7848 60.4373Z" fill="#0F1011"/>
<path d="M99.5523 61.5108C99.5311 61.7923 99.6221 62.0708 99.8055 62.2854C99.9888 62.5001 100.25 62.6335 100.531 62.6564C100.812 62.6794 101.091 62.5901 101.307 62.4081C101.523 62.226 101.658 61.966 101.683 61.6848C101.697 61.5444 101.682 61.4027 101.64 61.2681C101.598 61.1334 101.529 61.0086 101.438 60.9011C101.347 60.7935 101.235 60.7054 101.109 60.6421C100.983 60.5787 100.845 60.5414 100.705 60.5323C99.9431 60.5081 99.6014 60.9225 99.5523 61.5108Z" fill="#E98862"/>
<g opacity="0.15">
<path d="M97.1218 62.2918C97.1132 62.2919 97.1045 62.2905 97.0963 62.2878L96.4894 62.1015C96.4777 62.0979 96.4668 62.0918 96.4576 62.0837C96.4483 62.0755 96.4409 62.0656 96.4358 62.0544C96.4308 62.0431 96.4282 62.0309 96.4282 62.0185C96.4282 62.0062 96.4308 61.9939 96.4358 61.9827L96.8349 61.0943C96.8446 61.0735 96.862 61.0574 96.8835 61.0494C96.9049 61.0414 96.9286 61.0422 96.9495 61.0516C96.9704 61.061 96.9867 61.0782 96.995 61.0996C97.0032 61.1209 97.0027 61.1446 96.9936 61.1656L96.6349 61.9642L97.1476 62.1217C97.1675 62.1278 97.1846 62.1409 97.1957 62.1585C97.2068 62.1761 97.2112 62.1972 97.2081 62.2178C97.205 62.2384 97.1946 62.2572 97.1788 62.2708C97.163 62.2844 97.1429 62.2919 97.122 62.2918H97.1218Z" fill="black"/>
</g>
<path d="M98.1242 62.8798C98.1242 62.8798 97.1938 62.9779 96.541 62.75C96.541 62.75 96.5461 63.363 97.2825 63.4233C98.0189 63.4837 98.1242 62.8798 98.1242 62.8798Z" fill="white"/>
<path d="M85.5412 16.4678H74.0483V20.9219H85.5412V16.4678Z" fill="#C1D8ED"/>
<path d="M71.7253 16.4678H34.4585V20.9219H71.7253V16.4678Z" fill="#C1D8ED"/>
<path d="M85.5413 67.2236H65.7988V71.8639H85.5413V67.2236Z" fill="#C1D8ED"/>
<path d="M44.1782 11.798V6.10645H45.3851V11.798H44.1782Z" fill="white"/>
<path d="M51.8663 11.798H50.3326L47.8569 7.49227H47.8221C47.8714 8.25272 47.896 8.79516 47.896 9.11959V11.798H46.8174V6.10645H48.3395L50.8114 10.3692H50.8387C50.7997 9.62961 50.7802 9.10665 50.7802 8.80032V6.10645H51.8663V11.798Z" fill="white"/>
<path d="M56.5452 6.10645H57.763L55.8289 11.798H54.5133L52.5825 6.10645H53.8004L54.872 9.49332C54.9317 9.69306 54.9933 9.92597 55.057 10.1921C55.1207 10.4581 55.1602 10.6431 55.1756 10.7469C55.246 10.3235 55.3435 9.90507 55.4676 9.49419L56.5452 6.10645Z" fill="white"/>
<path d="M63.6457 8.94414C63.6457 9.88623 63.4122 10.6103 62.9451 11.1164C62.478 11.6225 61.8085 11.8755 60.9366 11.8755C60.0645 11.8755 59.3949 11.6225 58.9278 11.1164C58.4608 10.6103 58.2272 9.88362 58.2271 8.93631C58.2271 7.98912 58.4613 7.26573 58.9299 6.76615C59.3985 6.26657 60.0699 6.01672 60.9442 6.0166C61.8188 6.0166 62.4877 6.26836 62.9509 6.77189C63.414 7.27541 63.6456 7.9995 63.6457 8.94414ZM59.4922 8.94414C59.4922 9.58013 59.6129 10.0589 59.8543 10.3806C59.9816 10.5432 60.1469 10.6722 60.3355 10.7563C60.5241 10.8404 60.7305 10.8771 60.9366 10.8632C61.8992 10.8632 62.3806 10.2235 62.3806 8.94414C62.3806 7.66219 61.9018 7.02116 60.9442 7.02104C60.7374 7.00753 60.5304 7.0446 60.3412 7.12906C60.1519 7.21352 59.9861 7.34282 59.8581 7.50577C59.6142 7.82893 59.4922 8.30839 59.4922 8.94414Z" fill="white"/>
<path d="M64.8247 11.798V6.10645H66.0316V11.798H64.8247Z" fill="white"/>
<path d="M69.8818 7.02864C69.6773 7.01936 69.4736 7.06132 69.2894 7.15071C69.1052 7.2401 68.9462 7.37409 68.8269 7.54051C68.5777 7.88188 68.4532 8.35745 68.4532 8.96722C68.4532 10.2363 68.9294 10.8708 69.8818 10.8708C70.379 10.8516 70.8695 10.7504 71.3337 10.5712V11.5833C70.8366 11.7837 70.3046 11.8829 69.7688 11.8753C68.9408 11.8753 68.3075 11.6242 67.8691 11.1221C67.4307 10.6199 67.2114 9.89911 67.2113 8.95957C67.1995 8.42331 67.31 7.89141 67.5346 7.40428C67.7336 6.97715 68.0571 6.62022 68.4627 6.38035C68.8949 6.1356 69.3853 6.01252 69.8818 6.0242C70.4603 6.03003 71.0299 6.16684 71.5478 6.42437L71.1587 7.40532C70.9494 7.30559 70.7349 7.21725 70.5162 7.14069C70.3126 7.06776 70.0981 7.02988 69.8818 7.02864Z" fill="white"/>
<path d="M75.8217 11.798H72.5439V6.10645H75.8217V7.09522H73.7513V8.34481H75.6781V9.33359H73.7508V10.8014H75.8211L75.8217 11.798Z" fill="white"/>
</g>
<defs>
<clipPath id="clip0_192_10704">
<rect width="120" height="98.8235" fill="white" transform="translate(0 0.176758)"/>
</clipPath>
</defs>
</svg>
