<svg width="150" height="150" viewBox="0 0 150 150" fill="none" xmlns="http://www.w3.org/2000/svg">
<g clip-path="url(#clip0_18_14959)">
<path d="M150.001 149.968H0C1.64354 143.878 4.6789 138.712 8.95768 137.18C15.217 134.941 21.8409 141.097 28.0861 138.782C31.6343 137.468 34.4277 133.64 37.3629 130.46C48.4371 118.465 63.6113 114.92 76.7151 121.269C83.5643 124.586 89.8056 130.387 96.8219 132.852C105.895 136.042 115.383 133.397 124.713 132.961C133.8 132.538 146.82 137.917 150.001 149.968Z" fill="#F3F5FD"/>
<path d="M125.603 104.539C124.531 109.257 120.831 113.45 121.937 116.92C122.357 118.239 122.779 119.619 122.973 121.028C123.099 121.868 123.12 122.734 123.035 123.585C122.637 127.26 120.27 129.7 118.069 131.601C117.934 131.718 117.796 131.837 117.659 131.956C115.574 133.772 113.39 135.862 112.72 139.213C112.348 141.074 112.512 143.065 112.358 144.99C112.212 146.759 111.799 148.459 111.147 149.968H97.0934C95.8456 147.97 95.9495 144.612 96.8991 142.257C97.9158 139.736 99.6325 138.023 101.182 136.159C102.52 134.548 103.825 132.608 104.336 130.243C104.417 129.869 104.477 129.485 104.515 129.097C104.639 127.817 104.572 121.278 106.099 117.254C108.461 111.039 112.291 112.569 113.462 109.063C113.911 107.719 114.298 91.2136 121.759 94.2627C122.487 94.5455 123.167 95.0405 123.759 95.7176C124.35 96.3947 124.841 97.2397 125.2 98.2011C125.56 99.1626 125.781 100.22 125.85 101.31C125.92 102.4 125.835 103.498 125.603 104.539Z" fill="#C1D8ED"/>
<path d="M139.251 130.347C139.037 130.561 138.807 130.739 138.564 130.878C136.551 131.975 130.952 131.853 130.133 134.742C129.748 136.1 129.656 137.599 129.326 138.988C128.577 142.139 126.601 144.502 124.39 145.39C123.595 145.709 122.771 145.858 121.983 146.213C120.463 146.902 119.203 148.286 118.096 149.968H99.9455C99.9374 148.219 100.234 146.495 100.806 144.957C101.379 143.419 102.21 142.116 103.222 141.168C105.24 139.319 107.789 138.973 109.77 137.041C111.077 135.766 112.016 133.924 112.762 131.887C113.236 130.555 113.655 129.182 114.016 127.777C114.57 125.687 115.15 123.443 116.409 122.149C117.027 121.566 117.712 121.149 118.431 120.918C120.25 120.227 121.648 120.633 122.973 121.027C124.581 121.504 126.082 121.959 128.097 120.404C131.671 117.645 136.896 103.884 142.119 116.958C144.212 122.202 141.323 128.332 139.251 130.347Z" fill="#4C7BF9"/>
<path d="M25.4238 104.539C26.4957 109.257 30.1955 113.45 29.0901 116.92C28.6697 118.239 28.2476 119.619 28.0533 121.028C27.9273 121.868 27.9063 122.734 27.9914 123.585C28.39 127.26 30.7566 129.7 32.9573 131.601C33.093 131.718 33.2303 131.837 33.3677 131.956C35.4529 133.772 37.6369 135.862 38.3069 139.213C38.6787 141.074 38.5145 143.065 38.6686 144.99C38.8146 146.759 39.2281 148.459 39.8796 149.968H53.9333C55.1811 147.97 55.0773 144.612 54.1276 142.257C53.111 139.736 51.3942 138.023 49.845 136.159C48.5068 134.548 47.2021 132.608 46.6912 130.243C46.61 129.869 46.5501 129.485 46.512 129.097C46.3881 127.817 46.4551 121.278 44.9276 117.254C42.566 111.039 38.7356 112.569 37.5649 109.063C37.116 107.719 36.7291 91.2136 29.2676 94.2627C28.5401 94.5455 27.8597 95.0405 27.2681 95.7176C26.6764 96.3947 26.1859 97.2397 25.8262 98.2011C25.4666 99.1626 25.2455 100.22 25.1763 101.31C25.1071 102.4 25.1913 103.498 25.4238 104.539Z" fill="#C1D8ED"/>
<path d="M11.7745 130.347C11.9887 130.561 12.2191 130.739 12.4612 130.878C14.4744 131.975 20.0734 131.853 20.8924 134.742C21.2777 136.1 21.3698 137.599 21.6997 138.988C22.4484 142.139 24.4247 144.502 26.6355 145.39C27.4311 145.709 28.2551 145.858 29.0423 146.213C30.5631 146.902 31.8226 148.286 32.9297 149.968H51.0802C51.0882 148.219 50.7921 146.495 50.2195 144.957C49.6468 143.419 48.816 142.116 47.8042 141.168C45.7859 139.319 43.2368 138.973 41.2554 137.041C39.949 135.766 39.0094 133.924 38.2641 131.887C37.79 130.555 37.3711 129.182 37.0097 127.777C36.4553 125.687 35.8758 123.443 34.6163 122.149C33.9986 121.566 33.3139 121.149 32.5947 120.918C30.7758 120.227 29.3773 120.633 28.0525 121.027C26.4446 121.504 24.9439 121.959 22.9291 120.404C19.3549 117.645 14.1293 103.884 8.90711 116.958C6.8142 122.202 9.70334 128.332 11.7745 130.347Z" fill="#4C7BF9"/>
<path d="M96.5733 2.14746H55.4723C52.3249 2.14746 49.7734 5.85451 49.7734 10.4274V139.573C49.7734 144.146 52.3249 147.853 55.4723 147.853H96.5733C99.7207 147.853 102.272 144.146 102.272 139.573V10.4274C102.272 5.85451 99.7207 2.14746 96.5733 2.14746Z" fill="white"/>
<path d="M96.5735 150H55.4724C53.5697 149.997 51.7456 148.897 50.4003 146.942C49.0549 144.987 48.2981 142.337 48.2959 139.573V10.4272C48.2981 7.66278 49.0549 5.01253 50.4003 3.05777C51.7456 1.10301 53.5697 0.00334889 55.4724 0L96.5735 0C98.4762 0.00334889 100.3 1.10301 101.646 3.05777C102.991 5.01253 103.748 7.66278 103.75 10.4272V139.573C103.748 142.337 102.991 144.987 101.646 146.942C100.3 148.897 98.4762 149.997 96.5735 150ZM55.4724 4.29424C54.3532 4.29591 53.2801 4.94258 52.4887 6.09235C51.6973 7.24212 51.2521 8.80108 51.2509 10.4272V139.573C51.2522 141.199 51.6974 142.757 52.4886 143.907C53.2798 145.056 54.3526 145.703 55.4715 145.705H96.5727C97.6917 145.703 98.7644 145.056 99.5556 143.907C100.347 142.757 100.792 141.199 100.793 139.573V10.4272C100.792 8.80141 100.347 7.24283 99.5556 6.09325C98.7644 4.94367 97.6917 4.29696 96.5727 4.29497L55.4724 4.29424Z" fill="#DEE8F5"/>
<path d="M67.0236 2.14746H85.0222V7.22136C85.0222 7.72009 84.9546 8.21393 84.8232 8.67469C84.6919 9.13545 84.4993 9.5541 84.2566 9.90674C84.0138 10.2594 83.7257 10.5391 83.4085 10.7299C83.0914 10.9208 82.7515 11.019 82.4082 11.0189H69.6374C68.9441 11.0189 68.2793 10.6188 67.7891 9.90659C67.2988 9.19436 67.0234 8.22837 67.0234 7.22112V2.14746H67.0236Z" fill="#DEE8F5"/>
<path d="M84.6427 33.5131C84.6425 35.9901 84.1368 38.4113 83.1896 40.4706C82.2423 42.53 80.896 44.135 79.3209 45.0826C77.7457 46.0303 76.0126 46.278 74.3406 45.7946C72.6685 45.3111 71.1327 44.1182 69.9274 42.3665C68.722 40.6149 67.9012 38.3833 67.5688 35.9539C67.2364 33.5246 67.4072 31.0065 68.0598 28.7182C68.7123 26.43 69.8173 24.4742 71.2349 23.0983C72.6525 21.7224 74.319 20.9881 76.0238 20.9884C77.157 20.9821 78.2799 21.3018 79.3276 21.9291C80.3753 22.5563 81.3273 23.4787 82.1285 24.643C82.9297 25.8073 83.5643 27.1905 83.9959 28.7129C84.4274 30.2353 84.6472 31.8667 84.6427 33.5131Z" fill="#C1D8ED"/>
<path d="M76.0232 34.8038C77.9081 34.8038 79.4361 32.5838 79.4361 29.8453C79.4361 27.1067 77.9081 24.8867 76.0232 24.8867C74.1383 24.8867 72.6104 27.1067 72.6104 29.8453C72.6104 32.5838 74.1383 34.8038 76.0232 34.8038Z" fill="white"/>
<path d="M82.2345 42.1959C81.4305 43.4107 80.466 44.3771 79.3987 45.0374C78.3315 45.6976 77.1835 46.038 76.0236 46.0383C74.8637 46.0385 73.7156 45.6985 72.6483 45.0387C71.5809 44.3789 70.6162 43.4128 69.812 42.1984C70.9744 38.4241 73.3209 35.8447 76.0241 35.8447C78.7273 35.8447 81.0721 38.4215 82.2345 42.1959Z" fill="white"/>
<path d="M94.1829 55.0654H57.8623V66.5774H94.1829V55.0654Z" fill="#4C7BF9"/>
<path d="M94.1829 74.9619H57.8623V86.4739H94.1829V74.9619Z" fill="#C1D8ED"/>
<path d="M119.829 49.021C119.829 49.021 118.482 48.1805 118.482 43.0395L115.775 42.6387C115.775 42.6387 116.333 47.1816 115.066 48.7952L119.829 49.021Z" fill="#E98862"/>
<path d="M119.884 40.8791C119.787 42.4506 119.288 43.987 118.375 44.5995C117.384 45.313 116.287 45.663 115.18 45.6189C112.241 45.6189 112.274 35.9052 113.554 33.8655C114.835 31.8258 118.97 32.5288 119.641 35.6032C119.988 37.1947 119.976 39.3835 119.884 40.8791Z" fill="#E98862"/>
<path d="M115.621 40.1847C115.755 40.1847 115.863 40.0268 115.863 39.8321C115.863 39.6374 115.755 39.4795 115.621 39.4795C115.487 39.4795 115.378 39.6374 115.378 39.8321C115.378 40.0268 115.487 40.1847 115.621 40.1847Z" fill="#124AF6"/>
<path d="M116.097 39.1335C116.091 39.1334 116.086 39.1328 116.08 39.1315L115.436 38.9855C115.42 38.9829 115.406 38.9758 115.392 38.9648C115.379 38.9537 115.367 38.9389 115.358 38.9211C115.349 38.9034 115.342 38.8831 115.338 38.8616C115.335 38.84 115.334 38.8175 115.336 38.7955C115.339 38.7735 115.344 38.7525 115.352 38.7336C115.36 38.7147 115.371 38.6983 115.383 38.6855C115.396 38.6727 115.41 38.6637 115.425 38.659C115.44 38.6543 115.455 38.654 115.471 38.6582L116.115 38.8042C116.143 38.8106 116.169 38.8323 116.187 38.8649C116.204 38.8975 116.213 38.9387 116.211 38.9802C116.209 39.0218 116.196 39.0607 116.175 39.0891C116.154 39.1176 116.127 39.1335 116.098 39.1337L116.097 39.1335Z" fill="#124AF6"/>
<path d="M113.717 41.3278C113.717 41.7243 113.826 42.1045 114.019 42.3849C114.212 42.6652 114.473 42.8227 114.746 42.8227C115.019 42.8227 115.281 42.6652 115.474 42.3849C115.667 42.1045 115.775 41.7243 115.775 41.3278C115.78 40.938 115.677 40.5616 115.491 40.2812C115.304 40.0009 115.049 39.8397 114.781 39.833C114.769 39.833 114.758 39.833 114.746 39.833C114.013 39.8853 113.717 40.5022 113.717 41.3278Z" fill="#E98862"/>
<path d="M113.709 37.8125C113.138 37.8059 112.569 37.7362 112.006 37.6039C112.006 37.6039 112.178 31.2958 116.789 31.6554C117.388 31.6157 117.988 31.6672 118.579 31.809C119.965 32.1175 121.93 34.1762 122.247 39.3282C122.392 41.6918 122.953 43.9198 123.381 45.3305C123.432 45.4961 123.453 45.6774 123.443 45.858C123.433 46.0386 123.392 46.2127 123.324 46.3647C123.256 46.5166 123.164 46.6414 123.054 46.728C122.944 46.8145 122.822 46.8599 122.697 46.8601L112.819 46.7457C112.702 46.7458 112.587 46.7062 112.482 46.63C112.378 46.5539 112.287 46.4433 112.218 46.3071C112.148 46.1709 112.101 46.013 112.081 45.8458C112.061 45.6787 112.068 45.507 112.101 45.3446C112.639 42.7591 113.622 41.1745 113.709 37.8125Z" fill="#0F1011"/>
<path d="M96.3601 64.4368C96.3601 64.4368 93.9818 63.4787 93.6401 62.8183C93.2985 62.1579 94.129 59.935 94.129 59.935C94.129 59.935 91.7507 58.5204 91.9794 57.962C92.2498 57.3027 95.2195 59.6622 95.2195 59.6622C95.2195 59.6622 94.5735 58.5528 94.8896 58.2596C95.0196 58.1379 95.1886 58.2705 95.6713 59.0395C96.2213 59.9155 97.1721 61.1587 97.1721 61.1587L96.3601 64.4368Z" fill="#E98862"/>
<path d="M108.193 147.336C107.823 142.806 107.823 142.34 107.823 142.187H111.34C111.34 142.171 111.34 142.151 111.34 142.127C111.352 142.505 111.53 144.812 111.687 146.733L108.193 147.336Z" fill="#E98862"/>
<path d="M122.208 147.947C122.208 147.947 122.196 142.655 122.196 142.187H125.713C125.713 142.653 125.725 147.929 125.725 147.929L122.208 147.947Z" fill="#E98862"/>
<path d="M127.302 83.4404C127.302 84.1656 127.038 86.5897 127.462 86.763C127.716 86.8669 128.016 85.0596 128.016 85.0596" fill="#E98862"/>
<path d="M129.303 83.0594C129.303 83.0594 130.687 87.9539 129.108 90.7657C129.068 90.8374 129.014 90.8897 128.953 90.9159C128.892 90.9421 128.827 90.9409 128.766 90.9125C128.706 90.884 128.652 90.8297 128.613 90.7566C128.574 90.6835 128.552 90.595 128.548 90.5027C128.471 88.6068 128.208 84.7126 127.348 85.1674V82.1104" fill="#E98862"/>
<path d="M125.214 114.727C124.875 107.091 124.288 94.2817 124 86.7659H124.047L123.552 74.6719L110.81 75.8144L110.679 77.1114L110.634 77.0921C109.141 88.5932 108.504 101.312 107.293 112.896C107.208 123.63 107.185 134.862 106.896 145.57L113.093 145.723C113.073 135.263 113.251 124.328 113.463 113.851C114.435 105.638 115.799 96.5251 116.894 88.4024C117.885 104.227 119.362 130.152 120.457 146.191L126.632 145.433L125.214 114.727Z" fill="#262626"/>
<path d="M117.932 149.924C117.842 149.923 117.753 149.897 117.669 149.846C117.586 149.795 117.51 149.721 117.447 149.628C117.383 149.535 117.333 149.424 117.299 149.303C117.264 149.181 117.247 149.051 117.248 148.92C117.248 148.895 117.248 148.871 117.25 148.847C117.26 148.657 117.307 148.475 117.386 148.323C117.465 148.171 117.572 148.055 117.695 147.988L121.789 145.996C121.868 145.958 121.952 145.945 122.035 145.958C122.118 145.972 122.198 146.011 122.27 146.073C122.832 146.641 123.506 146.931 124.19 146.901C124.724 146.846 125.236 146.574 125.668 146.117C125.706 146.071 125.752 146.043 125.8 146.034C125.849 146.025 125.899 146.037 125.943 146.068C125.987 146.098 126.025 146.147 126.051 146.207C126.077 146.267 126.091 146.337 126.091 146.409V149.317C126.091 149.49 126.044 149.656 125.96 149.778C125.876 149.9 125.761 149.969 125.642 149.969H125.641L117.932 149.924Z" fill="#C1D8ED"/>
<path d="M103.908 149.924C103.818 149.923 103.729 149.897 103.645 149.846C103.562 149.795 103.486 149.721 103.423 149.628C103.359 149.535 103.309 149.424 103.275 149.303C103.241 149.181 103.223 149.051 103.224 148.92C103.224 148.895 103.224 148.871 103.226 148.847C103.236 148.657 103.283 148.475 103.362 148.323C103.441 148.171 103.548 148.055 103.671 147.988L107.765 145.996C107.844 145.958 107.928 145.945 108.011 145.958C108.094 145.972 108.174 146.011 108.246 146.073C108.809 146.641 109.482 146.931 110.166 146.901C110.7 146.846 111.212 146.574 111.644 146.117C111.682 146.071 111.728 146.043 111.777 146.034C111.825 146.025 111.875 146.037 111.919 146.068C111.964 146.098 112.001 146.147 112.027 146.207C112.053 146.267 112.067 146.337 112.067 146.409V149.317C112.067 149.49 112.02 149.656 111.936 149.778C111.852 149.9 111.738 149.969 111.619 149.969H111.617L103.908 149.924Z" fill="#C1D8ED"/>
<path d="M128.532 68.0023C128.514 67.8228 128.483 67.6465 128.44 67.4762L124.595 52.2883L124.572 52.3007C124.405 51.5528 124.117 50.8743 123.731 50.3224C122.966 49.2108 121.641 48.4912 120.027 48.4912C117.625 48.4912 114.344 48.4988 113.671 48.5399C111.617 48.6679 110.656 50.0058 110.264 51.9817L105.46 64.512L97.1285 60.0088L95.9023 64.7982L105.648 70.067C106.042 70.2804 106.475 70.2815 106.87 70.0703C107.264 69.8591 107.593 69.4495 107.797 68.9158L110.478 61.9229C110.549 62.9169 110.602 63.894 110.61 64.8252C110.674 72.7258 109.206 74.2141 109.93 76.6295C110.632 78.9716 124.421 79.946 124.605 75.8225C124.722 73.1998 123.131 70.9092 123.131 65.7969C123.145 64.8254 123.233 63.8591 123.395 62.9162L124.947 69.0501L126.471 83.9684L130.084 83.1897L128.532 68.0023Z" fill="#124AF6"/>
<path d="M76.0228 133.821C82.3913 133.821 87.5539 126.32 87.5539 117.067C87.5539 107.814 82.3913 100.313 76.0228 100.313C69.6543 100.313 64.4917 107.814 64.4917 117.067C64.4917 126.32 69.6543 133.821 76.0228 133.821Z" fill="#C1D8ED"/>
<path d="M68.8515 109.604C67.529 124.797 76.2062 128.938 76.2062 128.938C76.2062 128.938 84.173 124.533 83.2573 109.641C83.2573 109.641 78.6081 111.063 76.2062 105.971C76.2062 105.971 74.4404 110.907 68.8515 109.604Z" fill="white"/>
<path d="M78.4691 115.58H78.1208V114.449C78.1158 113.645 77.8926 112.877 77.4997 112.311C77.1068 111.745 76.5759 111.428 76.0227 111.428C75.4695 111.428 74.9387 111.745 74.5458 112.311C74.1529 112.877 73.9297 113.645 73.9247 114.449V115.58H73.5765C73.4173 115.58 73.2645 115.672 73.1519 115.835C73.0393 115.999 72.9761 116.221 72.9761 116.452V122.139C72.9761 122.371 73.0393 122.593 73.1519 122.756C73.2645 122.92 73.4173 123.012 73.5765 123.012H78.4695C78.6287 123.012 78.7814 122.92 78.894 122.756C79.0066 122.593 79.0699 122.371 79.0699 122.139V116.452C79.0699 116.338 79.0544 116.224 79.0242 116.118C78.994 116.012 78.9497 115.916 78.8939 115.835C78.8381 115.754 78.7719 115.69 78.699 115.646C78.6261 115.602 78.548 115.58 78.4691 115.58ZM74.6067 114.449C74.6108 113.907 74.7617 113.39 75.0269 113.008C75.292 112.627 75.6498 112.414 76.0227 112.414C76.3956 112.414 76.7535 112.627 77.0186 113.008C77.2837 113.39 77.4347 113.907 77.4387 114.449V115.58H74.6067V114.449Z" fill="#4C7BF9"/>
<path d="M61.4552 62.6782C62.1609 62.6782 62.7331 61.847 62.7331 60.8215C62.7331 59.7961 62.1609 58.9648 61.4552 58.9648C60.7494 58.9648 60.1772 59.7961 60.1772 60.8215C60.1772 61.847 60.7494 62.6782 61.4552 62.6782Z" fill="white"/>
<path d="M65.2921 62.6782C65.9979 62.6782 66.57 61.847 66.57 60.8215C66.57 59.7961 65.9979 58.9648 65.2921 58.9648C64.5863 58.9648 64.0142 59.7961 64.0142 60.8215C64.0142 61.847 64.5863 62.6782 65.2921 62.6782Z" fill="white"/>
<path d="M69.129 62.6782C69.8348 62.6782 70.4069 61.847 70.4069 60.8215C70.4069 59.7961 69.8348 58.9648 69.129 58.9648C68.4232 58.9648 67.8511 59.7961 67.8511 60.8215C67.8511 61.847 68.4232 62.6782 69.129 62.6782Z" fill="white"/>
<path d="M72.9659 62.6782C73.6717 62.6782 74.2438 61.847 74.2438 60.8215C74.2438 59.7961 73.6717 58.9648 72.9659 58.9648C72.2601 58.9648 71.688 59.7961 71.688 60.8215C71.688 61.847 72.2601 62.6782 72.9659 62.6782Z" fill="white"/>
<path d="M76.8028 62.6782C77.5086 62.6782 78.0807 61.847 78.0807 60.8215C78.0807 59.7961 77.5086 58.9648 76.8028 58.9648C76.097 58.9648 75.5249 59.7961 75.5249 60.8215C75.5249 61.847 76.097 62.6782 76.8028 62.6782Z" fill="white"/>
<path d="M80.6397 62.6782C81.3455 62.6782 81.9177 61.847 81.9177 60.8215C81.9177 59.7961 81.3455 58.9648 80.6397 58.9648C79.934 58.9648 79.3618 59.7961 79.3618 60.8215C79.3618 61.847 79.934 62.6782 80.6397 62.6782Z" fill="white"/>
<path d="M84.3394 62.6782C85.0452 62.6782 85.6174 61.847 85.6174 60.8215C85.6174 59.7961 85.0452 58.9648 84.3394 58.9648C83.6337 58.9648 83.0615 59.7961 83.0615 60.8215C83.0615 61.847 83.6337 62.6782 84.3394 62.6782Z" fill="white"/>
<path d="M61.4552 82.5747C62.1609 82.5747 62.7331 81.7434 62.7331 80.718C62.7331 79.6926 62.1609 78.8613 61.4552 78.8613C60.7494 78.8613 60.1772 79.6926 60.1772 80.718C60.1772 81.7434 60.7494 82.5747 61.4552 82.5747Z" fill="white"/>
<path d="M65.2921 82.5747C65.9979 82.5747 66.57 81.7434 66.57 80.718C66.57 79.6926 65.9979 78.8613 65.2921 78.8613C64.5863 78.8613 64.0142 79.6926 64.0142 80.718C64.0142 81.7434 64.5863 82.5747 65.2921 82.5747Z" fill="white"/>
<path d="M69.129 82.5747C69.8348 82.5747 70.4069 81.7434 70.4069 80.718C70.4069 79.6926 69.8348 78.8613 69.129 78.8613C68.4232 78.8613 67.8511 79.6926 67.8511 80.718C67.8511 81.7434 68.4232 82.5747 69.129 82.5747Z" fill="white"/>
<path d="M72.9659 82.5747C73.6717 82.5747 74.2438 81.7434 74.2438 80.718C74.2438 79.6926 73.6717 78.8613 72.9659 78.8613C72.2601 78.8613 71.688 79.6926 71.688 80.718C71.688 81.7434 72.2601 82.5747 72.9659 82.5747Z" fill="white"/>
<path d="M76.8028 82.5747C77.5086 82.5747 78.0807 81.7434 78.0807 80.718C78.0807 79.6926 77.5086 78.8613 76.8028 78.8613C76.097 78.8613 75.5249 79.6926 75.5249 80.718C75.5249 81.7434 76.097 82.5747 76.8028 82.5747Z" fill="white"/>
<path d="M80.6397 82.5747C81.3455 82.5747 81.9177 81.7434 81.9177 80.718C81.9177 79.6926 81.3455 78.8613 80.6397 78.8613C79.934 78.8613 79.3618 79.6926 79.3618 80.718C79.3618 81.7434 79.934 82.5747 80.6397 82.5747Z" fill="white"/>
</g>
<defs>
<clipPath id="clip0_18_14959">
<rect width="150" height="150" fill="white"/>
</clipPath>
</defs>
</svg>
