<svg width="300" height="220" viewBox="0 0 300 220" fill="none" xmlns="http://www.w3.org/2000/svg">
<g clip-path="url(#clip0_18_14350)">
<path opacity="0.05" d="M75.8239 215.842H70.5586V219.682H75.8239V215.842Z" fill="#292A2E"/>
<path opacity="0.05" d="M21.9918 215.842H16.7266V219.682H21.9918V215.842Z" fill="#292A2E"/>
<path d="M80.6505 138.473H11.9004V215.712H80.6505V138.473Z" fill="#F4F4F4"/>
<path opacity="0.03" d="M80.6505 138.473H11.9004V215.712H80.6505V138.473Z" fill="#292A2E"/>
<path d="M93.3907 138.473H24.6406V215.712H93.3907V138.473Z" fill="#F4F4F4"/>
<path opacity="0.05" d="M88.5651 215.842H83.2998V219.682H88.5651V215.842Z" fill="#292A2E"/>
<path opacity="0.05" d="M34.7331 215.842H29.4678V219.682H34.7331V215.842Z" fill="#292A2E"/>
<path opacity="0.7" d="M90.8103 142.09H27.2217V156.929H90.8103V142.09Z" fill="white"/>
<path opacity="0.7" d="M90.8103 160.562H27.2217V175.401H90.8103V160.562Z" fill="white"/>
<path opacity="0.7" d="M90.8103 179.032H27.2217V193.872H90.8103V179.032Z" fill="white"/>
<path opacity="0.05" d="M59.0165 151.586C60.0665 151.586 60.9177 150.657 60.9177 149.51C60.9177 148.363 60.0665 147.434 59.0165 147.434C57.9665 147.434 57.1152 148.363 57.1152 149.51C57.1152 150.657 57.9665 151.586 59.0165 151.586Z" fill="#292A2E"/>
<path opacity="0.05" d="M59.0165 170.058C60.0665 170.058 60.9177 169.128 60.9177 167.982C60.9177 166.835 60.0665 165.905 59.0165 165.905C57.9665 165.905 57.1152 166.835 57.1152 167.982C57.1152 169.128 57.9665 170.058 59.0165 170.058Z" fill="#292A2E"/>
<path opacity="0.05" d="M59.0165 188.529C60.0665 188.529 60.9177 187.599 60.9177 186.452C60.9177 185.306 60.0665 184.376 59.0165 184.376C57.9665 184.376 57.1152 185.306 57.1152 186.452C57.1152 187.599 57.9665 188.529 59.0165 188.529Z" fill="#292A2E"/>
<path opacity="0.7" d="M90.8103 197.92H27.2217V212.759H90.8103V197.92Z" fill="white"/>
<path opacity="0.05" d="M59.0155 207.416C60.0655 207.416 60.9168 206.487 60.9168 205.34C60.9168 204.193 60.0655 203.264 59.0155 203.264C57.9655 203.264 57.1143 204.193 57.1143 205.34C57.1143 206.487 57.9655 207.416 59.0155 207.416Z" fill="#292A2E"/>
<path d="M240.33 3.30859H201.521V58.4742H240.33V3.30859Z" fill="#F4F4F4"/>
<path d="M240.33 58.4746H241.589V3.30897H240.33V58.4746Z" fill="#F4F4F4"/>
<path opacity="0.05" d="M240.33 58.4746H241.589V3.30897H240.33V58.4746Z" fill="#292A2E"/>
<path opacity="0.05" d="M233.26 13.3574H208.591V48.4247H233.26V13.3574Z" fill="#292A2E"/>
<path opacity="0.03" d="M233.26 13.3574H231.975V48.4247H233.26V13.3574Z" fill="#292A2E"/>
<path d="M272.069 72.04H240.33V107.02H272.069V72.04Z" fill="#F4F4F4"/>
<path opacity="0.05" d="M266.287 78.4121H246.111V100.648H266.287V78.4121Z" fill="#292A2E"/>
<path d="M272.069 107.021H273.328V72.0404H272.069V107.021Z" fill="#F4F4F4"/>
<path opacity="0.05" d="M272.069 107.021H273.328V72.0404H272.069V107.021Z" fill="#292A2E"/>
<path opacity="0.03" d="M266.288 78.4121H265.002V100.648H266.288V78.4121Z" fill="#292A2E"/>
<path d="M114 0H6.53906V117.356H114V0Z" fill="#F4F4F4"/>
<path d="M6.53929 0H5.30762V117.356H6.53929V0Z" fill="#F4F4F4"/>
<path opacity="0.05" d="M6.53929 0H5.30762V117.356H6.53929V0Z" fill="#292A2E"/>
<path opacity="0.05" d="M32.5714 80.8679V50.1641H55.6018V68.0024H91.2761V99.5876H106.438V117.356H91.2761H88.3553H11.708V80.8679H32.5714Z" fill="#292A2E"/>
<path opacity="0.34" d="M52.6461 53.4971H35.875V56.8307H52.6461V53.4971Z" fill="#FFFFFA"/>
<path opacity="0.34" d="M52.6461 60.4053H35.875V63.7389H52.6461V60.4053Z" fill="#FFFFFA"/>
<path opacity="0.34" d="M52.6461 67.3135H35.875V70.6472H52.6461V67.3135Z" fill="#FFFFFA"/>
<path opacity="0.34" d="M17.7728 84.1035H14.6816V87.4372H17.7728V84.1035Z" fill="#FFFFFA"/>
<path opacity="0.34" d="M17.7728 91.0117H14.6816V94.3454H17.7728V91.0117Z" fill="#FFFFFA"/>
<path opacity="0.34" d="M17.7728 97.9199H14.6816V101.254H17.7728V97.9199Z" fill="#FFFFFA"/>
<path opacity="0.34" d="M23.4916 84.1035H20.4004V87.4372H23.4916V84.1035Z" fill="#FFFFFA"/>
<path opacity="0.34" d="M23.4916 91.0117H20.4004V94.3454H23.4916V91.0117Z" fill="#FFFFFA"/>
<path opacity="0.34" d="M23.4916 97.9199H20.4004V101.254H23.4916V97.9199Z" fill="#FFFFFA"/>
<path opacity="0.34" d="M29.056 84.1035H25.9648V87.4372H29.056V84.1035Z" fill="#FFFFFA"/>
<path opacity="0.34" d="M29.056 91.0117H25.9648V94.3454H29.056V91.0117Z" fill="#FFFFFA"/>
<path opacity="0.34" d="M29.056 97.9199H25.9648V101.254H29.056V97.9199Z" fill="#FFFFFA"/>
<path d="M6.53906 58.0196H28.1618V0H29.9501V58.0196H88.3556V0H90.1439V58.0196H114V59.9726H90.1439V117.356H88.3556V59.9726H29.9501V117.356H28.1618V59.9726H6.53906V58.0196Z" fill="white"/>
<path d="M118.28 117.214H2.25781V121.117H118.28V117.214Z" fill="#F4F4F4"/>
<path opacity="0.1" d="M118.28 117.214H2.25781V121.117H118.28V117.214Z" fill="#292A2E"/>
<path opacity="0.1" d="M2.25811 117.214H0.583008V121.117H2.25811V117.214Z" fill="#292A2E"/>
<path opacity="0.1" d="M2.25811 117.214H0.583008V121.117H2.25811V117.214Z" fill="#292A2E"/>
<path d="M31.6543 40.1176L31.6543 179.011C31.6543 190.501 40.1834 199.815 50.7046 199.815H249.295C259.816 199.815 268.346 190.501 268.346 179.011V40.1176C268.346 28.6276 259.816 19.3131 249.295 19.3131H50.7046C40.1834 19.3131 31.6543 28.6276 31.6543 40.1176Z" fill="#292A2E"/>
<path d="M261.952 40.182V178.947C261.952 182.735 260.573 186.369 258.12 189.048C255.667 191.727 252.34 193.232 248.871 193.232H50.6836C47.2145 193.231 43.8877 191.726 41.4347 189.047C38.9816 186.368 37.6032 182.735 37.6025 178.947V143.836H41.6377C43.5003 143.836 45.2868 143.028 46.6041 141.59C47.9214 140.152 48.6617 138.202 48.6621 136.167V82.9618C48.6617 80.9277 47.9214 78.9771 46.6041 77.539C45.2868 76.1009 43.5003 75.2932 41.6377 75.2935H37.6025V40.182C37.6032 36.3935 38.9815 32.7603 41.4346 30.0814C43.8876 27.4025 47.2145 25.8972 50.6836 25.8965H248.871C252.34 25.8966 255.667 27.4018 258.12 30.0808C260.573 32.7598 261.952 36.3933 261.952 40.182Z" fill="white"/>
<path d="M35.1436 143.836L35.1436 75.2937H41.6384C43.501 75.2937 45.2873 76.1017 46.6043 77.54C47.9213 78.9783 48.6612 80.9291 48.6612 82.9632V136.166C48.6612 138.201 47.9213 140.151 46.6043 141.59C45.2873 143.028 43.501 143.836 41.6384 143.836H35.1436Z" fill="#292A2E"/>
<path d="M277.292 182.275C277.223 182.275 277.156 182.245 277.107 182.192C276.74 181.79 276.141 174.426 274.527 152.5C273.867 143.53 273.243 135.059 272.788 129.911C272.756 129.543 272.625 129.5 272.582 129.486C271.958 129.28 270.065 130.912 269.007 132.341C268.985 132.371 268.959 132.396 268.929 132.415C268.898 132.434 268.865 132.446 268.83 132.45C268.796 132.455 268.761 132.452 268.727 132.441C268.694 132.43 268.663 132.413 268.636 132.389C268.609 132.365 268.586 132.335 268.57 132.302C268.553 132.268 268.543 132.231 268.54 132.194C268.537 132.156 268.541 132.118 268.551 132.081C268.562 132.045 268.579 132.012 268.601 131.983C269.3 131.038 271.579 128.562 272.732 128.94C272.965 129.017 273.253 129.237 273.306 129.856C273.762 135.009 274.385 143.484 275.046 152.456C276.026 165.78 277.137 180.875 277.502 181.824C277.53 181.867 277.547 181.917 277.551 181.969C277.554 182.022 277.545 182.074 277.523 182.121C277.501 182.167 277.468 182.207 277.427 182.234C277.386 182.261 277.338 182.276 277.29 182.276L277.292 182.275Z" fill="#494949"/>
<path d="M272.117 139.358C276.446 135.569 277.88 129.672 275.322 126.186C272.763 122.7 267.18 122.945 262.852 126.734C258.523 130.523 257.089 136.421 259.648 139.907C262.206 143.393 267.789 143.147 272.117 139.358Z" fill="#0CBC8B"/>
<path opacity="0.2" d="M272.117 139.358C276.446 135.569 277.88 129.672 275.322 126.186C272.763 122.7 267.18 122.945 262.852 126.734C258.523 130.523 257.089 136.421 259.648 139.907C262.206 143.393 267.789 143.147 272.117 139.358Z" fill="white"/>
<path d="M260.861 140.794C260.836 140.794 260.812 140.786 260.791 140.772C260.77 140.757 260.753 140.736 260.743 140.712C260.732 140.687 260.728 140.66 260.732 140.633C260.735 140.606 260.745 140.581 260.761 140.56L273.097 124.315C273.119 124.286 273.151 124.268 273.185 124.264C273.22 124.261 273.254 124.272 273.281 124.297C273.307 124.321 273.324 124.355 273.327 124.393C273.33 124.431 273.32 124.468 273.298 124.497L260.962 140.742C260.95 140.759 260.935 140.772 260.917 140.781C260.9 140.789 260.88 140.794 260.861 140.794Z" fill="white"/>
<path d="M279.984 178.793C279.942 178.793 279.901 178.782 279.864 178.761C279.827 178.74 279.795 178.71 279.771 178.673C279.747 178.636 279.731 178.593 279.725 178.548C279.719 178.503 279.723 178.457 279.737 178.414L284.371 163.862C284.507 163.434 284.74 163.051 285.047 162.747C285.354 162.443 285.726 162.228 286.129 162.121C286.532 162.015 286.953 162.021 287.354 162.139C287.754 162.256 288.121 162.481 288.421 162.794L290.871 165.35C290.919 165.402 290.947 165.473 290.947 165.548C290.948 165.622 290.922 165.694 290.875 165.748C290.828 165.802 290.764 165.833 290.695 165.836C290.627 165.838 290.561 165.812 290.511 165.762L288.061 163.206C287.824 162.959 287.534 162.781 287.218 162.688C286.901 162.595 286.569 162.59 286.25 162.674C285.932 162.758 285.638 162.927 285.395 163.168C285.152 163.408 284.969 163.711 284.861 164.049L280.228 178.601C280.21 178.657 280.177 178.705 280.133 178.739C280.09 178.773 280.037 178.792 279.984 178.793Z" fill="#494949"/>
<path d="M297.714 173.406C300.922 170.634 300.731 164.535 297.288 159.785C293.845 155.035 288.454 153.432 285.246 156.205C282.039 158.978 282.229 165.076 285.672 169.826C289.115 174.576 294.506 176.179 297.714 173.406Z" fill="#0CBC8B"/>
<path d="M275.186 181.347C275.128 181.347 275.071 181.325 275.025 181.285C274.979 181.246 274.946 181.19 274.933 181.128L267.157 145.622C267.104 145.38 266.991 145.159 266.83 144.983C266.669 144.806 266.467 144.682 266.246 144.623C266.024 144.564 265.792 144.573 265.575 144.649C265.358 144.725 265.164 144.864 265.015 145.053L262.618 148.077C262.596 148.107 262.569 148.131 262.538 148.149C262.507 148.167 262.473 148.178 262.439 148.181C262.404 148.184 262.369 148.18 262.336 148.168C262.302 148.156 262.272 148.138 262.245 148.113C262.219 148.088 262.197 148.057 262.182 148.023C262.167 147.989 262.158 147.952 262.156 147.913C262.154 147.875 262.159 147.837 262.17 147.801C262.182 147.766 262.2 147.733 262.224 147.705L264.62 144.678C264.832 144.411 265.107 144.212 265.416 144.105C265.724 143.997 266.054 143.985 266.368 144.068C266.683 144.152 266.97 144.329 267.199 144.58C267.427 144.831 267.588 145.145 267.664 145.489L275.439 180.995C275.455 181.068 275.443 181.145 275.407 181.209C275.371 181.273 275.313 181.319 275.246 181.337C275.227 181.343 275.207 181.346 275.186 181.347Z" fill="#494949"/>
<path d="M272.157 156.009C273.1 150.042 270.598 144.589 266.569 143.83C262.539 143.07 258.508 147.292 257.565 153.259C256.622 159.226 259.124 164.679 263.154 165.439C267.183 166.198 271.214 161.977 272.157 156.009Z" fill="#0CBC8B"/>
<path d="M277.291 182.275C277.281 182.275 277.27 182.274 277.259 182.273C277.191 182.263 277.128 182.225 277.086 182.165C277.043 182.106 277.024 182.03 277.032 181.955L281.998 137.927C282.052 137.448 282.232 136.995 282.516 136.625C282.799 136.254 283.175 135.981 283.598 135.838C284.021 135.695 284.472 135.688 284.898 135.819C285.324 135.949 285.706 136.212 285.999 136.574L291.675 143.593C291.697 143.622 291.715 143.654 291.726 143.69C291.737 143.725 291.741 143.762 291.739 143.8C291.737 143.837 291.728 143.874 291.713 143.907C291.698 143.941 291.677 143.971 291.652 143.996C291.626 144.02 291.596 144.039 291.564 144.051C291.531 144.064 291.497 144.069 291.463 144.066C291.428 144.064 291.395 144.054 291.364 144.038C291.333 144.021 291.306 143.998 291.283 143.97L285.608 136.951C285.382 136.671 285.086 136.468 284.757 136.367C284.428 136.266 284.079 136.272 283.752 136.382C283.425 136.493 283.135 136.704 282.915 136.99C282.696 137.277 282.557 137.626 282.515 137.997L277.55 182.024C277.542 182.093 277.512 182.157 277.464 182.203C277.416 182.249 277.355 182.275 277.291 182.275Z" fill="#494949"/>
<path d="M297.496 147.495C299.476 143.586 297.146 138.039 292.292 135.107C287.438 132.175 281.898 132.967 279.917 136.876C277.937 140.786 280.267 146.332 285.121 149.264C289.975 152.197 295.515 151.405 297.496 147.495Z" fill="#0CBC8B"/>
<path opacity="0.2" d="M297.714 173.406C300.922 170.634 300.731 164.535 297.288 159.785C293.845 155.035 288.454 153.432 285.246 156.205C282.039 158.978 282.229 165.076 285.672 169.826C289.115 174.576 294.506 176.179 297.714 173.406Z" fill="white"/>
<path opacity="0.5" d="M272.157 156.009C273.1 150.042 270.598 144.589 266.569 143.83C262.539 143.07 258.508 147.292 257.565 153.259C256.622 159.226 259.124 164.679 263.154 165.439C267.183 166.198 271.214 161.977 272.157 156.009Z" fill="white"/>
<path opacity="0.5" d="M297.496 147.495C299.476 143.586 297.146 138.039 292.292 135.107C287.438 132.175 281.898 132.967 279.917 136.876C277.937 140.786 280.267 146.332 285.121 149.264C289.975 152.197 295.515 151.405 297.496 147.495Z" fill="white"/>
<path d="M283.643 219.632H270.941L268.836 175.25H285.747L283.643 219.632Z" fill="#292A2E"/>
<path opacity="0.3" d="M283.643 219.632H270.941L268.836 175.25H285.747L283.643 219.632Z" fill="white"/>
<path d="M297.714 173.547C297.694 173.547 297.675 173.542 297.657 173.533C297.639 173.523 297.624 173.51 297.612 173.493L285.144 156.291C285.124 156.262 285.115 156.225 285.119 156.188C285.124 156.151 285.141 156.118 285.168 156.095C285.194 156.072 285.228 156.062 285.261 156.065C285.295 156.069 285.326 156.086 285.348 156.114L297.816 173.316C297.831 173.337 297.841 173.362 297.843 173.389C297.846 173.415 297.842 173.442 297.831 173.466C297.82 173.491 297.804 173.511 297.783 173.525C297.762 173.539 297.738 173.547 297.714 173.547Z" fill="white"/>
<path d="M296.667 148.874C296.639 148.873 296.612 148.863 296.59 148.845L280.636 136.124C280.608 136.101 280.589 136.068 280.584 136.031C280.578 135.993 280.587 135.955 280.607 135.925C280.628 135.894 280.658 135.874 280.692 135.868C280.727 135.862 280.762 135.871 280.789 135.894L296.744 148.616C296.766 148.634 296.782 148.659 296.79 148.688C296.798 148.716 296.798 148.747 296.789 148.775C296.781 148.804 296.764 148.828 296.742 148.846C296.72 148.863 296.693 148.873 296.666 148.873L296.667 148.874Z" fill="white"/>
<path d="M262.66 165.21C262.648 165.21 262.637 165.208 262.626 165.205C262.61 165.2 262.594 165.192 262.581 165.181C262.567 165.169 262.556 165.155 262.547 165.139C262.538 165.123 262.533 165.105 262.53 165.086C262.528 165.068 262.529 165.049 262.534 165.031L267.613 144.25C267.617 144.231 267.624 144.214 267.635 144.199C267.645 144.184 267.658 144.171 267.673 144.161C267.688 144.152 267.704 144.145 267.722 144.143C267.739 144.14 267.756 144.142 267.773 144.146C267.79 144.151 267.805 144.16 267.819 144.171C267.833 144.183 267.844 144.197 267.853 144.214C267.861 144.23 267.867 144.248 267.869 144.267C267.871 144.286 267.869 144.305 267.865 144.323L262.786 165.104C262.778 165.135 262.762 165.161 262.739 165.181C262.716 165.2 262.688 165.21 262.66 165.21Z" fill="white"/>
<path d="M84.4125 136.478V193.233H50.6836C48.9655 193.234 47.2642 192.865 45.6768 192.147C44.0894 191.429 42.6471 190.377 41.4323 189.05C40.2175 187.723 39.254 186.148 38.5969 184.415C37.9397 182.681 37.6019 180.823 37.6025 178.947V143.836H41.6377C42.9252 143.837 44.1882 143.451 45.2882 142.721C46.3882 141.99 47.2828 140.943 47.8741 139.694C48.3507 138.698 48.618 137.6 48.6566 136.478L84.4125 136.478Z" fill="#F4F4F4"/>
<path opacity="0.03" d="M84.4125 136.478V193.233H50.6836C48.9655 193.234 47.2642 192.865 45.6768 192.147C44.0894 191.429 42.6471 190.377 41.4323 189.05C40.2175 187.723 39.254 186.148 38.5969 184.415C37.9397 182.681 37.6019 180.823 37.6025 178.947V143.836H41.6377C42.9252 143.837 44.1882 143.451 45.2882 142.721C46.3882 141.99 47.2828 140.943 47.8741 139.694C48.3507 138.698 48.618 137.6 48.6566 136.478L84.4125 136.478Z" fill="#292A2E"/>
<path d="M95.7379 136.478V193.233H50.6836C48.9655 193.234 47.2642 192.865 45.6768 192.147C44.0894 191.429 42.6471 190.377 41.4323 189.05C40.2175 187.723 39.254 186.148 38.5969 184.415C37.9397 182.681 37.6019 180.823 37.6025 178.947V143.836H41.6377C42.9252 143.837 44.1882 143.451 45.2882 142.721C46.3882 141.99 47.2828 140.943 47.8741 139.694C48.3507 138.698 48.618 137.6 48.6566 136.478L95.7379 136.478Z" fill="#F4F4F4"/>
<path opacity="0.7" d="M93.4451 139.693V152.885H37.6025V143.836H41.6377C42.9252 143.837 44.1882 143.451 45.2882 142.72C46.3882 141.99 47.2828 140.942 47.8741 139.693H93.4451Z" fill="white"/>
<path opacity="0.7" d="M93.4454 156.113H37.6025V169.305H93.4454V156.113Z" fill="white"/>
<path opacity="0.7" d="M93.4451 172.536V185.727H39.1676C38.1366 183.645 37.5987 181.314 37.6026 178.947V172.535L93.4451 172.536Z" fill="white"/>
<path opacity="0.05" d="M65.1805 148.136C66.114 148.136 66.8707 147.31 66.8707 146.29C66.8707 145.271 66.114 144.444 65.1805 144.444C64.247 144.444 63.4902 145.271 63.4902 146.29C63.4902 147.31 64.247 148.136 65.1805 148.136Z" fill="#292A2E"/>
<path opacity="0.05" d="M65.1805 164.556C66.114 164.556 66.8707 163.73 66.8707 162.71C66.8707 161.691 66.114 160.864 65.1805 160.864C64.247 160.864 63.4902 161.691 63.4902 162.71C63.4902 163.73 64.247 164.556 65.1805 164.556Z" fill="#292A2E"/>
<path opacity="0.05" d="M65.1805 180.977C66.114 180.977 66.8707 180.15 66.8707 179.131C66.8707 178.112 66.114 177.285 65.1805 177.285C64.247 177.285 63.4902 178.112 63.4902 179.131C63.4902 180.15 64.247 180.977 65.1805 180.977Z" fill="#292A2E"/>
<path opacity="0.7" d="M93.4453 189.325V193.233H50.6838C47.3397 193.237 44.1219 191.838 41.6953 189.325H93.4453Z" fill="white"/>
<path d="M242.499 25.8965H201.521V58.6579H242.499V25.8965Z" fill="#F4F4F4"/>
<path d="M243.829 25.8965H242.499V58.6579H243.829V25.8965Z" fill="#F4F4F4"/>
<path opacity="0.05" d="M243.829 25.8965H242.499V58.6579H243.829V25.8965Z" fill="#292A2E"/>
<path opacity="0.05" d="M235.034 25.8965H208.986V48.0469H235.034V25.8965Z" fill="#292A2E"/>
<path opacity="0.03" d="M235.034 25.8965H233.678V48.0469H235.034V25.8965Z" fill="#292A2E"/>
<path d="M261.952 72.9834H242.499V109.918H261.952V72.9834Z" fill="#F4F4F4"/>
<path opacity="0.05" d="M261.953 79.7119H248.605V103.19H261.953V79.7119Z" fill="#292A2E"/>
<path d="M117.758 25.8965V121.244H48.6621V82.9618C48.6617 80.9277 47.9214 78.9771 46.6041 77.539C45.2868 76.1009 43.5003 75.2932 41.6377 75.2935H37.6025V40.182C37.6032 36.3935 38.9815 32.7603 41.4346 30.0814C43.8876 27.4025 47.2145 25.8972 50.6836 25.8965H117.758Z" fill="#F4F4F4"/>
<path opacity="0.05" d="M109.946 102.888V121.244H48.6621V82.962C48.6617 80.9279 47.9214 78.9772 46.6041 77.5391C45.2868 76.1011 43.5003 75.2933 41.6377 75.2936H37.6025V51.8271H57.4262V70.2545H94.2826V102.888H109.946Z" fill="#292A2E"/>
<path opacity="0.34" d="M54.3718 55.2705H37.6025V58.7144H54.3718V55.2705Z" fill="#FFFFFA"/>
<path opacity="0.34" d="M54.3718 62.4062H37.6025V65.8502H54.3718V62.4062Z" fill="#FFFFFA"/>
<path opacity="0.34" d="M54.3718 69.5449H37.6025V72.9888H54.3718V69.5449Z" fill="#FFFFFA"/>
<path d="M117.758 59.9426V61.9593H93.1112V121.244H91.2648V61.9593H37.6025V59.9426H91.2648V25.8965H93.1112V59.9426H117.758Z" fill="white"/>
<path d="M122.182 121.099H48.6621V125.132H122.182V121.099Z" fill="#F4F4F4"/>
<path opacity="0.1" d="M122.182 121.099H48.6621V125.132H122.182V121.099Z" fill="#292A2E"/>
<path d="M159.726 109.82L104.219 138.686L104.069 81.2341L159.726 52.2061V109.82Z" fill="#124AF6"/>
<g opacity="0.58">
<path d="M159.726 109.82L104.219 138.686L104.069 81.2341L159.726 52.2061V109.82Z" fill="white"/>
</g>
<path d="M159.726 109.82L195.781 138.686L195.93 81.2347L159.726 52.2061V109.82Z" fill="#124AF6"/>
<g opacity="0.88">
<path d="M159.726 109.82L195.781 138.686L195.93 81.2347L159.726 52.2061V109.82Z" fill="white"/>
</g>
<path d="M140.665 168.395L103.678 138.739V138.522L103.829 80.2305L140.665 109.721V168.395ZM104.462 138.307L139.882 166.708V110.154L104.608 81.9131L104.462 138.307Z" fill="#292A2E"/>
<path d="M139.882 168.229V109.668L196.171 80.3955L196.322 138.791L196.099 138.908L139.882 168.229ZM140.664 110.207V166.874L195.539 138.254L195.392 81.7472L140.664 110.207Z" fill="#292A2E"/>
<path d="M103.829 139.361L103.678 80.9657L160.117 51.5283V110.09L103.829 139.361ZM104.462 81.5032L104.608 138.01L159.335 109.55V52.8834L104.462 81.5032Z" fill="#292A2E"/>
<path d="M196.171 139.527L159.335 110.036V51.3623L196.322 81.0187V81.2358L196.171 139.527ZM160.117 109.603L195.394 137.845L195.54 81.4506L160.119 53.0504L160.117 109.603Z" fill="#292A2E"/>
<path d="M140.273 112.074C141.353 112.074 142.229 111.117 142.229 109.937C142.229 108.757 141.353 107.801 140.273 107.801C139.192 107.801 138.316 108.757 138.316 109.937C138.316 111.117 139.192 112.074 140.273 112.074Z" fill="#124AF6"/>
<path d="M159.726 54.3422C160.806 54.3422 161.682 53.3857 161.682 52.2058C161.682 51.0258 160.806 50.0693 159.726 50.0693C158.645 50.0693 157.77 51.0258 157.77 52.2058C157.77 53.3857 158.645 54.3422 159.726 54.3422Z" fill="#124AF6"/>
<path d="M140.273 169.062C141.353 169.062 142.229 168.105 142.229 166.925C142.229 165.746 141.353 164.789 140.273 164.789C139.192 164.789 138.316 165.746 138.316 166.925C138.316 168.105 139.192 169.062 140.273 169.062Z" fill="#124AF6"/>
<path d="M195.931 83.2074C197.011 83.2074 197.887 82.2509 197.887 81.071C197.887 79.8911 197.011 78.9346 195.931 78.9346C194.85 78.9346 193.975 79.8911 193.975 81.071C193.975 82.2509 194.85 83.2074 195.931 83.2074Z" fill="#124AF6"/>
<path d="M104.07 83.2074C105.15 83.2074 106.026 82.2509 106.026 81.071C106.026 79.8911 105.15 78.9346 104.07 78.9346C102.989 78.9346 102.113 79.8911 102.113 81.071C102.113 82.2509 102.989 83.2074 104.07 83.2074Z" fill="#124AF6"/>
<path d="M195.931 141.399C197.011 141.399 197.887 140.442 197.887 139.262C197.887 138.082 197.011 137.126 195.931 137.126C194.85 137.126 193.975 138.082 193.975 139.262C193.975 140.442 194.85 141.399 195.931 141.399Z" fill="#124AF6"/>
<path d="M104.07 141.399C105.15 141.399 106.026 140.442 106.026 139.262C106.026 138.082 105.15 137.126 104.07 137.126C102.989 137.126 102.113 138.082 102.113 139.262C102.113 140.442 102.989 141.399 104.07 141.399Z" fill="#124AF6"/>
<path d="M159.726 112.074C160.806 112.074 161.682 111.117 161.682 109.937C161.682 108.757 160.806 107.801 159.726 107.801C158.645 107.801 157.77 108.757 157.77 109.937C157.77 111.117 158.645 112.074 159.726 112.074Z" fill="#124AF6"/>
<path d="M165.575 71.334L161.777 78.1783C161.69 78.3336 161.661 78.5193 161.696 78.6972C161.731 78.875 161.827 79.0314 161.965 79.134L168.238 83.8435C168.308 83.8981 168.388 83.9369 168.472 83.9575C168.557 83.9782 168.644 83.9803 168.729 83.9638C168.814 83.9473 168.896 83.9124 168.968 83.8613C169.041 83.8102 169.104 83.7438 169.153 83.666C169.201 83.5882 169.236 83.5006 169.253 83.4082C169.271 83.3158 169.272 83.2205 169.255 83.1278C169.239 83.0351 169.206 82.9469 169.158 82.8683C169.11 82.7897 169.049 82.7222 168.977 82.6699L163.914 78.8691C166.42 78.043 172.649 76.9164 178.46 83.2627C185.785 91.2623 181.729 100.506 181.55 100.902C181.476 101.071 181.466 101.265 181.521 101.442C181.577 101.618 181.694 101.764 181.848 101.847C182.001 101.931 182.178 101.945 182.341 101.887C182.503 101.829 182.639 101.703 182.717 101.537C182.765 101.432 187.386 90.9971 179.382 82.2554C173.287 75.5998 166.575 76.6065 163.688 77.4815L166.69 72.0721C166.778 71.9107 166.803 71.718 166.762 71.536C166.72 71.354 166.614 71.1974 166.467 71.1002C166.32 71.0029 166.144 70.9729 165.977 71.0167C165.81 71.0605 165.665 71.1746 165.575 71.334Z" fill="#0CBC8B"/>
<path d="M175.453 76.1481L179.003 79.255L178.71 78.6543C178.619 78.4582 178.6 78.2318 178.656 78.0207C178.712 77.8096 178.839 77.6296 179.012 77.5171C179.103 77.4625 179.204 77.4287 179.307 77.4178C179.411 77.4069 179.515 77.4192 179.614 77.4539C179.713 77.4885 179.804 77.5448 179.883 77.6194C179.961 77.6939 180.025 77.7851 180.07 77.8874L182.357 83.0305C182.646 83.6798 182.691 84.4266 182.483 85.1116C182.275 85.7966 181.829 86.3656 181.242 86.6972C180.561 87.0821 179.79 87.236 179.028 87.1392C178.265 87.0424 177.547 86.6992 176.965 86.1537L174.33 83.6771C174.191 83.5515 174.096 83.377 174.061 83.1834C174.026 82.9898 174.053 82.7889 174.138 82.6149C174.218 82.4596 174.342 82.3361 174.49 82.2627C174.639 82.1893 174.805 82.1696 174.965 82.2067C174.965 82.1969 174.967 82.1873 174.971 82.1785C174.975 82.1697 174.981 82.1619 174.988 82.1556C174.995 82.1493 175.003 82.1446 175.012 82.1417C175.02 82.1389 175.029 82.1381 175.038 82.1392L174.551 81.6834C174.402 81.5507 174.303 81.3639 174.271 81.1576C174.24 80.9512 174.277 80.7392 174.377 80.5608C174.482 80.3878 174.641 80.2632 174.825 80.2113C175.008 80.1594 175.203 80.1838 175.371 80.2799C175.371 80.2711 175.372 80.2622 175.374 80.2537L175.174 80.0663C175.042 79.9369 174.952 79.7645 174.916 79.5747C174.881 79.3849 174.903 79.1877 174.978 79.0123C175.074 78.8204 175.235 78.6772 175.426 78.6133C175.618 78.5494 175.825 78.5699 176.002 78.6705L176.011 78.6571L174.519 77.3519C174.443 77.285 174.38 77.2017 174.334 77.1073C174.288 77.0128 174.26 76.9092 174.252 76.8026C174.244 76.696 174.255 76.5887 174.287 76.4872C174.318 76.3858 174.367 76.2923 174.432 76.2125C174.563 76.0624 174.742 75.9723 174.931 75.9603C175.121 75.9484 175.307 76.0155 175.453 76.1481Z" fill="#E98862"/>
<path opacity="0.2" d="M175.988 78.7629C175.993 78.7705 175.998 78.7773 176.005 78.7831L177.467 80.0325C177.482 80.0453 177.501 80.051 177.52 80.0485C177.539 80.046 177.556 80.0353 177.568 80.0189C177.58 80.0025 177.585 79.9817 177.583 79.9611C177.58 79.9404 177.571 79.9216 177.556 79.9088L176.094 78.6595C176.08 78.6489 176.064 78.6437 176.047 78.6447C176.031 78.6456 176.015 78.6528 176.003 78.6649C175.991 78.6771 175.983 78.6934 175.98 78.7112C175.978 78.7291 175.981 78.7473 175.989 78.7629H175.988Z" fill="#0C0C0C"/>
<path opacity="0.2" d="M175.38 80.313C175.384 80.3206 175.389 80.3273 175.396 80.3329L176.538 81.3248C176.553 81.3378 176.572 81.3437 176.591 81.3414C176.61 81.339 176.627 81.3286 176.639 81.3123C176.651 81.296 176.657 81.2752 176.654 81.2546C176.652 81.2339 176.643 81.215 176.628 81.202L175.486 80.2102C175.472 80.1988 175.456 80.1928 175.439 80.1934C175.422 80.194 175.406 80.201 175.393 80.2132C175.381 80.2255 175.372 80.2422 175.37 80.2604C175.367 80.2787 175.371 80.2973 175.38 80.313Z" fill="#0C0C0C"/>
<path opacity="0.2" d="M174.973 82.2569C174.978 82.2651 174.984 82.2723 174.991 82.278L175.54 82.7338C175.555 82.7449 175.574 82.7492 175.592 82.7459C175.61 82.7426 175.626 82.7319 175.637 82.7159C175.649 82.6999 175.654 82.68 175.652 82.66C175.65 82.6401 175.641 82.6217 175.627 82.6087L175.077 82.1529C175.064 82.1417 175.047 82.136 175.031 82.1368C175.014 82.1376 174.998 82.1448 174.985 82.1572C174.973 82.1696 174.965 82.1864 174.963 82.2046C174.96 82.2228 174.964 82.2414 174.973 82.2569Z" fill="#0C0C0C"/>
<path d="M216.559 98.5075L197.892 106.289C197.003 106.666 196.035 106.76 195.099 106.561C194.164 106.361 193.299 105.877 192.606 105.163L176.031 88.0997L182.952 80.083L197.209 94.7605L212.907 88.2373L216.559 98.5075Z" fill="#124AF6"/>
<path d="M235.506 210.52C235.506 210.52 234.663 215.294 230.569 215.561C226.475 215.829 227.364 219.389 227.364 219.389H243.007V210.853L235.506 210.52Z" fill="#124AF6"/>
<path d="M240.332 123.42C240.332 123.42 240.283 121.985 240.293 125.241C240.332 137.386 240.525 151.258 240.997 159.376C241.755 172.425 243.698 213.567 243.698 213.567L233.419 213.473L223.455 122.927L240.332 123.42Z" fill="#262626"/>
<path d="M228.724 137.741C228.724 137.741 228.298 146.554 228.219 148.623C228.037 153.408 227.973 158.362 227.973 163.979L226.353 149.254C226.353 149.254 227.538 144.64 228.724 137.741Z" fill="#0A0A0A"/>
<path d="M217.206 210.52C217.206 210.52 216.363 215.294 212.27 215.561C208.176 215.829 209.064 219.389 209.064 219.389H224.707V210.853L217.206 210.52Z" fill="#124AF6"/>
<path d="M212.229 124.363C212.229 124.363 211.319 165.871 211.452 167.9L215.275 213.253L225.384 213.457L224.399 166.26C224.399 166.26 225.094 153.24 227.975 141.151C229.448 134.946 230.335 128.593 230.621 122.19L212.229 124.363Z" fill="#262626"/>
<path d="M240.443 123.419L240.477 123.421C240.477 123.421 240.453 122.713 240.443 123.419Z" fill="#333333"/>
<path d="M210.783 101.324C210.995 104.044 212.026 121.013 212.23 124.363H240.322C240.481 121.342 241.193 108.129 241.795 102.22C242.369 96.5815 243.497 93.7597 242.67 92.0916C241.32 89.3672 237.632 87.7928 235.116 87.42C233.581 87.1921 231.271 87.0303 231.271 87.0303C231.271 87.0303 231.075 91.3513 226.411 91.5917C220.062 91.919 220.486 87.0303 220.455 87.0303C219.426 87.0303 213.438 87.5584 212.113 88.6716C209.796 90.6198 210.333 95.5595 210.783 101.324Z" fill="#124AF6"/>
<path d="M210.808 100.892C210.784 100.892 210.761 100.882 210.744 100.864C210.727 100.846 210.716 100.822 210.715 100.796L210.488 96.477C210.488 96.4636 210.489 96.4502 210.493 96.4376C210.498 96.4249 210.504 96.4133 210.512 96.4033C210.52 96.3933 210.53 96.3851 210.541 96.3793C210.552 96.3735 210.564 96.3701 210.576 96.3693C210.589 96.3685 210.601 96.3704 210.612 96.3748C210.624 96.3792 210.635 96.3861 210.644 96.395C210.653 96.4039 210.66 96.4147 210.666 96.4268C210.671 96.4388 210.674 96.4519 210.675 96.4653L210.902 100.784C210.902 100.798 210.901 100.811 210.897 100.824C210.893 100.836 210.886 100.848 210.878 100.858C210.87 100.868 210.86 100.876 210.849 100.882C210.838 100.888 210.826 100.891 210.814 100.892L210.808 100.892Z" fill="#0C0C0C"/>
<path d="M246.393 124.185C247.22 124.185 248.034 123.967 248.766 123.549C249.498 123.132 250.128 122.527 250.6 121.787C251.073 121.047 251.374 120.193 251.479 119.298C251.585 118.403 251.49 117.493 251.204 116.647C250.914 115.787 244.11 96.1117 242.815 92.4658L233.225 96.7102C233.953 98.7612 236.592 106.53 238.711 112.789L235.19 112.371L234.081 123.507L245.838 124.153C246.023 124.175 246.208 124.185 246.393 124.185Z" fill="#124AF6"/>
<path d="M217.879 87.1875C217.908 87.1832 218.719 90.5146 225.045 89.9962C229.424 89.6378 230.492 86.3825 230.592 86.3825C230.12 86.2728 229.353 86.1592 229.144 86.0367C228.781 85.8544 228.462 85.5833 228.212 85.2443C227.961 84.9054 227.786 84.5078 227.699 84.0825C227.501 83.2565 227.4 80.0732 227.4 78.4766L220.661 80.131C220.755 81.9322 221.413 86.1079 219.108 86.8468C218.725 86.9676 218.312 87.0815 217.879 87.1875Z" fill="#E98862"/>
<path d="M220.894 83.6715C223.551 83.8993 226.963 82.6745 227.611 78.8047L228.196 75.312C228.844 71.4414 227.508 67.9317 224.171 67.2651C220.834 66.5986 217.814 69.2383 217.166 73.109L216.907 74.6552C216.658 76.1404 216.154 83.2644 220.894 83.6715Z" fill="#E98862"/>
<path d="M218.431 80.1172C218.908 77.5005 219.126 75.7549 219.101 73.913C218.429 72.6263 218.606 71.1499 218.759 70.5115C218.296 70.8324 217.752 70.9847 217.206 70.9465C217.206 70.9465 218.316 66.078 222.092 64.7683C222.786 64.4731 224.558 64.1003 226.912 64.4529C228.914 64.7526 233.848 66.3874 234.553 72.4543V72.4577C234.577 72.6588 235.049 78.2488 235.995 80.9307C237.265 84.5362 239.047 85.6562 239.002 89.816C238.944 95.1667 229.937 95.8789 224.504 95.4787C219.071 95.0784 216.038 93.1275 215.999 89.2714C215.955 84.9509 217.477 85.3523 218.431 80.1172Z" fill="#0A0A0A"/>
<path d="M240.922 102.335L240.231 124.361L240.418 124.368L241.108 102.342L240.922 102.335Z" fill="#0C0C0C"/>
<path d="M0.260838 220H299.739C299.808 220 299.875 219.97 299.924 219.917C299.973 219.864 300 219.791 300 219.716C300 219.64 299.973 219.568 299.924 219.514C299.875 219.461 299.808 219.431 299.739 219.431H0.260838C0.191659 219.431 0.125314 219.461 0.0763977 219.514C0.0274811 219.568 0 219.64 0 219.716C0 219.791 0.0274811 219.864 0.0763977 219.917C0.125314 219.97 0.191659 220 0.260838 220Z" fill="#262626"/>
</g>
<defs>
<clipPath id="clip0_18_14350">
<rect width="300" height="220" fill="white"/>
</clipPath>
</defs>
</svg>
