<svg width="150" height="150" viewBox="0 0 150 150" fill="none" xmlns="http://www.w3.org/2000/svg">
<g clip-path="url(#clip0_18_14545)">
<path d="M107.535 150C130.988 150 150 148.189 150 145.954C150 143.72 130.988 141.908 107.535 141.908C84.0821 141.908 65.0698 143.72 65.0698 145.954C65.0698 148.189 84.0821 150 107.535 150Z" fill="white"/>
<path opacity="0.1" d="M107.535 150C130.988 150 150 148.189 150 145.954C150 143.72 130.988 141.908 107.535 141.908C84.0821 141.908 65.0698 143.72 65.0698 145.954C65.0698 148.189 84.0821 150 107.535 150Z" fill="#292A2E"/>
<path d="M37.0408 85.7861H23.5049V89.8529H37.0408V85.7861Z" fill="#F4F4F4"/>
<path opacity="0.05" d="M27.0963 85.7861H25.3228V89.8529H27.0963V85.7861Z" fill="#292A2E"/>
<path d="M35.3113 86.6699H27.9365V89.0799H35.3113V86.6699Z" fill="white"/>
<path d="M47.8374 86.3168L35.2603 80.6445L33.6839 84.3713L46.261 90.0436L47.8374 86.3168Z" fill="#F4F4F4"/>
<path opacity="0.05" d="M47.8374 86.3168L35.2603 80.6445L33.6839 84.3713L46.261 90.0436L47.8374 86.3168Z" fill="#292A2E"/>
<path d="M46.1485 85.5548L44.5005 84.8115L42.9241 88.5383L44.5721 89.2816L46.1485 85.5548Z" fill="white"/>
<path d="M43.3772 85.27L36.5249 82.1797L35.5908 84.3882L42.4431 87.4785L43.3772 85.27Z" fill="white"/>
<path opacity="0.05" d="M47.8616 137.304H44.46V139.649H47.8616V137.304Z" fill="#292A2E"/>
<path opacity="0.05" d="M13.0837 137.304H9.68213V139.649H13.0837V137.304Z" fill="#292A2E"/>
<path d="M50.9794 90.043H6.56396V137.224H50.9794V90.043Z" fill="#F4F4F4"/>
<path opacity="0.03" d="M50.9794 90.043H6.56396V137.224H50.9794V90.043Z" fill="#292A2E"/>
<path d="M59.2104 90.043H14.7949V137.224H59.2104V90.043Z" fill="#F4F4F4"/>
<path opacity="0.05" d="M56.092 137.304H52.6904V139.649H56.092V137.304Z" fill="#292A2E"/>
<path opacity="0.05" d="M21.3147 137.304H17.9131V139.649H21.3147V137.304Z" fill="#292A2E"/>
<path opacity="0.7" d="M57.5433 92.2529H16.4624V101.317H57.5433V92.2529Z" fill="white"/>
<path opacity="0.7" d="M57.5433 103.536H16.4624V112.601H57.5433V103.536Z" fill="white"/>
<path opacity="0.7" d="M57.5433 114.818H16.4624V123.883H57.5433V114.818Z" fill="white"/>
<path opacity="0.05" d="M37.0027 98.0532C37.6811 98.0532 38.231 97.4854 38.231 96.7849C38.231 96.0844 37.6811 95.5166 37.0027 95.5166C36.3243 95.5166 35.7744 96.0844 35.7744 96.7849C35.7744 97.4854 36.3243 98.0532 37.0027 98.0532Z" fill="#292A2E"/>
<path opacity="0.05" d="M37.0027 109.336C37.6811 109.336 38.231 108.769 38.231 108.068C38.231 107.368 37.6811 106.8 37.0027 106.8C36.3243 106.8 35.7744 107.368 35.7744 108.068C35.7744 108.769 36.3243 109.336 37.0027 109.336Z" fill="#292A2E"/>
<path opacity="0.05" d="M37.0027 120.62C37.6811 120.62 38.231 120.052 38.231 119.351C38.231 118.651 37.6811 118.083 37.0027 118.083C36.3243 118.083 35.7744 118.651 35.7744 119.351C35.7744 120.052 36.3243 120.62 37.0027 120.62Z" fill="#292A2E"/>
<path opacity="0.7" d="M57.5433 126.356H16.4624V135.421H57.5433V126.356Z" fill="white"/>
<path opacity="0.05" d="M37.0027 132.157C37.6811 132.157 38.231 131.589 38.231 130.888C38.231 130.188 37.6811 129.62 37.0027 129.62C36.3243 129.62 35.7744 130.188 35.7744 130.888C35.7744 131.589 36.3243 132.157 37.0027 132.157Z" fill="#292A2E"/>
<path d="M22.3306 43.2139H48.5938L48.5938 7.9156H22.3306L22.3306 43.2139Z" fill="#F4F4F4"/>
<path d="M22.331 7.91602H21.479V43.2143H22.331V7.91602Z" fill="#F4F4F4"/>
<path opacity="0.05" d="M22.331 7.91602H21.479V43.2143H22.331V7.91602Z" fill="#292A2E"/>
<path opacity="0.05" d="M27.1149 36.7842H43.8096V14.3459L27.1149 14.3459L27.1149 36.7842Z" fill="#292A2E"/>
<path opacity="0.03" d="M27.1153 36.7842H27.9854L27.9854 14.3459H27.1153L27.1153 36.7842Z" fill="#292A2E"/>
<path d="M0.851658 74.2773H22.3306L22.3306 51.8949H0.851658L0.851658 74.2773Z" fill="#F4F4F4"/>
<path opacity="0.05" d="M4.76443 70.2002H18.418V55.9724H4.76443L4.76443 70.2002Z" fill="#292A2E"/>
<path d="M0.851998 51.8945H0V74.277H0.851998V51.8945Z" fill="#F4F4F4"/>
<path opacity="0.05" d="M0.851998 51.8945H0V74.277H0.851998V51.8945Z" fill="#292A2E"/>
<path opacity="0.03" d="M4.76474 70.2002H5.63477L5.63477 55.9724H4.76474L4.76474 70.2002Z" fill="#292A2E"/>
<path d="M131.827 7.83105H77.02V64.4235H131.827V7.83105Z" fill="#F4F4F4"/>
<path d="M77.0203 7.83105H76.3921V64.4235H77.0203V7.83105Z" fill="#F4F4F4"/>
<path opacity="0.05" d="M77.0203 7.83105H76.3921V64.4235H77.0203V7.83105Z" fill="#292A2E"/>
<path opacity="0.05" d="M90.2976 46.828V32.0215H102.044V40.6238H120.238V55.8551H127.971V64.4237H120.238H118.748H79.6567V46.828H90.2976Z" fill="#292A2E"/>
<path opacity="0.34" d="M100.535 33.6289H91.9819V35.2365H100.535V33.6289Z" fill="#FFFFFA"/>
<path opacity="0.34" d="M100.535 36.96H91.9819V38.5676H100.535V36.96Z" fill="#FFFFFA"/>
<path opacity="0.34" d="M100.535 40.292H91.9819V41.8996H100.535V40.292Z" fill="#FFFFFA"/>
<path opacity="0.34" d="M82.7499 48.3887H81.1733V49.9963H82.7499V48.3887Z" fill="#FFFFFA"/>
<path opacity="0.34" d="M82.7499 51.7197H81.1733V53.3273H82.7499V51.7197Z" fill="#FFFFFA"/>
<path opacity="0.34" d="M82.7499 55.0518H81.1733V56.6594H82.7499V55.0518Z" fill="#FFFFFA"/>
<path opacity="0.34" d="M85.6664 48.3887H84.0898V49.9963H85.6664V48.3887Z" fill="#FFFFFA"/>
<path opacity="0.34" d="M85.6664 51.7197H84.0898V53.3273H85.6664V51.7197Z" fill="#FFFFFA"/>
<path opacity="0.34" d="M85.6664 55.0518H84.0898V56.6594H85.6664V55.0518Z" fill="#FFFFFA"/>
<path opacity="0.34" d="M88.5043 48.3887H86.9277V49.9963H88.5043V48.3887Z" fill="#FFFFFA"/>
<path opacity="0.34" d="M88.5043 51.7197H86.9277V53.3273H88.5043V51.7197Z" fill="#FFFFFA"/>
<path opacity="0.34" d="M88.5043 55.0518H86.9277V56.6594H88.5043V55.0518Z" fill="#FFFFFA"/>
<path d="M77.02 35.8099H88.048V7.83105H88.9601V35.8099H118.748V7.83105H119.66V35.8099H131.827V36.7516H119.66V64.4237H118.748V36.7516H88.9601V64.4237H88.048V36.7516H77.02V35.8099Z" fill="white"/>
<path d="M134.011 64.3555H74.8369V66.2375H134.011V64.3555Z" fill="#F4F4F4"/>
<path opacity="0.1" d="M134.011 64.3555H74.8369V66.2375H134.011V64.3555Z" fill="#292A2E"/>
<path opacity="0.1" d="M74.8368 64.3555H73.9824V66.2375H74.8368V64.3555Z" fill="#292A2E"/>
<path opacity="0.1" d="M74.8368 64.3555H73.9824V66.2375H74.8368V64.3555Z" fill="#292A2E"/>
<path d="M122.429 74.0508C114.038 74.0508 107.236 76.4144 107.236 79.3302V85.6153H137.622V79.3302C137.622 76.4144 130.82 74.0508 122.429 74.0508Z" fill="#124AF6"/>
<path opacity="0.49" d="M122.429 74.0508C114.038 74.0508 107.236 76.4144 107.236 79.3302V85.6153H137.622V79.3302C137.622 76.4144 130.82 74.0508 122.429 74.0508Z" fill="white"/>
<path opacity="0.49" d="M133.483 79.3304V85.6145H107.236V79.3304C107.236 76.6579 112.948 74.4496 120.359 74.1006C127.771 74.4496 133.483 76.6579 133.483 79.3304Z" fill="white"/>
<path d="M137.621 146.685H138.131L137.621 85.0576L137.116 85.5841L137.476 128.633L119.477 128.949L119.114 85.5796L118.608 85.5841L118.972 128.958L108.106 129.148L107.741 85.5796L107.236 85.0621L107.746 146.685L108.247 146.681L108.11 129.67L118.976 129.48L119.114 146.685L119.619 146.681L119.481 129.471L137.481 129.155L137.621 146.685Z" fill="#292A2E"/>
<path d="M91.7954 137.459C91.7954 137.459 90.8918 142.295 86.5066 142.565C82.1214 142.834 83.0724 146.441 83.0724 146.441H99.8301V137.796L91.7954 137.459Z" fill="#124AF6"/>
<path d="M101.356 122.914C101.356 122.914 102.613 127.665 98.7932 129.906C94.9737 132.146 97.3689 134.95 97.3689 134.95L112.405 127.311L108.71 119.554L101.356 122.914Z" fill="#124AF6"/>
<path d="M99.7653 126.053L88.4352 81.911C87.5758 77.0344 88.8696 74.9207 90.8633 72.8673C94.366 69.2597 108.88 61.5813 108.88 61.5813L126.292 61.5322C130.91 61.5322 135.448 66.2332 135.448 71.0006C135.448 75.7679 130.755 79.811 126.138 79.811L104.696 82.0208L110.508 122.439L99.7653 126.053Z" fill="#262626"/>
<path d="M110.508 122.439L108.22 106.526L96.6274 113.828L99.7653 126.053L110.508 122.439Z" fill="#0C0C0C"/>
<path d="M113.136 70.5137C113.136 70.5137 105.816 72.198 98.5666 79.6836C94.1713 84.2221 94.5317 92.4352 95.1911 108.232L102.391 97.2503L110.288 82.5433L113.136 70.5137Z" fill="#0C0C0C"/>
<path d="M138.479 61.5273L126.654 61.4697L126.65 61.6305H123.069C123.069 61.6305 114.099 70.1524 106.879 75.5227C101.626 79.4287 98.422 83.1527 98.1448 87.2114C97.4689 97.1054 89.8457 139.302 89.8457 139.302L101.318 141.096L111.386 90.6676C111.386 90.6676 127.129 83.1732 130.77 80.5658C134.199 78.1101 136.621 77.1607 137.756 74.4807C139.716 69.8521 138.479 61.5273 138.479 61.5273Z" fill="#262626"/>
<path d="M125.213 64.6026L106.029 64.865L116.79 71.5015L125.744 66.727C125.96 66.6074 126.131 66.4165 126.229 66.1848C126.327 65.9532 126.347 65.6942 126.286 65.4494C126.225 65.2046 126.086 64.9881 125.891 64.8346C125.696 64.681 125.458 64.5994 125.213 64.6026Z" fill="#292A2E"/>
<path opacity="0.2" d="M125.213 64.6026L106.029 64.865L116.79 71.5015L125.744 66.727C125.96 66.6074 126.131 66.4165 126.229 66.1848C126.327 65.9532 126.347 65.6942 126.286 65.4494C126.225 65.2046 126.086 64.9881 125.891 64.8346C125.696 64.681 125.458 64.5994 125.213 64.6026Z" fill="white"/>
<path d="M106.14 29.0664L100.713 47.2202L89.8452 61.9133L96.1939 69.4386L109.124 54.5372C109.719 54.0511 110.185 53.4163 110.478 52.6928L110.679 52.1894L118.148 33.5304L106.14 29.0664Z" fill="#124AF6"/>
<path d="M114.498 9.79661C114.498 9.79661 112.312 8.09139 111.77 4.16938C111.351 1.13252 114.064 3.09996 114.064 3.09996C114.064 3.09996 113.782 0.910145 115.327 1.12747C116.873 1.3448 117.737 3.64511 117.737 3.64511" fill="#0C0C0C"/>
<path d="M123.313 1.38379C123.313 1.38379 130.98 2.2324 128.208 12.9593L127.53 13.0063L126.153 13.1016" fill="#0C0C0C"/>
<path d="M115.782 24.1621C115.816 24.1576 116.19 30.5654 123.399 30.0073C128.39 29.6212 130.17 24.153 130.284 24.153C129.746 24.0349 129.081 23.8557 128.817 23.7942C128.241 23.6562 127.719 23.3403 127.321 22.8886C126.923 22.4369 126.668 21.8708 126.589 21.2656C126.443 20.3573 126.69 15.7101 126.615 14.791L118.954 16.5568C119.061 18.498 119.81 22.9978 117.184 23.7942C116.747 23.9258 116.276 24.0476 115.782 24.1621Z" fill="#E98862"/>
<path opacity="0.52" d="M118.847 21.9548C118.967 21.5554 119.044 21.1436 119.077 20.7268C119.161 19.7758 119.144 18.8182 119.027 17.8709C120.584 17.6543 122.051 16.9908 123.262 15.9561C123.404 16.4986 124.186 18.8692 123.969 19.3839C123.56 20.3583 121.636 21.9548 118.847 21.9548Z" fill="#0C0C0C"/>
<path d="M120.428 20.6864C123.451 20.4064 127.068 18.4344 127.121 14.1976L127.168 10.3748C127.22 6.13821 125.107 2.67539 121.244 2.62458C117.381 2.57395 114.451 5.97047 114.399 10.2073L114.378 11.8996C114.381 12.4808 114.422 13.0612 114.501 13.6367C114.699 15.1592 115.006 17.4739 116.007 19.0398C116.952 20.5181 118.497 20.8651 120.428 20.6864Z" fill="#E98862"/>
<path opacity="0.52" d="M119.025 16.8142C118.401 16.8434 117.78 16.7208 117.21 16.4563C117.187 16.4454 117.169 16.4256 117.159 16.401C117.15 16.3765 117.151 16.3492 117.161 16.325C117.171 16.3007 117.189 16.2815 117.213 16.2714C117.237 16.2613 117.263 16.2611 117.287 16.271C118.514 16.8112 119.628 16.7322 120.508 16.0423C120.526 16.0278 120.545 16.0143 120.564 16.0018C120.586 15.991 120.611 15.9892 120.634 15.9968C120.658 16.0044 120.677 16.0207 120.69 16.0427C120.702 16.0646 120.706 16.0904 120.7 16.1151C120.695 16.1397 120.681 16.1614 120.661 16.1758C120.654 16.1803 120.642 16.1895 120.627 16.202C120.164 16.5662 119.606 16.7794 119.025 16.8142Z" fill="#0C0C0C"/>
<path opacity="0.52" d="M119.054 17.7686C118.941 17.7758 118.828 17.773 118.716 17.7602C118.703 17.7588 118.691 17.7549 118.68 17.7486C118.669 17.7422 118.659 17.7337 118.651 17.7234C118.643 17.7132 118.637 17.7013 118.633 17.6887C118.629 17.676 118.628 17.6627 118.629 17.6496C118.631 17.6364 118.635 17.6237 118.641 17.6121C118.647 17.6005 118.655 17.5902 118.665 17.5819C118.675 17.5736 118.686 17.5674 118.699 17.5637C118.711 17.56 118.724 17.5587 118.737 17.5601C119.412 17.6341 119.734 17.3148 119.748 17.301C119.766 17.2822 119.791 17.2715 119.817 17.2715C119.842 17.2715 119.867 17.282 119.886 17.3009C119.904 17.3197 119.914 17.3453 119.914 17.372C119.914 17.3987 119.904 17.4243 119.886 17.4432C119.653 17.6476 119.359 17.7626 119.054 17.7686Z" fill="#0C0C0C"/>
<path d="M115.674 12.7152C115.937 12.7152 116.15 12.4952 116.15 12.2238C116.15 11.9524 115.937 11.7324 115.674 11.7324C115.411 11.7324 115.198 11.9524 115.198 12.2238C115.198 12.4952 115.411 12.7152 115.674 12.7152Z" fill="#0C0C0C"/>
<path d="M120.324 12.4134C120.586 12.4134 120.799 12.1934 120.799 11.922C120.799 11.6507 120.586 11.4307 120.324 11.4307C120.061 11.4307 119.848 11.6507 119.848 11.922C119.848 12.1934 120.061 12.4134 120.324 12.4134Z" fill="#0C0C0C"/>
<path d="M126.865 15.4866C128.039 15.5021 129.006 14.2176 129.021 13.0053C129.037 11.793 128.093 11.112 126.919 11.0967L126.304 11.9009L125.855 15.4734L126.865 15.4866Z" fill="#E98862"/>
<path d="M125.697 13.5377C125.697 13.5377 125.3 7.54277 123.54 7.17249C122.367 6.92593 119.524 8.64334 116.89 8.12463C115.738 7.89843 114.644 8.19215 114.533 8.75417C114.489 8.97672 113.771 5.77874 115.575 3.35245C117.012 1.42102 121.713 0.874658 123.852 1.50803C129.774 3.26232 127.161 11.3595 127.161 11.3595L126.897 13.4263L125.697 13.5377Z" fill="#0C0C0C"/>
<g opacity="0.52">
<path d="M118.316 15.3991C118.313 15.3993 118.311 15.3993 118.308 15.3991C117.93 15.3953 117.296 15.345 117.298 15.0528C117.301 14.8106 117.968 12.2036 118.045 11.9071C118.051 11.8815 118.067 11.8598 118.089 11.8465C118.111 11.8332 118.138 11.8296 118.162 11.8363C118.187 11.8431 118.208 11.8597 118.221 11.8825C118.234 11.9054 118.237 11.9325 118.231 11.958C117.934 13.1127 117.493 14.8903 117.491 15.0553C117.528 15.1249 117.918 15.1966 118.31 15.2007C118.335 15.2013 118.358 15.2116 118.376 15.2296C118.393 15.2475 118.404 15.2718 118.404 15.2973C118.405 15.3228 118.396 15.3476 118.38 15.3666C118.363 15.3856 118.34 15.3974 118.316 15.3995V15.3991Z" fill="#0C0C0C"/>
</g>
<path d="M117.025 9.55936C116.627 9.44636 116.208 9.44636 115.81 9.55936C115.615 9.6136 115.428 9.69783 115.257 9.80923C115.088 9.91831 114.933 10.049 114.796 10.1983C114.77 10.2249 114.756 10.2605 114.755 10.2978C114.755 10.3351 114.768 10.3712 114.793 10.3985C114.817 10.4259 114.851 10.4424 114.887 10.4446C114.923 10.4469 114.959 10.4347 114.986 10.4106L114.995 10.4029C115.122 10.2813 115.264 10.1767 115.416 10.0916C115.566 10.007 115.727 9.94621 115.894 9.91137C116.224 9.84009 116.565 9.85984 116.885 9.96862L116.898 9.97349C116.95 9.99089 117.007 9.98655 117.056 9.96139C117.106 9.93622 117.143 9.89222 117.162 9.83873C117.18 9.78525 117.177 9.7265 117.154 9.67498C117.131 9.62345 117.09 9.58323 117.039 9.56284L117.025 9.55936Z" fill="#0C0C0C"/>
<path d="M119.841 9.80562C120.143 9.65382 120.479 9.58725 120.815 9.61265C120.985 9.62407 121.153 9.66208 121.312 9.72541C121.474 9.78884 121.627 9.87302 121.769 9.97597L121.778 9.98223C121.808 10.0025 121.845 10.0098 121.881 10.0027C121.916 9.99558 121.948 9.97458 121.969 9.94408C121.99 9.91357 121.998 9.87592 121.993 9.83897C121.988 9.80202 121.969 9.76863 121.94 9.74576C121.785 9.61675 121.614 9.50853 121.432 9.42369C121.248 9.33683 121.053 9.279 120.852 9.25212C120.444 9.19462 120.028 9.25215 119.648 9.41864C119.623 9.43007 119.6 9.44655 119.58 9.46717C119.561 9.48778 119.546 9.51211 119.536 9.53877C119.526 9.56543 119.521 9.5939 119.521 9.62255C119.522 9.6512 119.527 9.67947 119.539 9.70574C119.561 9.75881 119.603 9.80054 119.655 9.82176C119.681 9.83226 119.708 9.83741 119.736 9.83691C119.764 9.83641 119.791 9.83027 119.817 9.81884L119.828 9.8131L119.841 9.80562Z" fill="#0C0C0C"/>
<path d="M119.647 3.37935C119.915 2.05864 119.427 0.836009 118.558 0.648535C117.689 0.461061 116.768 1.37974 116.5 2.70044C116.233 4.02115 116.721 5.24377 117.59 5.43125C118.459 5.61872 119.38 4.70006 119.647 3.37935Z" fill="#0C0C0C"/>
<path d="M106.824 38.2459C107.052 41.0007 108.661 58.1883 108.88 61.5817H138.467C138.637 58.5211 139.4 45.1385 140.045 39.1528C140.66 33.4417 141.522 30.8428 140.814 29.0681C139.564 25.9378 135.585 24.5401 132.89 24.1634C131.245 23.9333 128.77 23.7686 128.77 23.7686C128.77 23.7686 128.561 28.1452 123.565 28.3888C116.764 28.7194 117.218 23.7686 117.184 23.7686C116.082 23.7686 110.085 24.5959 108.586 25.6051C106.467 27.0306 105.841 28.9733 105.817 30.758C105.788 32.8135 106.567 35.121 106.824 38.2459Z" fill="#124AF6"/>
<path d="M108.325 54.8087C108.304 54.8088 108.283 54.8007 108.268 54.786C108.252 54.7713 108.242 54.7511 108.24 54.7293L107.119 41.4912C107.118 41.4683 107.124 41.4454 107.139 41.4277C107.153 41.41 107.174 41.399 107.196 41.3969C107.207 41.3958 107.218 41.3969 107.229 41.4003C107.239 41.4036 107.249 41.4092 107.258 41.4166C107.266 41.4239 107.273 41.433 107.278 41.4432C107.283 41.4535 107.287 41.4646 107.287 41.4761L108.408 54.7142C108.41 54.7371 108.403 54.7599 108.389 54.7776C108.375 54.7952 108.354 54.8063 108.332 54.8083C108.329 54.8086 108.327 54.8087 108.325 54.8087Z" fill="#0C0C0C"/>
<path d="M110.47 62.4984L114.532 59.095L113.848 59.2946C113.626 59.3545 113.391 59.3251 113.189 59.2124C112.987 59.0998 112.835 58.9122 112.762 58.6877C112.728 58.5705 112.717 58.4474 112.731 58.3259C112.745 58.2044 112.783 58.0871 112.842 57.9812C112.901 57.8752 112.981 57.7829 113.076 57.7097C113.17 57.6365 113.279 57.584 113.394 57.5555L121.928 55.4121L122.663 58.2191C122.891 59.0909 122.862 60.0131 122.579 60.8677C122.296 61.7222 121.773 62.4701 121.076 63.0155L117.913 65.4797C117.752 65.6109 117.551 65.6803 117.345 65.6762C117.139 65.6721 116.941 65.5949 116.784 65.4574C116.645 65.3301 116.549 65.16 116.51 64.9722C116.471 64.7844 116.491 64.5886 116.568 64.4134C116.554 64.4093 116.541 64.4013 116.532 64.3904C116.523 64.3799 116.517 64.3674 116.515 64.3539C116.512 64.3404 116.513 64.3265 116.516 64.3134L115.934 64.7689C115.754 64.9157 115.527 64.9865 115.298 64.9669C115.07 64.9473 114.857 64.8387 114.703 64.6633C114.57 64.5015 114.497 64.2968 114.497 64.085C114.496 63.8732 114.568 63.668 114.699 63.5055C114.69 63.504 114.681 63.5009 114.673 63.4963L114.434 63.6835C114.272 63.8146 114.071 63.884 113.866 63.88C113.66 63.8759 113.462 63.7986 113.305 63.6612C113.136 63.5067 113.032 63.2907 113.014 63.0585C112.996 62.8262 113.065 62.5958 113.208 62.4155C113.205 62.4105 113.202 62.405 113.2 62.3993L111.508 63.8166C111.424 63.8868 111.328 63.9394 111.224 63.9711C111.121 64.0029 111.012 64.0133 110.905 64.0017C110.797 63.9902 110.693 63.9569 110.598 63.9037C110.503 63.8506 110.419 63.7787 110.351 63.6921C110.283 63.6055 110.232 63.5059 110.202 63.399C110.171 63.2921 110.161 63.18 110.172 63.0691C110.183 62.9582 110.215 62.8506 110.267 62.7526C110.318 62.6545 110.388 62.5679 110.472 62.4977L110.47 62.4984Z" fill="#E98862"/>
<path opacity="0.2" d="M113.301 62.45C113.31 62.4468 113.318 62.4419 113.326 62.4356L114.953 61.0392C114.962 61.0321 114.968 61.0234 114.973 61.0136C114.978 61.0037 114.982 60.993 114.983 60.9819C114.984 60.9709 114.982 60.9597 114.979 60.9491C114.976 60.9385 114.971 60.9286 114.964 60.9201C114.957 60.9116 114.949 60.9045 114.939 60.8994C114.93 60.8942 114.919 60.891 114.908 60.89C114.898 60.889 114.887 60.8902 114.877 60.8935C114.866 60.8968 114.857 60.9021 114.849 60.9092L113.221 62.3054C113.206 62.3181 113.196 62.3358 113.193 62.3554C113.189 62.375 113.193 62.3951 113.202 62.4124C113.212 62.4296 113.227 62.4429 113.245 62.4498C113.263 62.4566 113.283 62.4567 113.301 62.45Z" fill="#0A0A0A"/>
<path opacity="0.2" d="M114.735 63.5043C114.744 63.5011 114.752 63.4963 114.759 63.4902L116.047 62.403C116.064 62.3888 116.074 62.3683 116.077 62.346C116.079 62.3237 116.072 62.3014 116.059 62.284C116.045 62.2666 116.025 62.2556 116.003 62.2534C115.982 62.2511 115.96 62.2578 115.943 62.272L114.656 63.3592C114.641 63.3718 114.63 63.3895 114.627 63.4091C114.623 63.4287 114.627 63.449 114.636 63.4664C114.646 63.4838 114.661 63.4971 114.679 63.5041C114.697 63.511 114.717 63.5111 114.735 63.5043Z" fill="#0A0A0A"/>
<path opacity="0.2" d="M116.62 64.4158C116.629 64.4122 116.638 64.407 116.646 64.4003L117.242 63.8722C117.25 63.865 117.257 63.8562 117.262 63.8463C117.267 63.8364 117.27 63.8256 117.27 63.8146C117.271 63.8035 117.27 63.7924 117.267 63.7818C117.263 63.7713 117.258 63.7615 117.251 63.7531C117.244 63.7447 117.236 63.7378 117.226 63.7328C117.216 63.7277 117.206 63.7247 117.195 63.7239C117.184 63.723 117.174 63.7244 117.163 63.7278C117.153 63.7313 117.144 63.7368 117.136 63.744L116.539 64.2721C116.525 64.285 116.515 64.3027 116.512 64.3221C116.509 64.3416 116.512 64.3615 116.522 64.3786C116.531 64.3957 116.546 64.4087 116.564 64.4155C116.582 64.4223 116.602 64.4224 116.62 64.4158Z" fill="#0A0A0A"/>
<path d="M146.375 54.1617L146.344 54.0189L140.944 29.3555L130.26 31.8493L134.475 51.1007L117.59 55.3848L119.668 65.2225L142.169 60.7911C142.22 60.7808 142.295 60.7651 142.346 60.7531C143.03 60.5935 143.676 60.2964 144.249 59.8788C144.821 59.4612 145.308 58.9312 145.683 58.3191C146.057 57.7071 146.31 57.0249 146.429 56.3116C146.548 55.5982 146.53 54.8677 146.375 54.1617Z" fill="#124AF6"/>
<path d="M117.508 55.4035C117.503 55.3815 117.507 55.3585 117.519 55.3394C117.53 55.3203 117.549 55.3066 117.57 55.3012L134.379 51.0382L131.646 38.5733C131.643 38.562 131.642 38.5501 131.644 38.5384C131.645 38.5267 131.649 38.5155 131.655 38.5054C131.661 38.4952 131.669 38.4864 131.678 38.4795C131.687 38.4726 131.698 38.4677 131.709 38.465C131.72 38.4624 131.731 38.4622 131.743 38.4643C131.754 38.4665 131.765 38.4709 131.774 38.4775C131.784 38.484 131.792 38.4925 131.798 38.5023C131.804 38.5122 131.808 38.5233 131.81 38.5349L134.562 51.0831C134.567 51.1054 134.563 51.1289 134.552 51.1484C134.54 51.168 134.521 51.182 134.5 51.1875L117.689 55.4505C117.689 55.4505 117.802 55.9579 117.834 56.1291C117.836 56.1514 117.83 56.1738 117.817 56.1914C117.803 56.209 117.783 56.2203 117.762 56.2229C117.74 56.2255 117.718 56.2191 117.701 56.2052C117.684 56.1913 117.673 56.1709 117.671 56.1486C117.632 55.9609 117.508 55.4035 117.508 55.4035Z" fill="#0C0C0C"/>
<path d="M118.167 69.1416L111.675 48.5357C111.561 48.1736 111.338 47.858 111.04 47.6343C110.742 47.4105 110.382 47.29 110.014 47.29H83.5651C83.2894 47.29 83.0176 47.3574 82.7719 47.4867C82.5263 47.6159 82.3138 47.8034 82.1518 48.0337C81.9897 48.2641 81.8828 48.5308 81.8398 48.812C81.7967 49.0932 81.8188 49.3809 81.9041 49.6516L88.3962 70.2575C88.5103 70.6196 88.7324 70.9351 89.0308 71.1588C89.3291 71.3826 89.6884 71.5031 90.0572 71.5031H116.506C116.781 71.5031 117.053 71.4357 117.299 71.3064C117.544 71.1772 117.757 70.9897 117.919 70.7594C118.081 70.529 118.188 70.2624 118.231 69.9812C118.274 69.7 118.252 69.4123 118.167 69.1416Z" fill="#292A2E"/>
<path opacity="0.2" d="M118.167 69.1416L111.675 48.5357C111.561 48.1736 111.338 47.858 111.04 47.6343C110.742 47.4105 110.382 47.29 110.014 47.29H83.5651C83.2894 47.29 83.0176 47.3574 82.7719 47.4867C82.5263 47.6159 82.3138 47.8034 82.1518 48.0337C81.9897 48.2641 81.8828 48.5308 81.8398 48.812C81.7967 49.0932 81.8188 49.3809 81.9041 49.6516L88.3962 70.2575C88.5103 70.6196 88.7324 70.9351 89.0308 71.1588C89.3291 71.3826 89.6884 71.5031 90.0572 71.5031H116.506C116.781 71.5031 117.053 71.4357 117.299 71.3064C117.544 71.1772 117.757 70.9897 117.919 70.7594C118.081 70.529 118.188 70.2624 118.231 69.9812C118.274 69.7 118.252 69.4123 118.167 69.1416Z" fill="white"/>
<path d="M99.2734 62.2607C100.805 62.2607 102.047 60.9784 102.047 59.3965C102.047 57.8146 100.805 56.5322 99.2734 56.5322C97.7414 56.5322 96.4995 57.8146 96.4995 59.3965C96.4995 60.9784 97.7414 62.2607 99.2734 62.2607Z" fill="white"/>
<path d="M73.1603 2.17773H20.6666C18.2346 2.17773 16.2632 4.21343 16.2632 6.72459V72.527C16.2632 75.0382 18.2346 77.0739 20.6666 77.0739H73.1603C75.5923 77.0739 77.5637 75.0382 77.5637 72.527V6.72459C77.5637 4.21343 75.5923 2.17773 73.1603 2.17773Z" fill="#292A2E"/>
<path d="M75.1008 0.173828H22.607C20.1751 0.173828 18.2036 2.20952 18.2036 4.72068V70.5231C18.2036 73.0343 20.1751 75.07 22.607 75.07H75.1008C77.5327 75.07 79.5042 73.0343 79.5042 70.5231V4.72068C79.5042 2.20952 77.5327 0.173828 75.1008 0.173828Z" fill="white"/>
<path d="M75.1008 75.2441H22.6071C21.3949 75.2427 20.2328 74.7449 19.3757 73.8598C18.5185 72.9748 18.0364 71.7747 18.0352 70.5231V4.72085C18.0365 3.46923 18.5186 2.26926 19.3757 1.38423C20.2328 0.4992 21.3949 0.00138169 22.6071 0L75.1008 0C76.3129 0.00142774 77.475 0.499266 78.3321 1.38429C79.1891 2.26932 79.6712 3.46926 79.6726 4.72085V70.5231C79.6713 71.7747 79.1892 72.9747 78.3321 73.8598C77.475 74.7448 76.313 75.2427 75.1008 75.2441ZM22.6071 0.348004C21.4843 0.349294 20.4079 0.810418 19.6139 1.63021C18.82 2.45 18.3734 3.5615 18.3722 4.72085V70.5231C18.3734 71.6824 18.82 72.794 19.6139 73.6137C20.4079 74.4335 21.4843 74.8947 22.6071 74.896H75.1008C76.2236 74.8947 77.3 74.4335 78.0939 73.6137C78.8878 72.7939 79.3343 71.6824 79.3355 70.5231V4.72085C79.3343 3.56151 78.8878 2.45001 78.0939 1.63022C77.3 0.810423 76.2236 0.349294 75.1008 0.348004H22.6071Z" fill="#292A2E"/>
<path d="M17.4965 84.4857C23.5344 84.4857 28.4291 79.4315 28.4291 73.1969C28.4291 66.9623 23.5344 61.9082 17.4965 61.9082C11.4586 61.9082 6.56396 66.9623 6.56396 73.1969C6.56396 79.4315 11.4586 84.4857 17.4965 84.4857Z" fill="#292A2E"/>
<path d="M15.2273 71.7234C15.0834 71.7234 14.9454 71.6643 14.8436 71.5593C14.7418 71.4542 14.6846 71.3117 14.6846 71.1631V68.4502C14.6846 66.9501 15.9462 65.7295 17.4969 65.7295C19.0475 65.7295 20.3092 66.9501 20.3092 68.4502V70.9769C20.3104 71.0513 20.2973 71.1252 20.2706 71.1944C20.2439 71.2635 20.2042 71.3265 20.1536 71.3796C20.1031 71.4326 20.0429 71.4748 19.9764 71.5036C19.9099 71.5324 19.8386 71.5472 19.7665 71.5472C19.6944 71.5472 19.623 71.5324 19.5566 71.5036C19.4901 71.4748 19.4298 71.4326 19.3793 71.3796C19.3288 71.3265 19.289 71.2635 19.2623 71.1944C19.2356 71.1252 19.2225 71.0513 19.2238 70.9769V68.4502C19.2238 67.568 18.4486 66.8502 17.4969 66.8502C16.5451 66.8502 15.77 67.568 15.77 68.4502V71.1634C15.7699 71.3119 15.7127 71.4544 15.6109 71.5594C15.5092 71.6644 15.3712 71.7234 15.2273 71.7234Z" fill="white"/>
<path d="M20.9589 70.6943H14.0344C13.6306 70.6943 13.3032 71.0324 13.3032 71.4493V78.1843C13.3032 78.6012 13.6306 78.9393 14.0344 78.9393H20.9589C21.3627 78.9393 21.6901 78.6012 21.6901 78.1843V71.4493C21.6901 71.0324 21.3627 70.6943 20.9589 70.6943Z" fill="white"/>
<path d="M16.8075 74.1501C16.8074 74.2836 16.8437 74.4145 16.9123 74.5278C16.9808 74.6411 17.0788 74.7322 17.1951 74.7907V75.8845C17.1951 75.9669 17.2268 76.046 17.2832 76.1043C17.3397 76.1625 17.4162 76.1953 17.496 76.1953C17.5758 76.1953 17.6524 76.1625 17.7088 76.1043C17.7653 76.046 17.797 75.9669 17.797 75.8845V74.7907C17.9077 74.7353 18.0021 74.6502 18.0702 74.5443C18.1383 74.4384 18.1778 74.3156 18.1844 74.1887C18.191 74.0618 18.1646 73.9353 18.108 73.8225C18.0513 73.7097 17.9663 73.6146 17.862 73.5471C17.7577 73.4796 17.6378 73.4422 17.5147 73.4387C17.3917 73.4353 17.27 73.4659 17.1623 73.5275C17.0546 73.589 16.9648 73.6792 16.9022 73.7887C16.8397 73.8982 16.8067 74.023 16.8066 74.1501H16.8075Z" fill="#292A2E"/>
<path d="M70.5167 37.5449H27.191C26.1568 37.5449 25.3184 38.4107 25.3184 39.4786V45.7503C25.3184 46.8183 26.1568 47.684 27.191 47.684H70.5167C71.551 47.684 72.3894 46.8183 72.3894 45.7503V39.4786C72.3894 38.4107 71.551 37.5449 70.5167 37.5449Z" fill="white"/>
<path d="M70.5166 47.8582H27.1911C26.6499 47.8576 26.1311 47.6353 25.7484 47.2402C25.3658 46.845 25.1505 46.3093 25.1499 45.7505V39.479C25.1505 38.9201 25.3658 38.3844 25.7484 37.9892C26.1311 37.5941 26.6499 37.3718 27.1911 37.3711H70.5166C71.0578 37.3717 71.5767 37.594 71.9594 37.9892C72.3421 38.3843 72.5573 38.9201 72.558 39.479V45.7505C72.5573 46.3093 72.3421 46.8451 71.9594 47.2402C71.5767 47.6354 71.0578 47.8576 70.5166 47.8582ZM27.1911 37.7191C26.7392 37.7196 26.306 37.9052 25.9865 38.2351C25.6671 38.5651 25.4874 39.0124 25.4869 39.479V45.7505C25.4874 46.2171 25.6671 46.6643 25.9866 46.9942C26.3061 47.3241 26.7393 47.5097 27.1911 47.5102H70.5166C70.9684 47.5097 71.4016 47.3241 71.7211 46.9943C72.0407 46.6644 72.2204 46.2171 72.2209 45.7505V39.479C72.2204 39.0124 72.0407 38.565 71.7212 38.2351C71.4017 37.9052 70.9685 37.7196 70.5166 37.7191H27.1911Z" fill="#292A2E"/>
<path d="M70.5167 52.0352H27.191C26.1568 52.0352 25.3184 52.9009 25.3184 53.9688V60.2406C25.3184 61.3085 26.1568 62.1743 27.191 62.1743H70.5167C71.551 62.1743 72.3894 61.3085 72.3894 60.2406V53.9688C72.3894 52.9009 71.551 52.0352 70.5167 52.0352Z" fill="white"/>
<path d="M70.5166 62.3483H27.1911C26.6498 62.3476 26.1309 62.1253 25.7483 61.73C25.3656 61.3348 25.1504 60.7989 25.1499 60.2401V53.969C25.1505 53.4102 25.3658 52.8745 25.7484 52.4794C26.1311 52.0842 26.6499 51.862 27.1911 51.8613H70.5166C71.0578 51.8619 71.5767 52.0842 71.9594 52.4793C72.3421 52.8744 72.5573 53.4102 72.558 53.969V60.2401C72.5575 60.799 72.3423 61.3349 71.9595 61.7301C71.5768 62.1254 71.0579 62.3477 70.5166 62.3483ZM27.1911 52.2093C26.7393 52.2098 26.3061 52.3954 25.9866 52.7253C25.6671 53.0552 25.4874 53.5025 25.4869 53.969V60.2401C25.4874 60.7066 25.6671 61.1539 25.9866 61.4838C26.3061 61.8137 26.7393 61.9992 27.1911 61.9997H70.5166C70.9685 61.9993 71.4017 61.8137 71.7212 61.4838C72.0407 61.1539 72.2204 60.7066 72.2209 60.2401V53.969C72.2204 53.5024 72.0407 53.0551 71.7212 52.7252C71.4017 52.3953 70.9685 52.2098 70.5166 52.2093H27.1911Z" fill="#292A2E"/>
<path d="M48.8536 30.0033C54.4091 30.0033 58.9128 25.3529 58.9128 19.6164C58.9128 13.8799 54.4091 9.22949 48.8536 9.22949C43.2981 9.22949 38.7944 13.8799 38.7944 19.6164C38.7944 25.3529 43.2981 30.0033 48.8536 30.0033Z" fill="white"/>
<path d="M48.8537 30.1774C46.8308 30.1774 44.8534 29.5581 43.1715 28.3976C41.4895 27.2372 40.1786 25.5878 39.4045 23.658C38.6304 21.7283 38.4279 19.6048 38.8225 17.5562C39.2171 15.5076 40.1912 13.6258 41.6216 12.1489C43.052 10.6719 44.8744 9.66609 46.8583 9.25859C48.8423 8.8511 50.8988 9.06024 52.7676 9.85957C54.6365 10.6589 56.2338 12.0125 57.3577 13.7492C58.4815 15.486 59.0813 17.5278 59.0813 19.6166C59.0783 22.4165 57.9998 25.1009 56.0824 27.0808C54.165 29.0606 51.5653 30.1743 48.8537 30.1774ZM48.8537 9.40367C46.8975 9.40367 44.9852 10.0026 43.3587 11.1249C41.7322 12.2471 40.4645 13.8421 39.7159 15.7083C38.9673 17.5744 38.7714 19.6279 39.1531 21.609C39.5347 23.5901 40.4767 25.4099 41.8599 26.8382C43.2431 28.2665 45.0055 29.2391 46.9241 29.6332C48.8427 30.0273 50.8314 29.825 52.6387 29.052C54.4459 28.279 55.9906 26.97 57.0774 25.2905C58.1642 23.611 58.7443 21.6365 58.7443 19.6166C58.7414 16.9089 57.6984 14.3129 55.8442 12.3983C53.9899 10.4837 51.4759 9.40671 48.8537 9.40367Z" fill="#292A2E"/>
<path opacity="0.5" d="M58.6895 19.6164C58.6924 22.0205 57.8663 24.3472 56.359 26.1796C55.4307 25.062 54.2793 24.1651 52.9837 23.5502C51.6881 22.9354 50.2791 22.6172 48.8532 22.6174C47.4273 22.6177 46.0184 22.9364 44.7231 23.5518C43.4277 24.1671 42.2766 25.0645 41.3486 26.1823C40.3251 24.935 39.6084 23.451 39.2592 21.8564C38.9101 20.2618 38.9389 18.6038 39.3432 17.0231C39.7475 15.4425 40.5153 13.986 41.5814 12.7774C42.6475 11.5687 43.9805 10.6437 45.4669 10.0809C46.9534 9.51802 48.5495 9.33402 50.1196 9.54447C51.6896 9.75493 53.1873 10.3536 54.4854 11.2897C55.7834 12.2258 56.8434 13.4716 57.5753 14.9212C58.3073 16.3709 58.6895 17.9815 58.6895 19.6164Z" fill="#124AF6"/>
<path d="M56.359 26.1793C55.4359 27.305 54.2863 28.2095 52.9903 28.83C51.6943 29.4505 50.283 29.7721 48.8545 29.7723C47.4259 29.7726 46.0145 29.4516 44.7183 28.8315C43.4221 28.2115 42.2722 27.3074 41.3486 26.1821C42.2766 25.0642 43.4277 24.1669 44.7231 23.5515C46.0184 22.9362 47.4274 22.6175 48.8532 22.6172C50.2791 22.6169 51.6881 22.9351 52.9837 23.55C54.2793 24.1648 55.4307 25.0618 56.359 26.1793Z" fill="white"/>
<path d="M48.8541 20.7222C51.0498 20.7222 52.8298 18.8842 52.8298 16.617C52.8298 14.3497 51.0498 12.5117 48.8541 12.5117C46.6584 12.5117 44.8784 14.3497 44.8784 16.617C44.8784 18.8842 46.6584 20.7222 48.8541 20.7222Z" fill="white"/>
<g opacity="0.4">
<path d="M28.9653 58.3396C29.6257 58.3396 30.1611 57.7868 30.1611 57.1048C30.1611 56.4229 29.6257 55.8701 28.9653 55.8701C28.3049 55.8701 27.7695 56.4229 27.7695 57.1048C27.7695 57.7868 28.3049 58.3396 28.9653 58.3396Z" fill="#292A2E"/>
<path d="M32.7055 58.3396C33.3659 58.3396 33.9013 57.7868 33.9013 57.1048C33.9013 56.4229 33.3659 55.8701 32.7055 55.8701C32.0451 55.8701 31.5098 56.4229 31.5098 57.1048C31.5098 57.7868 32.0451 58.3396 32.7055 58.3396Z" fill="#292A2E"/>
<path d="M36.4463 58.3396C37.1067 58.3396 37.642 57.7868 37.642 57.1048C37.642 56.4229 37.1067 55.8701 36.4463 55.8701C35.7859 55.8701 35.2505 56.4229 35.2505 57.1048C35.2505 57.7868 35.7859 58.3396 36.4463 58.3396Z" fill="#292A2E"/>
<path d="M40.1865 58.3396C40.8469 58.3396 41.3822 57.7868 41.3822 57.1048C41.3822 56.4229 40.8469 55.8701 40.1865 55.8701C39.5261 55.8701 38.9907 56.4229 38.9907 57.1048C38.9907 57.7868 39.5261 58.3396 40.1865 58.3396Z" fill="#292A2E"/>
<path d="M43.9272 58.3396C44.5876 58.3396 45.123 57.7868 45.123 57.1048C45.123 56.4229 44.5876 55.8701 43.9272 55.8701C43.2668 55.8701 42.7314 56.4229 42.7314 57.1048C42.7314 57.7868 43.2668 58.3396 43.9272 58.3396Z" fill="#292A2E"/>
<path d="M47.6674 58.3396C48.3278 58.3396 48.8632 57.7868 48.8632 57.1048C48.8632 56.4229 48.3278 55.8701 47.6674 55.8701C47.007 55.8701 46.4717 56.4229 46.4717 57.1048C46.4717 57.7868 47.007 58.3396 47.6674 58.3396Z" fill="#292A2E"/>
<path d="M51.4082 58.3396C52.0686 58.3396 52.6039 57.7868 52.6039 57.1048C52.6039 56.4229 52.0686 55.8701 51.4082 55.8701C50.7478 55.8701 50.2124 56.4229 50.2124 57.1048C50.2124 57.7868 50.7478 58.3396 51.4082 58.3396Z" fill="#292A2E"/>
</g>
<g opacity="0.3">
<path d="M30.1514 42.54V42.9576H28.6157V42.54H30.1514Z" fill="black"/>
<path d="M32.0596 42.54V42.9576H30.5239V42.54H32.0596Z" fill="black"/>
<path d="M33.9678 42.54V42.9576H32.4321V42.54H33.9678Z" fill="black"/>
<path d="M35.8765 42.54V42.9576H34.3408V42.54H35.8765Z" fill="black"/>
<path d="M37.7848 42.54V42.9576H36.249V42.54H37.7848Z" fill="black"/>
<path d="M41.2287 44.8966C40.8871 45.0778 40.5066 45.1663 40.1227 45.1539C39.1031 45.1539 38.2388 44.3834 38.2388 43.1508C38.2388 41.8284 39.128 40.6855 40.5081 40.6855C41.59 40.6855 42.3174 41.4686 42.3174 42.5409C42.3174 43.504 41.7951 44.0688 41.2107 44.0688C40.9621 44.0688 40.7321 43.8948 40.7506 43.504H40.7257C40.6453 43.6733 40.5206 43.8159 40.3657 43.9157C40.2108 44.0156 40.032 44.0686 39.8494 44.0688C39.4888 44.0688 39.1779 43.7671 39.1779 43.2601C39.1772 43.0601 39.2148 42.8619 39.2887 42.6769C39.3625 42.492 39.471 42.324 39.608 42.1825C39.7449 42.0411 39.9077 41.929 40.0868 41.8528C40.2659 41.7766 40.4578 41.7377 40.6515 41.7384C40.88 41.735 41.1066 41.7809 41.3168 41.8733L41.1053 43.0353C41.0121 43.5225 41.0868 43.7487 41.2919 43.7544C41.609 43.7607 41.9634 43.3241 41.9634 42.5796C41.9634 41.6486 41.4225 40.981 40.4587 40.981C39.4453 40.981 38.5935 41.8091 38.5935 43.1124C38.5935 44.1846 39.2712 44.8458 40.1915 44.8458C40.5177 44.8536 40.8406 44.7763 41.1303 44.6211L41.2287 44.8966ZM40.8868 42.1232C40.7858 42.0925 40.6811 42.0774 40.5759 42.0783C40.0287 42.0783 39.5874 42.6111 39.5874 43.2338C39.5874 43.5162 39.7242 43.721 39.9977 43.721C40.3583 43.721 40.6878 43.246 40.756 42.8479L40.8868 42.1232Z" fill="black"/>
<path d="M44.2744 42.54V42.9576H42.7388V42.54H44.2744Z" fill="black"/>
<path d="M46.1828 42.54V42.9576H44.647V42.54H46.1828Z" fill="black"/>
<path d="M48.0908 42.54V42.9576H46.5552V42.54H48.0908Z" fill="black"/>
</g>
</g>
<defs>
<clipPath id="clip0_18_14545">
<rect width="150" height="150" fill="white"/>
</clipPath>
</defs>
</svg>
