<svg width="100" height="67" viewBox="0 0 100 67" fill="none" xmlns="http://www.w3.org/2000/svg">
<path d="M81.537 54.4438L81.3491 54.4042C81.3883 54.2183 81.4247 54.0291 81.457 53.8418L81.6463 53.8745C81.6132 54.0641 81.5765 54.2557 81.537 54.4438Z" fill="#292A2E"/>
<path d="M66.5452 66.709L66.5438 66.517C66.9247 66.5139 67.3106 66.4963 67.6905 66.4644L67.7065 66.6557C67.3218 66.688 66.9312 66.706 66.5452 66.709ZM65.383 66.6746C64.9984 66.6486 64.6094 66.6074 64.2268 66.5532L64.2539 66.3632C64.6318 66.4171 65.0161 66.4574 65.3963 66.483L65.383 66.6746ZM68.86 66.5149L68.8296 66.3253C69.2056 66.2648 69.5844 66.1892 69.9551 66.1004L69.9998 66.2871C69.6243 66.377 69.2409 66.4537 68.86 66.5149ZM63.0828 66.3467C62.7049 66.2639 62.3262 66.1661 61.9572 66.0559L62.0121 65.872C62.377 65.9808 62.7506 66.0774 63.1239 66.1591L63.0828 66.3467ZM71.1192 65.9738L71.0605 65.7914C71.4227 65.6752 71.7858 65.5434 72.1396 65.3997L72.2118 65.5776C71.8536 65.7228 71.486 65.8562 71.1192 65.9738ZM60.8562 65.6814C60.4955 65.5431 60.1356 65.3896 59.7867 65.2248L59.8686 65.0511C60.2132 65.2143 60.5686 65.3656 60.9247 65.5023L60.8562 65.6814ZM73.2718 65.0997L73.1864 64.9277C73.5276 64.7583 73.8669 64.5737 74.1945 64.379L74.2925 64.5441C73.9607 64.7412 73.6172 64.9279 73.2717 65.0997H73.2718ZM58.7549 64.6886C58.4195 64.4978 58.087 64.2917 57.766 64.0759L57.8734 63.9166C58.1902 64.1297 58.5182 64.3333 58.8494 64.5215L58.7549 64.6886ZM75.27 63.9136L75.16 63.7564C75.4725 63.5378 75.7806 63.3052 76.0756 63.0635L76.1971 63.2122C75.8981 63.4564 75.5861 63.6924 75.2697 63.9136H75.27ZM56.8274 63.3901C56.5246 63.1511 56.2269 62.8973 55.9424 62.6358L56.0724 62.4945C56.3533 62.7527 56.6473 63.0033 56.946 63.2395L56.8274 63.3901ZM77.0689 62.4433L76.9367 62.3041C77.213 62.0415 77.4828 61.7651 77.7388 61.4825L77.8811 61.6113C77.6219 61.8975 77.3487 62.1775 77.0689 62.4433ZM55.1163 61.8174C54.8525 61.5354 54.596 61.24 54.3542 60.9394L54.5038 60.819C54.7426 61.1159 54.9959 61.4077 55.2564 61.6862L55.1163 61.8174ZM78.6287 60.7209L78.477 60.603C78.7109 60.3019 78.9364 59.9886 79.1469 59.6704L79.3069 59.7765C79.0937 60.0981 78.8655 60.4157 78.6286 60.7208L78.6287 60.7209ZM53.6597 60.007C53.4409 59.689 53.2314 59.3589 53.0369 59.0254L53.2028 58.9287C53.3948 59.258 53.6018 59.5841 53.8179 59.8983L53.6597 60.007ZM79.912 58.7836L79.7443 58.69C79.9302 58.3572 80.1057 58.0131 80.2659 57.667L80.4402 57.7475C80.2779 58.0978 80.1002 58.4464 79.912 58.7836ZM52.489 58.0002C52.3198 57.6529 52.1619 57.295 52.0195 56.9367L52.198 56.8658C52.3386 57.2198 52.4946 57.5732 52.6616 57.9161L52.489 58.0002ZM80.8883 56.6753L80.7085 56.6081C80.8418 56.2518 80.9633 55.8853 81.0699 55.5186L81.2543 55.572C81.1464 55.9426 81.0232 56.3139 80.8883 56.6746V56.6753Z" fill="#292A2E"/>
<path d="M51.629 55.8326C51.5713 55.6492 51.5171 55.462 51.4668 55.2758L51.6521 55.2256C51.7018 55.409 51.7557 55.5939 51.8122 55.7751L51.629 55.8326Z" fill="#292A2E"/>
<path d="M7.48688 39.0275C7.30111 38.9724 7.11505 38.9112 6.93408 38.8455L6.99965 38.665C7.17698 38.7295 7.35929 38.7898 7.54141 38.8433L7.48688 39.0275Z" fill="#292A2E"/>
<path d="M5.86577 38.3819C5.51952 38.2054 5.18449 38.0077 4.86261 37.7899L4.97023 37.6309C5.28557 37.8443 5.6138 38.038 5.95304 38.2108L5.86577 38.3819ZM3.94029 37.0786C3.64796 36.8226 3.37165 36.5489 3.11291 36.259L3.25615 36.1312C3.50963 36.4152 3.78033 36.6833 4.06673 36.9341L3.94029 37.0786ZM2.39239 35.3443C2.17122 35.0249 1.96975 34.6923 1.7891 34.3484L1.95903 34.2591C2.13607 34.5961 2.33351 34.922 2.55023 35.2349L2.39239 35.3443ZM1.31176 33.2865C1.17448 32.9231 1.05963 32.5517 0.967866 32.1742L1.1545 32.1289C1.24437 32.4987 1.35687 32.8626 1.49138 33.2186L1.31176 33.2865ZM0.763183 31.0284C0.721812 30.6702 0.700945 30.3099 0.700684 29.9494V29.8656L0.892694 29.8672V29.9494C0.89283 30.3026 0.913184 30.6554 0.953658 31.0063L0.763183 31.0284ZM0.974395 28.7293L0.784112 28.704C0.835593 28.319 0.910553 27.9374 1.00857 27.5615L1.19434 27.6095C1.09825 27.978 1.0247 28.3519 0.974107 28.7293H0.974395ZM1.54812 26.5252L1.36946 26.4546C1.5123 26.0932 1.6772 25.741 1.86321 25.3999L2.0318 25.4918C1.84953 25.8261 1.688 26.1712 1.54812 26.5252ZM2.63903 24.5262L2.48312 24.4141C2.71004 24.0987 2.95622 23.7976 3.22025 23.5125L3.36099 23.6431C3.10239 23.9223 2.86128 24.2173 2.63903 24.5262ZM4.18635 22.8557L4.0626 22.7088C4.3597 22.4586 4.67178 22.2266 4.99711 22.0143L5.10205 22.1751C4.78326 22.3831 4.47746 22.6103 4.18635 22.8555V22.8557ZM6.09388 21.6115L6.00939 21.4387C6.35838 21.2678 6.71747 21.1184 7.08465 20.9912L7.14744 21.1727C6.78766 21.2973 6.43582 21.4438 6.09388 21.6113V21.6115Z" fill="#292A2E"/>
<path d="M8.24951 20.8657L8.20947 20.6779C8.39832 20.6377 8.591 20.6028 8.78214 20.5742L8.81095 20.7642C8.62326 20.7922 8.43451 20.8262 8.24951 20.8657Z" fill="#292A2E"/>
<path d="M17.1326 41.9752C17.134 40.9467 16.8782 39.9342 16.3885 39.0297C15.8987 38.1253 15.1906 37.3577 14.3285 36.7968C13.4663 36.2359 12.4776 35.8994 11.4523 35.8181C10.427 35.7368 9.39768 35.9132 8.45793 36.3312C7.51819 36.7492 6.6979 37.3956 6.07172 38.2116C5.44553 39.0275 5.03333 39.9871 4.87263 41.003C4.71193 42.0189 4.80782 43.0588 5.15159 44.0282C5.49536 44.9976 6.07608 45.8656 6.84092 46.5533C7.52752 47.161 8.07822 47.9068 8.45705 48.7419C8.83588 49.5769 9.03433 50.4825 9.03944 51.3994V51.4061L12.8685 51.4106V51.4039C12.8749 50.4879 13.0746 49.5836 13.4545 48.7501C13.8345 47.9165 14.3861 47.1726 15.0734 46.567C15.721 45.9901 16.2393 45.2828 16.5942 44.4914C16.9491 43.7 17.1326 42.8426 17.1326 41.9752Z" fill="#0D38D3"/>
<path opacity="0.8" d="M17.1326 41.9752C17.134 40.9467 16.8782 39.9342 16.3885 39.0297C15.8987 38.1253 15.1906 37.3577 14.3285 36.7968C13.4663 36.2359 12.4776 35.8994 11.4523 35.8181C10.427 35.7368 9.39768 35.9132 8.45793 36.3312C7.51819 36.7492 6.6979 37.3956 6.07172 38.2116C5.44553 39.0275 5.03333 39.9871 4.87263 41.003C4.71193 42.0189 4.80782 43.0588 5.15159 44.0282C5.49536 44.9976 6.07608 45.8656 6.84092 46.5533C7.52752 47.161 8.07822 47.9068 8.45705 48.7419C8.83588 49.5769 9.03433 50.4825 9.03944 51.3994V51.4061L12.8685 51.4106V51.4039C12.8749 50.4879 13.0746 49.5836 13.4545 48.7501C13.8345 47.9165 14.3861 47.1726 15.0734 46.567C15.721 45.9901 16.2393 45.2828 16.5942 44.4914C16.9491 43.7 17.1326 42.8426 17.1326 41.9752Z" fill="white"/>
<path d="M10.1968 51.4253L8.69601 42.8471C8.68296 42.7717 8.69788 42.6942 8.73796 42.6291C8.77804 42.564 8.84052 42.5158 8.91365 42.4936C9.06061 42.4418 9.21684 42.4218 9.3721 42.4347C9.52736 42.4476 9.67815 42.4931 9.81457 42.5683C9.86294 42.5978 9.90854 42.6316 9.9508 42.6693C10.0926 42.5427 10.2608 42.4493 10.4433 42.3959C11.0011 42.2236 11.347 42.4433 11.5388 42.6581C11.5799 42.7043 11.6173 42.7535 11.6509 42.8054C11.9127 42.5174 12.213 42.3679 12.4881 42.399C12.5553 42.4012 12.6214 42.417 12.6823 42.4454C12.7433 42.4738 12.7979 42.5143 12.8428 42.5643C12.8895 42.6231 12.9117 42.6977 12.9046 42.7725L11.6794 51.4242L11.4892 51.3973L12.7145 42.7455C12.7153 42.7348 12.7172 42.6182 12.4665 42.5899C12.2383 42.5637 11.9789 42.7093 11.749 42.9844C11.9218 43.3603 11.9397 43.8084 11.8241 44.0725C11.8027 44.1377 11.7622 44.1951 11.708 44.2371C11.6537 44.2792 11.5881 44.304 11.5195 44.3084C11.4557 44.3134 11.3917 44.2999 11.3352 44.2697C11.2788 44.2394 11.2322 44.1937 11.2009 44.1377C11.0559 43.8704 11.2369 43.3823 11.4663 43.0419C11.4845 43.0151 11.5029 42.9889 11.5216 42.9635C11.486 42.9001 11.4437 42.8406 11.3956 42.786C11.1711 42.5346 10.8698 42.465 10.5 42.5794C10.345 42.6235 10.2018 42.7019 10.0811 42.8087C10.2456 43.0398 10.3532 43.3066 10.395 43.5872C10.4679 43.9774 10.35 44.1418 10.2732 44.205C10.2346 44.2373 10.188 44.2586 10.1383 44.2665C10.0886 44.2744 10.0377 44.2686 9.99103 44.2497C9.77021 44.162 9.60268 43.7851 9.61737 43.4096C9.62258 43.1939 9.69408 42.985 9.82215 42.8112C9.78893 42.7816 9.7531 42.7551 9.71511 42.7319C9.6016 42.6711 9.47659 42.6348 9.34816 42.6253C9.21974 42.6158 9.09075 42.6334 8.96953 42.6768C8.94121 42.6855 8.91704 42.7042 8.90156 42.7295C8.88607 42.7547 8.88034 42.7848 8.88543 42.8139L10.3862 51.3922L10.1968 51.4253ZM11.6144 43.1656C11.3913 43.5037 11.2839 43.8876 11.3698 44.0459C11.384 44.0713 11.4057 44.0916 11.432 44.1042C11.4583 44.1167 11.4878 44.1209 11.5165 44.116C11.5691 44.1152 11.6134 44.0744 11.6482 43.995C11.7337 43.7992 11.7228 43.4643 11.6144 43.1656ZM9.95262 42.9581C9.86337 43.095 9.81354 43.2539 9.80862 43.4172C9.79537 43.7551 9.94686 44.0259 10.0613 44.0714C10.0761 44.0774 10.0922 44.0793 10.108 44.0767C10.1237 44.0741 10.1384 44.0672 10.1505 44.0568C10.1781 44.034 10.264 43.9353 10.2056 43.6225C10.17 43.3854 10.0837 43.1588 9.95262 42.958V42.9581Z" fill="white"/>
<path d="M9.03955 51.4053L12.8687 51.4097L12.8685 51.6334C12.8679 52.1411 12.6656 52.6279 12.3061 52.9865C11.9467 53.3451 11.4595 53.5463 10.9517 53.5457C10.7003 53.5454 10.4514 53.4956 10.2192 53.3992C9.98701 53.3027 9.77611 53.1614 9.59852 52.9834C9.42094 52.8054 9.28015 52.5942 9.18419 52.3618C9.08824 52.1294 9.039 51.8804 9.03929 51.629L9.03955 51.4053Z" fill="#0D38D3"/>
<path opacity="0.5" d="M9.03955 51.4053L12.8687 51.4097L12.8685 51.6334C12.8679 52.1411 12.6656 52.6279 12.3061 52.9865C11.9467 53.3451 11.4595 53.5463 10.9517 53.5457C10.7003 53.5454 10.4514 53.4956 10.2192 53.3992C9.98701 53.3027 9.77611 53.1614 9.59852 52.9834C9.42094 52.8054 9.28015 52.5942 9.18419 52.3618C9.08824 52.1294 9.039 51.8804 9.03929 51.629L9.03955 51.4053Z" fill="white"/>
<path d="M10.7425 5.78464L10.5708 5.69871C10.6572 5.5259 10.7506 5.35309 10.8476 5.18652L11.0136 5.2831C10.9186 5.44622 10.8273 5.615 10.7425 5.78464Z" fill="#292A2E"/>
<path d="M27.459 8.35631C27.4011 7.99736 27.3215 7.64225 27.2206 7.29296L27.405 7.23958C27.5081 7.59638 27.5895 7.95912 27.6486 8.32578L27.459 8.35631ZM26.8541 6.26647C26.7112 5.93215 26.5481 5.60683 26.3658 5.2923L26.5318 5.1963C26.7182 5.51757 26.885 5.84992 27.031 6.19149L26.8541 6.26647ZM25.762 4.38477C25.5423 4.09529 25.305 3.81955 25.0515 3.55912L25.1891 3.42471C25.4482 3.69087 25.6908 3.9727 25.9153 4.2686L25.762 4.38477ZM11.6191 4.37517L11.4663 4.259C11.6912 3.96331 11.934 3.6817 12.1935 3.41579L12.3308 3.55019C12.077 3.81041 11.8395 4.08602 11.6195 4.37545L11.6191 4.37517ZM24.2438 2.82689C23.9599 2.59977 23.6622 2.39031 23.3525 2.19969L23.4532 2.03648C23.7696 2.23126 24.0737 2.44524 24.3639 2.67722L24.2438 2.82689ZM13.1389 2.81882L13.0191 2.66877C13.3094 2.43705 13.6137 2.22338 13.9302 2.02899L14.0307 2.1922C13.721 2.38272 13.4233 2.59208 13.1393 2.81911L13.1389 2.81882ZM22.3916 1.68596C22.0613 1.5341 21.722 1.40249 21.3757 1.29186L21.434 1.10897C21.7878 1.22194 22.1344 1.35637 22.4719 1.51152L22.3916 1.68596ZM14.993 1.68087L14.9133 1.50624C15.2512 1.35207 15.5981 1.2186 15.9523 1.10657L16.0099 1.28965C15.6633 1.39934 15.3237 1.52998 14.993 1.68087ZM20.3196 1.02564C19.9623 0.958701 19.6012 0.913813 19.2383 0.891229L19.2502 0.699219C19.6209 0.722179 19.9899 0.767964 20.355 0.836314L20.3196 1.02564ZM17.0673 1.02506L17.0321 0.836026C17.3972 0.768121 17.7662 0.722562 18.1369 0.699603L18.1487 0.891613C17.7858 0.913971 17.4247 0.95844 17.0673 1.02477V1.02506Z" fill="#292A2E"/>
<path d="M27.7594 10.0197L27.5673 10.0143C27.5726 9.82555 27.5719 9.63383 27.5649 9.44451L27.757 9.4375C27.7642 9.63095 27.7647 9.8269 27.7594 10.0197Z" fill="#292A2E"/>
<path d="M7.87772 21.2496C12.2285 21.2496 15.7554 17.7226 15.7554 13.3719C15.7554 9.02112 12.2285 5.49414 7.87772 5.49414C3.52697 5.49414 0 9.02112 0 13.3719C0 17.7226 3.52697 21.2496 7.87772 21.2496Z" fill="#0D38D3"/>
<path opacity="0.8" d="M7.87772 21.2496C12.2285 21.2496 15.7554 17.7226 15.7554 13.3719C15.7554 9.02112 12.2285 5.49414 7.87772 5.49414C3.52697 5.49414 0 9.02112 0 13.3719C0 17.7226 3.52697 21.2496 7.87772 21.2496Z" fill="white"/>
<path d="M9.57555 13.4791C9.31192 14.0508 8.87522 14.525 8.32725 14.8349C7.77928 15.1447 7.14776 15.2744 6.52204 15.2056C5.89632 15.1368 5.30807 14.873 4.84049 14.4515C4.37292 14.03 4.0497 13.4722 3.91655 12.857C3.7834 12.2417 3.84706 11.6002 4.09853 11.0231C4.35 10.446 4.77655 9.96262 5.31783 9.64127C5.85912 9.31991 6.48774 9.17688 7.11478 9.2324C7.74182 9.28793 8.33553 9.53919 8.81193 9.95066C9.30401 10.3769 9.64448 10.9513 9.78219 11.5876C9.91989 12.2238 9.84738 12.8876 9.57555 13.4791ZM4.73343 11.2505C4.48571 11.7868 4.45054 12.3972 4.63502 12.9584C4.8195 13.5197 5.2099 13.9902 5.72753 14.275C6.24515 14.5598 6.85151 14.6378 7.42435 14.4932C7.9972 14.3486 8.49393 13.9923 8.81442 13.4959C9.13491 12.9996 9.25532 12.4002 9.15137 11.8186C9.04743 11.2371 8.72686 10.7165 8.25429 10.3619C7.78172 10.0073 7.19229 9.84509 6.60483 9.9079C6.01738 9.9707 5.47557 10.2539 5.08865 10.7004C4.94504 10.8662 4.82546 11.0514 4.73343 11.2505Z" fill="white"/>
<path d="M11.8747 17.3293C11.8516 17.3792 11.8167 17.4227 11.773 17.456C11.7292 17.4893 11.678 17.5113 11.6238 17.5203C11.5696 17.5293 11.514 17.5248 11.4619 17.5073C11.4098 17.4899 11.3627 17.46 11.3249 17.4201L8.47685 14.422C8.44641 14.3899 8.42257 14.3522 8.4067 14.3109C8.39084 14.2697 8.38326 14.2257 8.38439 14.1815C8.38552 14.1373 8.39535 14.0938 8.4133 14.0534C8.43126 14.013 8.457 13.9765 8.48905 13.9461C8.52109 13.9156 8.55883 13.8918 8.60009 13.8759C8.64135 13.8601 8.68533 13.8525 8.72952 13.8536C8.77371 13.8548 8.81725 13.8646 8.85764 13.8825C8.89804 13.9005 8.9345 13.9262 8.96494 13.9583L11.8128 16.9564C11.8592 17.0053 11.8899 17.0669 11.901 17.1334C11.912 17.1998 11.9028 17.2681 11.8747 17.3293Z" fill="white"/>
<path d="M54.782 13.5409L54.5996 13.4821C54.6584 13.2997 54.7207 13.115 54.7849 12.9336L54.966 12.9977C54.9019 13.1774 54.8402 13.3601 54.782 13.5409Z" fill="#292A2E"/>
<path d="M91.8941 15.3659C91.8144 14.9989 91.7228 14.6297 91.6217 14.2684L91.8066 14.2167C91.9086 14.5815 92.0013 14.9546 92.0817 15.3251L91.8941 15.3659ZM91.2854 13.1886C91.1633 12.8334 91.029 12.4776 90.8864 12.1303L91.0639 12.0573C91.2079 12.4081 91.3437 12.7677 91.4671 13.1261L91.2854 13.1886ZM55.3742 11.9419L55.1973 11.8673C55.3443 11.518 55.5039 11.1685 55.6713 10.8282L55.8437 10.913C55.6778 11.2499 55.5196 11.5961 55.3742 11.9419ZM90.4257 11.0971C90.2625 10.7585 90.088 10.4206 89.9059 10.0926L90.0738 9.99934C90.2577 10.3306 90.4343 10.672 90.5988 11.0138L90.4257 11.0971ZM56.3727 9.9136L56.2057 9.81885C56.393 9.48897 56.5926 9.16054 56.7989 8.84267L56.9597 8.94769C56.7558 9.26192 56.5581 9.58709 56.3727 9.9136ZM89.3286 9.1205C89.127 8.80369 88.9143 8.48802 88.695 8.1833L88.8508 8.07117C89.0723 8.37838 89.2875 8.69731 89.4907 9.01759L89.3286 9.1205ZM57.6042 8.01644L57.4496 7.90249C57.6748 7.597 57.9119 7.29429 58.1547 7.00272L58.3023 7.12561C58.062 7.4143 57.8271 7.71393 57.6042 8.01644ZM88.0079 7.2844C87.7712 6.99312 87.5225 6.70501 87.2686 6.42794L87.4102 6.29824C87.6665 6.57809 87.9175 6.86918 88.1566 7.16324L88.0079 7.2844ZM59.0518 6.27779L58.9117 6.14636C59.1709 5.86977 59.4424 5.59721 59.7182 5.33636L59.8502 5.47576C59.5772 5.73411 59.3086 6.00388 59.0518 6.27779ZM86.4805 5.61631C86.2107 5.3545 85.9299 5.09788 85.6453 4.85268L85.7706 4.70724C86.0576 4.95464 86.3413 5.21414 86.6138 5.47854L86.4805 5.61631ZM60.6943 4.72231L60.5708 4.57533C60.8606 4.33147 61.162 4.09271 61.4663 3.86575L61.5815 4.01936C61.2793 4.24439 60.9809 4.48076 60.6943 4.72231ZM84.7674 4.13975C84.4689 3.91183 84.1597 3.68987 83.8481 3.48L83.9554 3.32073C84.2701 3.53271 84.5825 3.75698 84.8838 3.9871L84.7674 4.13975ZM62.507 3.37036L62.4014 3.21003C62.7182 3.00161 63.0452 2.7998 63.3737 2.61019L63.4698 2.77647C63.1444 2.96416 62.8206 3.16405 62.507 3.37036ZM82.8908 2.87574C82.5681 2.68508 82.2349 2.50132 81.9006 2.32966L81.9883 2.15878C82.326 2.33226 82.6625 2.51793 82.9885 2.71042L82.8908 2.87574ZM64.4653 2.2398L64.3789 2.06815C64.7178 1.89812 65.0661 1.73587 65.4143 1.58591L65.4903 1.76227C65.1458 1.91051 64.8009 2.07141 64.4653 2.2398ZM80.8802 1.8433C80.5371 1.6919 80.1846 1.54847 79.8327 1.41704L79.8999 1.23712C80.2551 1.3699 80.6113 1.51468 80.9579 1.66761L80.8802 1.8433ZM66.542 1.34542L66.4764 1.16493C66.8329 1.03551 67.1977 0.915315 67.5613 0.806829L67.6162 0.990871C67.2562 1.09811 66.8948 1.21735 66.542 1.34542ZM78.7625 1.05174C78.4028 0.94066 78.0361 0.83899 77.6725 0.749514L77.7184 0.562975C78.0855 0.653412 78.4559 0.756138 78.8192 0.868272L78.7625 1.05174ZM68.7085 0.700071L68.6645 0.513148C69.0339 0.426744 69.4104 0.349939 69.7834 0.284752L69.8162 0.473978C69.4469 0.53763 69.0743 0.614434 68.7085 0.700071ZM76.5662 0.511228C76.1966 0.442872 75.8205 0.384693 75.4484 0.338419L75.4721 0.147944C75.8479 0.194699 76.2278 0.25355 76.6011 0.322482L76.5662 0.511228ZM70.935 0.313361L70.9134 0.122599C71.2901 0.0798764 71.6727 0.0479067 72.051 0.0275535L72.0613 0.219564C71.6869 0.239437 71.3079 0.271119 70.935 0.313361ZM74.3223 0.231757C73.9479 0.207467 73.5677 0.194027 73.192 0.192011L73.193 0C73.5726 0.00201611 73.9567 0.0155529 74.3348 0.0401302L74.3223 0.231757Z" fill="#292A2E"/>
<path d="M92.1818 17.0512C92.1582 16.8623 92.1313 16.6713 92.1021 16.4836L92.2919 16.4541C92.3214 16.6436 92.3485 16.8365 92.3724 17.0273L92.1818 17.0512Z" fill="#292A2E"/>
<path d="M95.5578 23.5674C95.4187 23.4383 95.2749 23.3104 95.1304 23.1871L95.2552 23.041C95.4018 23.1658 95.5476 23.2957 95.6887 23.4267L95.5578 23.5674Z" fill="#292A2E"/>
<path d="M86.8451 46.82L86.84 46.628C87.2136 46.6184 87.5913 46.5923 87.9624 46.5512L87.9837 46.7421C87.6071 46.7838 87.2241 46.8101 86.8451 46.82ZM85.7039 46.8023C85.3252 46.7804 84.9432 46.7422 84.5684 46.6885L84.5955 46.4985C84.965 46.5513 85.3417 46.5891 85.715 46.6106L85.7039 46.8023ZM89.1121 46.5688L89.0749 46.3804C89.4419 46.3081 89.8099 46.2193 90.1687 46.1167L90.2216 46.3012C89.8571 46.4055 89.4838 46.4958 89.1117 46.5688H89.1121ZM91.3047 45.9411L91.2365 45.7617C91.5862 45.6288 91.934 45.4793 92.2705 45.3176L92.3536 45.4904C92.0117 45.6547 91.659 45.8063 91.3043 45.9411H91.3047ZM93.3606 44.9523L93.263 44.7868C93.585 44.5967 93.9027 44.3905 94.2068 44.1739L94.3183 44.3304C94.0091 44.5505 93.6869 44.7597 93.3602 44.9526L93.3606 44.9523ZM95.2196 43.6294L95.0953 43.4829C95.38 43.2415 95.6582 42.9844 95.9223 42.719L96.0585 42.8544C95.7901 43.1241 95.5079 43.3853 95.2192 43.6298L95.2196 43.6294ZM96.8287 42.0126L96.6818 41.8889C96.9229 41.6023 97.1544 41.3033 97.3697 40.9987L97.5265 41.1096C97.3077 41.4186 97.0729 41.7223 96.8283 42.013L96.8287 42.0126ZM98.1457 40.1513L97.9803 40.0541C98.1695 39.7323 98.3473 39.3983 98.5083 39.0612L98.6811 39.144C98.5177 39.4864 98.3373 39.8253 98.1453 40.1517L98.1457 40.1513ZM99.1304 38.0947L98.9508 38.0268C99.0828 37.6774 99.2015 37.3179 99.3033 36.9586L99.4881 37.011C99.3844 37.3759 99.264 37.7401 99.1301 38.0954L99.1304 38.0947ZM99.7526 35.9008L99.564 35.8642C99.635 35.4978 99.6913 35.1235 99.7312 34.7517L99.9222 34.7722C99.8813 35.1497 99.8243 35.5294 99.7522 35.9012L99.7526 35.9008ZM99.9962 33.6333L99.8042 33.629C99.8065 33.5274 99.8077 33.4259 99.8077 33.3244C99.8077 33.0518 99.7992 32.7759 99.7825 32.5041L99.9745 32.4924C99.9914 32.768 100 33.0479 100 33.3244C99.9996 33.4276 99.9982 33.5307 99.9958 33.6337L99.9962 33.6333ZM99.6666 31.3851C99.6125 31.0151 99.5418 30.6431 99.4571 30.2797L99.644 30.2359C99.7304 30.6047 99.8016 30.9819 99.8565 31.3572L99.6666 31.3851ZM99.1545 29.1957C99.0393 28.8405 98.9073 28.4852 98.7624 28.1412L98.9394 28.0667C99.0864 28.416 99.2203 28.7759 99.3372 29.1364L99.1545 29.1957ZM98.2822 27.1236C98.1085 26.7928 97.9184 26.4654 97.7172 26.1506L97.8791 26.0472C98.0831 26.3665 98.276 26.6987 98.4523 27.0344L98.2822 27.1236ZM97.0715 25.229C96.8446 24.9328 96.6018 24.6423 96.3498 24.3656L96.4917 24.2363C96.7474 24.5171 96.9937 24.8118 97.224 25.1123L97.0715 25.229Z" fill="#292A2E"/>
<path d="M83.4433 46.479C83.2558 46.4357 83.0665 46.3877 82.8809 46.3364L82.932 46.1514C83.1151 46.202 83.3016 46.2493 83.4865 46.2919L83.4433 46.479Z" fill="#292A2E"/>
<path d="M93.1682 24.9711C96.8876 24.9711 99.9028 21.9559 99.9028 18.2365C99.9028 14.5171 96.8876 11.502 93.1682 11.502C89.4488 11.502 86.4336 14.5171 86.4336 18.2365C86.4336 21.9559 89.4488 24.9711 93.1682 24.9711Z" fill="white"/>
<path opacity="0.2" d="M93.1682 24.9711C96.8876 24.9711 99.9028 21.9559 99.9028 18.2365C99.9028 14.5171 96.8876 11.502 93.1682 11.502C89.4488 11.502 86.4336 14.5171 86.4336 18.2365C86.4336 21.9559 89.4488 24.9711 93.1682 24.9711Z" fill="#0D38D3"/>
<path d="M93.1681 23.3869C96.0124 23.3869 98.3181 21.0812 98.3181 18.2369C98.3181 15.3927 96.0124 13.0869 93.1681 13.0869C90.3238 13.0869 88.0181 15.3927 88.0181 18.2369C88.0181 21.0812 90.3238 23.3869 93.1681 23.3869Z" fill="white"/>
<path opacity="0.2" d="M93.1684 21.8006C95.1375 21.8006 96.7337 20.2044 96.7337 18.2353C96.7337 16.2662 95.1375 14.6699 93.1684 14.6699C91.1993 14.6699 89.603 16.2662 89.603 18.2353C89.603 20.2044 91.1993 21.8006 93.1684 21.8006Z" fill="#0D38D3"/>
<path d="M93.1683 20.2164C94.2622 20.2164 95.1491 19.3296 95.1491 18.2357C95.1491 17.1417 94.2622 16.2549 93.1683 16.2549C92.0743 16.2549 91.1875 17.1417 91.1875 18.2357C91.1875 19.3296 92.0743 20.2164 93.1683 20.2164Z" fill="white"/>
<path opacity="0.2" d="M93.1686 18.8626C93.5144 18.8626 93.7948 18.5823 93.7948 18.2365C93.7948 17.8907 93.5144 17.6104 93.1686 17.6104C92.8228 17.6104 92.5425 17.8907 92.5425 18.2365C92.5425 18.5823 92.8228 18.8626 93.1686 18.8626Z" fill="#0D38D3"/>
<path d="M96.0221 49.9175H94.5983C94.4852 49.9177 94.3748 49.8827 94.2824 49.8173C94.19 49.7519 94.1203 49.6595 94.0828 49.5527C93.9738 49.2398 93.8449 48.9342 93.6969 48.6378C93.6458 48.5352 93.6283 48.4192 93.6468 48.3061C93.6654 48.193 93.7192 48.0887 93.8005 48.008L94.8124 46.9961C94.9152 46.8932 94.973 46.7537 94.973 46.6082C94.973 46.4628 94.9152 46.3233 94.8124 46.2204L92.6264 44.0353C92.5235 43.9325 92.384 43.8747 92.2385 43.8747C92.0931 43.8747 91.9536 43.9325 91.8507 44.0353L90.8207 45.0653C90.7405 45.1458 90.6372 45.1993 90.5251 45.2182C90.4131 45.2371 90.2979 45.2206 90.1957 45.1709C89.905 45.0289 89.6055 44.9054 89.2991 44.8013C89.1912 44.7645 89.0974 44.6948 89.0311 44.602C88.9648 44.5092 88.9292 44.3979 88.9294 44.2838V42.8246C88.9294 42.7526 88.9153 42.6813 88.8878 42.6148C88.8602 42.5483 88.8199 42.4878 88.769 42.4369C88.7181 42.386 88.6576 42.3456 88.5911 42.3181C88.5246 42.2905 88.4533 42.2764 88.3813 42.2764H85.2908C85.2188 42.2763 85.1475 42.2905 85.081 42.318C85.0144 42.3455 84.954 42.3859 84.9031 42.4368C84.8522 42.4877 84.8118 42.5482 84.7842 42.6147C84.7567 42.6812 84.7425 42.7526 84.7425 42.8246V44.2838C84.7428 44.3979 84.7072 44.5091 84.6409 44.602C84.5747 44.6948 84.481 44.7645 84.373 44.8013C84.0666 44.9054 83.767 45.0289 83.4762 45.1709C83.374 45.2206 83.2589 45.2371 83.1468 45.2182C83.0348 45.1993 82.9314 45.1458 82.8512 45.0653L81.8211 44.0352C81.7182 43.9324 81.5787 43.8746 81.4332 43.8746C81.2878 43.8746 81.1483 43.9324 81.0454 44.0352L78.8594 46.2203C78.7566 46.3231 78.6988 46.4627 78.6988 46.6081C78.6988 46.7536 78.7566 46.8931 78.8594 46.996L79.8712 48.0079C79.9525 48.0886 80.0063 48.1929 80.0249 48.306C80.0436 48.4191 80.0261 48.5351 79.975 48.6377C79.8269 48.9339 79.6983 49.2396 79.59 49.5526C79.5522 49.6594 79.4822 49.7518 79.3897 49.8171C79.2972 49.8824 79.1867 49.9175 79.0734 49.9174H77.6497C77.5777 49.9174 77.5064 49.9316 77.4399 49.9591C77.3734 49.9867 77.3129 50.0271 77.262 50.078C77.2111 50.1289 77.1708 50.1893 77.1432 50.2558C77.1157 50.3223 77.1015 50.3936 77.1016 50.4656V53.557C77.1015 53.629 77.1157 53.7003 77.1432 53.7668C77.1708 53.8333 77.2111 53.8937 77.262 53.9446C77.3129 53.9956 77.3734 54.0359 77.4399 54.0635C77.5064 54.091 77.5777 54.1052 77.6497 54.1052H79.036C79.1513 54.1051 79.2637 54.1414 79.3572 54.209C79.4506 54.2766 79.5203 54.372 79.5563 54.4815C79.6633 54.8029 79.7913 55.1168 79.9395 55.4214C79.9897 55.524 80.0068 55.6397 79.9882 55.7524C79.9695 55.8651 79.9163 55.9693 79.8357 56.0503L78.8594 57.0266C78.8085 57.0775 78.7681 57.1378 78.7405 57.2043C78.7129 57.2708 78.6987 57.342 78.6987 57.414C78.6987 57.486 78.7129 57.5572 78.7405 57.6237C78.7681 57.6902 78.8085 57.7506 78.8594 57.8014L81.0454 59.9874C81.1483 60.0902 81.2878 60.148 81.4332 60.148C81.5787 60.148 81.7182 60.0902 81.8211 59.9874L82.7784 59.0303C82.8599 58.9489 82.965 58.8953 83.0787 58.8771C83.1925 58.8588 83.3091 58.8768 83.412 58.9285C83.7216 59.0832 84.0414 59.2166 84.3692 59.3279C84.4779 59.3646 84.5723 59.4345 84.6393 59.5276C84.7063 59.6208 84.7424 59.7325 84.7426 59.8473V61.1971C84.7425 61.2692 84.7566 61.3406 84.7841 61.4072C84.8116 61.4738 84.852 61.5344 84.9029 61.5854C84.9538 61.6364 85.0143 61.6768 85.0809 61.7045C85.1475 61.7321 85.2188 61.7463 85.2909 61.7462H88.3813C88.4534 61.7462 88.5247 61.732 88.5913 61.7044C88.6579 61.6768 88.7183 61.6363 88.7692 61.5853C88.8201 61.5343 88.8605 61.4738 88.888 61.4072C88.9155 61.3405 88.9295 61.2692 88.9294 61.1971V59.8473C88.9297 59.7325 88.9658 59.6208 89.0328 59.5276C89.0997 59.4345 89.1942 59.3646 89.3029 59.3279C89.6306 59.2166 89.9504 59.0832 90.2601 58.9285C90.363 58.8768 90.4796 58.8588 90.5933 58.8771C90.707 58.8954 90.8121 58.9489 90.8937 59.0303L91.8509 59.9874C91.9538 60.0902 92.0933 60.148 92.2387 60.148C92.3842 60.148 92.5237 60.0902 92.6266 59.9874L94.8126 57.8014C94.8636 57.7506 94.904 57.6902 94.9316 57.6237C94.9591 57.5572 94.9733 57.486 94.9733 57.414C94.9733 57.342 94.9591 57.2708 94.9316 57.2043C94.904 57.1378 94.8636 57.0775 94.8126 57.0266L93.8363 56.0503C93.7557 55.9692 93.7024 55.8651 93.6839 55.7524C93.6653 55.6397 93.6823 55.524 93.7326 55.4214C93.8807 55.1168 94.0086 54.8029 94.1156 54.4815C94.1516 54.372 94.2213 54.2766 94.3148 54.209C94.4082 54.1414 94.5207 54.1051 94.636 54.1052H96.0223C96.0943 54.1052 96.1656 54.0911 96.2321 54.0635C96.2987 54.036 96.3591 53.9956 96.41 53.9447C96.4609 53.8938 96.5013 53.8333 96.5288 53.7668C96.5564 53.7003 96.5705 53.629 96.5705 53.557V50.4656C96.5705 50.3936 96.5563 50.3223 96.5288 50.2558C96.5012 50.1892 96.4608 50.1288 96.4099 50.0779C96.359 50.027 96.2985 49.9866 96.232 49.9591C96.1654 49.9316 96.0941 49.9175 96.0221 49.9175ZM86.8363 56.5793C85.9327 56.5794 85.0494 56.3116 84.2981 55.8096C83.5467 55.3077 82.9611 54.5942 82.6153 53.7594C82.2694 52.9246 82.1789 52.006 82.3552 51.1198C82.5314 50.2336 82.9665 49.4195 83.6055 48.7806C84.2444 48.1416 85.0585 47.7065 85.9447 47.5303C86.8309 47.354 87.7495 47.4445 88.5843 47.7904C89.4191 48.1362 90.1326 48.7218 90.6345 49.4731C91.1365 50.2245 91.4043 51.1078 91.4042 52.0114C91.4041 53.2228 90.9228 54.3846 90.0663 55.2412C89.2097 56.0978 88.0479 56.5792 86.8365 56.5793H86.8363Z" fill="#0D38D3"/>
<path opacity="0.8" d="M96.0221 49.9175H94.5983C94.4852 49.9177 94.3748 49.8827 94.2824 49.8173C94.19 49.7519 94.1203 49.6595 94.0828 49.5527C93.9738 49.2398 93.8449 48.9342 93.6969 48.6378C93.6458 48.5352 93.6283 48.4192 93.6468 48.3061C93.6654 48.193 93.7192 48.0887 93.8005 48.008L94.8124 46.9961C94.9152 46.8932 94.973 46.7537 94.973 46.6082C94.973 46.4628 94.9152 46.3233 94.8124 46.2204L92.6264 44.0353C92.5235 43.9325 92.384 43.8747 92.2385 43.8747C92.0931 43.8747 91.9536 43.9325 91.8507 44.0353L90.8207 45.0653C90.7405 45.1458 90.6372 45.1993 90.5251 45.2182C90.4131 45.2371 90.2979 45.2206 90.1957 45.1709C89.905 45.0289 89.6055 44.9054 89.2991 44.8013C89.1912 44.7645 89.0974 44.6948 89.0311 44.602C88.9648 44.5092 88.9292 44.3979 88.9294 44.2838V42.8246C88.9294 42.7526 88.9153 42.6813 88.8878 42.6148C88.8602 42.5483 88.8199 42.4878 88.769 42.4369C88.7181 42.386 88.6576 42.3456 88.5911 42.3181C88.5246 42.2905 88.4533 42.2764 88.3813 42.2764H85.2908C85.2188 42.2763 85.1475 42.2905 85.081 42.318C85.0144 42.3455 84.954 42.3859 84.9031 42.4368C84.8522 42.4877 84.8118 42.5482 84.7842 42.6147C84.7567 42.6812 84.7425 42.7526 84.7425 42.8246V44.2838C84.7428 44.3979 84.7072 44.5091 84.6409 44.602C84.5747 44.6948 84.481 44.7645 84.373 44.8013C84.0666 44.9054 83.767 45.0289 83.4762 45.1709C83.374 45.2206 83.2589 45.2371 83.1468 45.2182C83.0348 45.1993 82.9314 45.1458 82.8512 45.0653L81.8211 44.0352C81.7182 43.9324 81.5787 43.8746 81.4332 43.8746C81.2878 43.8746 81.1483 43.9324 81.0454 44.0352L78.8594 46.2203C78.7566 46.3231 78.6988 46.4627 78.6988 46.6081C78.6988 46.7536 78.7566 46.8931 78.8594 46.996L79.8712 48.0079C79.9525 48.0886 80.0063 48.1929 80.0249 48.306C80.0436 48.4191 80.0261 48.5351 79.975 48.6377C79.8269 48.9339 79.6983 49.2396 79.59 49.5526C79.5522 49.6594 79.4822 49.7518 79.3897 49.8171C79.2972 49.8824 79.1867 49.9175 79.0734 49.9174H77.6497C77.5777 49.9174 77.5064 49.9316 77.4399 49.9591C77.3734 49.9867 77.3129 50.0271 77.262 50.078C77.2111 50.1289 77.1708 50.1893 77.1432 50.2558C77.1157 50.3223 77.1015 50.3936 77.1016 50.4656V53.557C77.1015 53.629 77.1157 53.7003 77.1432 53.7668C77.1708 53.8333 77.2111 53.8937 77.262 53.9446C77.3129 53.9956 77.3734 54.0359 77.4399 54.0635C77.5064 54.091 77.5777 54.1052 77.6497 54.1052H79.036C79.1513 54.1051 79.2637 54.1414 79.3572 54.209C79.4506 54.2766 79.5203 54.372 79.5563 54.4815C79.6633 54.8029 79.7913 55.1168 79.9395 55.4214C79.9897 55.524 80.0068 55.6397 79.9882 55.7524C79.9695 55.8651 79.9163 55.9693 79.8357 56.0503L78.8594 57.0266C78.8085 57.0775 78.7681 57.1378 78.7405 57.2043C78.7129 57.2708 78.6987 57.342 78.6987 57.414C78.6987 57.486 78.7129 57.5572 78.7405 57.6237C78.7681 57.6902 78.8085 57.7506 78.8594 57.8014L81.0454 59.9874C81.1483 60.0902 81.2878 60.148 81.4332 60.148C81.5787 60.148 81.7182 60.0902 81.8211 59.9874L82.7784 59.0303C82.8599 58.9489 82.965 58.8953 83.0787 58.8771C83.1925 58.8588 83.3091 58.8768 83.412 58.9285C83.7216 59.0832 84.0414 59.2166 84.3692 59.3279C84.4779 59.3646 84.5723 59.4345 84.6393 59.5276C84.7063 59.6208 84.7424 59.7325 84.7426 59.8473V61.1971C84.7425 61.2692 84.7566 61.3406 84.7841 61.4072C84.8116 61.4738 84.852 61.5344 84.9029 61.5854C84.9538 61.6364 85.0143 61.6768 85.0809 61.7045C85.1475 61.7321 85.2188 61.7463 85.2909 61.7462H88.3813C88.4534 61.7462 88.5247 61.732 88.5913 61.7044C88.6579 61.6768 88.7183 61.6363 88.7692 61.5853C88.8201 61.5343 88.8605 61.4738 88.888 61.4072C88.9155 61.3405 88.9295 61.2692 88.9294 61.1971V59.8473C88.9297 59.7325 88.9658 59.6208 89.0328 59.5276C89.0997 59.4345 89.1942 59.3646 89.3029 59.3279C89.6306 59.2166 89.9504 59.0832 90.2601 58.9285C90.363 58.8768 90.4796 58.8588 90.5933 58.8771C90.707 58.8954 90.8121 58.9489 90.8937 59.0303L91.8509 59.9874C91.9538 60.0902 92.0933 60.148 92.2387 60.148C92.3842 60.148 92.5237 60.0902 92.6266 59.9874L94.8126 57.8014C94.8636 57.7506 94.904 57.6902 94.9316 57.6237C94.9591 57.5572 94.9733 57.486 94.9733 57.414C94.9733 57.342 94.9591 57.2708 94.9316 57.2043C94.904 57.1378 94.8636 57.0775 94.8126 57.0266L93.8363 56.0503C93.7557 55.9692 93.7024 55.8651 93.6839 55.7524C93.6653 55.6397 93.6823 55.524 93.7326 55.4214C93.8807 55.1168 94.0086 54.8029 94.1156 54.4815C94.1516 54.372 94.2213 54.2766 94.3148 54.209C94.4082 54.1414 94.5207 54.1051 94.636 54.1052H96.0223C96.0943 54.1052 96.1656 54.0911 96.2321 54.0635C96.2987 54.036 96.3591 53.9956 96.41 53.9447C96.4609 53.8938 96.5013 53.8333 96.5288 53.7668C96.5564 53.7003 96.5705 53.629 96.5705 53.557V50.4656C96.5705 50.3936 96.5563 50.3223 96.5288 50.2558C96.5012 50.1892 96.4608 50.1288 96.4099 50.0779C96.359 50.027 96.2985 49.9866 96.232 49.9591C96.1654 49.9316 96.0941 49.9175 96.0221 49.9175ZM86.8363 56.5793C85.9327 56.5794 85.0494 56.3116 84.2981 55.8096C83.5467 55.3077 82.9611 54.5942 82.6153 53.7594C82.2694 52.9246 82.1789 52.006 82.3552 51.1198C82.5314 50.2336 82.9665 49.4195 83.6055 48.7806C84.2444 48.1416 85.0585 47.7065 85.9447 47.5303C86.8309 47.354 87.7495 47.4445 88.5843 47.7904C89.4191 48.1362 90.1326 48.7218 90.6345 49.4731C91.1365 50.2245 91.4043 51.1078 91.4042 52.0114C91.4041 53.2228 90.9228 54.3846 90.0663 55.2412C89.2097 56.0978 88.0479 56.5792 86.8365 56.5793H86.8363Z" fill="white"/>
<path d="M82.5849 5.59082H17.8113C16.2206 5.59082 14.9312 6.88031 14.9312 8.47098V55.8952C14.9312 57.4859 16.2206 58.7754 17.8113 58.7754H82.5849C84.1756 58.7754 85.4651 57.4859 85.4651 55.8952V8.47098C85.4651 6.88031 84.1756 5.59082 82.5849 5.59082Z" fill="white"/>
<path d="M82.5849 58.8707H17.8111C17.0221 58.8698 16.2656 58.5559 15.7077 57.998C15.1497 57.4401 14.8359 56.6836 14.835 55.8945V8.47031C14.8359 7.68126 15.1497 6.92479 15.7077 6.36685C16.2656 5.80891 17.0221 5.49506 17.8111 5.49414H82.5849C83.3739 5.49506 84.1304 5.80891 84.6883 6.36685C85.2463 6.92479 85.5601 7.68126 85.561 8.47031V55.8945C85.5601 56.6836 85.2463 57.4401 84.6883 57.998C84.1304 58.5559 83.3739 58.8698 82.5849 58.8707ZM17.8111 5.68615C17.073 5.68696 16.3653 5.98056 15.8433 6.50251C15.3214 7.02446 15.0278 7.73215 15.027 8.47031V55.8945C15.0278 56.6327 15.3214 57.3404 15.8434 57.8623C16.3653 58.3843 17.073 58.6779 17.8111 58.6787H82.5849C83.323 58.6778 84.0307 58.3842 84.5526 57.8623C85.0745 57.3403 85.3681 56.6327 85.369 55.8945V8.47031C85.3682 7.73216 85.0746 7.02449 84.5526 6.50254C84.0307 5.98059 83.323 5.68699 82.5849 5.68615H17.8111Z" fill="#292A2E"/>
<path d="M80.7339 44.3252H19.4655C18.6157 44.3252 17.9268 45.0141 17.9268 45.864V54.3435C17.9268 55.1934 18.6157 55.8823 19.4655 55.8823H80.7339C81.5838 55.8823 82.2727 55.1934 82.2727 54.3435V45.864C82.2727 45.0141 81.5838 44.3252 80.7339 44.3252Z" fill="#0D38D3"/>
<path d="M80.7339 29.4414H19.4655C18.6157 29.4414 17.9268 30.1303 17.9268 30.9802V39.4598C17.9268 40.3096 18.6157 40.9985 19.4655 40.9985H80.7339C81.5838 40.9985 82.2727 40.3096 82.2727 39.4598V30.9802C82.2727 30.1303 81.5838 29.4414 80.7339 29.4414Z" fill="#0D38D3"/>
<g opacity="0.9">
<path d="M80.7339 44.3252H19.4655C18.6157 44.3252 17.9268 45.0141 17.9268 45.864V54.3435C17.9268 55.1934 18.6157 55.8823 19.4655 55.8823H80.7339C81.5838 55.8823 82.2727 55.1934 82.2727 54.3435V45.864C82.2727 45.0141 81.5838 44.3252 80.7339 44.3252Z" fill="white"/>
</g>
<g opacity="0.9">
<path d="M80.7349 29.4424H19.4665C18.6167 29.4424 17.9277 30.1313 17.9277 30.9812V39.4607C17.9277 40.3106 18.6167 40.9995 19.4665 40.9995H80.7349C81.5847 40.9995 82.2737 40.3106 82.2737 39.4607V30.9812C82.2737 30.1313 81.5847 29.4424 80.7349 29.4424Z" fill="white"/>
</g>
<path d="M80.7339 14.5586H19.4655C18.6157 14.5586 17.9268 15.2475 17.9268 16.0974V24.5769C17.9268 25.4268 18.6157 26.1157 19.4655 26.1157H80.7339C81.5838 26.1157 82.2727 25.4268 82.2727 24.5769V16.0974C82.2727 15.2475 81.5838 14.5586 80.7339 14.5586Z" fill="#0D38D3"/>
<path opacity="0.2" d="M80.7339 14.5586H19.4655C18.6157 14.5586 17.9268 15.2475 17.9268 16.0974V24.5769C17.9268 25.4268 18.6157 26.1157 19.4655 26.1157H80.7339C81.5838 26.1157 82.2727 25.4268 82.2727 24.5769V16.0974C82.2727 15.2475 81.5838 14.5586 80.7339 14.5586Z" fill="white"/>
<path d="M80.7336 26.211H19.4652C19.0318 26.2105 18.6162 26.0381 18.3098 25.7316C18.0033 25.425 17.831 25.0094 17.8306 24.576V16.0968C17.831 15.6634 18.0034 15.2478 18.3098 14.9413C18.6163 14.6348 19.0318 14.4624 19.4652 14.4619H80.7336C81.1671 14.4624 81.5826 14.6348 81.8891 14.9413C82.1956 15.2478 82.368 15.6633 82.3685 16.0968V24.576C82.3681 25.0095 82.1957 25.4251 81.8892 25.7316C81.5827 26.0381 81.1671 26.2106 80.7336 26.211ZM19.4652 14.6539C19.0827 14.6544 18.716 14.8066 18.4456 15.077C18.1751 15.3475 18.023 15.7143 18.0226 16.0968V24.576C18.023 24.9585 18.1751 25.3252 18.4456 25.5957C18.716 25.8662 19.0827 26.0184 19.4652 26.0188H80.7336C81.1162 26.0184 81.4829 25.8663 81.7534 25.5958C82.0239 25.3253 82.1761 24.9585 82.1765 24.576V16.0968C82.1761 15.7142 82.0239 15.3475 81.7534 15.077C81.4829 14.8065 81.1162 14.6544 80.7336 14.6539H19.4652Z" fill="#292A2E"/>
<path d="M37.709 16.5664H21.105C20.6762 16.5664 20.3286 16.914 20.3286 17.3428C20.3286 17.7716 20.6762 18.1192 21.105 18.1192H37.709C38.1378 18.1192 38.4854 17.7716 38.4854 17.3428C38.4854 16.914 38.1378 16.5664 37.709 16.5664Z" fill="white"/>
<path d="M51.559 24.2125H20.3284C20.303 24.2125 20.2785 24.2024 20.2605 24.1844C20.2425 24.1664 20.2324 24.142 20.2324 24.1165C20.2324 24.0911 20.2425 24.0666 20.2605 24.0486C20.2785 24.0306 20.303 24.0205 20.3284 24.0205H51.559C51.5844 24.0205 51.6088 24.0306 51.6268 24.0486C51.6449 24.0666 51.655 24.0911 51.655 24.1165C51.655 24.142 51.6449 24.1664 51.6268 24.1844C51.6088 24.2024 51.5844 24.2125 51.559 24.2125Z" fill="white"/>
<path d="M79.5925 22.1715H20.3284C20.303 22.1715 20.2785 22.1614 20.2605 22.1434C20.2425 22.1254 20.2324 22.101 20.2324 22.0755C20.2324 22.05 20.2425 22.0256 20.2605 22.0076C20.2785 21.9896 20.303 21.9795 20.3284 21.9795H79.5925C79.618 21.9795 79.6424 21.9896 79.6604 22.0076C79.6784 22.0256 79.6885 22.05 79.6885 22.0755C79.6885 22.101 79.6784 22.1254 79.6604 22.1434C79.6424 22.1614 79.618 22.1715 79.5925 22.1715Z" fill="white"/>
<path d="M79.5925 20.1315H20.3284C20.303 20.1315 20.2785 20.1213 20.2605 20.1033C20.2425 20.0853 20.2324 20.0609 20.2324 20.0355C20.2324 20.01 20.2425 19.9856 20.2605 19.9676C20.2785 19.9496 20.303 19.9395 20.3284 19.9395H79.5925C79.618 19.9395 79.6424 19.9496 79.6604 19.9676C79.6784 19.9856 79.6885 20.01 79.6885 20.0355C79.6885 20.0609 79.6784 20.0853 79.6604 20.1033C79.6424 20.1213 79.618 20.1315 79.5925 20.1315Z" fill="white"/>
<path d="M80.7336 41.0939H19.4652C19.0318 41.0934 18.6163 40.9209 18.3098 40.6144C18.0034 40.3079 17.831 39.8924 17.8306 39.459V30.9795C17.831 30.5461 18.0034 30.1306 18.3099 29.8241C18.6163 29.5176 19.0318 29.3452 19.4652 29.3447H80.7336C81.1671 29.3452 81.5826 29.5176 81.8891 29.824C82.1956 30.1305 82.368 30.5461 82.3685 30.9795V39.459C82.368 39.8924 82.1956 40.308 81.8891 40.6145C81.5826 40.921 81.1671 41.0934 80.7336 41.0939ZM19.4652 29.5367C19.0827 29.5372 18.716 29.6893 18.4456 29.9598C18.1751 30.2303 18.023 30.597 18.0226 30.9795V39.459C18.023 39.8415 18.1751 40.2082 18.4456 40.4787C18.716 40.7492 19.0827 40.9014 19.4652 40.9018H80.7336C81.1162 40.9014 81.4829 40.7493 81.7534 40.4788C82.0239 40.2083 82.1761 39.8415 82.1765 39.459V30.9795C82.1761 30.597 82.0239 30.2302 81.7534 29.9598C81.4829 29.6893 81.1162 29.5371 80.7336 29.5367H19.4652Z" fill="#292A2E"/>
<path d="M80.7336 55.9771H19.4652C19.0318 55.9765 18.6163 55.8041 18.3099 55.4977C18.0034 55.1912 17.831 54.7757 17.8306 54.3423V45.8627C17.8309 45.4292 18.0033 45.0136 18.3097 44.7071C18.6162 44.4005 19.0318 44.228 19.4652 44.2275H80.7336C81.1671 44.228 81.5826 44.4004 81.8891 44.7069C82.1956 45.0134 82.368 45.4289 82.3685 45.8623V54.3419C82.3681 54.7754 82.1957 55.191 81.8892 55.4976C81.5827 55.8041 81.1671 55.9766 80.7336 55.9771ZM19.4652 44.4195C19.0828 44.42 18.7161 44.5722 18.4456 44.8426C18.1751 45.1131 18.023 45.4798 18.0226 45.8623V54.3419C18.023 54.7244 18.1751 55.0911 18.4456 55.3616C18.7161 55.632 19.0828 55.7842 19.4652 55.7847H80.7336C81.1162 55.7842 81.4829 55.6321 81.7534 55.3616C82.0239 55.0911 82.176 54.7244 82.1765 54.3419V45.8627C82.1761 45.4801 82.024 45.1133 81.7535 44.8427C81.483 44.5722 81.1162 44.42 80.7336 44.4195H19.4652Z" fill="#292A2E"/>
<path d="M85.4657 8.46903V11.3672H14.9321V8.46903C14.9321 7.70516 15.2356 6.97258 15.7757 6.43245C16.3158 5.89231 17.0484 5.58887 17.8123 5.58887H82.5855C83.3494 5.58887 84.082 5.89231 84.6221 6.43245C85.1623 6.97258 85.4657 7.70516 85.4657 8.46903Z" fill="#292A2E"/>
<path d="M80.1972 34.9192L79.3611 33.5811L78.0088 34.394L80.4916 24.0498L82.68 24.575L80.1972 34.9192Z" fill="#0D38D3"/>
<path d="M80.1976 35.016C80.1813 35.016 80.1653 35.0118 80.151 35.0039C80.1368 34.996 80.1248 34.9847 80.1162 34.9709L79.3301 33.7132L78.0586 34.4775C78.0424 34.4872 78.0236 34.492 78.0047 34.4911C77.9858 34.4903 77.9676 34.4839 77.9524 34.4727C77.9371 34.4615 77.9255 34.4461 77.919 34.4283C77.9124 34.4105 77.9113 34.3912 77.9157 34.3728L80.3986 24.0286C80.4046 24.0039 80.42 23.9826 80.4416 23.9693C80.4632 23.956 80.4891 23.9518 80.5138 23.9576L82.7027 24.4829C82.715 24.4859 82.7266 24.4912 82.7368 24.4986C82.747 24.506 82.7556 24.5154 82.7622 24.5261C82.7688 24.5369 82.7732 24.5488 82.7752 24.5613C82.7771 24.5737 82.7766 24.5865 82.7737 24.5987L80.2909 34.9424C80.2865 34.9608 80.2767 34.9775 80.2629 34.9903C80.249 35.0032 80.2317 35.0117 80.213 35.0147C80.2079 35.0156 80.2028 35.016 80.1976 35.016ZM79.3614 33.4858C79.3777 33.4858 79.3937 33.49 79.408 33.4979C79.4222 33.5058 79.4343 33.5171 79.4429 33.531L80.1577 34.675L82.5644 24.6467L80.5627 24.1667L78.1558 34.1945L79.312 33.4996C79.327 33.4907 79.344 33.486 79.3614 33.4861V33.4858Z" fill="#292A2E"/>
<path d="M83.1342 34.9212L83.9702 33.5831L85.3226 34.3959L82.8398 24.0518L80.6514 24.577L83.1342 34.9212Z" fill="#0D38D3"/>
<path d="M83.134 35.0166C83.1289 35.0166 83.1237 35.0162 83.1186 35.0153C83.0999 35.0123 83.0826 35.0038 83.0687 34.9909C83.0549 34.9781 83.0451 34.9614 83.0407 34.943L80.5583 24.5988C80.5554 24.5866 80.5549 24.5739 80.5568 24.5614C80.5588 24.5489 80.5632 24.537 80.5698 24.5262C80.5764 24.5155 80.585 24.5061 80.5952 24.4987C80.6054 24.4913 80.617 24.486 80.6293 24.4831L82.8182 23.9577C82.8429 23.9518 82.869 23.9559 82.8907 23.9692C82.9124 23.9825 82.9279 24.0039 82.9339 24.0287L85.4162 34.3729C85.4206 34.3913 85.4195 34.4106 85.4129 34.4283C85.4064 34.4461 85.3948 34.4615 85.3796 34.4727C85.3643 34.4839 85.3461 34.4903 85.3272 34.4912C85.3084 34.492 85.2896 34.4873 85.2734 34.4776L84.0019 33.7133L83.2158 34.971C83.2072 34.9849 83.1952 34.9964 83.1809 35.0044C83.1666 35.0124 83.1504 35.0166 83.134 35.0166ZM80.7669 24.6473L83.1739 34.6756L83.8886 33.5316C83.902 33.5102 83.9232 33.4949 83.9477 33.489C83.9722 33.4832 83.998 33.4872 84.0196 33.5002L85.1757 34.195L82.7687 24.1668L80.7669 24.6473Z" fill="#292A2E"/>
<path d="M87.2742 26.0385C87.2742 26.6089 86.5582 27.0592 86.3909 27.5739C86.2181 28.1074 86.5262 28.8914 86.2031 29.3354C85.8767 29.7839 85.0336 29.7311 84.5851 30.0574C84.1411 30.3805 83.9323 31.2005 83.3991 31.3737C82.8845 31.5409 82.236 31.0055 81.6657 31.0055C81.0953 31.0055 80.4464 31.5409 79.9321 31.3737C79.3987 31.2009 79.1902 30.3805 78.7461 30.0574C78.2977 29.731 77.4545 29.7838 77.1282 29.3353C76.805 28.8913 77.1136 28.1073 76.9404 27.5739C76.7732 27.0592 76.0571 26.6089 76.0571 26.0385C76.0571 25.4681 76.7731 25.0178 76.9404 24.5031C77.1132 23.9696 76.805 23.1856 77.1282 22.7416C77.4546 22.2931 78.2977 22.3459 78.7461 22.0195C79.1902 21.6964 79.399 20.8764 79.9322 20.7032C80.4469 20.5361 81.0952 21.0715 81.6657 21.0715C82.2361 21.0715 82.8845 20.5361 83.3991 20.7032C83.9326 20.8765 84.1412 21.6965 84.5852 22.0196C85.0336 22.346 85.8767 22.2931 86.2032 22.7416C86.5263 23.1856 86.2177 23.9696 86.3909 24.5031C86.5585 25.0178 87.2742 25.468 87.2742 26.0385Z" fill="#0CBC8B"/>
<path d="M83.1846 31.5011C82.9313 31.5011 82.6653 31.398 82.4058 31.2976C82.1556 31.2008 81.8969 31.1007 81.6656 31.1007C81.4342 31.1007 81.1755 31.2008 80.9253 31.2976C80.5808 31.4309 80.2244 31.5688 79.9024 31.4642C79.5648 31.3545 79.354 31.0254 79.1501 30.7071C79.0035 30.4782 78.8651 30.2619 78.6893 30.1342C78.5106 30.0041 78.2477 29.935 77.9942 29.8682C77.6313 29.7722 77.256 29.6738 77.0502 29.391C76.8469 29.1115 76.8678 28.7262 76.8886 28.3535C76.9031 28.0896 76.9182 27.8166 76.8488 27.6027C76.7834 27.4011 76.6227 27.2057 76.4527 26.9987C76.2109 26.7044 75.9609 26.4001 75.9609 26.0377C75.9609 25.6752 76.2106 25.3709 76.4527 25.0765C76.6227 24.8696 76.7834 24.674 76.8488 24.4726C76.9183 24.2587 76.9032 23.9856 76.8887 23.7217C76.8682 23.349 76.8469 22.9633 77.0503 22.6843C77.256 22.4014 77.6313 22.3027 77.9942 22.2071C78.2481 22.1399 78.5106 22.0712 78.6894 21.941C78.8649 21.8133 79.0034 21.597 79.1502 21.3681C79.3541 21.0499 79.5649 20.7207 79.9025 20.611C80.225 20.5066 80.581 20.6444 80.9255 20.7776C81.1756 20.8745 81.4343 20.9746 81.6657 20.9746C81.897 20.9746 82.1553 20.8745 82.4059 20.7776C82.7504 20.6444 83.1067 20.5065 83.4288 20.611C83.7665 20.7208 83.9773 21.0499 84.1811 21.3682C84.3276 21.5971 84.466 21.8133 84.6419 21.9411C84.8207 22.0712 85.0836 22.1403 85.337 22.2071C85.6999 22.3031 86.0753 22.4015 86.281 22.6843C86.4844 22.9638 86.4634 23.349 86.4426 23.7217C86.4281 23.9857 86.413 24.2587 86.4825 24.4726C86.5479 24.6742 86.7085 24.8696 86.8787 25.0766C87.1204 25.3709 87.3703 25.6752 87.3703 26.0377C87.3703 26.4001 87.1207 26.7044 86.8787 26.9987C86.7085 27.2057 86.5479 27.4013 86.4825 27.6027C86.413 27.8166 86.4281 28.0896 86.4426 28.3536C86.4631 28.7263 86.4844 29.1115 86.281 29.391C86.0753 29.6738 85.6999 29.7725 85.337 29.8682C85.0832 29.9354 84.8207 30.0041 84.6418 30.1342C84.4663 30.262 84.3279 30.4782 84.181 30.7071C83.9772 31.0254 83.7664 31.3546 83.4287 31.4642C83.3498 31.4893 83.2674 31.5018 83.1846 31.5011ZM81.6656 30.9087C81.9328 30.9087 82.2085 31.0154 82.4751 31.1185C82.8027 31.2454 83.1121 31.3652 83.3694 31.2817C83.6416 31.1933 83.8251 30.9073 84.0193 30.6037C84.169 30.3699 84.3238 30.1281 84.5282 29.9796C84.7361 29.8282 85.0163 29.7545 85.2874 29.6832C85.633 29.5921 85.9594 29.5061 86.125 29.2787C86.2882 29.0545 86.2697 28.7196 86.2498 28.3648C86.2344 28.0832 86.2183 27.792 86.2988 27.5441C86.3756 27.3081 86.5553 27.0892 86.7292 26.8775C86.9495 26.6094 87.1772 26.332 87.1772 26.0383C87.1772 25.7446 86.9495 25.4673 86.7292 25.1991C86.5553 24.9879 86.3754 24.7685 86.2988 24.5325C86.2183 24.2846 86.2344 23.9934 86.2499 23.7118C86.2691 23.3572 86.2883 23.0221 86.1251 22.798C85.9596 22.5705 85.6331 22.4845 85.2875 22.3935C85.0164 22.3221 84.7362 22.2483 84.5283 22.097C84.3235 21.948 84.1687 21.7063 84.0194 21.4724C83.8252 21.1692 83.6418 20.8828 83.3695 20.7944C83.1121 20.7108 82.803 20.8306 82.4752 20.9576C82.2086 21.0607 81.9328 21.1675 81.6657 21.1675C81.3985 21.1675 81.1228 21.0607 80.8561 20.9575C80.5285 20.8307 80.2191 20.7109 79.9618 20.7943C79.6895 20.8827 79.5061 21.1692 79.312 21.4724C79.1622 21.7062 79.0075 21.9479 78.8032 22.097C78.5952 22.2483 78.3149 22.3221 78.0439 22.3935C77.6982 22.4845 77.3718 22.5704 77.2063 22.7979C77.0431 23.022 77.0616 23.3571 77.0815 23.7117C77.097 23.9934 77.113 24.2845 77.0325 24.5325C76.9556 24.7685 76.776 24.9874 76.6022 25.1991C76.3813 25.4673 76.154 25.7445 76.154 26.0383C76.154 26.3321 76.3818 26.6094 76.6021 26.8775C76.776 27.0887 76.9558 27.3081 77.0325 27.5441C77.113 27.792 77.097 28.0832 77.0814 28.3647C77.0622 28.7195 77.043 29.0545 77.2062 29.2787C77.3718 29.5061 77.6982 29.5921 78.0439 29.6832C78.3149 29.7545 78.5951 29.8282 78.8031 29.9796C79.0079 30.1286 79.1627 30.3704 79.3119 30.6037C79.5061 30.9069 79.6895 31.1933 79.9618 31.2817C80.2189 31.3652 80.5282 31.2456 80.8561 31.1185C81.1227 31.0154 81.3983 30.9087 81.6656 30.9087Z" fill="#292A2E"/>
<path d="M81.6666 28.5266C83.0404 28.5266 84.154 27.4129 84.154 26.0392C84.154 24.6654 83.0404 23.5518 81.6666 23.5518C80.2928 23.5518 79.1792 24.6654 79.1792 26.0392C79.1792 27.4129 80.2928 28.5266 81.6666 28.5266Z" fill="white"/>
<path d="M81.6664 28.6219C81.1555 28.6219 80.656 28.4704 80.2312 28.1865C79.8063 27.9026 79.4752 27.4992 79.2797 27.0271C79.0841 26.5551 79.033 26.0356 79.1326 25.5345C79.2323 25.0334 79.4784 24.573 79.8397 24.2117C80.201 23.8504 80.6613 23.6044 81.1624 23.5047C81.6636 23.405 82.183 23.4562 82.655 23.6517C83.1271 23.8473 83.5306 24.1784 83.8144 24.6032C84.0983 25.0281 84.2498 25.5275 84.2498 26.0385C84.2491 26.7234 83.9766 27.3801 83.4923 27.8644C83.008 28.3487 82.3513 28.6211 81.6664 28.6219ZM81.6664 23.6471C81.1934 23.6471 80.7311 23.7873 80.3378 24.0501C79.9446 24.3129 79.6381 24.6864 79.4571 25.1233C79.2761 25.5603 79.2287 26.0411 79.321 26.505C79.4132 26.9689 79.641 27.395 79.9754 27.7295C80.3099 28.0639 80.736 28.2917 81.1999 28.3839C81.6638 28.4762 82.1446 28.4288 82.5816 28.2478C83.0185 28.0669 83.392 27.7603 83.6548 27.3671C83.9176 26.9738 84.0578 26.5115 84.0578 26.0385C84.0572 25.4044 83.8051 24.7965 83.3567 24.3481C82.9084 23.8996 82.3005 23.6474 81.6664 23.6467V23.6471Z" fill="#292A2E"/>
</svg>
