<svg width="120" height="98" viewBox="0 0 120 98" fill="none" xmlns="http://www.w3.org/2000/svg">
<g clip-path="url(#clip0_192_10616)">
<path d="M38.1927 4.55277C25.4257 9.86542 18.099 22.7806 18.099 40.7479C18.099 58.7153 14.3594 56.3438 9.54706 65.4403C6.11088 71.9353 7.98718 83.2485 12.4034 88.523C18.5214 95.8291 29.0432 98.8259 40.8802 97.8072C60.1051 96.1528 61.4013 78.8083 89.9558 85.9184C103.55 89.3036 115.767 77.6213 119.455 60.9552C121.667 50.9558 117.037 37.3807 107.529 31.988C94.5683 24.6384 94.9662 30.9244 80.6118 15.0282C65.1839 -2.05683 51.9347 -1.16561 38.1927 4.55277Z" fill="#F3F5FD"/>
<path d="M106.418 39.9003C110.074 39.9003 113.038 36.9364 113.038 33.2802C113.038 29.6241 110.074 26.6602 106.418 26.6602C102.762 26.6602 99.7979 29.6241 99.7979 33.2802C99.7979 36.9364 102.762 39.9003 106.418 39.9003Z" fill="#0929B1"/>
<g opacity="0.29">
<path d="M106.418 37.5721C108.788 37.5721 110.709 35.6508 110.709 33.2807C110.709 30.9106 108.788 28.9893 106.418 28.9893C104.048 28.9893 102.126 30.9106 102.126 33.2807C102.126 35.6508 104.048 37.5721 106.418 37.5721Z" fill="white"/>
</g>
<path d="M105.014 34.8129L105.415 34.1922C105.661 34.4118 105.975 34.5413 106.305 34.5594C106.658 34.5594 106.814 34.4125 106.814 34.1285C106.814 33.4863 105.166 33.4978 105.166 32.3714C105.166 31.6474 105.668 31.1861 106.459 31.1861C106.683 31.1828 106.906 31.2285 107.111 31.3199C107.317 31.4113 107.5 31.5463 107.647 31.7155L107.188 32.2416C107.102 32.1464 106.997 32.0694 106.88 32.0153C106.764 31.9612 106.637 31.931 106.509 31.9265C106.208 31.9265 106.045 32.0476 106.045 32.3281C106.045 32.9234 107.693 32.8714 107.693 34.0642C107.693 34.781 107.219 35.2999 106.305 35.2999C105.832 35.2894 105.376 35.1176 105.014 34.8129ZM106.112 30.5742H106.721V31.4731H106.112V30.5742ZM106.112 34.9249H106.721V35.912H106.112V34.9249Z" fill="white"/>
<path d="M95.3583 51.702C97.7284 51.702 99.6498 49.7807 99.6498 47.4106C99.6498 45.0405 97.7284 43.1191 95.3583 43.1191C92.9882 43.1191 91.0669 45.0405 91.0669 47.4106C91.0669 49.7807 92.9882 51.702 95.3583 51.702Z" fill="#0929B1"/>
<g opacity="0.29">
<path d="M95.3581 50.1927C96.8945 50.1927 98.14 48.9472 98.14 47.4108C98.14 45.8744 96.8945 44.6289 95.3581 44.6289C93.8217 44.6289 92.5762 45.8744 92.5762 47.4108C92.5762 48.9472 93.8217 50.1927 95.3581 50.1927Z" fill="white"/>
</g>
<path d="M94.4478 48.4039L94.7072 48.0015C94.8671 48.1439 95.0705 48.2278 95.2842 48.2395C95.5135 48.2395 95.6144 48.1444 95.6144 47.9602C95.6144 47.5438 94.5463 47.5513 94.5463 46.8212C94.5463 46.352 94.8715 46.0528 95.3842 46.0528C95.5298 46.0506 95.6741 46.0802 95.8072 46.1395C95.9402 46.1988 96.0587 46.2864 96.1545 46.3961L95.8573 46.737C95.8012 46.6753 95.7333 46.6255 95.6576 46.5904C95.5819 46.5553 95.4999 46.5357 95.4166 46.5328C95.2218 46.5328 95.1163 46.611 95.1163 46.793C95.1163 47.1789 96.1844 47.1453 96.1844 47.9192C96.1844 48.3839 95.8769 48.72 95.2847 48.72C94.9778 48.7131 94.6826 48.6016 94.4478 48.4039ZM95.1594 45.6562H95.5542V46.239H95.1594V45.6562ZM95.1594 48.4766H95.5542V49.1161H95.1594V48.4766Z" fill="white"/>
<path d="M50.5143 12.9636L0 29.0537L20.0441 91.9814L70.5584 75.8913L50.5143 12.9636Z" fill="#C1D8ED"/>
<g opacity="0.61">
<path d="M17.1097 69.6097C17.063 69.6098 17.0175 69.5951 16.9798 69.5675C16.9421 69.54 16.9142 69.5011 16.9001 69.4566L10.9645 50.821C10.9557 50.7935 10.9525 50.7645 10.9549 50.7357C10.9573 50.7069 10.9654 50.6789 10.9786 50.6532C10.9919 50.6276 11.0101 50.6048 11.0322 50.5861C11.0542 50.5675 11.0798 50.5534 11.1073 50.5446L53.8836 36.9195C53.9392 36.9019 53.9995 36.907 54.0513 36.9337C54.1032 36.9605 54.1422 37.0068 54.16 37.0623L60.0953 55.6979C60.1042 55.7254 60.1075 55.7544 60.1051 55.7832C60.1028 55.812 60.0947 55.8401 60.0814 55.8658C60.0682 55.8914 60.0499 55.9142 60.0278 55.9328C60.0057 55.9514 59.9801 55.9655 59.9525 55.9741L17.1765 69.5994C17.1549 69.6063 17.1324 69.6098 17.1097 69.6097ZM11.4502 50.897L17.2522 69.1132L59.6092 55.6219L53.8063 37.4055L11.4502 50.897Z" fill="white"/>
</g>
<g opacity="0.61">
<path d="M18.4063 73.6805C18.3537 73.6805 18.3029 73.6618 18.263 73.6276C18.2231 73.5935 18.1967 73.5461 18.1886 73.4942C18.1806 73.4423 18.1914 73.3892 18.219 73.3445C18.2467 73.2999 18.2894 73.2666 18.3395 73.2507L61.1156 59.6256C61.1712 59.6079 61.2316 59.613 61.2834 59.6398C61.3352 59.6666 61.3742 59.7129 61.3919 59.7685C61.4096 59.8241 61.4045 59.8844 61.3777 59.9362C61.3509 59.988 61.3046 60.0271 61.249 60.0448L18.4731 73.6694C18.4515 73.6766 18.429 73.6803 18.4063 73.6805Z" fill="white"/>
</g>
<g opacity="0.61">
<path d="M19.4926 77.0918C19.4401 77.0917 19.3894 77.0728 19.3496 77.0387C19.3099 77.0045 19.2836 76.9573 19.2755 76.9054C19.2675 76.8536 19.2782 76.8006 19.3058 76.756C19.3334 76.7114 19.376 76.6781 19.4259 76.6621L62.2019 63.037C62.2296 63.0276 62.2588 63.0239 62.288 63.0259C62.3171 63.028 62.3456 63.0359 62.3717 63.049C62.3977 63.0622 62.4209 63.0805 62.4399 63.1027C62.4588 63.1249 62.4732 63.1507 62.482 63.1786C62.4909 63.2064 62.4941 63.2358 62.4915 63.2649C62.4889 63.294 62.4805 63.3223 62.4669 63.3481C62.4532 63.3739 62.4346 63.3968 62.412 63.4153C62.3894 63.4339 62.3633 63.4477 62.3353 63.456L19.5593 77.0813C19.5378 77.0883 19.5152 77.0918 19.4926 77.0918Z" fill="white"/>
</g>
<g opacity="0.61">
<path d="M20.5791 80.5028C20.5267 80.5027 20.476 80.4839 20.4362 80.4498C20.3963 80.4156 20.37 80.3684 20.362 80.3165C20.3539 80.2647 20.3647 80.2117 20.3922 80.1671C20.4198 80.1224 20.4624 80.0891 20.5123 80.0731L63.2883 66.4479C63.3439 66.4302 63.4043 66.4353 63.4561 66.462C63.5079 66.4888 63.547 66.5351 63.5647 66.5907C63.5824 66.6463 63.5773 66.7066 63.5505 66.7585C63.5238 66.8103 63.4775 66.8494 63.4219 66.8671L20.6461 80.4922C20.6245 80.4992 20.6019 80.5028 20.5791 80.5028Z" fill="white"/>
</g>
<g opacity="0.61">
<path d="M21.6656 83.9141C21.6131 83.914 21.5624 83.8952 21.5226 83.861C21.4828 83.8269 21.4565 83.7796 21.4484 83.7278C21.4404 83.676 21.4511 83.623 21.4786 83.5783C21.5062 83.5337 21.5488 83.5004 21.5988 83.4844L64.3749 69.859C64.4024 69.8502 64.4314 69.847 64.4602 69.8494C64.489 69.8519 64.517 69.8599 64.5426 69.8732C64.5683 69.8865 64.5911 69.9047 64.6097 69.9267C64.6283 69.9488 64.6424 69.9744 64.6512 70.0019C64.66 70.0294 64.6632 70.0584 64.6608 70.0872C64.6583 70.1159 64.6502 70.144 64.637 70.1696C64.6237 70.1953 64.6055 70.2181 64.5834 70.2367C64.5614 70.2553 64.5358 70.2694 64.5083 70.2782L21.7323 83.9033C21.7108 83.9103 21.6882 83.914 21.6656 83.9141Z" fill="white"/>
</g>
<g opacity="0.61">
<path d="M10.0386 47.4098C9.98615 47.4098 9.93545 47.391 9.89563 47.3568C9.85582 47.3227 9.82952 47.2754 9.82146 47.2236C9.8134 47.1717 9.82412 47.1187 9.85169 47.0741C9.87926 47.0295 9.92186 46.9962 9.97182 46.9802L52.748 33.3551C52.8035 33.3374 52.8639 33.3425 52.9157 33.3693C52.9675 33.3961 53.0066 33.4424 53.0243 33.498C53.0419 33.5536 53.0368 33.6139 53.01 33.6657C52.9832 33.7175 52.937 33.7566 52.8814 33.7743L10.1054 47.3995C10.0838 47.4064 10.0613 47.4098 10.0386 47.4098Z" fill="white"/>
</g>
<g opacity="0.61">
<path d="M22.7793 39.0298C22.7269 39.0297 22.6762 39.0109 22.6364 38.9768C22.5965 38.9426 22.5702 38.8954 22.5622 38.8435C22.5541 38.7917 22.5648 38.7387 22.5924 38.6941C22.62 38.6495 22.6626 38.6161 22.7125 38.6001L51.4977 29.4314C51.5531 29.4146 51.6128 29.4202 51.664 29.4471C51.7152 29.4741 51.7538 29.52 51.7713 29.5752C51.7889 29.6303 51.784 29.6901 51.7578 29.7416C51.7316 29.7932 51.6862 29.8324 51.6313 29.8507L22.8461 39.0195C22.8245 39.0263 22.802 39.0297 22.7793 39.0298Z" fill="white"/>
</g>
<g opacity="0.61">
<path d="M48.6665 20.543L19.8823 29.7148L20.3097 31.0561L49.0939 21.8843L48.6665 20.543Z" fill="white"/>
</g>
<g opacity="0.61">
<path d="M21.4375 34.8167C21.3851 34.8166 21.3344 34.7978 21.2946 34.7637C21.2547 34.7295 21.2284 34.6823 21.2204 34.6304C21.2123 34.5786 21.223 34.5256 21.2506 34.481C21.2782 34.4363 21.3208 34.403 21.3707 34.387L50.1558 25.2184C50.1833 25.2096 50.2123 25.2064 50.2411 25.2088C50.2699 25.2112 50.2979 25.2193 50.3235 25.2326C50.3492 25.2458 50.372 25.264 50.3906 25.2861C50.4093 25.3081 50.4234 25.3337 50.4322 25.3612C50.4409 25.3887 50.4442 25.4177 50.4418 25.4465C50.4393 25.4753 50.4313 25.5033 50.418 25.529C50.4047 25.5546 50.3865 25.5774 50.3645 25.5961C50.3424 25.6147 50.3169 25.6288 50.2894 25.6376L21.5043 34.8059C21.4827 34.8129 21.4602 34.8165 21.4375 34.8167Z" fill="white"/>
</g>
<path d="M25.8829 60.9451C25.8584 60.9529 25.8328 60.9564 25.8072 60.9553L17.7002 60.6148C17.6714 60.6136 17.6431 60.6067 17.6169 60.5945C17.5908 60.5824 17.5672 60.5652 17.5477 60.544C17.5083 60.5011 17.4875 60.4442 17.4899 60.386C17.4924 60.3278 17.5179 60.2729 17.5608 60.2335C17.6037 60.1941 17.6605 60.1733 17.7187 60.1757L25.6873 60.5105L30.6781 51.1466C30.7035 51.099 30.7456 51.0623 30.7962 51.0437C30.8469 51.0251 30.9027 51.0257 30.9529 51.0456L37.7516 53.7338L42.2271 49.0351C42.2534 49.0076 42.2864 48.9874 42.3228 48.9764C42.3592 48.9654 42.3978 48.9641 42.4349 48.9725L50.1863 50.7318L52.5548 44.2034C52.5747 44.1486 52.6155 44.104 52.6683 44.0793C52.721 44.0546 52.7815 44.0519 52.8363 44.0718C52.891 44.0916 52.9357 44.1324 52.9604 44.1852C52.985 44.238 52.9877 44.2984 52.9679 44.3532L50.5333 51.0632C50.5152 51.1137 50.4792 51.1557 50.4322 51.1814C50.3851 51.2071 50.3303 51.2146 50.2781 51.2026L42.4591 49.4281L37.9676 54.1442C37.9374 54.1759 37.8984 54.1978 37.8557 54.2072C37.813 54.2166 37.7684 54.213 37.7277 54.1969L30.9736 51.5264L26.0108 60.8391C25.9837 60.8898 25.9377 60.9279 25.8829 60.9451Z" fill="#413B3B"/>
<path d="M12.9941 42.9248C16.2536 42.9248 18.896 40.2824 18.896 37.0229C18.896 33.7634 16.2536 31.1211 12.9941 31.1211C9.73463 31.1211 7.09229 33.7634 7.09229 37.0229C7.09229 40.2824 9.73463 42.9248 12.9941 42.9248Z" fill="#F3F5FD"/>
<path d="M15.8551 31.8618L12.9948 37.0233L11.2036 31.4002C11.9422 31.1637 12.7204 31.0756 13.4932 31.1411C14.266 31.2065 15.0182 31.4242 15.7065 31.7815C15.7563 31.8072 15.8063 31.8342 15.8551 31.8618Z" fill="#0929B1"/>
<path d="M18.6186 35.2326C18.9414 36.2396 18.986 37.3151 18.7474 38.3452L12.9951 37.0243L15.7068 31.7822C15.7565 31.8079 15.8066 31.8349 15.8554 31.8625C17.1742 32.5904 18.1632 33.7968 18.6186 35.2326Z" fill="#413B3B"/>
<path d="M18.9527 64.5319C18.9148 64.5318 18.8776 64.5226 18.8441 64.5049C18.8106 64.4873 18.7818 64.4618 18.7603 64.4307C18.7388 64.3995 18.7251 64.3636 18.7205 64.326C18.7159 64.2885 18.7204 64.2503 18.7337 64.2149L23.0619 52.6924C23.0729 52.6632 23.0895 52.6365 23.111 52.6138C23.1324 52.5911 23.1581 52.5729 23.1866 52.5603C23.2152 52.5477 23.2459 52.5408 23.2771 52.5402C23.3083 52.5397 23.3393 52.5453 23.3683 52.5568L32.5639 56.2187L36.5168 51.1285C36.5444 51.093 36.5816 51.0662 36.6239 51.0512C36.6663 51.0362 36.7121 51.0337 36.7558 51.044L44.8817 52.9505L51.7839 41.7115C51.7998 41.6847 51.8208 41.6614 51.8458 41.6429C51.8708 41.6244 51.8992 41.611 51.9294 41.6035C51.9596 41.5961 51.991 41.5947 52.0217 41.5995C52.0524 41.6043 52.0819 41.6151 52.1084 41.6314C52.1349 41.6477 52.1579 41.669 52.1761 41.6943C52.1942 41.7195 52.2072 41.7482 52.2142 41.7785C52.2212 41.8088 52.2221 41.8402 52.2169 41.8708C52.2117 41.9015 52.2004 41.9308 52.1837 41.957L45.1929 53.3404C45.1671 53.3825 45.1287 53.4153 45.0832 53.4342C45.0377 53.4532 44.9874 53.4573 44.9394 53.446L36.7952 51.5353L32.8257 56.6457C32.7945 56.6859 32.7511 56.7149 32.702 56.7283C32.6529 56.7416 32.6008 56.7387 32.5535 56.7199L23.4163 53.0813L19.1724 64.3799C19.1556 64.4246 19.1256 64.4631 19.0863 64.4903C19.0471 64.5174 19.0004 64.532 18.9527 64.5319Z" fill="white"/>
<path d="M88.9238 11.7949H33.8809V82.3127H88.9238V11.7949Z" fill="#DEE8F5"/>
<path d="M48.4461 16.2803H38.2173V25.4373H48.4461V16.2803Z" fill="white"/>
<path d="M84.588 38.8154H75.4448V60.7692H84.588V38.8154Z" fill="#8DDBE0"/>
<path d="M75.4448 57.8047H38.2183V60.6037H75.4448V57.8047Z" fill="#C1D8ED"/>
<path d="M84.5877 37.4941H38.2163V40.1376H84.5877V37.4941Z" fill="white"/>
<path d="M84.8078 60.9897H37.9966V37.4941H38.4364V60.5499H84.368V37.4941H84.8078V60.9897Z" fill="white"/>
<path d="M46.9566 38.8154H46.5166V60.7694H46.9566V38.8154Z" fill="white"/>
<path d="M84.5878 42.7168H38.2183V43.1568H84.5878V42.7168Z" fill="white"/>
<path d="M84.5878 45.6904H38.2183V46.1304H84.5878V45.6904Z" fill="white"/>
<path d="M84.5878 48.6641H38.2183V49.104H84.5878V48.6641Z" fill="white"/>
<path d="M84.5878 51.6377H38.2183V52.0777H84.5878V51.6377Z" fill="white"/>
<path d="M84.5878 54.6113H38.2183V55.0513H84.5878V54.6113Z" fill="white"/>
<path d="M84.5878 57.585H38.2183V58.0249H84.5878V57.585Z" fill="white"/>
<path d="M66.2754 38.8154H65.8354V60.7694H66.2754V38.8154Z" fill="white"/>
<path d="M75.6646 38.8154H75.2246V60.7694H75.6646V38.8154Z" fill="white"/>
<path d="M84.588 72.9297H70.5342V77.9538H84.588V72.9297Z" fill="white"/>
<path d="M84.5882 65.0645H38.2168V65.5044H84.5882V65.0645Z" fill="white"/>
<path d="M84.5882 68.8877H38.2168V69.3277H84.5882V68.8877Z" fill="white"/>
<path d="M84.5879 21.3945H52.5674V21.8345H84.5879V21.3945Z" fill="white"/>
<path d="M68.9428 25.2178H52.5674V25.6578H68.9428V25.2178Z" fill="white"/>
<path d="M84.5882 29.457H38.2168V29.897H84.5882V29.457Z" fill="white"/>
<path d="M84.5882 33.2803H38.2168V33.7203H84.5882V33.2803Z" fill="white"/>
<path d="M84.5879 16.4365H52.5674V18.2387H84.5879V16.4365Z" fill="white"/>
<path d="M111.596 62.0009L89.689 55.333C88.5957 55.0002 87.4397 55.6167 87.107 56.71L79.1724 82.7781C78.8397 83.8713 79.4562 85.0273 80.5494 85.3601L102.456 92.0281C103.55 92.3608 104.706 91.7443 105.038 90.6511L112.973 64.583C113.306 63.4897 112.689 62.3337 111.596 62.0009Z" fill="#413B3B"/>
<path d="M109.735 63.7397L90.2665 57.8141C89.6328 57.6212 88.9628 57.9785 88.7699 58.6122L87.8788 61.5399C87.6859 62.1736 88.0432 62.8437 88.6769 63.0366L108.145 68.9622C108.779 69.155 109.449 68.7977 109.642 68.164L110.533 65.2363C110.726 64.6026 110.368 63.9325 109.735 63.7397Z" fill="white"/>
<path d="M92.1868 66.1891L87.8099 64.8568C87.3343 64.7121 86.8314 64.9803 86.6866 65.4559L85.6663 68.8081C85.5215 69.2837 85.7897 69.7866 86.2653 69.9313L90.6422 71.2636C91.1178 71.4083 91.6207 71.1401 91.7655 70.6645L92.7858 67.3123C92.9306 66.8367 92.6624 66.3338 92.1868 66.1891Z" fill="#F1A3A3"/>
<path opacity="0.16" d="M100.019 68.5729L95.6419 67.2406C95.1663 67.0959 94.6634 67.3641 94.5187 67.8397L93.4983 71.1919C93.3536 71.6675 93.6218 72.1704 94.0973 72.3151L98.4743 73.6474C98.9499 73.7921 99.4527 73.5239 99.5975 73.0483L100.618 69.6961C100.763 69.2205 100.494 68.7176 100.019 68.5729Z" fill="#0F1011"/>
<path opacity="0.16" d="M107.85 70.9566L103.473 69.6244C102.998 69.4797 102.495 69.7478 102.35 70.2234L101.33 73.5757C101.185 74.0513 101.453 74.5542 101.929 74.6989L106.306 76.0311C106.781 76.1759 107.284 75.9077 107.429 75.4321L108.449 72.0799C108.594 71.6043 108.326 71.1014 107.85 70.9566Z" fill="#0F1011"/>
<path opacity="0.16" d="M90.1165 72.9908L85.7396 71.6586C85.264 71.5138 84.7611 71.782 84.6163 72.2576L83.596 75.6098C83.4512 76.0854 83.7194 76.5883 84.195 76.7331L88.5719 78.0653C89.0475 78.2101 89.5504 77.9419 89.6952 77.4663L90.7155 74.1141C90.8602 73.6385 90.5921 73.1356 90.1165 72.9908Z" fill="#0F1011"/>
<path opacity="0.16" d="M97.9485 75.3746L93.5716 74.0424C93.096 73.8976 92.5931 74.1658 92.4483 74.6414L91.428 77.9936C91.2832 78.4692 91.5514 78.9721 92.027 79.1169L96.4039 80.4491C96.8795 80.5939 97.3824 80.3257 97.5272 79.8501L98.5475 76.4979C98.6923 76.0223 98.4241 75.5194 97.9485 75.3746Z" fill="#0F1011"/>
<path opacity="0.16" d="M88.0462 79.7926L83.6692 78.4604C83.1937 78.3156 82.6908 78.5838 82.546 79.0594L81.5257 82.4116C81.3809 82.8872 81.6491 83.3901 82.1247 83.5348L86.5016 84.8671C86.9772 85.0118 87.4801 84.7436 87.6249 84.268L88.6452 80.9158C88.7899 80.4402 88.5218 79.9373 88.0462 79.7926Z" fill="#0F1011"/>
<path opacity="0.16" d="M95.8782 82.1764L91.5013 80.8441C91.0257 80.6994 90.5228 80.9676 90.378 81.4432L89.3577 84.7954C89.2129 85.271 89.4811 85.7739 89.9567 85.9186L94.3336 87.2509C94.8092 87.3956 95.3121 87.1274 95.4569 86.6518L96.4772 83.2996C96.622 82.824 96.3538 82.3211 95.8782 82.1764Z" fill="#0F1011"/>
<path d="M101.403 76.4267C101.175 76.3572 100.928 76.3813 100.718 76.4936C100.507 76.6059 100.35 76.7973 100.28 77.0257L98.4718 82.9662L98.0915 84.2157L97.1894 87.1796C97.155 87.2926 97.1432 87.4114 97.1546 87.529C97.1661 87.6467 97.2006 87.7609 97.2562 87.8652C97.3119 87.9695 97.3875 88.0618 97.4788 88.1369C97.5701 88.212 97.6753 88.2683 97.7883 88.3028L102.165 89.6351C102.278 89.6695 102.397 89.6813 102.515 89.6698C102.632 89.6584 102.747 89.6238 102.851 89.5682C102.955 89.5126 103.048 89.4369 103.123 89.3456C103.198 89.2543 103.254 89.1491 103.289 89.036L104.191 86.0722L104.571 84.8226L106.379 78.8821C106.449 78.6538 106.425 78.4071 106.312 78.1965C106.2 77.9858 106.009 77.8285 105.78 77.759L101.403 76.4267Z" fill="#0929B1"/>
</g>
<defs>
<clipPath id="clip0_192_10616">
<rect width="120" height="97.1558" fill="white" transform="translate(0 0.844727)"/>
</clipPath>
</defs>
</svg>
