<svg width="178" height="93" viewBox="0 0 178 93" fill="none" xmlns="http://www.w3.org/2000/svg">
<path opacity="0.15" d="M167.713 0H10.2866C4.60549 0 0 4.0476 0 9.04055V83.9595C0 88.9524 4.60549 93 10.2866 93H167.713C173.395 93 178 88.9524 178 83.9595V9.04055C178 4.0476 173.395 0 167.713 0Z" fill="#0D38D3"/>
<path d="M93.3169 23.1651C95.1677 23.1651 96.668 21.6647 96.668 19.814C96.668 17.9632 95.1677 16.4629 93.3169 16.4629C91.4662 16.4629 89.9658 17.9632 89.9658 19.814C89.9658 21.6647 91.4662 23.1651 93.3169 23.1651Z" fill="#0D38D3"/>
<path d="M93.3169 40.2481C95.1677 40.2481 96.668 38.7477 96.668 36.897C96.668 35.0462 95.1677 33.5459 93.3169 33.5459C91.4662 33.5459 89.9658 35.0462 89.9658 36.897C89.9658 38.7477 91.4662 40.2481 93.3169 40.2481Z" fill="#262626"/>
<path d="M93.3169 57.3311C95.1677 57.3311 96.668 55.8307 96.668 53.98C96.668 52.1292 95.1677 50.6289 93.3169 50.6289C91.4662 50.6289 89.9658 52.1292 89.9658 53.98C89.9658 55.8307 91.4662 57.3311 93.3169 57.3311Z" fill="white"/>
<path opacity="0.5" d="M93.3169 74.4121C95.1677 74.4121 96.668 72.9118 96.668 71.061C96.668 69.2103 95.1677 67.71 93.3169 67.71C91.4662 67.71 89.9658 69.2103 89.9658 71.061C89.9658 72.9118 91.4662 74.4121 93.3169 74.4121Z" fill="#0D38D3"/>
<path d="M164 19.9998C164 20.5302 163.668 21.0389 163.077 21.4139C162.486 21.7889 161.684 21.9997 160.848 21.9997H107.291C106.546 22.0083 105.818 21.8543 105.231 21.5635C104.644 21.2726 104.231 20.8625 104.064 20.4019C103.97 20.111 103.98 19.8105 104.092 19.5223C104.204 19.2341 104.416 18.9653 104.712 18.7354C105.008 18.5055 105.381 18.3202 105.804 18.193C106.226 18.0658 106.689 17.9999 107.157 18H160.848C161.262 17.9999 161.672 18.0516 162.054 18.1521C162.437 18.2526 162.784 18.3999 163.077 18.5856C163.37 18.7713 163.602 18.9918 163.76 19.2344C163.919 19.4771 164 19.7372 164 19.9998Z" fill="white"/>
<path d="M164 36.9996C164 37.5301 163.668 38.0388 163.077 38.4139C162.485 38.789 161.684 38.9998 160.848 38.9998H107.318C106.881 39.0039 106.447 38.9524 106.042 38.8482C105.637 38.7441 105.268 38.5894 104.959 38.3934C104.65 38.1973 104.405 37.9639 104.241 37.7069C104.076 37.45 103.994 37.1746 104 36.8973C104.042 36.385 104.393 35.9026 104.979 35.5496C105.566 35.1966 106.343 34.9998 107.152 35H160.848C161.262 34.9999 161.671 35.0516 162.054 35.1521C162.436 35.2525 162.784 35.3998 163.077 35.5855C163.369 35.7712 163.602 35.9916 163.76 36.2343C163.918 36.4769 164 36.737 164 36.9996Z" fill="white"/>
<path d="M164 53.9997C164 54.5302 163.668 55.039 163.077 55.4141C162.486 55.7893 161.684 56 160.848 56H106.831C106.08 56 105.36 55.8107 104.829 55.4738C104.298 55.1369 104 54.6799 104 54.2034V53.7966C104 53.3201 104.298 52.8631 104.829 52.5262C105.36 52.1893 106.08 52 106.831 52H160.848C161.262 51.9999 161.672 52.0516 162.054 52.1521C162.436 52.2525 162.784 52.3998 163.077 52.5855C163.369 52.7712 163.602 52.9917 163.76 53.2343C163.918 53.477 164 53.7371 164 53.9997Z" fill="white"/>
<path d="M164 70.999C164 71.5296 163.668 72.0385 163.077 72.4137C162.486 72.7889 161.684 72.9996 160.848 72.9996H107.303C106.557 73.0085 105.829 72.8549 105.239 72.5644C104.65 72.2738 104.235 71.8639 104.064 71.4028C103.97 71.1119 103.98 70.8114 104.092 70.5231C104.204 70.2347 104.415 69.9659 104.711 69.7359C105.007 69.5059 105.38 69.3205 105.803 69.1932C106.225 69.066 106.687 69 107.155 69H160.846C161.26 68.9998 161.67 69.0513 162.053 69.1517C162.435 69.2521 162.783 69.3992 163.076 69.5849C163.368 69.7705 163.601 69.991 163.759 70.2336C163.918 70.4762 164 70.7363 164 70.999Z" fill="white"/>
<path d="M30.4407 45.4394C30.4416 49.5243 31.7091 53.5084 34.0686 56.8429C36.4281 60.1775 39.7635 62.6984 43.6153 64.0584L38.1982 77.2702C30.7477 74.4624 24.5186 69.1296 20.596 62.201C16.6734 55.2724 15.3061 47.1871 16.7322 39.3539C18.1584 31.5208 22.2877 24.4363 28.4005 19.3348C34.5134 14.2333 42.2224 11.4382 50.1843 11.4365V25.6992C44.9486 25.699 39.9272 27.7786 36.2246 31.4806C32.522 35.1825 30.4415 40.2036 30.4407 45.4394Z" fill="#0D38D3"/>
<path d="M84.1899 45.4394H69.9268C69.9268 40.2033 67.8467 35.1816 64.1443 31.479C60.4418 27.7765 55.4202 25.6964 50.1841 25.6962V11.4336C59.203 11.4336 67.8525 15.0163 74.2298 21.3937C80.6071 27.771 84.1899 36.4205 84.1899 45.4394Z" fill="#262626"/>
<path d="M84.1905 45.4395C84.1896 53.1448 81.5729 60.6216 76.7687 66.6459C71.9646 72.6703 65.2576 76.8852 57.7456 78.6008L55.3296 64.5025C59.5193 63.3704 63.2195 60.8898 65.8582 57.4441C68.4969 53.9984 69.9271 49.7794 69.9278 45.4395H84.1905Z" fill="white"/>
<path opacity="0.5" d="M57.7444 78.6009C51.2384 80.075 44.4432 79.6119 38.1973 77.2689L43.6144 64.0586C47.3853 65.3823 51.4678 65.5375 55.3284 64.5041L57.7444 78.6009Z" fill="#0D38D3"/>
</svg>
