<svg width="177" height="222" viewBox="0 0 177 222" fill="none" xmlns="http://www.w3.org/2000/svg">
<path opacity="0.15" d="M167.728 0H9.27163C4.15105 0 0 4.08814 0 9.13113V212.869C0 217.912 4.15105 222 9.27163 222H167.728C172.849 222 177 217.912 177 212.869V9.13113C177 4.08814 172.849 0 167.728 0Z" fill="#0D38D3"/>
<path d="M128.501 86.8345C128.502 96.987 125.628 106.912 120.244 115.353C114.86 123.795 107.207 130.374 98.2541 134.259C89.3007 138.145 79.4487 139.161 69.9438 137.181C60.4389 135.2 51.7082 130.311 44.8555 123.132C38.0029 115.953 33.3361 106.807 31.4455 96.8495C29.5548 86.8921 30.5251 76.5709 34.2337 67.1912C37.9423 57.8114 44.2226 49.7944 52.2804 44.154C60.3382 38.5135 69.8116 35.5029 79.5027 35.5029V86.8345H128.501Z" fill="#FAFAFA"/>
<path opacity="0.6" d="M134.51 80.1675H85.5132V28.8359C98.508 28.8365 110.97 34.2448 120.159 43.8713C129.347 53.4978 134.51 66.5538 134.51 80.1675Z" fill="#0D38D3"/>
<path opacity="0.6" d="M28.6942 167.287C30.5087 167.287 31.9797 165.746 31.9797 163.845C31.9797 161.944 30.5087 160.403 28.6942 160.403C26.8797 160.403 25.4087 161.944 25.4087 163.845C25.4087 165.746 26.8797 167.287 28.6942 167.287Z" fill="#0D38D3"/>
<path d="M28.6942 184.833C30.5087 184.833 31.9797 183.292 31.9797 181.391C31.9797 179.49 30.5087 177.949 28.6942 177.949C26.8797 177.949 25.4087 179.49 25.4087 181.391C25.4087 183.292 26.8797 184.833 28.6942 184.833Z" fill="#FAFAFA"/>
<path opacity="0.6" d="M141.261 163.845C141.261 164.362 141.065 164.857 140.716 165.222C140.368 165.587 139.895 165.792 139.402 165.792H40.8499C40.4105 165.801 39.9816 165.651 39.6351 165.368C39.2886 165.084 39.0455 164.685 38.9466 164.236C38.8915 163.953 38.8973 163.66 38.9635 163.38C39.0296 163.099 39.1546 162.837 39.3292 162.613C39.5038 162.39 39.7237 162.209 39.9731 162.085C40.2224 161.962 40.4949 161.897 40.7708 161.897H139.402C139.646 161.897 139.888 161.948 140.114 162.046C140.339 162.144 140.544 162.287 140.717 162.468C140.889 162.649 141.026 162.864 141.12 163.1C141.213 163.336 141.261 163.589 141.261 163.845Z" fill="#0D38D3"/>
<path d="M141.262 181.391C141.262 181.907 141.066 182.402 140.717 182.767C140.369 183.133 139.896 183.338 139.403 183.338H40.8695C40.6117 183.342 40.3558 183.292 40.1168 183.19C39.8779 183.089 39.6608 182.938 39.4783 182.747C39.2959 182.557 39.1519 182.329 39.0547 182.079C38.9576 181.829 38.9093 181.561 38.9128 181.291C38.9378 180.792 39.1445 180.322 39.4903 179.979C39.8362 179.635 40.2947 179.443 40.7715 179.443H139.403C139.647 179.443 139.889 179.494 140.114 179.592C140.34 179.689 140.545 179.833 140.717 180.014C140.89 180.194 141.027 180.409 141.12 180.645C141.213 180.882 141.262 181.135 141.262 181.391Z" fill="white"/>
</svg>
