<svg width="177" height="110" viewBox="0 0 177 110" fill="none" xmlns="http://www.w3.org/2000/svg">
<path opacity="0.15" d="M169.776 0H7.22449C3.23452 0 0 2.74876 0 6.13952V103.86C0 107.251 3.23452 110 7.22449 110H169.776C173.765 110 177 107.251 177 103.86V6.13952C177 2.74876 173.765 0 169.776 0Z" fill="#0D38D3"/>
<path d="M26.9241 13.6885H15.0185C14.4654 13.6885 14.0171 14.1368 14.0171 14.6899V95.0048C14.0171 95.5579 14.4654 96.0062 15.0185 96.0062H26.9241C27.4772 96.0062 27.9255 95.5579 27.9255 95.0048V14.6899C27.9255 14.1368 27.4772 13.6885 26.9241 13.6885Z" fill="#FAFAFA"/>
<path opacity="0.6" d="M14.0171 54.0391H27.9241V95.0045C27.9241 95.2701 27.8186 95.5248 27.6308 95.7126C27.443 95.9004 27.1882 96.0059 26.9227 96.0059H15.0185C14.7529 96.0059 14.4982 95.9004 14.3104 95.7126C14.1226 95.5248 14.0171 95.2701 14.0171 95.0045V54.0391Z" fill="#0D38D3"/>
<path d="M53.9378 13.6885H42.0322C41.4791 13.6885 41.0308 14.1368 41.0308 14.6899V95.0048C41.0308 95.5579 41.4791 96.0062 42.0322 96.0062H53.9378C54.4909 96.0062 54.9392 95.5579 54.9392 95.0048V14.6899C54.9392 14.1368 54.4909 13.6885 53.9378 13.6885Z" fill="#FAFAFA"/>
<path opacity="0.6" d="M41.0308 42.6309H54.9377V95.0048C54.9377 95.2704 54.8322 95.5251 54.6444 95.7129C54.4566 95.9007 54.2019 96.0062 53.9363 96.0062H42.0322C41.7666 96.0062 41.5119 95.9007 41.3241 95.7129C41.1363 95.5251 41.0308 95.2704 41.0308 95.0048V42.6309Z" fill="#0D38D3"/>
<path d="M134.982 13.6885H123.076C122.523 13.6885 122.075 14.1368 122.075 14.6899V95.0048C122.075 95.5579 122.523 96.0062 123.076 96.0062H134.982C135.535 96.0062 135.983 95.5579 135.983 95.0048V14.6899C135.983 14.1368 135.535 13.6885 134.982 13.6885Z" fill="#FAFAFA"/>
<path opacity="0.6" d="M122.075 31.1201H135.982V95.0056C135.982 95.2712 135.876 95.5259 135.688 95.7137C135.501 95.9015 135.246 96.007 134.98 96.007H123.077C122.811 96.007 122.556 95.9015 122.369 95.7137C122.181 95.5259 122.075 95.2712 122.075 95.0056V31.1201H122.075Z" fill="#0D38D3"/>
<path d="M80.9524 13.6885H69.0468C68.4937 13.6885 68.0454 14.1368 68.0454 14.6899V95.0048C68.0454 95.5579 68.4937 96.0062 69.0468 96.0062H80.9524C81.5055 96.0062 81.9538 95.5579 81.9538 95.0048V14.6899C81.9538 14.1368 81.5055 13.6885 80.9524 13.6885Z" fill="#FAFAFA"/>
<path opacity="0.6" d="M68.0454 72.4932H81.9524V95.0056C81.9524 95.2712 81.8469 95.5259 81.6591 95.7137C81.4713 95.9015 81.2166 96.007 80.951 96.007H69.0468C68.7812 96.007 68.5265 95.9015 68.3387 95.7137C68.1509 95.5259 68.0454 95.2712 68.0454 95.0056V72.4932Z" fill="#0D38D3"/>
<path d="M107.968 13.6885H96.0619C95.5089 13.6885 95.0605 14.1368 95.0605 14.6899V95.0048C95.0605 95.5579 95.5089 96.0062 96.0619 96.0062H107.968C108.521 96.0062 108.969 95.5579 108.969 95.0048V14.6899C108.969 14.1368 108.521 13.6885 107.968 13.6885Z" fill="#FAFAFA"/>
<path opacity="0.6" d="M95.0591 58.1084H108.966V95.0047C108.966 95.2703 108.861 95.525 108.673 95.7128C108.485 95.9006 108.23 96.0061 107.965 96.0061H96.0619C95.9304 96.0061 95.8002 95.9802 95.6787 95.9299C95.5572 95.8796 95.4468 95.8058 95.3538 95.7128C95.2609 95.6198 95.1871 95.5094 95.1368 95.3879C95.0864 95.2664 95.0605 95.1362 95.0605 95.0047V58.1084H95.0591Z" fill="#0D38D3"/>
<path d="M161.908 13.6885H150.003C149.45 13.6885 149.001 14.1368 149.001 14.6899V95.0048C149.001 95.5579 149.45 96.0062 150.003 96.0062H161.908C162.462 96.0062 162.91 95.5579 162.91 95.0048V14.6899C162.91 14.1368 162.462 13.6885 161.908 13.6885Z" fill="#FAFAFA"/>
<path opacity="0.6" d="M149 49H163V94.7581C163 95.0874 162.894 95.4033 162.705 95.6362C162.516 95.8691 162.259 96 161.992 96H150.01C149.877 96 149.746 95.9679 149.624 95.9055C149.501 95.843 149.39 95.7516 149.297 95.6362C149.203 95.5209 149.129 95.384 149.078 95.2333C149.028 95.0827 149.001 94.9212 149.001 94.7581V49H149Z" fill="#0D38D3"/>
</svg>
