<svg width="15" height="15" viewBox="0 0 15 15" fill="none" xmlns="http://www.w3.org/2000/svg">
<path fill-rule="evenodd" clip-rule="evenodd" d="M2.05545 2.55491L2.10079 2.50752C3.30543 1.30277 4.0899 0.983445 4.92692 1.46476C5.16769 1.60322 5.39341 1.79702 5.70034 2.10876L6.64182 3.08502C7.16184 3.65246 7.28005 4.19674 7.11073 4.83416L7.0874 4.91854L7.06151 5.00245L6.93565 5.37171C6.66626 6.19983 6.77873 6.66705 7.73716 7.62524C8.73385 8.62167 9.1991 8.70319 10.0911 8.39149L10.2501 8.33623L10.4423 8.2738L10.5264 8.25045C11.2039 8.06969 11.7763 8.21394 12.3832 8.8205L13.1418 9.55324L13.3651 9.77286C13.6127 10.0253 13.7763 10.2254 13.8972 10.4368C14.3755 11.2736 14.0558 12.0576 12.8165 13.2923L12.6985 13.4118C12.5135 13.5901 12.3406 13.7179 12.0866 13.8385C11.6603 14.0409 11.1566 14.1172 10.5714 14.0358C9.12921 13.8353 7.3001 12.6974 4.98242 10.3803C4.79376 10.1917 4.61306 10.0067 4.44016 9.8253L4.10467 9.46726C0.961015 6.05178 0.68368 3.95368 1.97198 2.63781L2.05545 2.55491ZM4.94151 2.67558C4.73789 2.47483 4.58998 2.35246 4.45957 2.27747C4.17112 2.1116 3.85969 2.18172 3.28331 2.6778L3.1022 2.83959C3.07062 2.86875 3.0383 2.89902 3.00524 2.93043L2.79757 3.1327L2.77886 3.15608L2.63807 3.29752C2.29785 3.64503 2.13669 4.06915 2.27557 4.79854C2.50344 5.99543 3.54651 7.61908 5.64525 9.71729C7.83205 11.9035 9.49823 12.9401 10.7005 13.1073C11.4014 13.2047 11.7589 13.035 12.1235 12.6615L12.4015 12.3809C12.5319 12.2445 12.6433 12.1208 12.7373 12.0079L12.8657 11.8462C13.1936 11.4094 13.2235 11.1474 13.0833 10.902C13.0299 10.8087 12.9523 10.7064 12.8393 10.5813L12.686 10.4194L12.5953 10.3286L11.6383 9.4045C11.3185 9.10958 11.0999 9.06773 10.7681 9.15627L10.6723 9.18382L10.2759 9.31839C9.12581 9.68982 8.29612 9.50972 7.07434 8.28824C5.80893 7.02316 5.66053 6.17836 6.08451 4.96198L6.11171 4.88382L6.18692 4.65721L6.2239 4.51277C6.28946 4.19841 6.21461 3.97923 5.87668 3.64125L5.8303 3.5945L4.94151 2.67558Z" fill="#0929B1"/>
</svg>
