<svg width="15" height="17" viewBox="0 0 15 17" fill="none" xmlns="http://www.w3.org/2000/svg">
<path fill-rule="evenodd" clip-rule="evenodd" d="M4.31079 1.59375C2.92913 1.59375 1.78329 2.71208 1.75079 4.09125V13.1171C1.72663 14.4896 2.81579 15.6163 4.17829 15.6396L4.30079 15.6388H10.9775C12.3458 15.6238 13.4616 14.4929 13.46 13.1179V5.61875L9.59829 1.59375H4.32079H4.31079ZM4.16663 16.8896C2.10579 16.8538 0.465794 15.1562 0.500794 13.1062V4.07625C0.548294 2.00875 2.25579 0.34375 4.30829 0.34375H4.32329H9.86413C10.0341 0.34375 10.1966 0.412917 10.315 0.535417L14.5366 4.93458C14.6475 5.05042 14.71 5.20625 14.71 5.36708V13.1171C14.7133 15.1746 13.0416 16.8671 10.9841 16.8888L4.16663 16.8896Z" fill="#124AF6"/>
<path fill-rule="evenodd" clip-rule="evenodd" d="M14.0813 6.15399H11.7863C10.2605 6.14982 9.02051 4.90648 9.02051 3.38315V0.958984C9.02051 0.613984 9.30051 0.333984 9.64551 0.333984C9.99051 0.333984 10.2705 0.613984 10.2705 0.958984V3.38315C10.2705 4.21982 10.9513 4.90148 11.788 4.90398H14.0813C14.4263 4.90398 14.7063 5.18398 14.7063 5.52899C14.7063 5.87398 14.4263 6.15399 14.0813 6.15399Z" fill="#124AF6"/>
<path fill-rule="evenodd" clip-rule="evenodd" d="M9.49461 10.0537H5.41211C5.06711 10.0537 4.78711 9.77371 4.78711 9.42871C4.78711 9.08371 5.06711 8.80371 5.41211 8.80371H9.49461C9.83961 8.80371 10.1196 9.08371 10.1196 9.42871C10.1196 9.77371 9.83961 10.0537 9.49461 10.0537Z" fill="#124AF6"/>
<path fill-rule="evenodd" clip-rule="evenodd" d="M7.45361 12.096C7.10861 12.096 6.82861 11.816 6.82861 11.471V7.3877C6.82861 7.0427 7.10861 6.7627 7.45361 6.7627C7.79861 6.7627 8.07861 7.0427 8.07861 7.3877V11.471C8.07861 11.816 7.79861 12.096 7.45361 12.096Z" fill="#124AF6"/>
</svg>
