<svg width="18" height="18" viewBox="0 0 18 18" fill="none" xmlns="http://www.w3.org/2000/svg">
<path fill-rule="evenodd" clip-rule="evenodd" d="M11.7868 12.7305H6.37183C6.06133 12.7305 5.80933 12.4785 5.80933 12.168C5.80933 11.8575 6.06133 11.6055 6.37183 11.6055H11.7868C12.0973 11.6055 12.3493 11.8575 12.3493 12.168C12.3493 12.4785 12.0973 12.7305 11.7868 12.7305Z" fill="#0D38D3"/>
<path fill-rule="evenodd" clip-rule="evenodd" d="M11.7868 9.58984H6.37183C6.06133 9.58984 5.80933 9.33784 5.80933 9.02734C5.80933 8.71684 6.06133 8.46484 6.37183 8.46484H11.7868C12.0973 8.46484 12.3493 8.71684 12.3493 9.02734C12.3493 9.33784 12.0973 9.58984 11.7868 9.58984Z" fill="#0D38D3"/>
<path fill-rule="evenodd" clip-rule="evenodd" d="M8.43783 6.45801H6.37158C6.06108 6.45801 5.80908 6.20601 5.80908 5.89551C5.80908 5.58501 6.06108 5.33301 6.37158 5.33301H8.43783C8.74833 5.33301 9.00033 5.58501 9.00033 5.89551C9.00033 6.20601 8.74833 6.45801 8.43783 6.45801Z" fill="#0D38D3"/>
<mask id="mask0_192_11549" style="mask-type:luminance" maskUnits="userSpaceOnUse" x="2" y="1" width="14" height="16">
<path fill-rule="evenodd" clip-rule="evenodd" d="M2.25 1.5H15.8735V16.4324H2.25V1.5Z" fill="white"/>
</mask>
<g mask="url(#mask0_192_11549)">
<path fill-rule="evenodd" clip-rule="evenodd" d="M11.9315 2.625L6.16476 2.628C4.41876 2.6385 3.37476 3.7185 3.37476 5.51775V12.4148C3.37476 14.226 4.42851 15.3075 6.19176 15.3075L11.9585 15.3053C13.7045 15.2947 14.7485 14.2133 14.7485 12.4148V5.51775C14.7485 3.7065 13.6955 2.625 11.9315 2.625ZM6.19251 16.4325C3.83451 16.4325 2.24976 14.8178 2.24976 12.4148V5.51775C2.24976 3.093 3.78501 1.51725 6.16101 1.503L11.9308 1.5H11.9315C14.2895 1.5 15.8735 3.11475 15.8735 5.51775V12.4148C15.8735 14.8388 14.3383 16.4153 11.9623 16.4303L6.19251 16.4325Z" fill="#0D38D3"/>
</g>
</svg>
