<svg width="11" height="13" viewBox="0 0 11 13" fill="none" xmlns="http://www.w3.org/2000/svg">
<path fill-rule="evenodd" clip-rule="evenodd" d="M5.65649 4.8125C5.05337 4.8125 4.56274 5.30313 4.56274 5.90688C4.56274 6.51 5.05337 7 5.65649 7C6.25962 7 6.75024 6.51 6.75024 5.90688C6.75024 5.30313 6.25962 4.8125 5.65649 4.8125ZM5.65649 7.9375C4.53649 7.9375 3.62524 7.02688 3.62524 5.90687C3.62524 4.78625 4.53649 3.875 5.65649 3.875C6.77649 3.875 7.68774 4.78625 7.68774 5.90687C7.68774 7.02688 6.77649 7.9375 5.65649 7.9375Z" fill="#0929B1"/>
<mask id="mask0_724_3231" style="mask-type:luminance" maskUnits="userSpaceOnUse" x="0" y="0" width="11" height="13">
<path fill-rule="evenodd" clip-rule="evenodd" d="M0.5 0.75H10.8122V12.9375H0.5V0.75Z" fill="white"/>
</mask>
<g mask="url(#mask0_724_3231)">
<path fill-rule="evenodd" clip-rule="evenodd" d="M5.65601 1.6875C3.32976 1.6875 1.43726 3.59812 1.43726 5.94563C1.43726 8.9325 4.95226 11.8425 5.65601 11.9975C6.35976 11.8419 9.87476 8.93188 9.87476 5.94563C9.87476 3.59812 7.98226 1.6875 5.65601 1.6875ZM5.65601 12.9375C4.53476 12.9375 0.499756 9.4675 0.499756 5.94562C0.499756 3.08062 2.81288 0.75 5.65601 0.75C8.49913 0.75 10.8123 3.08062 10.8123 5.94562C10.8123 9.4675 6.77726 12.9375 5.65601 12.9375Z" fill="#0929B1"/>
</g>
</svg>
