<svg width="40" height="40" viewBox="0 0 40 40" fill="none" xmlns="http://www.w3.org/2000/svg">
<path fill-rule="evenodd" clip-rule="evenodd" d="M12.6216 5.85254C9.85825 5.85254 7.56659 8.08921 7.50159 10.8475V28.8992C7.45325 31.6442 9.63159 33.8975 12.3566 33.9442L12.6016 33.9425H25.9549C28.6916 33.9125 30.9233 31.6509 30.9199 28.9009V13.9025L23.1966 5.85254H12.6416H12.6216ZM12.3333 36.4442C8.21159 36.3725 4.93159 32.9775 5.00159 28.8775V10.8175C5.09659 6.68254 8.51159 3.35254 12.6166 3.35254H12.6466H23.7283C24.0683 3.35254 24.3933 3.49087 24.6299 3.73587L33.0733 12.5342C33.2949 12.7659 33.4199 13.0775 33.4199 13.3992V28.8992C33.4266 33.0142 30.0833 36.3992 25.9683 36.4425L12.3333 36.4442Z" fill="black"/>
<path fill-rule="evenodd" clip-rule="evenodd" d="M32.1627 14.974H27.5727C24.521 14.9657 22.041 12.479 22.041 9.43232V4.58398C22.041 3.89398 22.601 3.33398 23.291 3.33398C23.981 3.33398 24.541 3.89398 24.541 4.58398V9.43232C24.541 11.1057 25.9027 12.469 27.576 12.474H32.1627C32.8527 12.474 33.4127 13.034 33.4127 13.724C33.4127 14.414 32.8527 14.974 32.1627 14.974Z" fill="black"/>
<path fill-rule="evenodd" clip-rule="evenodd" d="M22.9895 22.7734H14.8245C14.1345 22.7734 13.5745 22.2134 13.5745 21.5234C13.5745 20.8334 14.1345 20.2734 14.8245 20.2734H22.9895C23.6795 20.2734 24.2395 20.8334 24.2395 21.5234C24.2395 22.2134 23.6795 22.7734 22.9895 22.7734Z" fill="black"/>
<path fill-rule="evenodd" clip-rule="evenodd" d="M18.9075 26.8571C18.2175 26.8571 17.6575 26.2971 17.6575 25.6071V17.4404C17.6575 16.7504 18.2175 16.1904 18.9075 16.1904C19.5975 16.1904 20.1575 16.7504 20.1575 17.4404V25.6071C20.1575 26.2971 19.5975 26.8571 18.9075 26.8571Z" fill="black"/>
</svg>
