<svg width="350" height="345" viewBox="0 0 350 345" fill="none" xmlns="http://www.w3.org/2000/svg">
<path d="M140.587 272.801H136.034C135.672 272.801 135.319 272.689 135.024 272.48C134.728 272.271 134.505 271.975 134.386 271.634C134.037 270.633 133.625 269.656 133.151 268.708C132.988 268.38 132.932 268.009 132.992 267.648C133.051 267.286 133.223 266.953 133.483 266.694L136.719 263.459C137.048 263.13 137.232 262.684 137.232 262.218C137.232 261.753 137.048 261.307 136.719 260.978L129.728 253.992C129.399 253.664 128.953 253.479 128.488 253.479C128.023 253.479 127.577 253.664 127.248 253.992L123.954 257.287C123.698 257.544 123.367 257.715 123.009 257.775C122.651 257.836 122.283 257.783 121.956 257.624C121.026 257.17 120.068 256.775 119.089 256.442C118.743 256.324 118.444 256.102 118.232 255.805C118.02 255.508 117.906 255.152 117.907 254.788V250.121C117.907 249.891 117.861 249.663 117.773 249.45C117.685 249.238 117.556 249.044 117.393 248.881C117.23 248.719 117.037 248.59 116.824 248.501C116.612 248.413 116.384 248.368 116.154 248.368H106.271C106.041 248.368 105.813 248.413 105.6 248.501C105.387 248.59 105.194 248.719 105.031 248.881C104.868 249.044 104.739 249.238 104.651 249.45C104.563 249.663 104.518 249.891 104.518 250.121V254.788C104.519 255.152 104.405 255.508 104.193 255.805C103.981 256.102 103.681 256.324 103.336 256.442C102.356 256.775 101.399 257.17 100.469 257.624C100.142 257.783 99.774 257.836 99.4158 257.775C99.0576 257.715 98.7272 257.544 98.4708 257.287L95.1767 253.992C94.8476 253.664 94.4015 253.479 93.9363 253.479C93.4711 253.479 93.025 253.664 92.696 253.992L85.7059 260.979C85.3771 261.309 85.1924 261.755 85.1924 262.22C85.1924 262.685 85.3771 263.131 85.7059 263.46L88.9414 266.696C89.2014 266.954 89.3734 267.287 89.4329 267.649C89.4925 268.011 89.4365 268.382 89.2731 268.71C88.7995 269.657 88.3882 270.634 88.0418 271.635C87.9211 271.977 87.6974 272.272 87.4017 272.481C87.1059 272.69 86.7527 272.802 86.3905 272.802H81.8372C81.607 272.802 81.379 272.847 81.1663 272.935C80.9536 273.024 80.7603 273.153 80.5975 273.315C80.4347 273.478 80.3056 273.672 80.2175 273.884C80.1295 274.097 80.0842 274.325 80.0842 274.555V284.44C80.0842 284.67 80.1295 284.898 80.2175 285.111C80.3056 285.324 80.4347 285.517 80.5975 285.68C80.7603 285.843 80.9536 285.972 81.1663 286.06C81.379 286.148 81.607 286.193 81.8372 286.193H86.2715C86.6403 286.193 86.9998 286.309 87.2986 286.525C87.5974 286.741 87.8202 287.046 87.9353 287.396C88.2775 288.424 88.6867 289.428 89.1603 290.402C89.3211 290.73 89.3756 291.1 89.3161 291.46C89.2567 291.821 89.0863 292.154 88.8286 292.413L85.7068 295.535C85.5439 295.698 85.4148 295.891 85.3267 296.103C85.2385 296.316 85.1932 296.544 85.1932 296.774C85.1932 297.004 85.2385 297.232 85.3267 297.444C85.4148 297.657 85.5439 297.85 85.7068 298.012L92.6968 305.003C93.0259 305.332 93.472 305.516 93.9372 305.516C94.4024 305.516 94.8485 305.332 95.1775 305.003L98.2381 301.942C98.499 301.682 98.835 301.511 99.1987 301.452C99.5623 301.394 99.9351 301.451 100.264 301.617C101.254 302.111 102.277 302.538 103.325 302.894C103.673 303.011 103.975 303.235 104.189 303.532C104.403 303.83 104.518 304.188 104.519 304.554V308.871C104.519 309.102 104.564 309.33 104.652 309.543C104.74 309.756 104.869 309.949 105.032 310.112C105.195 310.275 105.388 310.405 105.601 310.493C105.814 310.581 106.042 310.627 106.272 310.627H116.154C116.384 310.627 116.612 310.581 116.825 310.493C117.038 310.405 117.231 310.275 117.394 310.112C117.557 309.949 117.686 309.756 117.774 309.543C117.862 309.33 117.907 309.102 117.907 308.871V304.554C117.907 304.188 118.023 303.83 118.237 303.532C118.451 303.235 118.753 303.011 119.1 302.894C120.149 302.538 121.171 302.111 122.162 301.617C122.491 301.451 122.863 301.394 123.227 301.452C123.591 301.511 123.927 301.682 124.188 301.942L127.248 305.003C127.577 305.332 128.023 305.516 128.488 305.516C128.954 305.516 129.4 305.332 129.729 305.003L136.719 298.012C136.882 297.85 137.011 297.657 137.099 297.444C137.187 297.232 137.233 297.004 137.233 296.774C137.233 296.544 137.187 296.316 137.099 296.103C137.011 295.891 136.882 295.698 136.719 295.535L133.597 292.413C133.339 292.154 133.169 291.821 133.11 291.46C133.05 291.1 133.105 290.73 133.265 290.402C133.739 289.428 134.148 288.424 134.49 287.396C134.606 287.046 134.828 286.741 135.127 286.525C135.426 286.309 135.785 286.193 136.154 286.193H140.587C140.817 286.193 141.045 286.148 141.258 286.06C141.471 285.972 141.664 285.843 141.827 285.68C141.99 285.517 142.119 285.324 142.207 285.111C142.295 284.898 142.34 284.67 142.34 284.44V274.555C142.34 274.325 142.295 274.097 142.207 273.884C142.119 273.671 141.99 273.477 141.827 273.314C141.664 273.152 141.471 273.022 141.258 272.934C141.045 272.846 140.817 272.801 140.587 272.801ZM111.214 294.105C108.324 294.105 105.5 293.248 103.098 291.643C100.695 290.038 98.8231 287.756 97.7175 285.087C96.6118 282.418 96.3225 279.48 96.8862 276.647C97.4498 273.813 98.8411 271.21 100.884 269.167C102.927 267.124 105.53 265.733 108.364 265.169C111.197 264.606 114.134 264.895 116.804 266.001C119.473 267.106 121.754 268.978 123.36 271.381C124.965 273.783 125.822 276.607 125.822 279.497C125.822 283.371 124.282 287.086 121.543 289.826C118.803 292.566 115.088 294.105 111.214 294.105Z" fill="#F4F4F4"/>
<path d="M83.7266 213.913H77.5286C77.036 213.914 76.5553 213.762 76.1532 213.477C75.751 213.193 75.4473 212.79 75.2841 212.325C74.8096 210.963 74.2484 209.633 73.604 208.342C73.3814 207.896 73.3052 207.39 73.3861 206.898C73.4671 206.406 73.7012 205.952 74.0551 205.6L78.4606 201.195C78.9081 200.747 79.1595 200.14 79.1595 199.507C79.1595 198.873 78.9081 198.266 78.4606 197.818L68.9436 188.305C68.4956 187.858 67.8883 187.606 67.2551 187.606C66.6218 187.606 66.0145 187.858 65.5665 188.305L61.082 192.79C60.7328 193.141 60.2829 193.373 59.7951 193.456C59.3073 193.538 58.8059 193.466 58.361 193.25C57.0952 192.631 55.7915 192.094 54.4577 191.64C53.9877 191.48 53.5797 191.177 53.2911 190.773C53.0025 190.369 52.8477 189.884 52.8486 189.388V183.035C52.8487 182.722 52.787 182.411 52.6671 182.122C52.5472 181.832 52.3714 181.569 52.1497 181.347C51.9281 181.126 51.665 180.95 51.3754 180.83C51.0858 180.71 50.7755 180.648 50.4621 180.648H37.0085C36.6951 180.648 36.3847 180.71 36.0951 180.83C35.8055 180.95 35.5424 181.126 35.3208 181.347C35.0992 181.569 34.9234 181.832 34.8035 182.122C34.6835 182.411 34.6219 182.722 34.6219 183.035V189.388C34.6228 189.884 34.4681 190.369 34.1795 190.773C33.8908 191.177 33.4828 191.48 33.0128 191.64C31.6789 192.094 30.375 192.631 29.1091 193.25C28.6641 193.466 28.1627 193.538 27.6747 193.456C27.1868 193.373 26.7368 193.141 26.3877 192.79L21.9032 188.305C21.4552 187.858 20.8478 187.606 20.2146 187.606C19.5814 187.606 18.974 187.858 18.526 188.305L9.00949 197.818C8.56195 198.266 8.31056 198.873 8.31056 199.507C8.31056 200.14 8.56195 200.747 9.00949 201.195L13.4145 205.6C13.7685 205.952 14.0027 206.406 14.0837 206.898C14.1648 207.39 14.0887 207.895 13.8661 208.342C13.2213 209.632 12.6614 210.962 12.19 212.325C12.0254 212.79 11.7208 213.192 11.3181 213.477C10.9154 213.761 10.4345 213.914 9.94147 213.913H3.7435C3.43008 213.913 3.1197 213.975 2.8301 214.095C2.5405 214.215 2.27735 214.39 2.05571 214.612C1.83407 214.833 1.65827 215.097 1.53837 215.386C1.41847 215.676 1.35682 215.986 1.35693 216.3V229.758C1.35676 230.071 1.41837 230.381 1.53824 230.671C1.65812 230.961 1.8339 231.224 2.05555 231.446C2.2772 231.667 2.54036 231.843 2.82999 231.963C3.11963 232.083 3.43004 232.144 3.7435 232.144H9.77852C10.2804 232.144 10.7696 232.302 11.1762 232.596C11.5829 232.891 11.8862 233.306 12.043 233.783C12.5085 235.182 13.0657 236.549 13.7107 237.875C13.9295 238.321 14.0036 238.825 13.9226 239.315C13.8417 239.806 13.6098 240.259 13.2591 240.612L9.0086 244.862C8.78682 245.084 8.61087 245.347 8.49082 245.636C8.37077 245.926 8.30898 246.236 8.30898 246.55C8.30898 246.863 8.37077 247.173 8.49082 247.463C8.61087 247.752 8.78682 248.015 9.0086 248.237L18.5251 257.753C18.9731 258.201 19.5805 258.452 20.2137 258.452C20.8469 258.452 21.4543 258.201 21.9023 257.753L26.0693 253.586C26.4244 253.232 26.8818 252.999 27.377 252.919C27.8721 252.839 28.3798 252.917 28.828 253.142C30.1759 253.816 31.5681 254.397 32.995 254.881C33.4681 255.041 33.8792 255.345 34.1707 255.751C34.4622 256.156 34.6195 256.643 34.6206 257.142V263.019C34.6201 263.332 34.6815 263.643 34.8012 263.933C34.9209 264.223 35.0967 264.487 35.3183 264.709C35.54 264.931 35.8032 265.107 36.093 265.227C36.3828 265.347 36.6934 265.409 37.0071 265.409H50.4607C50.7745 265.409 51.0851 265.347 51.3749 265.227C51.6647 265.107 51.9279 264.931 52.1496 264.709C52.3712 264.487 52.5469 264.223 52.6667 263.933C52.7864 263.643 52.8478 263.332 52.8473 263.019V257.142C52.8482 256.643 53.0055 256.156 53.297 255.75C53.5885 255.345 53.9997 255.041 54.4728 254.881C55.8997 254.397 57.2919 253.816 58.6399 253.142C59.0881 252.917 59.5958 252.839 60.0909 252.919C60.586 252.999 61.0435 253.232 61.3985 253.586L65.5651 257.753C66.0131 258.201 66.6205 258.452 67.2537 258.452C67.887 258.452 68.4943 258.201 68.9423 257.753L78.4593 248.237C78.6811 248.015 78.857 247.752 78.9771 247.463C79.0971 247.173 79.1589 246.863 79.1589 246.55C79.1589 246.236 79.0971 245.926 78.9771 245.636C78.857 245.347 78.6811 245.084 78.4593 244.862L74.2087 240.612C73.8581 240.259 73.6262 239.806 73.5452 239.315C73.4643 238.825 73.5384 238.321 73.7572 237.875C74.402 236.549 74.9591 235.182 75.4249 233.783C75.5817 233.306 75.885 232.891 76.2916 232.596C76.6983 232.302 77.1874 232.144 77.6894 232.144H83.7244C84.0378 232.144 84.3483 232.083 84.6379 231.963C84.9275 231.843 85.1907 231.667 85.4123 231.446C85.634 231.224 85.8098 230.961 85.9296 230.671C86.0495 230.381 86.1111 230.071 86.1109 229.758V216.3C86.1111 215.986 86.0495 215.676 85.9297 215.387C85.81 215.097 85.6344 214.834 85.413 214.613C85.1915 214.391 84.9287 214.215 84.6393 214.095C84.35 213.975 84.0398 213.914 83.7266 213.913ZM43.7353 242.915C39.8017 242.915 35.9565 241.749 32.6858 239.563C29.4151 237.378 26.8659 234.272 25.3606 230.638C23.8553 227.004 23.4614 223.005 24.2287 219.147C24.9961 215.289 26.8903 211.745 29.6717 208.964C32.4532 206.182 35.997 204.288 39.8549 203.521C43.7129 202.753 47.7118 203.147 51.3459 204.653C54.98 206.158 58.0861 208.707 60.2715 211.978C62.4568 215.248 63.6231 219.094 63.623 223.027C63.6228 228.302 61.5274 233.36 57.7978 237.09C54.0682 240.819 49.0098 242.915 43.7353 242.915Z" fill="#F4F4F4"/>
<path d="M48.4432 254.395L47.6765 254.479L57.1422 340.978L57.9088 340.894L48.4432 254.395Z" fill="#292A2E"/>
<path d="M72.9589 292.158L68.3022 338.227L69.0696 338.304L73.7263 292.236L72.9589 292.158Z" fill="#292A2E"/>
<path d="M80.9669 332.657H46.4138V343.871H80.9669V332.657Z" fill="#292A2E"/>
<path opacity="0.2" d="M80.9669 332.657H46.4138V343.871H80.9669V332.657Z" fill="white"/>
<path d="M101.798 312.01C108.343 303.31 105.223 289.918 94.8283 282.097C84.4335 274.276 70.7005 274.988 64.1549 283.687C57.6093 292.387 60.7296 305.78 71.1244 313.601C81.5192 321.422 95.2521 320.71 101.798 312.01Z" fill="#0CBC8B"/>
<path opacity="0.2" d="M101.798 312.01C108.343 303.31 105.223 289.918 94.8283 282.097C84.4335 274.276 70.7005 274.988 64.1549 283.687C57.6093 292.387 60.7296 305.78 71.1244 313.601C81.5192 321.422 95.2521 320.71 101.798 312.01Z" fill="white"/>
<path opacity="0.5" d="M101.796 312.012C101.356 312.598 100.877 313.154 100.36 313.675C93.155 318.278 82.5196 317.553 74.0825 311.204C63.6886 303.384 60.5689 289.992 67.1155 281.293C67.5554 280.707 68.0338 280.151 68.5474 279.629C75.7564 275.022 86.3883 275.75 94.8289 282.097C105.222 289.919 108.342 303.312 101.796 312.012Z" fill="white"/>
<path d="M53.5752 279.004C63.8727 271.055 66.6714 257.423 59.8264 248.555C52.9814 239.688 39.0846 238.943 28.7871 246.892C18.4896 254.84 15.6908 268.473 22.5359 277.34C29.3809 286.208 43.2777 286.953 53.5752 279.004Z" fill="#0CBC8B"/>
<path opacity="0.2" d="M50.3136 276.723C42.3387 282.883 32.2036 283.822 24.857 279.812C24.0068 279.063 23.2303 278.234 22.5379 277.337C15.6917 268.472 18.4903 254.838 28.7874 246.891C36.7623 240.735 46.8973 239.793 54.2404 243.799C55.0925 244.549 55.8702 245.378 56.5626 246.277C63.4093 255.142 60.6107 268.776 50.3136 276.723Z" fill="white"/>
<path d="M326.311 197.15H210.429C207.672 197.15 205.437 199.385 205.437 202.142V259.642C205.437 262.4 207.672 264.635 210.429 264.635H326.311C329.068 264.635 331.303 262.4 331.303 259.642V202.142C331.303 199.385 329.068 197.15 326.311 197.15Z" fill="#F4F4F4"/>
<path d="M282.067 235.471H274.034C273.544 235.471 273.148 235.867 273.148 236.357V254.163C273.148 254.652 273.544 255.049 274.034 255.049H282.067C282.556 255.049 282.953 254.652 282.953 254.163V236.357C282.953 235.867 282.556 235.471 282.067 235.471Z" fill="white"/>
<path d="M301.428 216.782H293.394C292.905 216.782 292.508 217.179 292.508 217.668V254.163C292.508 254.652 292.905 255.049 293.394 255.049H301.428C301.917 255.049 302.313 254.652 302.313 254.163V217.668C302.313 217.179 301.917 216.782 301.428 216.782Z" fill="white"/>
<path d="M320.788 231.082H312.755C312.266 231.082 311.869 231.479 311.869 231.968V254.163C311.869 254.652 312.266 255.049 312.755 255.049H320.788C321.278 255.049 321.674 254.652 321.674 254.163V231.968C321.674 231.479 321.278 231.082 320.788 231.082Z" fill="white"/>
<path d="M223.985 235.471H215.952C215.463 235.471 215.066 235.867 215.066 236.357V254.163C215.066 254.652 215.463 255.049 215.952 255.049H223.985C224.474 255.049 224.871 254.652 224.871 254.163V236.357C224.871 235.867 224.474 235.471 223.985 235.471Z" fill="white"/>
<path d="M243.346 216.782H235.313C234.823 216.782 234.427 217.179 234.427 217.668V254.163C234.427 254.652 234.823 255.049 235.313 255.049H243.346C243.835 255.049 244.232 254.652 244.232 254.163V217.668C244.232 217.179 243.835 216.782 243.346 216.782Z" fill="white"/>
<path d="M262.707 231.082H254.673C254.184 231.082 253.787 231.479 253.787 231.968V254.163C253.787 254.652 254.184 255.049 254.673 255.049H262.707C263.196 255.049 263.592 254.652 263.592 254.163V231.968C263.592 231.479 263.196 231.082 262.707 231.082Z" fill="white"/>
<path d="M277.63 23.7766C277.63 23.7766 273.035 19.7991 272.402 11.3091C271.909 4.73776 277.633 9.35549 277.633 9.35549C277.633 9.35549 277.324 4.61877 280.712 5.31498C284.1 6.01119 285.685 11.0703 285.685 11.0703" fill="#0C0C0C"/>
<path d="M298.354 7.0498C298.354 7.0498 315.204 10.0065 307.527 32.5934H302.956" fill="#0C0C0C"/>
<path d="M309.487 324.044C309.487 324.044 307.482 334.434 297.753 335.015C288.023 335.596 290.132 343.345 290.132 343.345H327.314V324.769L309.487 324.044Z" fill="#0D38D3"/>
<path d="M329.836 134.481C329.836 134.481 329.719 131.358 329.743 138.444C329.836 164.875 328.955 330.676 328.955 330.676L304.523 330.471L289.723 133.407L329.836 134.481Z" fill="#262626"/>
<path d="M267.767 324.044C267.767 324.044 265.762 334.434 256.032 335.015C246.303 335.596 248.413 343.345 248.413 343.345H285.594V324.769L267.767 324.044Z" fill="#0D38D3"/>
<path d="M263.041 136.534C263.041 136.534 259.989 226.871 260.306 231.286L263.176 329.99L287.205 330.434L291.079 227.714C291.079 227.714 293.619 199.38 300.465 173.068C303.968 159.564 306.076 145.737 306.756 131.803L263.041 136.534Z" fill="#262626"/>
<path d="M294.74 200.583L292.737 169.942C292.737 169.942 290.679 182.681 290.679 193.66C290.679 199.027 291.785 220.275 291.785 220.275L294.74 200.583Z" fill="#0A0A0A"/>
<path d="M279.377 56.0749C279.452 56.0651 280.282 69.8353 296.279 68.6347C307.353 67.8053 311.302 56.0554 311.556 56.0554C310.362 55.8018 308.886 55.4164 308.3 55.2845C307.022 54.9879 305.864 54.3091 304.981 53.3385C304.098 52.368 303.532 51.1516 303.357 49.8512C303.033 47.8975 303.582 37.9134 303.413 35.9385L286.414 39.733C286.651 43.9036 288.314 53.5729 282.487 55.2841C281.517 55.5674 280.473 55.8276 279.377 56.0749Z" fill="#E98862"/>
<path opacity="0.52" d="M286.175 51.3329C286.442 50.4746 286.613 49.5897 286.687 48.6941C286.874 46.6508 286.837 44.5931 286.576 42.5578C290.031 42.0914 293.286 40.6652 295.971 38.4414C296.287 39.6074 298.023 44.702 297.542 45.8089C296.634 47.9033 292.364 51.3329 286.175 51.3329Z" fill="#0C0C0C"/>
<path d="M289.193 48.0058C295.925 47.854 304.217 44.1624 304.941 35.0873L305.595 26.8984C306.319 17.8227 302.139 10.0854 293.594 9.40426C285.049 8.72225 278.075 15.5698 277.351 24.6454L277.061 28.2708C276.984 29.5172 276.991 30.7675 277.083 32.0129C277.305 35.3066 277.651 40.316 279.641 43.8206C281.521 47.1293 284.892 48.1026 289.193 48.0058Z" fill="#E98862"/>
<path opacity="0.52" d="M286.644 39.4955C285.259 39.4654 283.901 39.1103 282.678 38.4587C282.627 38.4327 282.588 38.3874 282.57 38.3329C282.553 38.2783 282.557 38.219 282.583 38.1679C282.609 38.1168 282.655 38.0781 282.709 38.0604C282.764 38.0426 282.823 38.0473 282.874 38.0733C285.513 39.4133 287.99 39.4089 290.039 38.0609C290.08 38.0321 290.123 38.0057 290.167 37.9818C290.219 37.9567 290.278 37.9531 290.332 37.9718C290.387 37.9905 290.431 38.0299 290.456 38.0815C290.481 38.1331 290.485 38.1925 290.466 38.2468C290.448 38.301 290.408 38.3456 290.357 38.3708C290.34 38.3797 290.312 38.3979 290.277 38.4223C289.2 39.1335 287.935 39.5071 286.644 39.4955Z" fill="#0C0C0C"/>
<path opacity="0.52" d="M286.572 41.545C286.321 41.5437 286.071 41.5209 285.825 41.477C285.797 41.4721 285.77 41.4618 285.746 41.4465C285.722 41.4313 285.701 41.4115 285.685 41.3882C285.668 41.365 285.657 41.3387 285.651 41.311C285.645 41.2833 285.644 41.2546 285.649 41.2266C285.654 41.1986 285.664 41.1719 285.679 41.1479C285.694 41.1239 285.714 41.1032 285.738 41.0868C285.761 41.0705 285.787 41.0589 285.815 41.0527C285.842 41.0465 285.871 41.0459 285.899 41.0508C287.383 41.3101 288.142 40.6729 288.174 40.6454C288.217 40.6076 288.274 40.5885 288.331 40.5923C288.388 40.5961 288.442 40.6224 288.48 40.6656C288.517 40.7088 288.536 40.7652 288.533 40.8224C288.529 40.8797 288.502 40.9331 288.459 40.9709C287.915 41.3746 287.248 41.5775 286.572 41.545Z" fill="#0C0C0C"/>
<path d="M279.885 30.2113C280.469 30.2113 280.941 29.7386 280.941 29.1555C280.941 28.5723 280.469 28.0996 279.885 28.0996C279.302 28.0996 278.83 28.5723 278.83 29.1555C278.83 29.7386 279.302 30.2113 279.885 30.2113Z" fill="#0C0C0C"/>
<path d="M290.558 30.2777C291.141 30.2777 291.614 29.805 291.614 29.2219C291.614 28.6387 291.141 28.166 290.558 28.166C289.975 28.166 289.502 28.6387 289.502 29.2219C289.502 29.805 289.975 30.2777 290.558 30.2777Z" fill="#0C0C0C"/>
<path d="M304.19 37.81C306.786 38.0173 309.113 35.4074 309.32 32.8104C309.527 30.2134 307.537 28.6136 304.94 28.4062L303.463 30.0398L301.957 37.6324L304.19 37.81Z" fill="#E98862"/>
<path d="M259.501 86.3904C260.005 92.3099 262.456 129.242 262.941 136.534H329.708C330.085 129.957 331.779 101.201 333.209 88.3409C334.574 76.0693 337.253 69.9255 335.289 66.2975C332.081 60.3681 323.313 56.9417 317.335 56.1322C313.685 55.6385 308.194 55.2842 308.194 55.2842C308.194 55.2842 307.729 64.6884 296.644 65.2119C281.554 65.9223 282.562 55.2842 282.487 55.2842C280.043 55.2842 266.078 56.8316 262.661 58.8567C253.351 64.37 258.432 73.8457 259.501 86.3904Z" fill="#0D38D3"/>
<path d="M301.884 33.4604C301.884 33.4604 301.868 20.5489 298.023 19.494C295.463 18.7915 288.921 22.0515 283.166 20.5489C280.648 19.8914 278.184 20.3607 277.857 21.5489C277.728 22.0195 276.598 15.0574 280.941 10.1222C284.399 6.19314 294.883 5.72071 299.528 7.39641C312.387 12.0359 305.438 29.0083 305.438 29.0083L304.557 33.4004L301.884 33.4604Z" fill="#0C0C0C"/>
<g opacity="0.52">
<path d="M285.278 36.3569H285.261C284.425 36.2925 283.028 36.0905 283.075 35.4644C283.116 34.9458 284.968 29.4552 285.179 28.8309C285.197 28.7772 285.236 28.7329 285.287 28.7077C285.338 28.6826 285.396 28.6786 285.45 28.6968C285.504 28.7149 285.548 28.7536 285.573 28.8044C285.598 28.8552 285.602 28.9139 285.584 28.9676C284.762 31.3995 283.529 35.1447 283.502 35.4973C283.573 35.6518 284.427 35.8636 285.294 35.9306C285.349 35.9356 285.399 35.9612 285.436 36.0024C285.472 36.0435 285.491 36.097 285.489 36.1518C285.487 36.2066 285.464 36.2585 285.425 36.2968C285.385 36.3351 285.333 36.357 285.278 36.3578V36.3569Z" fill="#0C0C0C"/>
</g>
<path d="M282.852 24.5827C282.177 24.3036 281.44 24.2077 280.716 24.3048C280.347 24.3511 279.988 24.4531 279.65 24.6072C279.305 24.7626 278.98 24.9607 278.684 25.1968L278.66 25.2146C278.584 25.2738 278.487 25.3007 278.391 25.2896C278.295 25.2786 278.208 25.2304 278.147 25.1554C278.086 25.0804 278.057 24.9845 278.066 24.8884C278.075 24.7922 278.121 24.7034 278.195 24.6409C278.523 24.3358 278.888 24.0734 279.282 23.8599C279.682 23.6415 280.112 23.4842 280.558 23.3932C281.005 23.2975 281.463 23.2634 281.919 23.292C282.388 23.3166 282.852 23.4081 283.295 23.5637C283.433 23.6135 283.546 23.7158 283.609 23.8483C283.671 23.9808 283.679 24.1328 283.631 24.2711C283.582 24.4095 283.481 24.523 283.349 24.5869C283.217 24.6509 283.065 24.66 282.926 24.6125C282.913 24.6076 282.899 24.6027 282.887 24.597L282.852 24.5827Z" fill="#0C0C0C"/>
<path d="M289.052 23.6516C289.932 23.3485 290.878 23.2898 291.789 23.4815C292.236 23.5724 292.666 23.7297 293.065 23.9482C293.459 24.1617 293.825 24.4243 294.153 24.7296C294.225 24.7924 294.27 24.8808 294.279 24.9763C294.287 25.0718 294.258 25.1669 294.198 25.2415C294.138 25.316 294.051 25.3642 293.956 25.3758C293.861 25.3875 293.765 25.3616 293.688 25.3038L293.664 25.2851C293.367 25.0488 293.043 24.8507 292.697 24.6955C292.359 24.5412 292 24.4391 291.631 24.3926C290.907 24.2955 290.17 24.3914 289.495 24.6706L289.464 24.6844C289.329 24.7448 289.175 24.7492 289.037 24.6964C288.899 24.6437 288.787 24.5381 288.726 24.4031C288.666 24.268 288.662 24.1144 288.714 23.9762C288.767 23.8379 288.873 23.7263 289.008 23.6658C289.022 23.6618 289.037 23.656 289.052 23.6516Z" fill="#0C0C0C"/>
<path d="M289.953 10.785C290.735 7.99298 289.83 5.29931 287.934 4.76849C286.037 4.23766 283.866 6.07068 283.084 8.86265C282.303 11.6546 283.207 14.3483 285.104 14.8791C287.001 15.4099 289.172 13.5769 289.953 10.785Z" fill="#0C0C0C"/>
<path d="M108.488 21.9297H5.44937C2.43976 21.9297 0 24.3695 0 27.3791V77.5689C0 80.5785 2.43976 83.0183 5.44937 83.0183H108.488C111.497 83.0183 113.937 80.5785 113.937 77.5689V27.3791C113.937 24.3695 111.497 21.9297 108.488 21.9297Z" fill="#F4F4F4"/>
<path d="M69.3676 56.6172H62.0947C61.652 56.6172 61.2932 56.976 61.2932 57.4186V73.5385C61.2932 73.9811 61.652 74.3399 62.0947 74.3399H69.3676C69.8102 74.3399 70.169 73.9811 70.169 73.5385V57.4186C70.169 56.976 69.8102 56.6172 69.3676 56.6172Z" fill="white"/>
<path d="M86.8937 39.7002H79.6208C79.1782 39.7002 78.8193 40.059 78.8193 40.5016V73.5388C78.8193 73.9815 79.1782 74.3403 79.6208 74.3403H86.8937C87.3363 74.3403 87.6951 73.9815 87.6951 73.5388V40.5016C87.6951 40.059 87.3363 39.7002 86.8937 39.7002Z" fill="white"/>
<path d="M104.419 52.6445H97.1462C96.7035 52.6445 96.3447 53.0033 96.3447 53.446V73.5384C96.3447 73.9811 96.7035 74.3399 97.1462 74.3399H104.419C104.862 74.3399 105.221 73.9811 105.221 73.5384V53.446C105.221 53.0033 104.862 52.6445 104.419 52.6445Z" fill="white"/>
<path d="M16.7907 56.6172H9.51775C9.07513 56.6172 8.71631 56.976 8.71631 57.4186V73.5385C8.71631 73.9811 9.07513 74.3399 9.51775 74.3399H16.7907C17.2333 74.3399 17.5921 73.9811 17.5921 73.5385V57.4186C17.5921 56.976 17.2333 56.6172 16.7907 56.6172Z" fill="white"/>
<path d="M34.3163 39.7002H27.0434C26.6008 39.7002 26.2419 40.059 26.2419 40.5016V73.5388C26.2419 73.9815 26.6008 74.3403 27.0434 74.3403H34.3163C34.7589 74.3403 35.1178 73.9815 35.1178 73.5388V40.5016C35.1178 40.059 34.7589 39.7002 34.3163 39.7002Z" fill="white"/>
<path d="M51.8419 52.6445H44.569C44.1264 52.6445 43.7676 53.0033 43.7676 53.446V73.5384C43.7676 73.9811 44.1264 74.3399 44.569 74.3399H51.8419C52.2846 74.3399 52.6434 73.9811 52.6434 73.5384V53.446C52.6434 53.0033 52.2846 52.6445 51.8419 52.6445Z" fill="white"/>
<path d="M245.12 0.444336H58.3461C54.3588 0.444336 51.1265 3.67668 51.1265 7.66398V227.571C51.1265 231.558 54.3588 234.79 58.3461 234.79H245.12C249.107 234.79 252.34 231.558 252.34 227.571V7.66398C252.34 3.67668 249.107 0.444336 245.12 0.444336Z" fill="white"/>
<path d="M245.12 235.234H58.346C56.3142 235.231 54.3663 234.423 52.9296 232.987C51.4929 231.55 50.6847 229.602 50.6824 227.57V7.66366C50.6847 5.63185 51.4929 3.68393 52.9296 2.24723C54.3663 0.810524 56.3142 0.00235027 58.346 0L245.12 0C247.152 0.00235027 249.1 0.810524 250.536 2.24723C251.973 3.68393 252.781 5.63185 252.784 7.66366V227.57C252.781 229.602 251.973 231.55 250.536 232.987C249.1 234.423 247.152 235.231 245.12 235.234ZM58.346 0.888025C56.5497 0.89014 54.8275 1.60468 53.5573 2.8749C52.287 4.14512 51.5725 5.8673 51.5704 7.66366V227.57C51.5725 229.367 52.287 231.089 53.5573 232.359C54.8275 233.629 56.5497 234.344 58.346 234.346H245.12C246.916 234.344 248.638 233.629 249.909 232.359C251.179 231.089 251.893 229.367 251.896 227.57V7.66366C251.893 5.8673 251.179 4.14512 249.909 2.8749C248.638 1.60468 246.916 0.89014 245.12 0.888025H58.346Z" fill="#292A2E"/>
<path d="M172.88 35.8997C175.27 35.8997 177.208 33.9621 177.208 31.5719C177.208 29.1818 175.27 27.2441 172.88 27.2441C170.49 27.2441 168.552 29.1818 168.552 31.5719C168.552 33.9621 170.49 35.8997 172.88 35.8997Z" fill="#0D38D3"/>
<path d="M172.88 35.8997C175.27 35.8997 177.208 33.9621 177.208 31.5719C177.208 29.1818 175.27 27.2441 172.88 27.2441C170.49 27.2441 168.552 29.1818 168.552 31.5719C168.552 33.9621 170.49 35.8997 172.88 35.8997Z" fill="#0D38D3"/>
<path d="M172.88 57.9593C175.27 57.9593 177.208 56.0217 177.208 53.6315C177.208 51.2413 175.27 49.3037 172.88 49.3037C170.49 49.3037 168.552 51.2413 168.552 53.6315C168.552 56.0217 170.49 57.9593 172.88 57.9593Z" fill="#292A2E"/>
<path opacity="0.5" d="M172.88 80.0198C175.27 80.0198 177.208 78.0822 177.208 75.6921C177.208 73.3019 175.27 71.3643 172.88 71.3643C170.49 71.3643 168.552 73.3019 168.552 75.6921C168.552 78.0822 170.49 80.0198 172.88 80.0198Z" fill="#0D38D3"/>
<path opacity="0.2" d="M172.88 102.08C175.27 102.08 177.208 100.143 177.208 97.7526C177.208 95.3624 175.27 93.4248 172.88 93.4248C170.49 93.4248 168.552 95.3624 168.552 97.7526C168.552 100.143 170.49 102.08 172.88 102.08Z" fill="#0D38D3"/>
<path d="M86.9745 64.6618C86.9759 69.9369 88.6128 75.0818 91.6597 79.388C94.7066 83.6942 99.0137 86.9498 103.988 88.7064L96.9919 105.764C87.3707 102.138 79.3267 95.251 74.2613 86.3036C69.1959 77.3562 67.4302 66.9152 69.2719 56.7998C71.1136 46.6843 76.446 37.5356 84.3399 30.9477C92.2338 24.3598 102.189 20.7503 112.471 20.748V39.1661C105.709 39.1661 99.2238 41.8523 94.4423 46.6336C89.6609 51.415 86.9746 57.8999 86.9745 64.6618Z" fill="#292A2E"/>
<path d="M156.385 64.6618H137.967C137.967 57.8999 135.28 51.415 130.499 46.6336C125.718 41.8523 119.233 39.1661 112.471 39.1661V20.748C124.117 20.7488 135.286 25.3756 143.522 33.6108C151.757 41.8461 156.384 53.0153 156.385 64.6618Z" fill="#0D38D3"/>
<path opacity="0.5" d="M156.385 64.6621C156.384 74.6123 153.005 84.2675 146.801 92.0472C140.598 99.8269 131.937 105.27 122.237 107.486L119.116 89.2817C124.527 87.8197 129.305 84.6162 132.713 80.1665C136.12 75.7168 137.967 70.2685 137.969 64.6639L156.385 64.6621Z" fill="#0D38D3"/>
<path opacity="0.2" d="M122.237 107.486C113.835 109.389 105.06 108.79 96.9937 105.765L103.989 88.7061C108.859 90.4149 114.131 90.6147 119.116 89.2793L122.237 107.486Z" fill="#0D38D3"/>
<path d="M233.084 31.8856H182.955C182.871 31.8856 182.791 31.8526 182.733 31.7937C182.674 31.7348 182.641 31.655 182.641 31.5717C182.641 31.4885 182.674 31.4086 182.733 31.3498C182.791 31.2909 182.871 31.2578 182.955 31.2578H233.084C233.167 31.2578 233.247 31.2909 233.306 31.3498C233.364 31.4086 233.397 31.4885 233.397 31.5717C233.397 31.655 233.364 31.7348 233.306 31.7937C233.247 31.8526 233.167 31.8856 233.084 31.8856Z" fill="#0D38D3"/>
<path d="M233.084 53.9472H182.955C182.871 53.9472 182.791 53.9141 182.733 53.8552C182.674 53.7964 182.641 53.7165 182.641 53.6333C182.641 53.55 182.674 53.4702 182.733 53.4113C182.791 53.3524 182.871 53.3193 182.955 53.3193H233.084C233.167 53.3193 233.247 53.3524 233.306 53.4113C233.364 53.4702 233.397 53.55 233.397 53.6333C233.397 53.7165 233.364 53.7964 233.306 53.8552C233.247 53.9141 233.167 53.9472 233.084 53.9472Z" fill="#292A2E"/>
<g opacity="0.5">
<path d="M233.083 76.0065H182.954C182.873 76.0035 182.796 75.9691 182.74 75.9106C182.684 75.8521 182.652 75.774 182.652 75.6928C182.652 75.6116 182.684 75.5336 182.74 75.4751C182.796 75.4166 182.873 75.3822 182.954 75.3791H233.083C233.126 75.3775 233.168 75.3845 233.207 75.3995C233.247 75.4146 233.283 75.4374 233.313 75.4667C233.343 75.496 233.368 75.5311 233.384 75.57C233.401 75.6088 233.409 75.6506 233.409 75.6928C233.409 75.735 233.401 75.7768 233.384 75.8157C233.368 75.8545 233.343 75.8896 233.313 75.9189C233.283 75.9482 233.247 75.9711 233.207 75.9861C233.168 76.0012 233.126 76.0081 233.083 76.0065Z" fill="#0D38D3"/>
</g>
<g opacity="0.2">
<path d="M233.083 98.0661H182.954C182.873 98.063 182.796 98.0286 182.74 97.9702C182.684 97.9117 182.652 97.8336 182.652 97.7524C182.652 97.6712 182.684 97.5931 182.74 97.5346C182.796 97.4761 182.873 97.4418 182.954 97.4387H233.083C233.126 97.4371 233.168 97.444 233.207 97.4591C233.247 97.4741 233.283 97.497 233.313 97.5263C233.343 97.5556 233.368 97.5907 233.384 97.6295C233.401 97.6684 233.409 97.7102 233.409 97.7524C233.409 97.7946 233.401 97.8364 233.384 97.8752C233.368 97.9141 233.343 97.9492 233.313 97.9785C233.283 98.0078 233.247 98.0306 233.207 98.0457C233.168 98.0607 233.126 98.0677 233.083 98.0661Z" fill="#0D38D3"/>
</g>
<g opacity="0.1">
<path d="M233.299 217.962H70.1664C68.748 217.96 67.3883 217.396 66.3854 216.393C65.3825 215.39 64.8184 214.03 64.8169 212.612V129.963C64.8185 128.544 65.3827 127.185 66.3855 126.182C67.3884 125.179 68.7481 124.615 70.1664 124.613H233.299C234.718 124.615 236.077 125.179 237.08 126.182C238.083 127.185 238.647 128.544 238.649 129.963V212.612C238.647 214.03 238.083 215.39 237.08 216.393C236.077 217.396 234.718 217.96 233.299 217.962Z" fill="#0D38D3"/>
</g>
<path opacity="0.5" d="M87.0543 143.361H83.8783C83.4004 143.361 83.0129 143.749 83.0129 144.227V204.897C83.0129 205.375 83.4004 205.762 83.8783 205.762H87.0543C87.5323 205.762 87.9197 205.375 87.9197 204.897V144.227C87.9197 143.749 87.5323 143.361 87.0543 143.361Z" fill="#0D38D3"/>
<path d="M82.1471 162.961H78.9711C78.4932 162.961 78.1057 163.348 78.1057 163.826V204.898C78.1057 205.376 78.4932 205.763 78.9711 205.763H82.1471C82.6251 205.763 83.0125 205.376 83.0125 204.898V163.826C83.0125 163.348 82.6251 162.961 82.1471 162.961Z" fill="#0D38D3"/>
<path opacity="0.5" d="M126.323 197.867H123.147C122.669 197.867 122.281 198.255 122.281 198.733V204.898C122.281 205.376 122.669 205.763 123.147 205.763H126.323C126.801 205.763 127.188 205.376 127.188 204.898V198.733C127.188 198.255 126.801 197.867 126.323 197.867Z" fill="#0D38D3"/>
<path d="M121.416 159.437H118.24C117.762 159.437 117.375 159.824 117.375 160.302V204.897C117.375 205.375 117.762 205.763 118.24 205.763H121.416C121.894 205.763 122.282 205.375 122.282 204.897V160.302C122.282 159.824 121.894 159.437 121.416 159.437Z" fill="#0D38D3"/>
<path opacity="0.5" d="M106.689 168.411H103.513C103.035 168.411 102.647 168.799 102.647 169.277V204.897C102.647 205.375 103.035 205.762 103.513 205.762H106.689C107.167 205.762 107.554 205.375 107.554 204.897V169.277C107.554 168.799 107.167 168.411 106.689 168.411Z" fill="#0D38D3"/>
<path d="M101.781 181.316H98.6054C98.1274 181.316 97.74 181.704 97.74 182.182V204.897C97.74 205.375 98.1274 205.762 98.6054 205.762H101.781C102.259 205.762 102.647 205.375 102.647 204.897V182.182C102.647 181.704 102.259 181.316 101.781 181.316Z" fill="#0D38D3"/>
<path opacity="0.5" d="M185.225 155.431H182.049C181.572 155.431 181.184 155.818 181.184 156.296V204.898C181.184 205.376 181.572 205.763 182.049 205.763H185.225C185.703 205.763 186.091 205.376 186.091 204.898V156.296C186.091 155.818 185.703 155.431 185.225 155.431Z" fill="#0D38D3"/>
<path d="M180.319 173.962H177.143C176.665 173.962 176.277 174.349 176.277 174.827V204.898C176.277 205.376 176.665 205.764 177.143 205.764H180.319C180.797 205.764 181.184 205.376 181.184 204.898V174.827C181.184 174.349 180.797 173.962 180.319 173.962Z" fill="#0D38D3"/>
<path opacity="0.5" d="M145.957 163.281H142.781C142.303 163.281 141.916 163.669 141.916 164.147V204.897C141.916 205.375 142.303 205.763 142.781 205.763H145.957C146.435 205.763 146.822 205.375 146.822 204.897V164.147C146.822 163.669 146.435 163.281 145.957 163.281Z" fill="#0D38D3"/>
<path d="M141.05 168.091H137.874C137.396 168.091 137.009 168.478 137.009 168.956V204.897C137.009 205.375 137.396 205.763 137.874 205.763H141.05C141.528 205.763 141.916 205.375 141.916 204.897V168.956C141.916 168.478 141.528 168.091 141.05 168.091Z" fill="#0D38D3"/>
<path opacity="0.5" d="M165.591 143.361H162.415C161.937 143.361 161.55 143.749 161.55 144.227V204.897C161.55 205.375 161.937 205.762 162.415 205.762H165.591C166.069 205.762 166.457 205.375 166.457 204.897V144.227C166.457 143.749 166.069 143.361 165.591 143.361Z" fill="#0D38D3"/>
<path d="M160.684 146.367H157.508C157.031 146.367 156.643 146.755 156.643 147.233V204.897C156.643 205.375 157.031 205.762 157.508 205.762H160.684C161.162 205.762 161.55 205.375 161.55 204.897V147.233C161.55 146.755 161.162 146.367 160.684 146.367Z" fill="#0D38D3"/>
<path opacity="0.5" d="M204.86 143.361H201.684C201.206 143.361 200.818 143.749 200.818 144.227V204.897C200.818 205.375 201.206 205.762 201.684 205.762H204.86C205.338 205.762 205.725 205.375 205.725 204.897V144.227C205.725 143.749 205.338 143.361 204.86 143.361Z" fill="#0D38D3"/>
<path d="M199.953 162.961H196.777C196.299 162.961 195.912 163.348 195.912 163.826V204.898C195.912 205.376 196.299 205.763 196.777 205.763H199.953C200.431 205.763 200.818 205.376 200.818 204.898V163.826C200.818 163.348 200.431 162.961 199.953 162.961Z" fill="#0D38D3"/>
<path opacity="0.5" d="M224.494 168.411H221.318C220.84 168.411 220.453 168.799 220.453 169.277V204.897C220.453 205.375 220.84 205.762 221.318 205.762H224.494C224.972 205.762 225.359 205.375 225.359 204.897V169.277C225.359 168.799 224.972 168.411 224.494 168.411Z" fill="#0D38D3"/>
<path d="M219.587 181.316H216.411C215.933 181.316 215.546 181.704 215.546 182.182V204.897C215.546 205.375 215.933 205.762 216.411 205.762H219.587C220.065 205.762 220.453 205.375 220.453 204.897V182.182C220.453 181.704 220.065 181.316 219.587 181.316Z" fill="#0D38D3"/>
<path d="M244.845 131.495C242.87 131.492 240.93 130.973 239.217 129.988C237.505 129.004 236.08 127.589 235.083 125.883C234.087 124.177 233.554 122.241 233.537 120.266C233.521 118.29 234.021 116.345 234.988 114.623L261.976 66.6208C262.701 65.3177 263.676 64.1706 264.845 63.2454C266.015 62.3202 267.356 61.6352 268.791 61.2296C270.225 60.824 271.726 60.7059 273.207 60.8819C274.688 61.058 276.119 61.5249 277.419 62.2557C278.719 62.9865 279.862 63.9668 280.781 65.1404C281.701 66.3141 282.38 67.6578 282.779 69.0946C283.179 70.5314 283.29 72.0328 283.107 73.5127C282.924 74.9927 282.451 76.4219 281.714 77.7184L254.727 125.721C253.742 127.474 252.307 128.934 250.57 129.949C248.833 130.964 246.857 131.498 244.845 131.495Z" fill="#0D38D3"/>
<path d="M261.422 113.808L261.018 105.623" stroke="#0C0C0C" stroke-width="0.75" stroke-linecap="round" stroke-linejoin="round"/>
<path d="M294.144 92.1165L287.161 83.9427C287.011 83.767 286.827 83.6238 286.619 83.5217C286.412 83.4196 286.186 83.3608 285.955 83.3489C285.724 83.337 285.494 83.3723 285.277 83.4526C285.06 83.5328 284.862 83.6564 284.695 83.8157C284.381 84.1353 284.201 84.562 284.19 85.0094C284.18 85.4568 284.339 85.8915 284.637 86.2258L286.129 87.9726L293.594 93.6426L294.144 92.1165Z" fill="#E98862"/>
<path d="M283.191 94.2708L261.142 95.6446C260.257 95.6998 259.383 95.425 258.688 94.8734C257.994 94.3217 257.529 93.5324 257.382 92.6577L251.935 60.1191C251.852 59.6238 251.874 59.1167 252 58.6304C252.125 58.1442 252.352 57.6898 252.664 57.2966C252.976 56.9034 253.368 56.5802 253.813 56.3479C254.258 56.1156 254.747 55.9794 255.249 55.9481L277.298 54.5743C278.183 54.5192 279.057 54.7941 279.751 55.3458C280.446 55.8975 280.911 56.6869 281.057 57.5616L286.503 90.0998C286.586 90.5949 286.564 91.102 286.439 91.5882C286.313 92.0743 286.087 92.5287 285.775 92.9218C285.463 93.315 285.071 93.6383 284.626 93.8706C284.181 94.103 283.692 94.2393 283.191 94.2708Z" fill="#292A2E"/>
<path d="M286.129 87.9719L278.891 84.6214C278.092 84.2351 276.866 84.2715 276.491 85.1955C276.324 85.5415 276.279 85.934 276.364 86.3088C276.449 86.6836 276.658 87.0187 276.958 87.2593C276.952 87.2663 276.946 87.2739 276.942 87.2819C276.94 87.2883 276.939 87.2949 276.938 87.3015L275.706 86.7052C275.48 86.5954 275.231 86.5374 274.979 86.5354C274.727 86.5333 274.478 86.5871 274.249 86.6931C274.021 86.799 273.818 86.9544 273.657 87.148C273.496 87.3416 273.38 87.5685 273.317 87.8125C273.224 88.2034 273.27 88.6142 273.445 88.9754C273.621 89.3366 273.916 89.626 274.281 89.7946L274.805 90.0486C274.804 90.0676 274.807 90.0866 274.814 90.1045C274.424 90.0158 274.016 90.0673 273.66 90.2499C273.304 90.4326 273.025 90.7346 272.87 91.1031C272.711 91.5216 272.717 91.9846 272.887 92.3987C273.056 92.8128 273.377 93.1471 273.784 93.3338L275.071 93.9554C275.047 93.9596 275.023 93.9695 275.003 93.9844C274.983 93.9993 274.967 94.0188 274.956 94.0411C274.944 94.0699 274.94 94.1018 274.946 94.1326C274.584 94.1489 274.236 94.2808 273.955 94.509C273.673 94.7373 273.471 95.0497 273.38 95.4007C273.288 95.7916 273.333 96.2025 273.509 96.5638C273.684 96.9251 273.98 97.2145 274.344 97.3832L285.322 102.7C286.858 103.443 288.581 103.711 290.27 103.469C291.96 103.227 293.538 102.486 294.803 101.342L298.877 97.6563L286.129 87.9719Z" fill="#E98862"/>
<g opacity="0.2">
<path d="M284.104 90.612C284.086 90.6487 284.054 90.6768 284.016 90.6904C283.977 90.704 283.935 90.702 283.898 90.6848L277.015 87.4879C276.997 87.4792 276.98 87.4668 276.966 87.4516C276.952 87.4364 276.941 87.4185 276.934 87.3991C276.927 87.3797 276.924 87.3591 276.925 87.3385C276.926 87.3179 276.931 87.2977 276.94 87.279C276.948 87.2603 276.961 87.2435 276.976 87.2296C276.991 87.2157 277.009 87.2049 277.028 87.1979C277.048 87.1908 277.068 87.1877 277.089 87.1886C277.11 87.1896 277.13 87.1945 277.149 87.2033L284.031 90.398C284.069 90.4155 284.098 90.4474 284.112 90.4865C284.126 90.5256 284.125 90.5688 284.107 90.6067L284.104 90.612Z" fill="#0C0C0C"/>
</g>
<g opacity="0.2">
<path d="M282.779 93.6865C282.761 93.7233 282.729 93.7516 282.69 93.7653C282.652 93.7789 282.609 93.777 282.572 93.7598L274.894 90.1944C274.857 90.1767 274.827 90.1449 274.813 90.1058C274.799 90.0667 274.801 90.0235 274.818 89.9857C274.837 89.9489 274.868 89.9206 274.907 89.9064C274.946 89.8922 274.989 89.8933 275.027 89.9093L282.704 93.4747C282.742 93.4924 282.771 93.5242 282.786 93.5633C282.8 93.6024 282.798 93.6456 282.781 93.6834L282.779 93.6865Z" fill="#0C0C0C"/>
</g>
<g opacity="0.2">
<path d="M281.363 97.0227C281.345 97.0594 281.313 97.0877 281.275 97.1014C281.236 97.1151 281.193 97.1131 281.156 97.0959L275.031 94.2516C275.013 94.2428 274.996 94.2305 274.982 94.2153C274.968 94.2 274.957 94.1822 274.95 94.1628C274.943 94.1434 274.94 94.1228 274.941 94.1022C274.942 94.0816 274.947 94.0614 274.956 94.0427C274.964 94.024 274.977 94.0072 274.992 93.9933C275.007 93.9794 275.025 93.9686 275.045 93.9615C275.064 93.9545 275.085 93.9514 275.105 93.9523C275.126 93.9532 275.146 93.9582 275.165 93.967L281.289 96.8109C281.327 96.8286 281.356 96.8605 281.37 96.8996C281.385 96.9387 281.383 96.9818 281.365 97.0195L281.363 97.0227Z" fill="#0C0C0C"/>
</g>
<path d="M285.684 105.852L333.308 129.213C335.324 130.141 337.562 130.481 339.763 130.192C341.964 129.903 344.038 128.997 345.747 127.58C347.455 126.163 348.728 124.291 349.418 122.181C350.108 120.072 350.188 117.81 349.647 115.657L336.931 69.937C336.171 66.9091 334.24 64.3069 331.562 62.7029C328.884 61.0989 325.678 60.6245 322.65 61.384C316.345 62.966 312.96 69.3593 314.542 75.6648L324.519 100.385L294.002 87.5905L285.684 105.852Z" fill="#0D38D3"/>
<path d="M330.174 127.93C330.16 127.928 330.146 127.923 330.133 127.916L285.616 105.993C285.579 105.975 285.551 105.944 285.537 105.905C285.523 105.867 285.524 105.825 285.541 105.787L293.858 87.5255C293.875 87.4881 293.906 87.4587 293.944 87.4437C293.982 87.4288 294.025 87.4295 294.062 87.4456L323.833 99.6693L317.941 81.9234C317.936 81.9036 317.934 81.8828 317.936 81.8624C317.939 81.8419 317.945 81.8221 317.955 81.8041C317.965 81.7861 317.979 81.7703 317.995 81.7575C318.011 81.7447 318.03 81.7352 318.049 81.7296C318.069 81.724 318.09 81.7223 318.11 81.7247C318.131 81.7271 318.151 81.7335 318.169 81.7435C318.187 81.7536 318.203 81.767 318.215 81.7832C318.228 81.7994 318.238 81.8179 318.243 81.8377L324.224 99.8979C324.232 99.9264 324.232 99.9566 324.224 99.985C324.215 100.013 324.199 100.039 324.177 100.059C324.155 100.078 324.128 100.091 324.098 100.096C324.069 100.101 324.039 100.097 324.012 100.086L294.081 87.7941L285.891 105.777L330.269 127.633C330.303 127.649 330.33 127.678 330.345 127.712C330.359 127.747 330.361 127.786 330.35 127.822C330.338 127.858 330.314 127.888 330.282 127.908C330.25 127.928 330.211 127.935 330.174 127.929V127.93Z" fill="#0C0C0C"/>
<path d="M329.413 102.494C329.4 102.492 329.388 102.488 329.376 102.483L324.01 100.085C323.991 100.077 323.974 100.065 323.96 100.05C323.946 100.035 323.935 100.017 323.928 99.998C323.92 99.9788 323.917 99.9583 323.917 99.9377C323.918 99.9171 323.922 99.8968 323.931 99.878C323.939 99.8592 323.951 99.8423 323.966 99.8281C323.981 99.8139 323.999 99.8029 324.018 99.7955C324.037 99.7882 324.058 99.7847 324.078 99.7852C324.099 99.7858 324.119 99.7904 324.138 99.7988L329.504 102.196C329.538 102.212 329.566 102.24 329.581 102.274C329.597 102.309 329.6 102.348 329.589 102.384C329.578 102.42 329.555 102.451 329.523 102.471C329.491 102.492 329.452 102.5 329.415 102.494H329.413Z" fill="#0C0C0C"/>
<path d="M268.754 70.461C268.525 70.1744 268.21 69.9695 267.855 69.877C267.5 69.7845 267.125 69.8093 266.786 69.9477C266.783 69.9266 266.776 69.9064 266.764 69.8888C266.752 69.8713 266.736 69.8569 266.717 69.847C266.698 69.8372 266.677 69.832 266.656 69.832C266.635 69.8321 266.614 69.8374 266.595 69.8473L267.521 68.7284C267.806 68.3978 267.957 67.9733 267.947 67.5371C267.936 67.1009 267.764 66.6842 267.464 66.3676C267.173 66.0791 266.786 65.9058 266.377 65.8796C265.968 65.8534 265.563 65.9761 265.237 66.2251C265.237 66.2082 265.221 66.1958 265.214 66.1807L265.593 65.7229C265.853 65.4201 266.001 65.0372 266.012 64.6383C266.024 64.2394 265.898 63.8486 265.656 63.5313C265.498 63.3331 265.298 63.1726 265.071 63.0615C264.843 62.9504 264.594 62.8914 264.34 62.889C264.087 62.8865 263.836 62.9406 263.607 63.0472C263.377 63.1539 263.174 63.3104 263.012 63.5055L262.137 64.5623C262.132 64.5569 262.133 64.5485 262.128 64.5436C262.122 64.5387 262.11 64.5396 262.102 64.5347C262.276 64.191 262.328 63.7982 262.25 63.4209C262.172 63.0436 261.967 62.7041 261.671 62.4581C260.946 61.7734 259.815 62.2503 259.25 62.9341L253.904 69.2768L254.058 68.99L254.692 66.7734C254.82 66.3563 254.788 65.9066 254.604 65.5113C254.419 65.116 254.094 64.8033 253.692 64.6337C253.472 64.5489 253.236 64.5109 253 64.5221C252.764 64.5333 252.533 64.5935 252.322 64.6989C252.11 64.8042 251.923 64.9525 251.772 65.1341C251.621 65.3158 251.51 65.5269 251.445 65.754L248.491 76.0906L247.774 78.6006C247.43 79.8045 247.568 81.0951 248.161 82.1983C248.753 83.3014 249.752 84.13 250.946 84.5082L251.727 84.7555C253.353 85.2709 255.097 85.2887 256.734 84.8067C258.371 84.3247 259.826 83.3648 260.914 82.0501L268.69 72.6522C268.95 72.3495 269.098 71.9667 269.11 71.5678C269.121 71.1689 268.996 70.7782 268.754 70.461Z" fill="#E98862"/>
<g opacity="0.2">
<path d="M256.997 70.5494C257.029 70.5753 257.069 70.5877 257.11 70.5841C257.151 70.5804 257.189 70.561 257.216 70.5299L262.144 64.7644C262.159 64.7489 262.17 64.7307 262.178 64.7107C262.185 64.6907 262.188 64.6694 262.187 64.6481C262.186 64.6268 262.181 64.606 262.171 64.5868C262.162 64.5677 262.149 64.5507 262.132 64.5368C262.116 64.523 262.097 64.5125 262.077 64.5062C262.057 64.4998 262.035 64.4977 262.014 64.4998C261.993 64.502 261.972 64.5085 261.954 64.5189C261.935 64.5292 261.919 64.5433 261.906 64.5601L256.977 70.3257C256.964 70.3413 256.953 70.3595 256.947 70.3792C256.941 70.3989 256.938 70.4196 256.94 70.4403C256.941 70.4609 256.947 70.481 256.956 70.4994C256.966 70.5178 256.979 70.5342 256.994 70.5477L256.997 70.5494Z" fill="#0C0C0C"/>
</g>
<g opacity="0.2">
<path d="M259.481 72.7934C259.512 72.8193 259.553 72.8317 259.594 72.8281C259.635 72.8244 259.672 72.805 259.699 72.7739L265.2 66.3397C265.214 66.324 265.224 66.3058 265.231 66.2861C265.237 66.2665 265.24 66.2457 265.238 66.2251C265.236 66.2045 265.231 66.1844 265.221 66.1659C265.212 66.1475 265.199 66.1311 265.183 66.1177C265.151 66.0919 265.11 66.0793 265.069 66.0825C265.027 66.0857 264.989 66.1045 264.961 66.135L259.46 72.5692C259.447 72.5849 259.437 72.6031 259.43 72.6228C259.424 72.6424 259.421 72.6632 259.423 72.6838C259.424 72.7044 259.43 72.7245 259.44 72.743C259.449 72.7614 259.462 72.7778 259.478 72.7912L259.481 72.7934Z" fill="#0C0C0C"/>
</g>
<g opacity="0.2">
<path d="M262.155 75.2395C262.187 75.2654 262.227 75.2778 262.268 75.2741C262.309 75.2705 262.347 75.2511 262.373 75.22L266.762 70.0876C266.776 70.0722 266.788 70.0539 266.795 70.0339C266.802 70.0139 266.806 69.9926 266.805 69.9713C266.803 69.95 266.798 69.9292 266.789 69.9101C266.779 69.891 266.766 69.8739 266.75 69.8601C266.734 69.8462 266.715 69.8358 266.695 69.8294C266.674 69.8231 266.653 69.8209 266.632 69.8231C266.61 69.8253 266.59 69.8317 266.571 69.8421C266.553 69.8525 266.536 69.8665 266.523 69.8834L262.135 75.0162C262.121 75.0319 262.111 75.0501 262.104 75.0698C262.098 75.0895 262.096 75.1102 262.097 75.1309C262.099 75.1515 262.105 75.1716 262.114 75.1901C262.124 75.2085 262.137 75.2248 262.152 75.2382L262.155 75.2395Z" fill="#0C0C0C"/>
</g>
<path d="M265.238 81.7237L256.475 121.126C255.977 124.208 254.276 126.966 251.744 128.793C249.213 130.62 246.06 131.366 242.978 130.868C239.896 130.37 237.138 128.668 235.311 126.137C233.484 123.606 232.738 120.453 233.236 117.371L245.266 75.2744" fill="#0D38D3"/>
<path d="M257.157 113.809L262.098 95.6592" stroke="#0C0C0C" stroke-width="0.75" stroke-linecap="round" stroke-linejoin="round"/>
<path d="M340.636 344.208H31.5463C31.4285 344.208 31.3156 344.162 31.2323 344.078C31.1491 343.995 31.1023 343.882 31.1023 343.764C31.1023 343.647 31.1491 343.534 31.2323 343.45C31.3156 343.367 31.4285 343.32 31.5463 343.32H340.636C340.754 343.32 340.867 343.367 340.95 343.45C341.034 343.534 341.08 343.647 341.08 343.764C341.08 343.882 341.034 343.995 340.95 344.078C340.867 344.162 340.754 344.208 340.636 344.208Z" fill="#292A2E"/>
</svg>
