<svg width="20" height="20" viewBox="0 0 20 20" fill="none" xmlns="http://www.w3.org/2000/svg">
<path fill-rule="evenodd" clip-rule="evenodd" d="M10.0007 13.7842C9.65573 13.7842 9.37573 13.5042 9.37573 13.1592V3.125C9.37573 2.78 9.65573 2.5 10.0007 2.5C10.3457 2.5 10.6257 2.78 10.6257 3.125V13.1592C10.6257 13.5042 10.3457 13.7842 10.0007 13.7842Z" fill="#124AF6"/>
<path fill-rule="evenodd" clip-rule="evenodd" d="M10.0008 13.7845C9.83494 13.7845 9.67494 13.7187 9.55827 13.6004L7.12827 11.1612C6.88494 10.9162 6.88577 10.5204 7.12994 10.277C7.37494 10.0337 7.76994 10.0337 8.01327 10.2787L10.0008 12.2745L11.9883 10.2787C12.2316 10.0337 12.6266 10.0337 12.8716 10.277C13.1158 10.5204 13.1166 10.9162 12.8733 11.1612L10.4433 13.6004C10.3266 13.7187 10.1666 13.7845 10.0008 13.7845Z" fill="#124AF6"/>
<mask id="mask0_724_1575" style="mask-type:luminance" maskUnits="userSpaceOnUse" x="1" y="6" width="18" height="12">
<path fill-rule="evenodd" clip-rule="evenodd" d="M1.66675 6.44336H18.3332V17.8967H1.66675V6.44336Z" fill="white"/>
</mask>
<g mask="url(#mask0_724_1575)">
<path fill-rule="evenodd" clip-rule="evenodd" d="M14.6459 17.8967H5.36258C3.32508 17.8967 1.66675 16.2392 1.66675 14.2009V10.13C1.66675 8.09669 3.32091 6.44336 5.35508 6.44336H6.13925C6.48425 6.44336 6.76425 6.72336 6.76425 7.06836C6.76425 7.41336 6.48425 7.69336 6.13925 7.69336H5.35508C4.01008 7.69336 2.91675 8.78586 2.91675 10.13V14.2009C2.91675 15.55 4.01341 16.6467 5.36258 16.6467H14.6459C15.9892 16.6467 17.0834 15.5525 17.0834 14.2092V10.1392C17.0834 8.79003 15.9859 7.69336 14.6384 7.69336H13.8617C13.5167 7.69336 13.2367 7.41336 13.2367 7.06836C13.2367 6.72336 13.5167 6.44336 13.8617 6.44336H14.6384C16.6759 6.44336 18.3334 8.10169 18.3334 10.1392V14.2092C18.3334 16.2425 16.6784 17.8967 14.6459 17.8967Z" fill="#124AF6"/>
</g>
</svg>
