<svg width="28" height="28" viewBox="0 0 28 28" fill="none" xmlns="http://www.w3.org/2000/svg">
<path fill-rule="evenodd" clip-rule="evenodd" d="M13.708 18.8465C13.225 18.8465 12.833 18.4545 12.833 17.9715V9.42334C12.833 8.94034 13.225 8.54834 13.708 8.54834C14.191 8.54834 14.583 8.94034 14.583 9.42334V17.9715C14.583 18.4545 14.191 18.8465 13.708 18.8465Z" fill="#61646B"/>
<path fill-rule="evenodd" clip-rule="evenodd" d="M17.9858 14.5718H9.43066C8.9465 14.5718 8.55566 14.1798 8.55566 13.6968C8.55566 13.2138 8.9465 12.8218 9.43066 12.8218H17.9858C18.4688 12.8218 18.8608 13.2138 18.8608 13.6968C18.8608 14.1798 18.4688 14.5718 17.9858 14.5718Z" fill="#61646B"/>
<path fill-rule="evenodd" clip-rule="evenodd" d="M8.24117 2.9165C5.00717 2.9165 2.9165 5.12967 2.9165 8.55734V18.859C2.9165 22.2867 5.00717 24.4998 8.24117 24.4998H19.1752C22.4103 24.4998 24.4998 22.2867 24.4998 18.859V8.55734C24.4998 5.12967 22.4103 2.9165 19.1752 2.9165H8.24117ZM19.1752 26.2498H8.24117C4.00967 26.2498 1.1665 23.2795 1.1665 18.859V8.55734C1.1665 4.13684 4.00967 1.1665 8.24117 1.1665H19.1752C23.4067 1.1665 26.2498 4.13684 26.2498 8.55734V18.859C26.2498 23.2795 23.4067 26.2498 19.1752 26.2498Z" fill="#61646B"/>
</svg>
