<svg width="18" height="18" viewBox="0 0 18 18" fill="none" xmlns="http://www.w3.org/2000/svg">
<path fill-rule="evenodd" clip-rule="evenodd" d="M7.00223 11.6142C6.84223 11.6142 6.68223 11.5534 6.56057 11.4309C6.3164 11.1867 6.3164 10.7917 6.56057 10.5476L10.5539 6.55422C10.7981 6.31005 11.1931 6.31005 11.4372 6.55422C11.6814 6.79839 11.6814 7.19339 11.4372 7.43755L7.4439 11.4309C7.32223 11.5534 7.16223 11.6142 7.00223 11.6142Z" fill="#FC622A"/>
<path fill-rule="evenodd" clip-rule="evenodd" d="M10.9972 11.6164C10.8372 11.6164 10.6772 11.5556 10.5555 11.4331L6.55886 7.4356C6.31469 7.19143 6.31469 6.79643 6.55886 6.55227C6.80386 6.3081 7.19886 6.3081 7.44219 6.55227L11.4389 10.5498C11.683 10.7939 11.683 11.1889 11.4389 11.4331C11.3172 11.5556 11.1564 11.6164 10.9972 11.6164Z" fill="#FC622A"/>
<path fill-rule="evenodd" clip-rule="evenodd" d="M5.38758 1.91699C3.27925 1.91699 1.91675 3.36116 1.91675 5.59699V12.4037C1.91675 14.6395 3.27925 16.0837 5.38758 16.0837H12.6109C14.7201 16.0837 16.0834 14.6395 16.0834 12.4037V5.59699C16.0834 3.36116 14.7201 1.91699 12.6117 1.91699H5.38758ZM12.6109 17.3337H5.38758C2.56341 17.3337 0.666748 15.352 0.666748 12.4037V5.59699C0.666748 2.64866 2.56341 0.666992 5.38758 0.666992H12.6117C15.4359 0.666992 17.3334 2.64866 17.3334 5.59699V12.4037C17.3334 15.352 15.4359 17.3337 12.6109 17.3337Z" fill="#FC622A"/>
</svg>
